<svg width="219" height="302" viewBox="0 0 219 302" fill="none" xmlns="http://www.w3.org/2000/svg">
<path d="M109.459 68.4118V109.459L164.188 54.7294L109.459 0V41.0471C48.9828 41.0471 0 90.0299 0 150.506C0 171.987 6.29388 191.963 16.9661 208.793L36.9424 188.816C30.7853 177.46 27.3647 164.325 27.3647 150.506C27.3647 105.217 64.1702 68.4118 109.459 68.4118ZM201.952 92.2191L181.975 112.195C187.996 123.688 191.553 136.687 191.553 150.506C191.553 195.794 154.747 232.6 109.459 232.6V191.553L54.7294 246.282L109.459 301.012V259.965C169.935 259.965 218.918 210.982 218.918 150.506C218.918 129.025 212.624 109.048 201.952 92.2191Z" fill="black"/>
</svg>
