<svg width="219" height="147" viewBox="0 0 219 147" fill="none" xmlns="http://www.w3.org/2000/svg">
<path d="M176.502 55.3001C170.3 23.8307 142.661 0.205811 109.459 0.205811C83.0975 0.205811 60.2024 15.1652 48.8004 37.0569C21.3445 39.9758 0 63.2358 0 91.4215C0 121.614 24.537 146.151 54.7294 146.151H173.31C198.485 146.151 218.918 125.719 218.918 100.543C218.918 76.4621 200.218 56.942 176.502 55.3001ZM173.31 127.908H54.7294C34.5707 127.908 18.2431 111.58 18.2431 91.4215C18.2431 71.2628 34.5707 54.9352 54.7294 54.9352H61.2057C67.226 33.8644 86.4725 18.4489 109.459 18.4489C137.188 18.4489 159.627 40.888 159.627 68.6176V73.1784H173.31C188.452 73.1784 200.675 85.4013 200.675 100.543C200.675 115.685 188.452 127.908 173.31 127.908Z" fill="black"/>
</svg>
