<svg width="135" height="267" viewBox="0 0 135 267" fill="none" xmlns="http://www.w3.org/2000/svg">
<circle cx="7.25765" cy="94.2058" r="5.30613" transform="rotate(-30.278 7.25765 94.2058)" fill="#464749"/>
<ellipse cx="37.0427" cy="76.8162" rx="5.30613" ry="5.30613" transform="rotate(-30.278 37.0427 76.8162)" fill="#464749"/>
<ellipse cx="66.8278" cy="59.4265" rx="5.30613" ry="5.30613" transform="rotate(-30.278 66.8278 59.4265)" fill="#464749"/>
<ellipse cx="96.6129" cy="42.0369" rx="5.30613" ry="5.30613" transform="rotate(-30.278 96.6129 42.0369)" fill="#464749"/>
<ellipse cx="126.398" cy="24.6472" rx="5.30614" ry="5.30613" transform="rotate(-30.278 126.398 24.6472)" fill="#464749"/>
<circle cx="23.3097" cy="121.7" r="5.30613" transform="rotate(-30.278 23.3097 121.7)" fill="#464749"/>
<ellipse cx="53.0947" cy="104.31" rx="5.30614" ry="5.30613" transform="rotate(-30.278 53.0947 104.31)" fill="#464749"/>
<ellipse cx="82.8798" cy="86.9204" rx="5.30613" ry="5.30614" transform="rotate(-30.278 82.8798 86.9204)" fill="#464749"/>
<ellipse cx="112.665" cy="69.5308" rx="5.30613" ry="5.30613" transform="rotate(-30.278 112.665 69.5308)" fill="#464749"/>
<ellipse cx="39.3616" cy="149.194" rx="5.30613" ry="5.30613" transform="rotate(-30.278 39.3616 149.194)" fill="#464749"/>
<ellipse cx="69.1467" cy="131.804" rx="5.30613" ry="5.30614" transform="rotate(-30.278 69.1467 131.804)" fill="#464749"/>
<ellipse cx="98.9318" cy="114.414" rx="5.30614" ry="5.30614" transform="rotate(-30.278 98.9318 114.414)" fill="#464749"/>
<ellipse cx="128.717" cy="97.0248" rx="5.30613" ry="5.30613" transform="rotate(-30.278 128.717 97.0248)" fill="#464749"/>
<ellipse cx="55.4136" cy="176.688" rx="5.30613" ry="5.30613" transform="rotate(-30.278 55.4136 176.688)" fill="#464749"/>
<ellipse cx="85.1987" cy="159.298" rx="5.30614" ry="5.30614" transform="rotate(-30.278 85.1987 159.298)" fill="#464749"/>
<ellipse cx="114.984" cy="141.908" rx="5.30613" ry="5.30614" transform="rotate(-30.278 114.984 141.908)" fill="#464749"/>
<ellipse cx="71.4655" cy="204.182" rx="5.30613" ry="5.30614" transform="rotate(-30.278 71.4655 204.182)" fill="#464749"/>
<ellipse cx="101.251" cy="186.792" rx="5.30613" ry="5.30614" transform="rotate(-30.278 101.251 186.792)" fill="#464749"/>
<ellipse cx="131.036" cy="169.402" rx="5.30613" ry="5.30614" transform="rotate(-30.278 131.036 169.402)" fill="#464749"/>
<ellipse cx="87.5175" cy="231.675" rx="5.30613" ry="5.30614" transform="rotate(-30.278 87.5175 231.675)" fill="#464749"/>
<ellipse cx="117.303" cy="214.286" rx="5.30614" ry="5.30614" transform="rotate(-30.278 117.303 214.286)" fill="#464749"/>
<ellipse cx="103.57" cy="259.169" rx="5.30613" ry="5.30613" transform="rotate(-30.278 103.57 259.169)" fill="#464749"/>
<ellipse cx="133.355" cy="241.78" rx="5.30613" ry="5.30613" transform="rotate(-30.278 133.355 241.78)" fill="#464749"/>
</svg>
