<svg width="24" height="24" viewBox="0 0 24 24" fill="none" xmlns="http://www.w3.org/2000/svg">
<path d="M22.5 7.5C22.9125 7.5 23.25 7.1625 23.25 6.75C23.25 6.3375 22.9125 6 22.5 6H20.9288C20.6363 4.52625 19.4737 3.36375 18 3.07125V1.5C18 1.0875 17.6625 0.75 17.25 0.75C16.8375 0.75 16.5 1.0875 16.5 1.5V3H15.375V1.5C15.375 1.0875 15.0375 0.75 14.625 0.75C14.2125 0.75 13.875 1.0875 13.875 1.5V3H12.75V1.5C12.75 1.0875 12.4125 0.75 12 0.75C11.5875 0.75 11.25 1.0875 11.25 1.5V3H10.125V1.5C10.125 1.0875 9.7875 0.75 9.375 0.75C8.9625 0.75 8.625 1.0875 8.625 1.5V3H7.5V1.5C7.5 1.0875 7.1625 0.75 6.75 0.75C6.3375 0.75 6 1.0875 6 1.5V3.07125C4.52625 3.36375 3.36375 4.52625 3.07125 6H1.5C1.0875 6 0.75 6.3375 0.75 6.75C0.75 7.1625 1.0875 7.5 1.5 7.5H3V8.625H1.5C1.0875 8.625 0.75 8.9625 0.75 9.375C0.75 9.7875 1.0875 10.125 1.5 10.125H3V11.25H1.5C1.0875 11.25 0.75 11.5875 0.75 12C0.75 12.4125 1.0875 12.75 1.5 12.75H3V13.875H1.5C1.0875 13.875 0.75 14.2125 0.75 14.625C0.75 15.0375 1.0875 15.375 1.5 15.375H3V16.5H1.5C1.0875 16.5 0.75 16.8375 0.75 17.25C0.75 17.6625 1.0875 18 1.5 18H3.07125C3.36375 19.4737 4.52625 20.6363 6 20.9288V22.5C6 22.9125 6.3375 23.25 6.75 23.25C7.1625 23.25 7.5 22.9125 7.5 22.5V21H8.625V22.5C8.625 22.9125 8.9625 23.25 9.375 23.25C9.7875 23.25 10.125 22.9125 10.125 22.5V21H11.25V22.5C11.25 22.9125 11.5875 23.25 12 23.25C12.4125 23.25 12.75 22.9125 12.75 22.5V21H13.875V22.5C13.875 22.9125 14.2125 23.25 14.625 23.25C15.0375 23.25 15.375 22.9125 15.375 22.5V21H16.5V22.5C16.5 22.9125 16.8375 23.25 17.25 23.25C17.6625 23.25 18 22.9125 18 22.5V20.9288C19.4737 20.6363 20.6363 19.4737 20.9288 18H22.5C22.9125 18 23.25 17.6625 23.25 17.25C23.25 16.8375 22.9125 16.5 22.5 16.5H21V15.375H22.5C22.9125 15.375 23.25 15.0375 23.25 14.625C23.25 14.2125 22.9125 13.875 22.5 13.875H21V12.75H22.5C22.9125 12.75 23.25 12.4125 23.25 12C23.25 11.5875 22.9125 11.25 22.5 11.25H21V10.125H22.5C22.9125 10.125 23.25 9.7875 23.25 9.375C23.25 8.9625 22.9125 8.625 22.5 8.625H21V7.5H22.5ZM19.5 17.2762C19.5 18.5025 18.5025 19.5 17.2762 19.5H6.72375C5.4975 19.5 4.5 18.5025 4.5 17.2762V6.72375C4.5 5.4975 5.4975 4.5 6.72375 4.5H17.28C18.5063 4.5 19.5037 5.4975 19.5037 6.72375V17.2762H19.5Z" fill="#1B1C17"/>
</svg>
