<svg width="36" height="36" viewBox="0 0 36 36" fill="none" xmlns="http://www.w3.org/2000/svg">
<path d="M18 23.475L12.525 18L18 12.525L19.575 14.1L16.8 16.875H23.625V19.125H16.8L19.575 21.9L18 23.475ZM18 33C20.05 33 21.9875 32.6063 23.8125 31.8188C25.6375 31.0313 27.2312 29.9563 28.5938 28.5938C29.9562 27.2313 31.0312 25.6375 31.8187 23.8125C32.6062 21.9875 33 20.05 33 18C33 15.925 32.6062 13.975 31.8187 12.15C31.0312 10.325 29.9562 8.7375 28.5938 7.3875C27.2312 6.0375 25.6375 4.96875 23.8125 4.18125C21.9875 3.39375 20.05 3 18 3C15.925 3 13.975 3.39375 12.15 4.18125C10.325 4.96875 8.7375 6.0375 7.3875 7.3875C6.0375 8.7375 4.96875 10.325 4.18125 12.15C3.39375 13.975 3 15.925 3 18C3 20.05 3.39375 21.9875 4.18125 23.8125C4.96875 25.6375 6.0375 27.2313 7.3875 28.5938C8.7375 29.9563 10.325 31.0313 12.15 31.8188C13.975 32.6063 15.925 33 18 33ZM18 30.75C14.45 30.75 11.4375 29.5063 8.9625 27.0188C6.4875 24.5312 5.25 21.525 5.25 18C5.25 14.45 6.4875 11.4375 8.9625 8.9625C11.4375 6.4875 14.45 5.25 18 5.25C21.525 5.25 24.5312 6.4875 27.0187 8.9625C29.5062 11.4375 30.75 14.45 30.75 18C30.75 21.525 29.5062 24.5312 27.0187 27.0188C24.5312 29.5063 21.525 30.75 18 30.75Z" fill="#6D6D6D"/>
</svg>
