<svg width="24" height="12" viewBox="0 0 24 12" fill="none" xmlns="http://www.w3.org/2000/svg">
<path d="M23.725 5.33643C23.7248 5.33615 23.7245 5.33582 23.7242 5.33554L18.8256 0.460543C18.4586 0.0953396 17.865 0.0966987 17.4997 0.46373C17.1345 0.830714 17.1359 1.42429 17.5028 1.78954L20.7918 5.06254H0.9375C0.419719 5.06254 0 5.48226 0 6.00004C0 6.51782 0.419719 6.93754 0.9375 6.93754H20.7917L17.5029 10.2105C17.1359 10.5758 17.1345 11.1694 17.4998 11.5364C17.865 11.9034 18.4587 11.9047 18.8256 11.5395L23.7242 6.66454C23.7245 6.66426 23.7248 6.66393 23.7251 6.66365C24.0923 6.29718 24.0911 5.70168 23.725 5.33643Z" fill="#1F1F1F"/>
</svg>
