<svg width="40" height="40" viewBox="0 0 40 40" fill="none" xmlns="http://www.w3.org/2000/svg">
<path fill-rule="evenodd" clip-rule="evenodd" d="M14.8353 10.097C12.9009 10.097 11.2968 11.6627 11.2513 13.5935V26.2297C11.2174 28.1512 12.7423 29.7285 14.6498 29.7612L14.8213 29.76H24.1686C26.0843 29.739 27.6464 28.1558 27.6441 26.2308V15.732L22.2378 10.097H14.8493H14.8353ZM14.6334 31.5112C11.7483 31.461 9.45226 29.0845 9.50126 26.2145V13.5725C9.56776 10.678 11.9583 8.34698 14.8318 8.34698H14.8528H22.6099C22.8479 8.34698 23.0754 8.44382 23.2411 8.61532L29.1514 14.7742C29.3066 14.9363 29.3941 15.1545 29.3941 15.3797V26.2297C29.3988 29.1102 27.0584 31.4797 24.1779 31.51L14.6334 31.5112Z" fill="#191A15"/>
<path fill-rule="evenodd" clip-rule="evenodd" d="M28.5139 16.4818H25.3009C23.1647 16.476 21.4287 14.7353 21.4287 12.6026V9.2088C21.4287 8.7258 21.8207 8.3338 22.3037 8.3338C22.7867 8.3338 23.1787 8.7258 23.1787 9.2088V12.6026C23.1787 13.774 24.1319 14.7283 25.3032 14.7318H28.5139C28.9969 14.7318 29.3889 15.1238 29.3889 15.6068C29.3889 16.0898 28.9969 16.4818 28.5139 16.4818Z" fill="#191A15"/>
<path fill-rule="evenodd" clip-rule="evenodd" d="M22.0929 21.9415H16.3774C15.8944 21.9415 15.5024 21.5495 15.5024 21.0665C15.5024 20.5835 15.8944 20.1915 16.3774 20.1915H22.0929C22.5759 20.1915 22.9679 20.5835 22.9679 21.0665C22.9679 21.5495 22.5759 21.9415 22.0929 21.9415Z" fill="#191A15"/>
<path fill-rule="evenodd" clip-rule="evenodd" d="M19.2354 24.8C18.7524 24.8 18.3604 24.408 18.3604 23.925V18.2084C18.3604 17.7254 18.7524 17.3334 19.2354 17.3334C19.7184 17.3334 20.1104 17.7254 20.1104 18.2084V23.925C20.1104 24.408 19.7184 24.8 19.2354 24.8Z" fill="#191A15"/>
</svg>
