<svg width="97" height="60" viewBox="0 0 97 60" fill="none" xmlns="http://www.w3.org/2000/svg">
<path d="M19.9492 2.28418C8.09919 7.99466 -6.82581 37.8995 5.62419 50.9735C17.0992 65.4 42.2992 51.4995 34.9492 33.5415C25.7242 18.1383 19.9492 17.3118 19.9492 2.28418Z" fill="url(#paint0_linear_5209_1496)"/>
<path d="M19.9492 2.13379C8.09919 7.9194 -6.82581 37.674 5.62419 50.8231C10.1992 56.1579 17.6242 57.8861 21.8242 54.7303C33.1492 46.6154 24.9742 31.8884 26.2492 20.9934C21.5242 16.6354 19.8742 6.86747 19.9492 2.13379Z" fill="url(#paint1_linear_5209_1496)"/>
<path d="M16.6496 3.86133C7.1246 10.6989 4.5746 36.0955 6.2996 44.3606C9.8246 65.0235 38.5496 56.533 36.1496 37.2977C33.5996 24.7497 15.2246 20.4668 16.6496 3.86133Z" fill="url(#paint2_linear_5209_1496)"/>
<path d="M26.1742 23.4725C30.5992 29.2581 31.6492 33.1653 29.0992 35.4945C17.1742 43.7597 2.77419 38.6503 5.92419 19.415C1.87419 29.1078 -5.70081 43.6846 10.9492 45.7133C19.8742 47.2912 34.1242 46.5398 36.2242 38.8006C36.0742 31.9631 31.5742 28.9575 26.1742 23.4725Z" fill="url(#paint3_linear_5209_1496)"/>
<path d="M8.69961 17.6875C7.42461 26.7792 23.7746 51.199 33.6746 48.1935C26.0996 63.5216 9.29961 39.1018 6.22461 30.3107C6.89961 25.577 7.19961 23.2477 8.69961 17.6875Z" fill="url(#paint4_linear_5209_1496)"/>
<path d="M18.2241 23.3972C18.5991 26.7784 19.8741 32.1883 18.2241 35.7949C16.5741 39.3264 8.92414 45.8634 11.0241 51.649C15.8991 62.3186 26.9241 49.7706 26.8491 43.459C27.2991 38.3496 23.9991 26.8535 26.0991 20.9176L25.1241 19.7154L19.3491 17.9121C18.3741 19.3397 17.9991 21.143 18.2241 23.3972Z" fill="url(#paint5_linear_5209_1496)"/>
<path d="M20.3247 6.7168C7.72466 13.8549 12.8997 25.0504 13.4247 37.1476L21.5997 13.3289C21.0747 10.8494 20.6997 9.19635 20.3247 6.7168Z" fill="url(#paint6_linear_5209_1496)"/>
<path d="M21.5994 13.2539C15.2994 18.2881 15.5994 26.7036 13.6494 36.4715C17.0994 27.3047 15.4494 20.0163 21.5994 13.2539Z" fill="#330A4C" fill-opacity="0.316"/>
<path d="M12 53.5273C15.45 53.9782 17.175 54.5041 17.4 54.8047C17.475 56.608 12.6 55.3307 12 53.5273Z" fill="white"/>
<path d="M13.725 6.7168C10.725 10.0229 7.49998 16.0339 5.92498 19.4151C5.47498 22.1952 5.69998 26.1775 6.14998 29.4836C6.52498 21.7444 9.37498 12.7278 13.725 6.7168Z" fill="#EDEDED" fill-opacity="0.603"/>
<path d="M48.375 35.5696C48.45 38.6502 50.325 39.9276 52.65 39.9276C54.3 39.9276 55.275 39.627 56.1 39.2513L56.475 40.9044C55.65 41.28 54.3 41.7309 52.275 41.7309C48.45 41.7309 46.125 39.1762 46.125 35.4193C46.125 31.6624 48.375 28.732 51.975 28.732C56.1 28.732 57.15 32.2635 57.15 34.5928C57.15 35.0436 57.15 35.4193 57.075 35.6447H48.375V35.5696ZM55.05 33.9165C55.05 32.4889 54.45 30.2348 51.9 30.2348C49.575 30.2348 48.6 32.3386 48.45 33.9165H55.05ZM60 23.0967H62.25V41.4303H60V23.0967ZM68.625 25.426C68.625 26.1773 68.1 26.8536 67.2 26.8536C66.375 26.8536 65.85 26.2525 65.85 25.426C65.85 24.5994 66.45 23.9983 67.275 23.9983C68.025 23.9983 68.625 24.5994 68.625 25.426ZM66.075 41.4303V28.8823H68.325V41.3552H66.075V41.4303ZM73.2 28.8823L75 31.5873C75.525 32.2635 75.9 32.9397 76.275 33.616H76.35C76.725 32.8646 77.175 32.2635 77.625 31.5873L79.35 28.9574H81.825L77.55 34.9685L81.9 41.4303H79.35L77.475 38.6502C76.95 37.8988 76.575 37.2226 76.125 36.4712H76.05C75.675 37.2226 75.225 37.8988 74.7 38.6502L72.9 41.4303H70.425L74.85 35.0436L70.65 28.9574H73.2V28.8823ZM86.55 25.426C86.55 26.1773 86.025 26.8536 85.125 26.8536C84.3 26.8536 83.775 26.2525 83.775 25.426C83.775 24.5994 84.375 23.9983 85.2 23.9983C86.025 23.9983 86.55 24.5994 86.55 25.426ZM84 41.4303V28.8823H86.25V41.3552H84V41.4303ZM90.075 32.7895L90 28.8823H91.95L92.025 31.3618H92.1C92.7 29.7088 94.05 28.6569 95.55 28.6569C95.775 28.6569 95.925 28.6569 96.15 28.732V30.8359C95.925 30.7607 95.7 30.7607 95.4 30.7607C93.825 30.7607 92.7 31.9629 92.4 33.616C92.325 33.9165 92.325 34.2922 92.325 34.6679V41.3552H90.075V32.7895Z" fill="#333333"/>
<defs>
<linearGradient id="paint0_linear_5209_1496" x1="19.1107" y1="6.29278" x2="18.3075" y2="57.0108" gradientUnits="userSpaceOnUse">
<stop stop-color="#D9D8DC"/>
<stop offset="1" stop-color="white" stop-opacity="0.385"/>
</linearGradient>
<linearGradient id="paint1_linear_5209_1496" x1="18.3325" y1="5.49174" x2="-1.59241" y2="49.0809" gradientUnits="userSpaceOnUse">
<stop stop-color="#8D67AF" stop-opacity="0.672"/>
<stop offset="1" stop-color="#9F8DAF"/>
</linearGradient>
<linearGradient id="paint2_linear_5209_1496" x1="21.0446" y1="20.3924" x2="21.0446" y2="55.4247" gradientUnits="userSpaceOnUse">
<stop stop-color="#26053D" stop-opacity="0.762"/>
<stop offset="1" stop-color="#B7B4B4" stop-opacity="0.278"/>
</linearGradient>
<linearGradient id="paint3_linear_5209_1496" x1="8.08816" y1="21.3797" x2="17.0722" y2="45.1332" gradientUnits="userSpaceOnUse">
<stop stop-color="#91739F" stop-opacity="0.46"/>
<stop offset="1" stop-color="#32054F" stop-opacity="0.54"/>
</linearGradient>
<linearGradient id="paint4_linear_5209_1496" x1="28.1832" y1="51.9031" x2="3.60163" y2="31.5806" gradientUnits="userSpaceOnUse">
<stop stop-color="#463D49" stop-opacity="0.331"/>
<stop offset="1" stop-color="#340A50" stop-opacity="0.821"/>
</linearGradient>
<linearGradient id="paint5_linear_5209_1496" x1="22.015" y1="20.0135" x2="4.71643" y2="46.2862" gradientUnits="userSpaceOnUse">
<stop stop-color="#715383" stop-opacity="0.145"/>
<stop offset="1" stop-color="#F4F4F4" stop-opacity="0.234"/>
</linearGradient>
<linearGradient id="paint6_linear_5209_1496" x1="24.8181" y1="26.5494" x2="12.8236" y2="25.8186" gradientUnits="userSpaceOnUse">
<stop stop-color="#A5A1A8" stop-opacity="0.356"/>
<stop offset="1" stop-color="#370C50" stop-opacity="0.582"/>
</linearGradient>
</defs>
</svg>
