<svg width="80" height="80" viewBox="0 0 80 80" fill="none" xmlns="http://www.w3.org/2000/svg">
<g clip-path="url(#clip0_4371_1913)">
<path d="M76.5264 22.0765H75.1335C74.6977 20.9051 74.1876 19.7697 73.6038 18.6795L74.6755 17.6078C76.0322 16.2511 76.0322 14.0516 74.6755 12.6949L67.3056 5.32502C65.9489 3.96831 63.7493 3.96831 62.3926 5.32502L61.0105 6.70714C60.0132 6.23655 58.9823 5.8262 57.9239 5.47576V3.47404C57.9239 1.55529 56.3685 0 54.4499 0H44.0272C42.1086 0 40.5531 1.55529 40.5531 3.47404V5.47576C39.4949 5.82635 38.4639 6.23671 37.4665 6.70714L36.0844 5.32502C34.7277 3.96831 32.5282 3.96831 31.1715 5.32502L23.8016 12.6949C22.4449 14.0516 22.4449 16.2513 23.8016 17.6078L24.8733 18.6795C24.2894 19.7697 23.7793 20.9051 23.3435 22.0765H21.9506C20.032 22.0765 18.4766 23.6318 18.4766 25.5506V35.9732C18.4766 37.8918 20.0319 39.4472 21.9506 39.4472H22.7202C23.1258 40.8372 23.6361 42.1827 24.2449 43.4728L23.8017 43.9159C22.445 45.2726 22.445 47.4722 23.8017 48.8289L31.1716 56.1987C32.5283 57.5554 34.7279 57.5554 36.0846 56.1987L36.2173 56.0662C37.5964 56.8049 39.0468 57.4274 40.5534 57.9263V58.0497C40.5534 59.9683 42.1087 61.5238 44.0275 61.5238H54.4502C56.3688 61.5238 57.9243 59.9685 57.9243 58.0497V57.9263C59.4308 57.4273 60.8811 56.8047 62.2604 56.0662L62.3931 56.1987C63.7498 57.5554 65.9493 57.5554 67.3061 56.1987L74.6759 48.8289C76.0326 47.4722 76.0326 45.2726 74.6759 43.9159L74.2328 43.4728C74.8414 42.1827 75.3519 40.8372 75.7575 39.4472H76.5271C78.4457 39.4472 80.0011 37.8919 80.0011 35.9732V25.5506C80.0005 23.632 78.4452 22.0765 76.5264 22.0765ZM49.2386 42.8058C43.105 42.8058 38.1338 37.8347 38.1338 31.701C38.1338 25.5674 43.105 20.5962 49.2386 20.5962C55.3722 20.5962 60.3434 25.5675 60.3434 31.701C60.3434 37.8345 55.3721 42.8058 49.2386 42.8058Z" fill="url(#paint0_linear_4371_1913)"/>
<path d="M49.2387 51.9199C60.4065 51.9199 69.4578 42.8686 69.4578 31.7007C69.4578 20.5329 60.4065 11.4814 49.2387 11.4814C38.0708 11.4814 29.0195 20.5327 29.0195 31.7006C29.0195 42.8684 38.0707 51.9199 49.2387 51.9199ZM49.2387 20.596C55.3723 20.596 60.3435 25.5671 60.3435 31.7007C60.3435 37.8344 55.3723 42.8055 49.2387 42.8055C43.105 42.8055 38.1339 37.8342 38.1339 31.7007C38.1339 25.5672 43.105 20.596 49.2387 20.596Z" fill="url(#paint1_linear_4371_1913)"/>
<path d="M44.027 61.5236H54.4495C55.0342 61.5236 55.5846 61.3785 56.0679 61.1235L34.8426 40.0553C33.8745 39.0871 32.4619 39.0871 31.4939 40.0553L31.0484 40.5007L27.7131 37.1756C27.2662 36.5254 26.5179 36.4124 25.6695 36.4124C25.6695 36.4124 18.4972 36.3709 18.5176 36.5034C18.773 38.1701 20.2122 39.4468 21.9504 39.4468H22.72C23.1256 40.8369 23.6359 42.1823 24.2447 43.4723L23.8015 43.9155C22.4448 45.2722 22.4448 47.4717 23.8015 48.8284L31.1714 56.1983C32.5281 57.555 34.7277 57.555 36.0844 56.1983L36.2171 56.0658C37.5962 56.8044 39.0466 57.427 40.5532 57.9258V58.0493C40.5531 59.9682 42.1084 61.5236 44.027 61.5236Z" fill="url(#paint2_linear_4371_1913)"/>
<path d="M41.4223 51.8519H40.4282C40.1173 51.016 39.7533 50.2058 39.3366 49.4279L40.1013 48.6632C41.0695 47.6952 41.0695 46.1256 40.1013 45.1575L34.8424 39.8985C33.8744 38.9303 32.3048 38.9303 31.3366 39.8985L30.3504 40.8847C29.6387 40.549 28.9031 40.2561 28.1479 40.0059V38.5775C28.1479 37.2084 27.0381 36.0986 25.669 36.0986H18.2318C16.8627 36.0986 15.7529 37.2084 15.7529 38.5775V40.0059C14.9978 40.256 14.2621 40.5488 13.5504 40.8847L12.5642 39.8985C11.5961 38.9303 10.0267 38.9303 9.05851 39.8985L3.79953 45.1575C2.83137 46.1256 2.83137 47.6952 3.79953 48.6632L4.56424 49.4279C4.14761 50.2059 3.78369 51.016 3.47263 51.8519H2.47859C1.1098 51.8519 0 52.9617 0 54.3308V61.768C0 63.1371 1.1098 64.2469 2.4789 64.2469H3.02792C3.31733 65.2387 3.68157 66.1989 4.11592 67.1193L3.79969 67.4356C2.83153 68.4036 2.83153 69.9731 3.79969 70.9413L9.05867 76.2003C10.0268 77.1684 11.5962 77.1684 12.5644 76.2003L12.659 76.1057C13.6431 76.6328 14.678 77.077 15.7531 77.4331V77.5212C15.7531 78.8903 16.8629 80.0001 18.232 80.0001H25.6692C27.0383 80.0001 28.1481 78.8903 28.1481 77.5212V77.4331C29.2231 77.077 30.258 76.6328 31.2422 76.1057L31.3368 76.2003C32.3049 77.1684 33.8744 77.1684 34.8425 76.2003L40.1015 70.9413C41.0696 69.9731 41.0696 68.4037 40.1015 67.4356L39.7853 67.1193C40.2196 66.1987 40.5837 65.2387 40.8733 64.2469H41.4224C42.7915 64.2469 43.9013 63.1371 43.9013 61.768V54.3308C43.9012 52.9617 42.7914 51.8519 41.4223 51.8519ZM21.9506 66.6434C17.574 66.6434 14.0267 63.0961 14.0267 58.7195C14.0267 54.3427 17.574 50.7956 21.9506 50.7956C26.3272 50.7956 29.8745 54.3429 29.8745 58.7195C29.8745 63.0961 26.3272 66.6434 21.9506 66.6434Z" fill="url(#paint3_linear_4371_1913)"/>
<path d="M32.1524 48.5173C26.5174 42.8823 17.3835 42.8823 11.7486 48.5173C6.11381 54.1522 6.11366 63.2862 11.7486 68.921C17.3836 74.5558 26.5176 74.556 32.1524 68.921C37.7872 63.286 37.7874 54.1522 32.1524 48.5173ZM16.3474 64.3223C13.2526 61.2275 13.2526 56.2109 16.3474 53.1162C19.4421 50.0214 24.4588 50.0214 27.5537 53.1162C30.6484 56.2109 30.6484 61.2275 27.5537 64.3223C24.4588 67.4172 19.4423 67.4172 16.3474 64.3223Z" fill="url(#paint4_linear_4371_1913)"/>
</g>
<defs>
<linearGradient id="paint0_linear_4371_1913" x1="27.1079" y1="8.63137" x2="74.4282" y2="55.9517" gradientUnits="userSpaceOnUse">
<stop stop-color="#B5DBFF"/>
<stop offset="1" stop-color="#48B2E3"/>
</linearGradient>
<linearGradient id="paint1_linear_4371_1913" x1="63.785" y1="46.2471" x2="32.6813" y2="15.1434" gradientUnits="userSpaceOnUse">
<stop stop-color="#B5DBFF"/>
<stop offset="1" stop-color="#48B2E3"/>
</linearGradient>
<linearGradient id="paint2_linear_4371_1913" x1="60.0872" y1="75.1285" x2="6.24672" y2="21.288" gradientUnits="userSpaceOnUse">
<stop stop-color="#07485E" stop-opacity="0"/>
<stop offset="0.3332" stop-color="#063F52" stop-opacity="0.333"/>
<stop offset="0.9358" stop-color="#032632" stop-opacity="0.936"/>
<stop offset="1" stop-color="#03232E"/>
</linearGradient>
<linearGradient id="paint3_linear_4371_1913" x1="6.15906" y1="42.2578" x2="39.9252" y2="76.024" gradientUnits="userSpaceOnUse">
<stop stop-color="#76E2F8"/>
<stop offset="1" stop-color="#48B2E3"/>
</linearGradient>
<linearGradient id="paint4_linear_4371_1913" x1="21.9506" y1="73.4086" x2="21.9506" y2="42.0258" gradientUnits="userSpaceOnUse">
<stop stop-color="#76E2F8"/>
<stop offset="1" stop-color="#48B2E3"/>
</linearGradient>
<clipPath id="clip0_4371_1913">
<rect width="80" height="80" fill="white"/>
</clipPath>
</defs>
</svg>
