<svg width="1440" height="686" viewBox="0 0 1440 686" fill="none" xmlns="http://www.w3.org/2000/svg">
<g clip-path="url(#clip0_67_3764)">
<rect width="1440" height="686" fill="#F2F2FF"/>
<path d="M2214.79 711.588C2136.79 777.037 2043.86 823.137 1941.29 847.256C1838.73 871.374 1728.55 873.039 1617.04 852.155C1505.52 831.271 1394.87 788.246 1291.38 725.539C1187.9 662.831 1093.62 581.668 1013.92 486.684C934.214 391.7 870.656 284.754 826.871 171.954C783.086 59.1532 759.931 -57.2932 758.728 -170.737C757.524 -284.181 778.297 -392.4 819.859 -489.217C861.421 -586.033 922.958 -669.55 1000.96 -735L1607.87 -11.7061L2214.79 711.588Z" fill="#00218F"/>
</g>
<defs>
<clipPath id="clip0_67_3764">
<rect width="1440" height="686" fill="white"/>
</clipPath>
</defs>
</svg>
