<svg width="37" height="36" viewBox="0 0 37 36" fill="none" xmlns="http://www.w3.org/2000/svg">
<path d="M34.0835 11.25C34.7022 11.25 35.2085 10.7437 35.2085 10.125C35.2085 9.50625 34.7022 9 34.0835 9H31.7266C31.2879 6.78937 29.5441 5.04562 27.3335 4.60687V2.25C27.3335 1.63125 26.8272 1.125 26.2085 1.125C25.5897 1.125 25.0835 1.63125 25.0835 2.25V4.5H23.396V2.25C23.396 1.63125 22.8897 1.125 22.271 1.125C21.6522 1.125 21.146 1.63125 21.146 2.25V4.5H19.4585V2.25C19.4585 1.63125 18.9522 1.125 18.3335 1.125C17.7147 1.125 17.2085 1.63125 17.2085 2.25V4.5H15.521V2.25C15.521 1.63125 15.0147 1.125 14.396 1.125C13.7772 1.125 13.271 1.63125 13.271 2.25V4.5H11.5835V2.25C11.5835 1.63125 11.0772 1.125 10.4585 1.125C9.83975 1.125 9.3335 1.63125 9.3335 2.25V4.60687C7.12287 5.04562 5.37912 6.78937 4.94037 9H2.5835C1.96475 9 1.4585 9.50625 1.4585 10.125C1.4585 10.7437 1.96475 11.25 2.5835 11.25H4.8335V12.9375H2.5835C1.96475 12.9375 1.4585 13.4438 1.4585 14.0625C1.4585 14.6812 1.96475 15.1875 2.5835 15.1875H4.8335V16.875H2.5835C1.96475 16.875 1.4585 17.3813 1.4585 18C1.4585 18.6187 1.96475 19.125 2.5835 19.125H4.8335V20.8125H2.5835C1.96475 20.8125 1.4585 21.3188 1.4585 21.9375C1.4585 22.5562 1.96475 23.0625 2.5835 23.0625H4.8335V24.75H2.5835C1.96475 24.75 1.4585 25.2563 1.4585 25.875C1.4585 26.4937 1.96475 27 2.5835 27H4.94037C5.37912 29.2106 7.12287 30.9544 9.3335 31.3931V33.75C9.3335 34.3688 9.83975 34.875 10.4585 34.875C11.0772 34.875 11.5835 34.3688 11.5835 33.75V31.5H13.271V33.75C13.271 34.3688 13.7772 34.875 14.396 34.875C15.0147 34.875 15.521 34.3688 15.521 33.75V31.5H17.2085V33.75C17.2085 34.3688 17.7147 34.875 18.3335 34.875C18.9522 34.875 19.4585 34.3688 19.4585 33.75V31.5H21.146V33.75C21.146 34.3688 21.6522 34.875 22.271 34.875C22.8897 34.875 23.396 34.3688 23.396 33.75V31.5H25.0835V33.75C25.0835 34.3688 25.5897 34.875 26.2085 34.875C26.8272 34.875 27.3335 34.3688 27.3335 33.75V31.3931C29.5441 30.9544 31.2879 29.2106 31.7266 27H34.0835C34.7022 27 35.2085 26.4937 35.2085 25.875C35.2085 25.2563 34.7022 24.75 34.0835 24.75H31.8335V23.0625H34.0835C34.7022 23.0625 35.2085 22.5562 35.2085 21.9375C35.2085 21.3188 34.7022 20.8125 34.0835 20.8125H31.8335V19.125H34.0835C34.7022 19.125 35.2085 18.6187 35.2085 18C35.2085 17.3813 34.7022 16.875 34.0835 16.875H31.8335V15.1875H34.0835C34.7022 15.1875 35.2085 14.6812 35.2085 14.0625C35.2085 13.4438 34.7022 12.9375 34.0835 12.9375H31.8335V11.25H34.0835ZM29.5835 25.9144C29.5835 27.7537 28.0872 29.25 26.2479 29.25H10.4191C8.57975 29.25 7.0835 27.7537 7.0835 25.9144V10.0856C7.0835 8.24625 8.57975 6.75 10.4191 6.75H26.2535C28.0929 6.75 29.5891 8.24625 29.5891 10.0856V25.9144H29.5835Z" fill="#133AA5"/>
<path d="M18.1366 14.1134C18.0578 13.8771 17.8947 13.7646 17.6528 13.7646H15.7628C15.521 13.7646 15.3578 13.8828 15.2791 14.1134L12.461 21.8703C12.4553 21.8928 12.4497 21.9321 12.4497 21.9771C12.4497 22.039 12.4778 22.1009 12.5285 22.1515C12.5791 22.2021 12.641 22.2303 12.7028 22.2303H14.2778C14.4691 22.2303 14.6097 22.1403 14.6885 21.9659L15.1216 20.7903H18.2941L18.7272 21.9659C18.806 22.1459 18.9466 22.2303 19.1378 22.2303H20.7128C20.7747 22.2303 20.8366 22.2021 20.8872 22.1515C20.9378 22.1009 20.966 22.039 20.966 21.9771C20.966 21.9265 20.9603 21.8928 20.9547 21.8703L18.1366 14.1134ZM15.6278 18.979L16.7022 15.8909L17.7766 18.979H15.6278Z" fill="#133AA5"/>
<path d="M23.9191 13.7646H22.1866C22.1078 13.7646 22.0347 13.7928 21.9728 13.849C21.9109 13.9053 21.8828 13.9784 21.8828 14.0684V21.9322C21.8828 22.0109 21.9109 22.084 21.9728 22.1459C22.0347 22.2078 22.1022 22.2359 22.1866 22.2359H23.9191C24.0091 22.2359 24.0822 22.2078 24.1384 22.1459C24.1947 22.084 24.2228 22.0165 24.2228 21.9322V14.0684C24.2228 13.9784 24.1947 13.9053 24.1384 13.849C24.0766 13.7928 24.0034 13.7646 23.9191 13.7646Z" fill="#133AA5"/>
</svg>
