<svg width="25" height="24" viewBox="0 0 25 24" fill="none" xmlns="http://www.w3.org/2000/svg">
<g id="Iconly/Light-Outline/Calendar">
<g id="Calendar">
<path id="Fill 1" fill-rule="evenodd" clip-rule="evenodd" d="M21.1665 9.9043H3.3425C2.9285 9.9043 2.5925 9.5683 2.5925 9.1543C2.5925 8.7403 2.9285 8.4043 3.3425 8.4043H21.1665C21.5805 8.4043 21.9165 8.7403 21.9165 9.1543C21.9165 9.5683 21.5805 9.9043 21.1665 9.9043" fill="#CFCFCF"/>
<path id="Fill 3" fill-rule="evenodd" clip-rule="evenodd" d="M16.7012 13.8096C16.2872 13.8096 15.9472 13.4736 15.9472 13.0596C15.9472 12.6456 16.2782 12.3096 16.6922 12.3096H16.7012C17.1152 12.3096 17.4512 12.6456 17.4512 13.0596C17.4512 13.4736 17.1152 13.8096 16.7012 13.8096" fill="#CFCFCF"/>
<path id="Fill 5" fill-rule="evenodd" clip-rule="evenodd" d="M12.2637 13.8096C11.8497 13.8096 11.5097 13.4736 11.5097 13.0596C11.5097 12.6456 11.8407 12.3096 12.2547 12.3096H12.2637C12.6777 12.3096 13.0137 12.6456 13.0137 13.0596C13.0137 13.4736 12.6777 13.8096 12.2637 13.8096" fill="#CFCFCF"/>
<path id="Fill 7" fill-rule="evenodd" clip-rule="evenodd" d="M7.8169 13.8096C7.4029 13.8096 7.0619 13.4736 7.0619 13.0596C7.0619 12.6456 7.3939 12.3096 7.8079 12.3096H7.8169C8.2309 12.3096 8.5669 12.6456 8.5669 13.0596C8.5669 13.4736 8.2309 13.8096 7.8169 13.8096" fill="#CFCFCF"/>
<path id="Fill 9" fill-rule="evenodd" clip-rule="evenodd" d="M16.7012 17.6963C16.2872 17.6963 15.9472 17.3603 15.9472 16.9463C15.9472 16.5323 16.2782 16.1963 16.6922 16.1963H16.7012C17.1152 16.1963 17.4512 16.5323 17.4512 16.9463C17.4512 17.3603 17.1152 17.6963 16.7012 17.6963" fill="#CFCFCF"/>
<path id="Fill 11" fill-rule="evenodd" clip-rule="evenodd" d="M12.2637 17.6963C11.8497 17.6963 11.5097 17.3603 11.5097 16.9463C11.5097 16.5323 11.8407 16.1963 12.2547 16.1963H12.2637C12.6777 16.1963 13.0137 16.5323 13.0137 16.9463C13.0137 17.3603 12.6777 17.6963 12.2637 17.6963" fill="#CFCFCF"/>
<path id="Fill 13" fill-rule="evenodd" clip-rule="evenodd" d="M7.8169 17.6963C7.4029 17.6963 7.0619 17.3603 7.0619 16.9463C7.0619 16.5323 7.3939 16.1963 7.8079 16.1963H7.8169C8.2309 16.1963 8.5669 16.5323 8.5669 16.9463C8.5669 17.3603 8.2309 17.6963 7.8169 17.6963" fill="#CFCFCF"/>
<path id="Fill 15" fill-rule="evenodd" clip-rule="evenodd" d="M16.2935 5.791C15.8795 5.791 15.5435 5.455 15.5435 5.041V1.75C15.5435 1.336 15.8795 1 16.2935 1C16.7075 1 17.0435 1.336 17.0435 1.75V5.041C17.0435 5.455 16.7075 5.791 16.2935 5.791" fill="#CFCFCF"/>
<path id="Fill 17" fill-rule="evenodd" clip-rule="evenodd" d="M8.2153 5.791C7.8013 5.791 7.4653 5.455 7.4653 5.041V1.75C7.4653 1.336 7.8013 1 8.2153 1C8.6293 1 8.9653 1.336 8.9653 1.75V5.041C8.9653 5.455 8.6293 5.791 8.2153 5.791" fill="#CFCFCF"/>
<g id="Group 21">
<mask id="mask0_878_2286" style="mask-type:luminance" maskUnits="userSpaceOnUse" x="2" y="2" width="20" height="21">
<path id="Clip 20" fill-rule="evenodd" clip-rule="evenodd" d="M2.5 2.5791H22V22.5H2.5V2.5791Z" fill="white"/>
</mask>
<g mask="url(#mask0_878_2286)">
<path id="Fill 19" fill-rule="evenodd" clip-rule="evenodd" d="M8.021 4.0791C5.428 4.0791 4 5.4621 4 7.9731V17.0221C4 19.5881 5.428 21.0001 8.021 21.0001H16.479C19.072 21.0001 20.5 19.6141 20.5 17.0981V7.9731C20.504 6.7381 20.172 5.7781 19.513 5.1181C18.835 4.4381 17.79 4.0791 16.488 4.0791H8.021ZM16.479 22.5001H8.021C4.616 22.5001 2.5 20.4011 2.5 17.0221V7.9731C2.5 4.6451 4.616 2.5791 8.021 2.5791H16.488C18.197 2.5791 19.61 3.0911 20.575 4.0581C21.512 4.9991 22.005 6.3521 22 7.9751V17.0981C22 20.4301 19.884 22.5001 16.479 22.5001V22.5001Z" fill="#CFCFCF"/>
</g>
</g>
</g>
</g>
</svg>
