<svg width="21" height="21" viewBox="0 0 21 21" fill="none" xmlns="http://www.w3.org/2000/svg">
<mask id="mask0_2244_3508" style="mask-type:luminance" maskUnits="userSpaceOnUse" x="0" y="0" width="21" height="21">
<path fill-rule="evenodd" clip-rule="evenodd" d="M0 0.000244141H20.4996V20.4997H0V0.000244141Z" fill="white"/>
</mask>
<g mask="url(#mask0_2244_3508)">
<path fill-rule="evenodd" clip-rule="evenodd" d="M2.35908 3.06079C2.36108 3.06079 2.31108 3.11279 2.24808 3.17479C2.00608 3.40979 1.50508 3.89879 1.50008 4.92179C1.49208 6.35279 2.43308 9.00979 6.96408 13.5398C11.4741 18.0478 14.1271 18.9998 15.5611 18.9998H15.5821C16.6051 18.9948 17.0931 18.4928 17.3291 18.2518C17.4011 18.1778 17.4591 18.1238 17.5001 18.0898C18.4961 17.0878 19.0061 16.3418 19.0011 15.8638C18.9941 15.3758 18.3871 14.7988 17.5481 14.0008C17.2811 13.7468 16.9911 13.4708 16.6851 13.1648C15.8921 12.3738 15.4991 12.5088 14.6351 12.8128C13.4401 13.2318 11.8001 13.8018 9.25208 11.2528C6.70008 8.70279 7.27108 7.06479 7.68908 5.86979C7.99108 5.00579 8.12908 4.61179 7.33508 3.81779C7.02408 3.50779 6.74508 3.21379 6.48808 2.94379C5.69508 2.10979 5.12308 1.50679 4.63808 1.49979H4.63008C4.15108 1.49979 3.40708 2.01179 2.35408 3.06479C2.35708 3.06179 2.35808 3.06079 2.35908 3.06079ZM15.5621 20.4998C13.0701 20.4998 9.82108 18.5158 5.90408 14.6008C1.97208 10.6698 -0.0149157 7.41079 8.42937e-05 4.91379C0.00908429 3.26379 0.874084 2.41879 1.19908 2.10179C1.21608 2.08079 1.27408 2.02379 1.29408 2.00379C2.72808 0.568787 3.69508 -0.0112129 4.65708 -0.00021287C5.77408 0.0147871 6.56908 0.850787 7.57508 1.90979C7.82408 2.17179 8.09408 2.45679 8.39508 2.75679C9.85508 4.21679 9.43908 5.40779 9.10508 6.36379C8.74108 7.40679 8.42608 8.30679 10.3121 10.1928C12.2001 12.0788 13.1001 11.7638 14.1391 11.3968C15.0961 11.0628 16.2841 10.6448 17.7461 12.1048C18.0421 12.4008 18.3231 12.6678 18.5821 12.9148C19.6461 13.9258 20.4861 14.7248 20.5001 15.8448C20.5121 16.7998 19.9321 17.7728 18.5001 19.2058L17.8661 18.7758L18.4021 19.2998C18.0851 19.6248 17.2411 20.4908 15.5901 20.4998H15.5621Z" fill="#191A15"/>
</g>
</svg>
