<svg width="24" height="24" viewBox="0 0 24 24" fill="none" xmlns="http://www.w3.org/2000/svg">
<path fill-rule="evenodd" clip-rule="evenodd" d="M12.1138 5.35737C12.9325 4.28794 14.222 3.59785 15.6714 3.59785C17.1207 3.59785 18.4102 4.28794 19.2289 5.35737H20.149C20.7427 5.35737 21.3122 5.59325 21.7321 6.01325C22.1519 6.43307 22.3878 7.00245 22.3878 7.59636V18.0441C22.3878 18.6378 22.1519 19.2072 21.7321 19.6272C21.3122 20.047 20.7427 20.2829 20.149 20.2829C16.5348 20.2829 7.34532 20.2829 3.73099 20.2829C3.13726 20.2829 2.56789 20.047 2.14789 19.6272C1.72807 19.2072 1.49219 18.6378 1.49219 18.0441C1.49219 15.4596 1.49219 10.1807 1.49219 7.59636C1.49219 7.00245 1.72807 6.43307 2.14789 6.01325C2.56789 5.59325 3.13726 5.35737 3.73099 5.35737H12.1138ZM17.1638 12.2979C16.6969 12.463 16.1945 12.5531 15.6714 12.5531C15.1482 12.5531 14.6458 12.463 14.1789 12.2979V15.2658L15.4353 14.8469C15.5886 14.7958 15.7541 14.7958 15.9074 14.8469L17.1638 15.2658V12.2979ZM4.47732 15.0589H10.4474C10.8594 15.0589 11.1937 14.7245 11.1937 14.3126C11.1937 13.9008 10.8594 13.5664 10.4474 13.5664H4.47732C4.06538 13.5664 3.73099 13.9008 3.73099 14.3126C3.73099 14.7245 4.06538 15.0589 4.47732 15.0589ZM4.47732 12.0738H9.70126C10.113 12.0738 10.4474 11.7394 10.4474 11.3276C10.4474 10.9157 10.113 10.5813 9.70126 10.5813H4.47732C4.06538 10.5813 3.73099 10.9157 3.73099 11.3276C3.73099 11.7394 4.06538 12.0738 4.47732 12.0738ZM15.6714 5.09033C17.3189 5.09033 18.6565 6.42788 18.6565 8.07546C18.6565 9.72287 17.3189 11.0604 15.6714 11.0604C14.0238 11.0604 12.6862 9.72287 12.6862 8.07546C12.6862 6.42788 14.0238 5.09033 15.6714 5.09033Z" fill="#00218F"/>
</svg>
