<svg width="36" height="37" viewBox="0 0 36 37" fill="none" xmlns="http://www.w3.org/2000/svg">
<rect y="0.443359" width="36" height="36" rx="18" fill="#FFE6E6"/>
<path d="M16.34 8.57316C14.7355 8.84456 13.2215 9.5034 11.9294 10.4925C10.6373 11.4816 9.60605 12.7711 8.92521 14.249C8.24436 15.727 7.93448 17.3488 8.02243 18.9736C8.11039 20.5985 8.59354 22.1773 9.42995 23.5732L8.61995 26.5732C8.57594 26.7419 8.57683 26.9193 8.62253 27.0876C8.66823 27.2559 8.75715 27.4093 8.88048 27.5326C9.0038 27.656 9.15723 27.7449 9.32554 27.7906C9.49386 27.8363 9.67119 27.8372 9.83995 27.7932L12.84 26.9832C14.2205 27.8197 15.7831 28.3096 17.3941 28.4109C19.0051 28.5123 20.6168 28.2222 22.0913 27.5653C23.5659 26.9084 24.8595 25.9044 25.8616 24.6389C26.8638 23.3734 27.5447 21.8842 27.8462 20.2984C28.1476 18.7125 28.0607 17.0773 27.5929 15.5324C27.125 13.9874 26.2901 12.5787 25.1595 11.4266C24.0289 10.2744 22.6362 9.41312 21.1003 8.91622C19.5645 8.41933 17.9312 8.30163 16.34 8.57316Z" fill="#E63946"/>
<path d="M21.89 19.643C20.6727 20.8826 19.3731 22.0386 18 23.103C16.6268 22.0386 15.3272 20.8826 14.11 19.643C13.5895 19.1073 13.2983 18.3898 13.2983 17.643C13.2983 16.8961 13.5895 16.1786 14.11 15.643C14.3415 15.4089 14.6172 15.2232 14.921 15.0964C15.2248 14.9696 15.5508 14.9043 15.88 14.9043C16.2092 14.9043 16.5351 14.9696 16.8389 15.0964C17.1428 15.2232 17.4184 15.4089 17.65 15.643L18 15.993L18.35 15.643C18.5815 15.4089 18.8572 15.2232 19.161 15.0964C19.4648 14.9696 19.7908 14.9043 20.12 14.9043C20.4492 14.9043 20.7751 14.9696 21.0789 15.0964C21.3828 15.2232 21.6584 15.4089 21.89 15.643C22.4104 16.1786 22.7016 16.8961 22.7016 17.643C22.7016 18.3898 22.4104 19.1073 21.89 19.643Z" fill="#FFE5E5"/>
</svg>
