<svg width="102" height="100" viewBox="0 0 102 100" fill="none" xmlns="http://www.w3.org/2000/svg">
<g clip-path="url(#clip0_104_268)">
<path d="M50.8999 100C78.5141 100 100.9 77.6142 100.9 50C100.9 22.3858 78.5141 0 50.8999 0C23.2857 0 0.899902 22.3858 0.899902 50C0.899902 77.6142 23.2857 100 50.8999 100Z" fill="#5FFE9F"/>
<path d="M67.2849 45.0812H64.8397C64.5632 44.1802 64.2031 43.3102 63.764 42.4816L65.4927 40.7538C65.6588 40.5877 65.7515 40.3643 65.7515 40.1292C65.7515 39.8941 65.6588 39.6698 65.4927 39.5046L60.4954 34.5073C60.1499 34.1622 59.5917 34.1622 59.2463 34.5073L57.5175 36.2352C56.6889 35.7974 55.8189 35.4368 54.9179 35.1603V32.7143C54.9179 32.2256 54.5219 31.8309 54.0345 31.8309H46.9677C46.4803 31.8309 46.0843 32.2256 46.0843 32.7143V35.1603C45.1833 35.4359 44.3133 35.7974 43.4847 36.2352L41.756 34.5073C41.4105 34.1622 40.8523 34.1622 40.5068 34.5073L35.5095 39.5046C35.3434 39.6707 35.2507 39.8941 35.2507 40.1292C35.2507 40.3643 35.3434 40.5886 35.5095 40.7538L37.2383 42.4816C36.7992 43.3102 36.439 44.1811 36.1625 45.0812H33.7173C33.2299 45.0812 32.834 45.4759 32.834 45.9646V53.0315C32.834 53.5201 33.2299 53.9148 33.7173 53.9148H36.1625C36.439 54.8159 36.7992 55.6858 37.2383 56.5144L35.5095 58.2423C35.3434 58.4084 35.2507 58.6318 35.2507 58.8669C35.2507 59.1019 35.3434 59.3262 35.5095 59.4914L40.5068 64.4888C40.8523 64.8338 41.4105 64.8338 41.756 64.4888L43.4847 62.7609C44.3133 63.1987 45.1833 63.5593 46.0843 63.8358V66.2818C46.0843 66.7705 46.4803 67.1652 46.9677 67.1652H54.0345C54.5219 67.1652 54.9179 66.7705 54.9179 66.2818V63.8358C55.8189 63.5601 56.6889 63.1987 57.5175 62.7609L59.2463 64.4888C59.5917 64.8338 60.1499 64.8338 60.4954 64.4888L65.4927 59.4914C65.6588 59.3254 65.7515 59.1019 65.7515 58.8669C65.7515 58.6318 65.6588 58.4075 65.4927 58.2423L63.764 56.5144C64.2031 55.6858 64.5632 54.815 64.8397 53.9148H67.2849C67.7723 53.9148 68.1682 53.5201 68.1682 53.0315V45.9646C68.1682 45.4759 67.7723 45.0812 67.2849 45.0812ZM66.4015 52.1481H64.172C63.7691 52.1481 63.4176 52.4211 63.3167 52.8106C63.007 54.011 62.5325 55.1566 61.9071 56.2168C61.7014 56.5649 61.757 57.0066 62.0421 57.2908L63.619 58.8669L59.8708 62.6151L58.2952 61.039C58.0105 60.7556 57.5697 60.6991 57.2216 60.9032C56.1618 61.5286 55.0158 62.0026 53.8146 62.3127C53.4242 62.4137 53.1512 62.7661 53.1512 63.1689V65.3984H47.851V63.1689C47.851 62.7661 47.578 62.4145 47.1885 62.3127C45.9873 62.0026 44.8412 61.5286 43.7815 60.9032C43.4334 60.6991 42.9917 60.7548 42.7083 61.039L41.1323 62.6151L37.384 58.8669L38.961 57.2908C39.2461 57.0066 39.3017 56.5649 39.0968 56.2168C38.4714 55.1566 37.9965 54.011 37.6873 52.8106C37.5855 52.4211 37.2331 52.1481 36.8302 52.1481H34.6007V46.848H36.8302C37.2331 46.848 37.5846 46.5749 37.6855 46.1854C37.9952 44.9851 38.4697 43.8395 39.0951 42.7793C39.3 42.4312 39.2444 41.9895 38.9592 41.7053L37.3823 40.1292L41.1305 36.381L42.7062 37.957C42.9917 38.2413 43.4334 38.2969 43.7798 38.0929C44.8395 37.4675 45.9856 36.9934 47.1868 36.6833C47.578 36.5824 47.851 36.23 47.851 35.8271V33.5976H53.1512V35.8271C53.1512 36.23 53.4242 36.5815 53.8137 36.6833C55.0149 36.9934 56.161 37.4675 57.2207 38.0929C57.568 38.2952 58.0096 38.2404 58.2939 37.957L59.87 36.381L63.6182 40.1292L62.0412 41.7053C61.757 41.9895 61.7014 42.4312 61.9062 42.7793C62.5317 43.8395 63.007 44.9851 63.3158 46.1854C63.4167 46.5749 63.7691 46.848 64.172 46.848H66.4015V52.1481Z" fill="black"/>
<path d="M50.5007 38.902C44.6553 38.902 39.9004 43.6569 39.9004 49.5023C39.9004 55.3476 44.6553 60.1025 50.5007 60.1025C56.346 60.1025 61.1009 55.3476 61.1009 49.5023C61.1009 43.6569 56.346 38.902 50.5007 38.902ZM50.5007 58.3358C45.6297 58.3358 41.6671 54.3732 41.6671 49.5023C41.6671 44.6313 45.6297 40.6687 50.5007 40.6687C55.3716 40.6687 59.3342 44.6313 59.3342 49.5023C59.3342 54.3732 55.3716 58.3358 50.5007 58.3358Z" fill="black"/>
<path d="M47.415 43.4319C47.1385 43.5893 46.9673 43.8826 46.9673 44.2005V54.8008C46.9673 55.1187 47.1385 55.412 47.415 55.5694C47.5504 55.6462 47.7005 55.6841 47.8506 55.6841C48.0081 55.6841 48.1651 55.6419 48.3057 55.5578L57.1393 50.2576C57.405 50.0985 57.5676 49.8116 57.5676 49.5006C57.5676 49.1897 57.405 48.9028 57.1393 48.7437L48.3057 43.4435C48.0327 43.2801 47.6915 43.2749 47.415 43.4319ZM48.734 45.7615L54.9671 49.5006L48.734 53.2398V45.7615Z" fill="black"/>
<path d="M73.468 23C71.5193 23 69.9346 24.5847 69.9346 26.5334C69.9346 28.4822 71.5193 30.0669 73.468 30.0669C75.4167 30.0669 77.0014 28.4822 77.0014 26.5334C77.0014 24.5847 75.4167 23 73.468 23ZM73.468 28.3001C72.4936 28.3001 71.7013 27.5078 71.7013 26.5334C71.7013 25.5591 72.4936 24.7667 73.468 24.7667C74.4424 24.7667 75.2347 25.5591 75.2347 26.5334C75.2347 27.5078 74.4424 28.3001 73.468 28.3001Z" fill="black"/>
<path d="M27.5334 23C25.5847 23 24 24.5847 24 26.5334C24 28.4822 25.5847 30.0669 27.5334 30.0669C29.4822 30.0669 31.0669 28.4822 31.0669 26.5334C31.0669 24.5847 29.4822 23 27.5334 23ZM27.5334 28.3001C26.5591 28.3001 25.7667 27.5078 25.7667 26.5334C25.7667 25.5591 26.5591 24.7667 27.5334 24.7667C28.5078 24.7667 29.3001 25.5591 29.3001 26.5334C29.3001 27.5078 28.5078 28.3001 27.5334 28.3001Z" fill="black"/>
<path d="M73.468 68.9342C71.5193 68.9342 69.9346 70.5189 69.9346 72.4676C69.9346 74.4164 71.5193 76.0011 73.468 76.0011C75.4167 76.0011 77.0014 74.4164 77.0014 72.4676C77.0014 70.5189 75.4167 68.9342 73.468 68.9342ZM73.468 74.2343C72.4936 74.2343 71.7013 73.442 71.7013 72.4676C71.7013 71.4933 72.4936 70.7009 73.468 70.7009C74.4424 70.7009 75.2347 71.4933 75.2347 72.4676C75.2347 73.442 74.4424 74.2343 73.468 74.2343Z" fill="black"/>
<path d="M27.5334 68.9342C25.5847 68.9342 24 70.5189 24 72.4676C24 74.4164 25.5847 76.0011 27.5334 76.0011C29.4822 76.0011 31.0669 74.4164 31.0669 72.4676C31.0669 70.5189 29.4822 68.9342 27.5334 68.9342ZM27.5334 74.2343C26.5591 74.2343 25.7667 73.442 25.7667 72.4676C25.7667 71.4933 26.5591 70.7009 27.5334 70.7009C28.5078 70.7009 29.3001 71.4933 29.3001 72.4676C29.3001 73.442 28.5078 74.2343 27.5334 74.2343Z" fill="black"/>
<path d="M69.9346 49.5007H71.7013V51.2674H69.9346V49.5007Z" fill="black"/>
<path d="M73.4678 49.5007H75.2345V51.2674H73.4678V49.5007Z" fill="black"/>
<path d="M73.4678 45.9691H75.2345V47.7358H73.4678V45.9691Z" fill="black"/>
<path d="M73.4678 42.4336H75.2345V44.2003H73.4678V42.4336Z" fill="black"/>
<path d="M73.4678 38.902H75.2345V40.6687H73.4678V38.902Z" fill="black"/>
<path d="M73.4678 35.3665H75.2345V37.1332H73.4678V35.3665Z" fill="black"/>
<path d="M73.4678 31.8309H75.2345V33.5976H73.4678V31.8309Z" fill="black"/>
<path d="M32.834 24.7678H34.6007V26.5345H32.834V24.7678Z" fill="black"/>
<path d="M36.3667 24.7678H38.1334V26.5345H36.3667V24.7678Z" fill="black"/>
<path d="M39.9004 24.7678H41.6671V26.5345H39.9004V24.7678Z" fill="black"/>
<path d="M43.4341 24.7678H45.2008V26.5345H43.4341V24.7678Z" fill="black"/>
<path d="M46.9673 24.7678H48.734V26.5345H46.9673V24.7678Z" fill="black"/>
<path d="M50.5005 24.7678H52.2672V26.5345H50.5005V24.7678Z" fill="black"/>
<path d="M50.5005 28.2993H52.2672V30.0661H50.5005V28.2993Z" fill="black"/>
<path d="M25.7661 65.4026H27.5328V67.1694H25.7661V65.4026Z" fill="black"/>
<path d="M25.7661 61.8671H27.5328V63.6338H25.7661V61.8671Z" fill="black"/>
<path d="M25.7661 58.3316H27.5328V60.0983H25.7661V58.3316Z" fill="black"/>
<path d="M25.7661 54.8H27.5328V56.5667H25.7661V54.8Z" fill="black"/>
<path d="M25.7661 51.2684H27.5328V53.0351H25.7661V51.2684Z" fill="black"/>
<path d="M25.7661 47.7329H27.5328V49.4996H25.7661V47.7329Z" fill="black"/>
<path d="M29.2998 47.7329H31.0665V49.4996H29.2998V47.7329Z" fill="black"/>
<path d="M48.7339 68.9342H50.5006V70.7009H48.7339V68.9342Z" fill="black"/>
<path d="M48.7339 72.4698H50.5006V74.2365H48.7339V72.4698Z" fill="black"/>
<path d="M52.2671 72.4698H54.0338V74.2365H52.2671V72.4698Z" fill="black"/>
<path d="M55.8008 72.4698H57.5675V74.2365H55.8008V72.4698Z" fill="black"/>
<path d="M59.3345 72.4698H61.1012V74.2365H59.3345V72.4698Z" fill="black"/>
<path d="M62.8677 72.4698H64.6344V74.2365H62.8677V72.4698Z" fill="black"/>
<path d="M66.4014 72.4698H68.1681V74.2365H66.4014V72.4698Z" fill="black"/>
</g>
<defs>
<clipPath id="clip0_104_268">
<rect width="101" height="100" fill="white" transform="translate(0.5)"/>
</clipPath>
</defs>
</svg>
