<svg width="101" height="100" viewBox="0 0 101 100" fill="none" xmlns="http://www.w3.org/2000/svg">
<g clip-path="url(#clip0_27_825)">
<path d="M50.3999 100C78.0141 100 100.4 77.6142 100.4 50C100.4 22.3858 78.0141 0 50.3999 0C22.7857 0 0.399902 22.3858 0.399902 50C0.399902 77.6142 22.7857 100 50.3999 100Z" fill="#5FFE9F"/>
<path d="M36.2999 23.8868C42.5846 20.5497 49.877 19.6398 56.7891 21.3301C63.7012 23.0205 69.7505 27.1933 73.7859 33.0542C77.8212 38.9151 79.5609 46.0552 78.6737 53.1155C77.7866 60.1757 74.3346 66.6634 68.9748 71.3439C63.6149 76.0243 56.7213 78.5707 49.6058 78.4985C42.4904 78.4263 35.6498 75.7406 30.386 70.9524C25.1222 66.1642 21.8025 59.6078 21.0588 52.531C20.3151 45.4541 22.1993 38.3509 26.3527 32.573" stroke="#1F1F1F" stroke-width="3" stroke-linecap="round" stroke-linejoin="round"/>
<path d="M34.8774 24.1659L36.8219 19.9624" stroke="#1F1F1F" stroke-width="2" stroke-linecap="round" stroke-linejoin="round"/>
<path d="M34.876 23.874L38.9885 25.5302" stroke="#1F1F1F" stroke-width="2" stroke-linecap="round" stroke-linejoin="round"/>
<path d="M49.8998 72.1268C62.3963 72.1268 72.5268 61.9964 72.5268 49.4999C72.5268 37.0034 62.3963 26.873 49.8998 26.873C37.4034 26.873 27.2729 37.0034 27.2729 49.4999C27.2729 61.9964 37.4034 72.1268 49.8998 72.1268Z" stroke="#1F1F1F" stroke-width="3"/>
<path d="M49.8997 30.4521H49.8997C49.1984 30.4521 48.6299 31.0206 48.6299 31.7219V33.415C48.6299 34.1163 49.1984 34.6849 49.8997 34.6849H49.8997C50.601 34.6849 51.1696 34.1163 51.1696 33.415V31.7219C51.1696 31.0206 50.601 30.4521 49.8997 30.4521Z" fill="#1F1F1F"/>
<path d="M49.9002 64.3145H49.9002C49.1989 64.3145 48.6304 64.883 48.6304 65.5843V67.2775C48.6304 67.9788 49.1989 68.5473 49.9002 68.5473H49.9002C50.6015 68.5473 51.17 67.9788 51.17 67.2775V65.5843C51.17 64.883 50.6015 64.3145 49.9002 64.3145Z" fill="#1F1F1F"/>
<path d="M68.9473 49.4998V49.4998C68.9473 48.7985 68.3787 48.23 67.6774 48.23H65.9843C65.283 48.23 64.7145 48.7985 64.7145 49.4998V49.4998C64.7145 50.2012 65.283 50.7697 65.9843 50.7697H67.6774C68.3787 50.7697 68.9473 50.2012 68.9473 49.4998Z" fill="#1F1F1F"/>
<path d="M35.085 49.4999V49.4998C35.085 48.7985 34.5164 48.23 33.8151 48.23H32.122C31.4207 48.23 30.8522 48.7985 30.8522 49.4998V49.4999C30.8522 50.2012 31.4207 50.7697 32.122 50.7697H33.8151C34.5164 50.7697 35.085 50.2012 35.085 49.4999Z" fill="#1F1F1F"/>
<path d="M43.3008 49.6328L47.9813 54.1822L57.6997 44.7361" stroke="#1F1F1F" stroke-width="3" stroke-linecap="round" stroke-linejoin="round"/>
</g>
<defs>
<clipPath id="clip0_27_825">
<rect width="101" height="100" fill="white"/>
</clipPath>
</defs>
</svg>
