<svg width="24" height="24" viewBox="0 0 24 24" fill="none" xmlns="http://www.w3.org/2000/svg">
<path d="M16 1.97H8C4 1.97 2 3.97 2 7.97V12.97C2 17.97 4 18.97 8 18.97H8.5C8.65355 18.9787 8.8037 19.0187 8.94126 19.0875C9.07882 19.1563 9.20089 19.2524 9.3 19.37L10.8 21.37C10.9282 21.5722 11.1055 21.7387 11.3153 21.8541C11.525 21.9694 11.7606 22.0299 12 22.0299C12.2394 22.0299 12.475 21.9694 12.6847 21.8541C12.8945 21.7387 13.0718 21.5722 13.2 21.37L14.7 19.37C14.7931 19.2458 14.9139 19.145 15.0528 19.0756C15.1916 19.0061 15.3448 18.97 15.5 18.97H16C20 18.97 22 16.97 22 12.97V7.97C22 3.97 20 1.97 16 1.97ZM8.53 12.17C8.60369 12.2387 8.66279 12.3215 8.70378 12.4135C8.74477 12.5055 8.76682 12.6048 8.76859 12.7055C8.77037 12.8062 8.75184 12.9062 8.71412 12.9996C8.6764 13.093 8.62026 13.1778 8.54904 13.249C8.47782 13.3203 8.39299 13.3764 8.2996 13.4141C8.20621 13.4518 8.10618 13.4704 8.00548 13.4686C7.90478 13.4668 7.80546 13.4448 7.71346 13.4038C7.62146 13.3628 7.53866 13.3037 7.47 13.23L5.47 11.23C5.40034 11.1604 5.34507 11.0778 5.30736 10.9869C5.26965 10.8959 5.25025 10.7985 5.25025 10.7C5.25025 10.6016 5.26965 10.5041 5.30736 10.4131C5.34507 10.3222 5.40034 10.2396 5.47 10.17L7.47 8.17C7.53866 8.09631 7.62146 8.03721 7.71346 7.99622C7.80546 7.95523 7.90478 7.93319 8.00548 7.93141C8.10618 7.92963 8.20621 7.94816 8.2996 7.98588C8.39299 8.0236 8.47782 8.07974 8.54904 8.15096C8.62026 8.22218 8.6764 8.30701 8.71412 8.4004C8.75184 8.49379 8.77037 8.59382 8.76859 8.69452C8.76682 8.79523 8.74477 8.89454 8.70378 8.98654C8.66279 9.07854 8.60369 9.16134 8.53 9.23L7.061 10.7L8.53 12.17ZM13.689 8.662L11.689 13.329C11.6513 13.4211 11.5956 13.5048 11.5251 13.5752C11.4547 13.6456 11.371 13.7013 11.2788 13.7389C11.1867 13.7766 11.0879 13.7956 10.9884 13.7947C10.8888 13.7938 10.7904 13.7731 10.6989 13.7338C10.6074 13.6945 10.5247 13.6374 10.4555 13.5658C10.3863 13.4942 10.3321 13.4095 10.296 13.3167C10.2599 13.2239 10.2426 13.1249 10.2452 13.0254C10.2478 12.9258 10.2701 12.8278 10.311 12.737L12.311 8.07C12.3917 7.89062 12.5397 7.75013 12.723 7.67879C12.9063 7.60745 13.1103 7.61099 13.291 7.68863C13.4717 7.76627 13.6147 7.91181 13.6892 8.09388C13.7636 8.27595 13.7636 8.47998 13.689 8.662ZM18.53 11.23L16.53 13.23C16.3878 13.3625 16.1998 13.4346 16.0055 13.4312C15.8112 13.4277 15.6258 13.349 15.4884 13.2116C15.351 13.0742 15.2723 12.8888 15.2688 12.6945C15.2654 12.5002 15.3375 12.3122 15.47 12.17L16.939 10.7L15.47 9.23C15.3963 9.16134 15.3372 9.07854 15.2962 8.98654C15.2552 8.89454 15.2332 8.79523 15.2314 8.69452C15.2296 8.59382 15.2482 8.49379 15.2859 8.4004C15.3236 8.30701 15.3797 8.22218 15.451 8.15096C15.5222 8.07974 15.607 8.0236 15.7004 7.98588C15.7938 7.94816 15.8938 7.92963 15.9945 7.93141C16.0952 7.93319 16.1945 7.95523 16.2865 7.99622C16.3785 8.03721 16.4613 8.09631 16.53 8.17L18.53 10.17C18.5997 10.2396 18.6549 10.3222 18.6926 10.4131C18.7303 10.5041 18.7498 10.6016 18.7498 10.7C18.7498 10.7985 18.7303 10.8959 18.6926 10.9869C18.6549 11.0778 18.5997 11.1604 18.53 11.23Z" fill="#00218F"/>
</svg>
