<svg width="36" height="37" viewBox="0 0 36 37" fill="none" xmlns="http://www.w3.org/2000/svg">
<rect y="0.443359" width="36" height="36" rx="18" fill="#FFF5E6"/>
<path d="M11.5394 24.7378C11.8139 25.0436 12.2077 25.2189 12.6195 25.2189C12.9789 25.2189 13.3241 25.0862 13.5912 24.8457C14.1865 24.31 14.2347 23.3891 13.699 22.7931L9.78369 18.4431L13.699 14.0926C14.2347 13.4973 14.1865 12.5763 13.5912 12.0407C13.3028 11.781 12.9282 11.6462 12.5429 11.6696C12.1548 11.6902 11.7986 11.8598 11.5394 12.1478L6.74881 17.4712C6.2504 18.0253 6.2504 18.861 6.74881 19.4159L11.5394 24.7378Z" fill="#FF7A00"/>
<path d="M24.4606 12.1476C23.925 11.5531 23.0051 11.5042 22.4088 12.0405C21.8135 12.5762 21.7652 13.4971 22.3009 14.0931L26.2163 18.443L22.3009 22.7936C21.7652 23.3889 21.8135 24.3098 22.4088 24.8462C22.6759 25.086 23.0211 25.2187 23.3804 25.2187C23.7923 25.2187 24.186 25.0434 24.4606 24.7384L29.2511 19.415C29.7496 18.8609 29.7496 18.0251 29.2511 17.471L24.4606 12.1476Z" fill="#FF7A00"/>
<path d="M20.5459 8.07502L20.5445 8.07433C19.7658 7.8856 18.9786 8.36451 18.7885 9.13996L14.3903 27.0533C14.1991 27.831 14.6766 28.6192 15.4552 28.8108C15.5684 28.8384 15.6851 28.8526 15.8019 28.8526C16.4723 28.8526 17.0523 28.3978 17.2119 27.7458L21.6101 9.83247C21.8013 9.05482 21.3239 8.2666 20.5459 8.07502Z" fill="#FF7A00"/>
</svg>
