<svg width="25" height="24" viewBox="0 0 25 24" fill="none" xmlns="http://www.w3.org/2000/svg">
<g id="Iconly/Light-Outline/Danger Circle">
<g id="Danger Circle">
<path id="Fill 1" fill-rule="evenodd" clip-rule="evenodd" d="M12.5 3.5C7.813 3.5 4 7.313 4 12C4 16.687 7.813 20.5 12.5 20.5C17.187 20.5 21 16.687 21 12C21 7.313 17.187 3.5 12.5 3.5M12.5 22C6.986 22 2.5 17.514 2.5 12C2.5 6.486 6.986 2 12.5 2C18.014 2 22.5 6.486 22.5 12C22.5 17.514 18.014 22 12.5 22" fill="#CFCFCF"/>
<path id="Fill 3" fill-rule="evenodd" clip-rule="evenodd" d="M12.4941 13.373C12.0801 13.373 11.7441 13.037 11.7441 12.623V8.20398C11.7441 7.78998 12.0801 7.45398 12.4941 7.45398C12.9081 7.45398 13.2441 7.78998 13.2441 8.20398V12.623C13.2441 13.037 12.9081 13.373 12.4941 13.373" fill="#CFCFCF"/>
<path id="Fill 5" fill-rule="evenodd" clip-rule="evenodd" d="M12.5039 16.7959C11.9509 16.7959 11.4989 16.3489 11.4989 15.7959C11.4989 15.2429 11.9419 14.7959 12.4939 14.7959H12.5039C13.0569 14.7959 13.5039 15.2429 13.5039 15.7959C13.5039 16.3489 13.0569 16.7959 12.5039 16.7959" fill="#CFCFCF"/>
</g>
</g>
</svg>
