<svg width="130" height="18" viewBox="0 0 130 18" fill="none" xmlns="http://www.w3.org/2000/svg">
<path d="M56.3046 11.3726H64.8143L60.3138 4.10836L52.0544 17.2423H48.2953L58.3419 1.46599C58.5626 1.1472 58.8577 0.887389 59.2014 0.709172C59.5451 0.530955 59.927 0.439738 60.3138 0.443469C61.095 0.443469 61.8232 0.815389 62.2459 1.43935L72.3313 17.2423H68.5723L66.7995 14.3069H58.1826L56.3046 11.3726ZM95.3502 14.3069V0.603305H92.161V15.6491C92.161 16.061 92.3203 16.4596 92.6246 16.7649C92.9289 17.0702 93.3395 17.2423 93.7898 17.2423H108.336L110.216 14.3069H95.3502ZM42.5776 11.851C45.6749 11.851 48.1901 9.34187 48.1901 6.23434C48.1901 3.12682 45.6759 0.603305 42.5776 0.603305H28.6229V17.2434H31.8121V3.53767H42.3662C43.849 3.53767 45.0397 4.74667 45.0397 6.23332C45.0397 7.71997 43.848 8.92897 42.3662 8.92897L33.3735 8.91565L42.8952 17.2423H47.5294L41.1224 11.85H42.5776V11.851ZM8.99439 17.2423C4.41635 17.2423 0.700195 13.5242 0.700195 8.92897C0.700195 4.33377 4.41532 0.602281 8.99439 0.602281H18.6335C23.2136 0.602281 26.9267 4.33479 26.9267 8.92897C26.9267 13.5231 23.2136 17.2423 18.6335 17.2423H8.99439ZM18.4191 14.3069C19.1237 14.308 19.8217 14.1697 20.473 13.8999C21.1243 13.6302 21.7163 13.2342 22.215 12.7347C22.7137 12.2352 23.1094 11.642 23.3794 10.989C23.6494 10.336 23.7884 9.63595 23.7885 8.92897C23.7888 7.49964 23.2233 6.1287 22.2165 5.11753C21.2096 4.10637 19.8437 3.53774 18.4191 3.53665H9.2068C7.78253 3.53828 6.41716 4.10715 5.41072 5.11826C4.40428 6.12936 3.8391 7.49999 3.83937 8.92897C3.8395 9.63578 3.97848 10.3356 4.24835 10.9885C4.51822 11.6414 4.9137 12.2345 5.41218 12.734C5.91066 13.2335 6.50237 13.6295 7.15347 13.8994C7.80458 14.1692 8.50231 14.3077 9.2068 14.3069H18.4191ZM78.9906 17.2423C74.4115 17.2423 70.6923 13.5242 70.6923 8.92897C70.6923 4.33377 74.4115 0.602281 78.9906 0.602281H90.4403L88.5725 3.53665H79.203C77.7777 3.53746 76.411 4.10581 75.4031 5.11686C74.3952 6.12791 73.8285 7.49899 73.8274 8.92897C73.8274 11.9033 76.2374 14.3069 79.203 14.3069H90.7048L88.8258 17.2423H78.9906ZM117.997 14.3069C116.829 14.3075 115.692 13.925 114.76 13.2178C113.829 12.5105 113.153 11.5172 112.835 10.389H126.468L128.347 7.45461H112.835C113.155 6.32777 113.832 5.33598 114.763 4.62914C115.694 3.92229 116.83 3.53881 117.997 3.53665H127.355L129.248 0.602281H117.785C113.206 0.602281 109.487 4.33479 109.487 8.92897C109.487 13.5231 113.206 17.2423 117.785 17.2423H127.62L129.5 14.3069H117.997Z" fill="#EA1B22"/>
</svg>
