<svg width="58" height="58" viewBox="0 0 58 58" fill="none" xmlns="http://www.w3.org/2000/svg">
<path d="M0.300293 0.481183C0.976346 0.368971 1.66035 0.314499 2.34523 0.318328C3.39759 0.318328 4.16933 0.568877 4.65902 1.01986C5.11199 1.42074 5.38132 2.03459 5.38132 2.78671C5.38132 3.55089 5.16048 4.1522 4.74425 4.59066C4.1811 5.2045 3.26293 5.51769 2.22233 5.51769C1.90403 5.51769 1.61022 5.50516 1.36584 5.44253V8.82541H0.300293V0.481183ZM1.36584 4.5526C1.59845 4.61524 1.89226 4.64029 2.24729 4.64029C3.53226 4.64029 4.31624 4.00139 4.31624 2.83634C4.31624 1.7214 3.54497 1.18272 2.36971 1.18272C1.9045 1.18272 1.54948 1.2203 1.36584 1.27041V4.5526ZM11.833 5.7427C11.833 7.98511 10.3145 8.96273 8.88214 8.96273C7.2784 8.96273 6.04193 7.7601 6.04193 5.84292C6.04193 3.81348 7.33961 2.62337 8.98008 2.62337C10.6822 2.62289 11.833 3.88864 11.833 5.7427ZM7.13196 5.80534C7.13196 7.13325 7.87875 8.13544 8.93158 8.13544C9.95994 8.13544 10.7307 7.14577 10.7307 5.78028C10.7307 4.75304 10.2293 3.45018 8.9556 3.45018C7.68193 3.45018 7.13196 4.65282 7.13196 5.80534ZM13.0445 7.69698C13.3628 7.90995 13.926 8.13544 14.4646 8.13544C15.2481 8.13544 15.6154 7.73456 15.6154 7.23346C15.6154 6.70731 15.3098 6.41918 14.5136 6.11853C13.4485 5.73018 12.9466 5.12886 12.9466 4.40227C12.9466 3.42513 13.7178 2.62337 14.991 2.62337C15.5909 2.62337 16.1178 2.79876 16.4484 2.9992L16.179 3.80095C15.8147 3.57119 15.395 3.44974 14.967 3.45018C14.3304 3.45018 13.9754 3.826 13.9754 4.27699C13.9754 4.77809 14.3309 5.00358 15.1022 5.30424C16.1305 5.70512 16.6569 6.23127 16.6569 7.13324C16.6569 8.19808 15.849 8.94972 14.4411 8.94972C13.7922 8.94972 13.1924 8.78687 12.7761 8.53632L13.0445 7.69698ZM19.3375 1.01938V2.76069H20.8796V3.60003H19.3375V6.86969C19.3375 7.62133 19.5452 8.04727 20.1455 8.04727C20.356 8.05037 20.5659 8.0251 20.7699 7.9721L20.8188 8.79891C20.6112 8.8866 20.2802 8.94924 19.8644 8.94924C19.3625 8.94924 18.958 8.78638 18.7009 8.48572C18.3953 8.16001 18.2847 7.62134 18.2847 6.90727V3.60003H17.3665V2.76069H18.2847V1.30751L19.3375 1.01938ZM27.1236 2.76118C27.0987 3.19964 27.0747 3.6882 27.0747 4.42732V7.94753C27.0747 9.33807 26.8053 10.1899 26.2299 10.7166C25.6546 11.2678 24.8221 11.4432 24.0753 11.4432C23.3652 11.4432 22.5817 11.2678 22.1038 10.9421L22.3732 10.1027C22.7649 10.3533 23.377 10.5788 24.1116 10.5788C25.2134 10.5788 26.0214 9.98998 26.0214 8.46164V7.78516H25.9969C25.6663 8.34889 25.0297 8.79987 24.1116 8.79987C22.6425 8.79987 21.5896 7.52208 21.5896 5.84292C21.5896 3.78842 22.8996 2.62337 24.2585 2.62337C25.2873 2.62337 25.8504 3.17458 26.1075 3.67568H26.132L26.181 2.76118H27.1236ZM26.0096 5.15391C26.0096 4.966 25.9973 4.80315 25.9484 4.65282C25.7525 4.01392 25.2261 3.48777 24.4426 3.48777C23.4137 3.48777 22.6797 4.37721 22.6797 5.78028C22.6797 6.97039 23.2673 7.96006 24.4303 7.96006C25.0914 7.96006 25.6913 7.53412 25.9239 6.83259C25.9851 6.64468 26.0101 6.43171 26.0101 6.2438V5.15391H26.0096ZM28.7881 4.65282C28.7881 3.93875 28.7759 3.32491 28.7391 2.76118H29.6823L29.7185 3.95128H29.7675C30.0368 3.137 30.6857 2.62337 31.408 2.62337C31.5304 2.62337 31.6156 2.6359 31.7136 2.66096V3.70073C31.5931 3.67391 31.47 3.6613 31.3468 3.66315C30.5877 3.66315 30.0486 4.25194 29.9022 5.07875C29.8719 5.24827 29.8556 5.42007 29.8532 5.59237V8.82445H28.7881V4.65282ZM33.2693 5.99325C33.2937 7.48401 34.2237 8.09786 35.301 8.09786C36.0728 8.09786 36.5375 7.96006 36.9415 7.78467L37.1251 8.5739C36.7456 8.74929 36.0968 8.94972 35.1541 8.94972C33.33 8.94972 32.2404 7.72204 32.2404 5.89303C32.2404 4.06403 33.2933 2.62289 35.0194 2.62289C36.9537 2.62289 37.4679 4.3642 37.4679 5.47914C37.4679 5.70464 37.4434 5.88002 37.4312 5.99277H33.2693V5.99325ZM36.4278 5.20402C36.4395 4.50249 36.1457 3.4126 34.9342 3.4126C33.8447 3.4126 33.3672 4.43985 33.281 5.20402H36.4278ZM38.6921 7.49654C39.2693 7.85129 39.9287 8.0416 40.6019 8.04775C41.6915 8.04775 42.3281 7.45896 42.3281 6.6071C42.3281 5.81787 41.8874 5.36688 40.7733 4.92842C39.4267 4.43985 38.5942 3.72579 38.5942 2.53568C38.5942 1.2203 39.6593 0.243164 41.263 0.243164C42.1077 0.243164 42.7198 0.4436 43.0871 0.656566L42.7933 1.54601C42.3117 1.28108 41.7731 1.14329 41.2263 1.14514C40.1 1.14514 39.6715 1.83415 39.6715 2.41041C39.6715 3.19964 40.173 3.58799 41.312 4.03897C42.7076 4.59066 43.4177 5.27919 43.4177 6.5194C43.4177 7.82226 42.475 8.94972 40.5285 8.94972C39.7327 8.94972 38.8635 8.7117 38.4223 8.41104L38.6921 7.49654ZM51.6812 10.0647C50.617 9.77888 49.5634 9.45294 48.5227 9.08752C48.3513 9.02489 48.1799 8.96225 48.0208 8.96225C46.062 8.88709 44.3848 7.40885 44.3848 4.6904C44.3848 1.98447 46.0008 0.243164 48.2289 0.243164C50.4692 0.243164 51.9265 2.02206 51.9265 4.51501C51.9265 6.68226 50.9471 8.0728 49.576 8.56137V8.61148C50.3962 8.82445 51.2899 9.02489 51.9877 9.15016L51.6812 10.0647ZM50.7998 4.56513C50.7998 2.87392 49.9433 1.13213 48.1922 1.13213C46.3925 1.13213 45.5111 2.83586 45.5233 4.66534C45.5111 6.45676 46.4782 8.0728 48.1432 8.0728C49.8453 8.0728 50.7998 6.49435 50.7998 4.56513ZM53.309 0.380964H54.3745V7.90995H57.9003V8.82445H53.309V0.380964Z" fill="#336791"/>
<path fill-rule="evenodd" clip-rule="evenodd" d="M24.0375 56.0016C24.8971 56.6879 25.905 56.9806 26.9929 57.0348C27.4429 57.0575 27.9058 57.0362 28.3485 56.9584C29.0508 56.8352 29.7511 56.6805 30.4342 56.4818C31.8253 56.0766 33.0274 55.3764 33.9249 54.2456C34.4363 53.6009 34.856 52.904 35.1256 52.1334C35.3482 51.4976 35.5573 50.8553 35.7238 50.2046C35.8552 49.692 35.9205 49.1627 36.0001 48.6389C36.0533 48.2925 36.0855 47.9424 36.1186 47.5928C36.1723 47.0255 36.2284 46.4591 36.2673 45.8905C36.2946 45.495 36.2937 45.0976 36.3095 44.7017C36.3148 44.5808 36.3349 44.4609 36.3469 44.341C36.357 44.2294 36.4155 44.1909 36.5335 44.1928C36.948 44.1988 37.3634 44.209 37.7774 44.1909C38.2412 44.171 38.7085 44.1516 39.1651 44.0779C39.815 43.9729 40.4597 43.84 41.0973 43.6797C41.8495 43.4893 42.5398 43.149 43.2046 42.7618C43.9779 42.3103 44.684 41.781 45.2553 41.0989C45.7537 40.5052 45.9897 39.817 45.8693 39.0663C45.6947 37.9758 44.7454 37.2612 43.6416 37.2126C43.2416 37.195 42.8357 37.2357 42.4376 37.2844C41.9555 37.3436 41.4806 37.4483 40.9999 37.5173C40.668 37.5655 40.3317 37.5868 40.0007 37.6201L39.9916 37.5784C40.6104 36.4499 41.2551 35.3343 41.8404 34.1904C42.2898 33.3124 42.6736 32.4034 43.0703 31.5003C43.7275 30.0055 44.2518 28.4648 44.6864 26.8981C45.1023 25.3986 45.4582 23.8829 45.5709 22.3269C45.616 21.7059 45.6472 21.0822 45.6429 20.4602C45.64 19.9638 45.5844 19.4669 45.5331 18.9723C45.4745 18.4055 45.297 17.8683 45.0514 17.3515C44.7281 16.6698 44.2259 16.1109 43.6977 15.5802C43.2751 15.155 42.8098 14.7679 42.3488 14.3808C41.6912 13.8287 40.9515 13.3874 40.184 12.9961C39.314 12.55 38.3923 12.2049 37.4382 11.968C36.8569 11.8265 36.2718 11.6998 35.6835 11.5878C35.4744 11.5471 35.2633 11.4434 35.0527 11.4434H31.0866C30.9432 11.4434 30.8012 11.5341 30.6568 11.5494C29.7076 11.6494 28.7704 11.8363 27.8578 12.1074C27.5172 12.2089 27.2064 12.1496 26.8826 12.1204C26.6341 12.0982 26.3899 12.0366 26.1414 12.0245C25.196 11.9792 24.2495 11.9134 23.3036 11.9231C22.3979 11.9324 21.5014 12.0769 20.625 12.3168C19.8915 12.5187 19.1734 12.7636 18.5153 13.1364C18.2342 13.2957 18.0106 13.2656 17.7195 13.185C16.7416 12.9085 15.7552 12.6608 14.7617 12.4422C14.1424 12.3084 13.5049 12.2408 12.8722 12.1778C12.2649 12.1169 11.6554 12.0803 11.045 12.0681C10.4492 12.0556 9.84962 12.056 9.25624 12.107C8.31172 12.188 7.38543 12.3732 6.48457 12.6724C5.49153 13.0002 4.56362 13.4889 3.74072 14.1177C2.90126 14.7591 2.22777 15.5413 1.68715 16.4355C1.1168 17.3788 0.724887 18.3888 0.482162 19.4488C0.350247 20.0235 0.398696 20.6144 0.308034 21.1979C0.280211 21.3785 0.336336 21.5601 0.336336 21.7416V24.2817C0.336336 24.4502 0.285008 24.6193 0.307074 24.7887C0.36128 25.1958 0.342571 25.6061 0.414046 26.0104C0.526294 26.6504 0.627509 27.2881 0.763742 27.9234C0.954181 28.8112 1.13598 29.698 1.34705 30.5816C1.50055 31.2248 1.66701 31.8643 1.84977 32.5002C2.12799 33.4717 2.3995 34.4447 2.71466 35.4047C3.00775 36.297 3.34161 37.1765 3.675 38.0563C4.13182 39.273 4.69176 40.4512 5.34913 41.5791C5.92237 42.5567 6.57619 43.4722 7.45403 44.2247C8.03302 44.7212 8.67628 45.1023 9.42509 45.2931C10.01 45.4431 10.6231 45.4595 11.2158 45.3412C11.9028 45.2064 12.5447 44.9098 13.0842 44.4776C13.1475 44.428 13.2161 44.3896 13.2914 44.4813C13.5764 44.8295 13.9572 45.062 14.3559 45.2625C15.4313 45.8043 16.6032 45.9669 17.7933 46.0326C18.0821 46.0484 18.3728 46.0086 18.663 46.0011C19.2295 45.9859 19.7793 45.8793 20.3199 45.7284C20.6039 45.6492 20.8806 45.5482 21.1694 45.4547C21.1843 45.7515 21.2035 46.0368 21.2131 46.3225L21.2529 47.8799C21.2606 48.117 21.2702 48.3541 21.2927 48.5903C21.3512 49.1988 21.4083 49.8073 21.4836 50.4139C21.5354 50.8321 21.5901 51.2531 21.6918 51.6615C21.8963 52.4846 22.1759 53.2886 22.5274 54.064C22.864 54.8167 23.3817 55.4809 24.0375 56.0016ZM22.3149 48.2365C22.2809 47.5053 22.2554 46.7737 22.2387 46.0419C22.2185 45.1426 22.2118 44.2428 22.1988 43.3435L22.1964 43.3092C21.723 43.5838 21.2562 43.8839 20.7626 44.1316C20.1837 44.422 19.5553 44.5901 18.9043 44.6378C18.3944 44.6748 17.8768 44.7087 17.3693 44.6698C16.5365 44.6045 15.7038 44.479 14.9584 44.0826C14.6561 43.9219 14.3405 43.726 14.1318 43.4699C13.6325 42.8544 13.8718 42.0769 14.625 41.7027C15.1454 41.4434 15.7134 41.3355 16.2775 41.2095C16.7686 41.1021 17.2545 40.9738 17.7339 40.8252C18.2068 40.6756 18.5052 40.3051 18.8002 39.9416L19.2674 39.3618L18.7057 39.3053C18.1483 39.2553 17.6163 39.1066 17.1079 38.889C16.6733 38.7033 16.6665 38.6829 16.3471 39.0173C15.8146 39.5753 15.2965 40.1472 14.7741 40.7149C14.3899 41.1327 14.0086 41.5527 13.6253 41.9718C13.2473 42.3862 12.8923 42.8239 12.4841 43.2092C11.8787 43.7815 11.1486 44.1256 10.2775 44.0867C9.71866 44.0617 9.20731 43.8728 8.7468 43.5639C7.79749 42.9257 7.15806 42.032 6.57523 41.0942C5.82931 39.892 5.25607 38.6116 4.7663 37.2964C4.42716 36.3869 4.0861 35.4769 3.79061 34.5544C3.46873 33.5518 3.18619 32.5377 2.90845 31.5226C2.69835 30.7571 2.51223 29.9851 2.33474 29.2117C2.13041 28.3327 1.94139 27.4504 1.76774 26.5652C1.65213 25.9673 1.58546 25.3607 1.49192 24.7591C1.36576 23.9473 1.34273 23.129 1.38878 22.3144C1.42956 21.5804 1.53845 20.8488 1.64686 20.1199C1.797 19.1112 2.14142 18.1596 2.63647 17.2607C2.94184 16.713 3.31612 16.2037 3.75079 15.7446C4.46554 14.9809 5.33042 14.4294 6.29269 14.0149C6.96474 13.7255 7.67517 13.5518 8.39902 13.4152C9.47354 13.2133 10.5576 13.2216 11.6418 13.2429C12.1157 13.2527 12.5882 13.3356 13.0616 13.3814C14.0815 13.4791 15.0807 13.6866 16.0674 13.9417C16.7869 14.1279 17.4916 14.3696 18.2044 14.579C18.2754 14.5998 18.3805 14.5979 18.4395 14.5614C19.4061 13.9519 20.4619 13.55 21.5858 13.3198C22.0122 13.2327 22.4526 13.1943 22.8886 13.1675C23.4182 13.1355 23.9531 13.1049 24.4817 13.135C25.1173 13.1702 25.751 13.2605 26.3827 13.3439C26.6897 13.3846 26.9891 13.487 27.2961 13.5148C27.4438 13.5282 27.5997 13.4249 27.7551 13.3897C28.5485 13.2124 29.3386 13.0156 30.1392 12.8762C30.735 12.7724 31.3442 12.7233 31.9496 12.69C32.6259 12.6525 33.3061 12.6252 33.9816 12.6567C34.8354 12.6965 35.683 12.8136 36.5196 13.0017C37.5567 13.2346 38.5506 13.5727 39.4961 14.0422C40.2027 14.3937 40.8738 14.8003 41.4787 15.3005C41.8749 15.6288 42.2807 15.9525 42.6381 16.3183C43.0794 16.7694 43.5294 17.22 43.8066 17.7974C44.0153 18.2332 44.164 18.6843 44.2053 19.1608C44.2561 19.754 44.318 20.3491 44.3127 20.9432C44.3074 21.511 44.2268 22.0783 44.1702 22.6451C44.0402 23.9362 43.75 25.1995 43.3965 26.4462C43.1015 27.4759 42.7672 28.4948 42.3944 29.5007C42.0543 30.4283 41.6614 31.3387 41.2647 32.2459C40.9723 32.9176 40.6549 33.5789 40.313 34.2284C39.6635 35.4565 38.9881 36.6722 38.2067 37.8299C38.0719 38.0295 37.9438 38.2342 37.8124 38.4384C38.1534 38.6602 38.5396 38.7385 38.9282 38.7792C39.298 38.8177 39.675 38.8413 40.0444 38.8144C40.6359 38.7718 41.2254 38.6903 41.8135 38.6111C42.3959 38.5324 42.9662 38.3726 43.5649 38.4148C44.1616 38.4569 44.5895 38.895 44.5487 39.435C44.5228 39.7767 44.3602 40.0699 44.1252 40.3204C43.0147 41.5031 41.6207 42.22 40.0262 42.5733C39.4203 42.7076 38.7958 42.7766 38.1755 42.8327C37.6459 42.8778 37.1137 42.8899 36.5825 42.8688C36.1929 42.8549 35.8068 42.7688 35.4086 42.7132C35.3683 43.0647 35.3305 43.431 35.2844 43.7959L35.0988 45.1958C35.0426 45.6395 34.999 46.085 34.9409 46.5286C34.8843 46.9593 34.8138 47.3876 34.7543 47.8178C34.6992 48.2184 34.6584 48.6213 34.596 49.0214C34.5015 49.6346 34.4109 50.2491 34.2866 50.8576C34.1379 51.5846 33.9106 52.2885 33.5378 52.9447C33.084 53.7454 32.4408 54.3553 31.6215 54.8068C30.7772 55.2722 29.8538 55.5144 28.9189 55.7173C28.2559 55.8613 27.5743 55.8844 26.9032 55.8256C25.7399 55.7242 24.747 55.244 23.9963 54.3729C23.2801 53.5417 22.7951 52.5896 22.6219 51.511C22.5404 50.9978 22.477 50.4821 22.432 49.9647C22.38 49.3895 22.341 48.8133 22.3149 48.2365ZM23.6226 40.8483C23.6298 41.2327 23.5885 41.617 23.5904 42.0014C23.5986 43.7903 23.612 45.5797 23.6279 47.3691C23.6307 47.6613 23.6456 47.9545 23.6672 48.2462C23.7128 48.8575 23.7578 49.4692 23.8192 50.0787C23.8634 50.5117 23.9233 50.9433 23.9939 51.373C24.0946 51.981 24.3815 52.5229 24.7067 53.0411C24.9868 53.4866 25.3519 53.8644 25.832 54.1256C26.6485 54.5688 27.5268 54.6059 28.4123 54.4428C29.0105 54.3331 29.5986 54.1557 30.179 53.9728C30.7503 53.7959 31.2719 53.4947 31.7035 53.0925C32.1107 52.7118 32.3995 52.2473 32.5943 51.7347C32.9718 50.7409 33.0903 49.6938 33.2462 48.6556C33.3047 48.2666 33.3556 47.8767 33.4088 47.4872C33.4697 47.044 33.5311 46.6013 33.5896 46.1581C33.6338 45.8275 33.6731 45.4973 33.7148 45.1671C33.7748 44.6929 33.8376 44.2192 33.8947 43.745C33.9384 43.3782 33.9748 43.01 34.0142 42.6423C34.0641 42.1723 34.1173 41.7036 34.161 41.2327C34.1936 40.8761 34.1801 40.5126 34.2459 40.162C34.3663 39.5197 34.6809 38.9733 35.271 38.6195C35.5175 38.4722 35.7967 38.3749 36.0701 38.2499L36.0231 38.1809C35.7703 37.8642 35.5113 37.5525 35.2633 37.232C34.8738 36.7291 34.5936 36.1683 34.3121 35.6047C34.0454 35.0703 33.7192 34.5646 33.4385 34.0362C32.9488 33.1147 32.4499 32.1954 31.9985 31.2568C31.431 30.0759 30.9839 28.8542 30.8434 27.5465C30.7834 26.9935 30.7681 26.4406 30.8847 25.8928C31.0703 25.0175 31.5433 24.3331 32.3396 23.8635C33.0783 23.4282 33.901 23.2874 34.7438 23.2434C35.2667 23.2161 35.7929 23.2383 36.3354 23.2383L36.3177 23.1499C35.98 22.4682 35.6648 21.7749 35.295 21.1099C34.774 20.1708 34.1063 19.3243 33.3637 18.5384C32.8158 17.9541 32.2136 17.4193 31.5649 16.9407C30.923 16.4716 30.2467 16.0525 29.5247 15.7103C28.6671 15.2985 27.7613 14.9875 26.8269 14.7841C25.9227 14.5905 25.0137 14.472 24.086 14.4623C23.2954 14.4539 22.5097 14.4891 21.7393 14.6609C20.5765 14.9207 19.513 15.3829 18.5887 16.1312C18.0767 16.5456 17.6193 17.019 17.2268 17.5409C16.763 18.1545 16.3898 18.8186 16.0703 19.5137C15.6318 20.4681 15.3311 21.4605 15.1248 22.4812C15.0221 22.9906 14.9416 23.5032 14.8595 24.0158C14.8308 24.196 14.8288 24.3789 14.8116 24.585L15.1627 24.4085L15.5052 24.2604C16.6646 23.7486 17.8653 23.4194 19.1557 23.4569C19.7044 23.4726 20.2283 23.5778 20.7166 23.8098C21.652 24.2553 22.1988 25.0124 22.4368 25.9701C22.6008 26.6314 22.7136 27.3057 22.8229 27.9785C22.9083 28.5037 22.9961 29.0344 23.0057 29.5642C23.0196 30.3384 22.9793 31.1146 22.9357 31.8884C22.8983 32.5464 22.7573 33.1951 22.5174 33.8121C22.0837 34.9309 21.6002 36.0317 21.1488 37.144C20.9996 37.5117 20.885 37.8919 20.7444 38.2962L21.3143 38.2967C21.3834 38.2981 21.4539 38.2999 21.5206 38.3152C22.0391 38.4333 22.4895 38.6602 22.8584 39.0455C23.3515 39.5568 23.6096 40.1551 23.6226 40.8483ZM13.7183 35.5436C13.4244 34.8759 13.2471 34.1658 13.1936 33.4421C13.1437 32.7595 13.2276 32.0806 13.3005 31.4008C13.3706 30.7427 13.43 30.0814 13.4502 29.4211C13.4843 28.3342 13.4085 27.2501 13.3547 26.1641C13.3226 25.5177 13.4003 24.8633 13.4598 24.2154C13.5135 23.6319 13.5807 23.0471 13.6953 22.4719C13.8867 21.5068 14.1414 20.5556 14.5036 19.6336C14.8466 18.7593 15.2419 17.9086 15.7983 17.1422C16.1806 16.6161 16.6133 16.1257 17.0292 15.6117L16.9054 15.569C15.5513 15.1541 14.1745 14.829 12.758 14.6878C12.0888 14.6206 11.4168 14.5817 10.7457 14.5428C10.5394 14.5313 10.3303 14.5581 10.1235 14.5771C9.61169 14.6248 9.09314 14.6433 8.58946 14.7359C7.73225 14.8934 6.90957 15.1583 6.1483 15.5894C5.47459 15.9721 4.88394 16.4771 4.40893 17.0764C3.87791 17.7391 3.51958 18.4884 3.26295 19.2867C2.95978 20.2291 2.81491 21.1993 2.77606 22.1778C2.742 23.0359 2.72521 23.8987 2.87871 24.7536C2.9924 25.3894 3.06867 26.0326 3.19435 26.6666C3.3633 27.531 3.55299 28.3915 3.76327 29.2474C4.06691 30.4718 4.37104 31.6972 4.73129 32.9067C5.07571 34.0649 5.46378 35.2129 5.88591 36.3475C6.23033 37.2732 6.62895 38.1818 7.04869 39.0779C7.32211 39.6619 7.6531 40.2241 8.0004 40.7705C8.36928 41.3512 8.78949 41.9023 9.35841 42.3237C10.0775 42.8554 10.6334 42.9383 11.3645 42.3543C11.6772 42.1047 11.9416 41.7953 12.214 41.5013C12.6462 41.0345 13.0636 40.5538 13.4943 40.0847C14.0426 39.4878 14.5976 38.8968 15.1488 38.3018C15.2654 38.1763 15.3781 38.0466 15.4913 37.9197L15.3028 37.7609C14.6232 37.1341 14.0839 36.3795 13.7183 35.5436ZM34.5087 17.7595C34.9596 18.2651 35.3872 18.7895 35.7905 19.3312C36.5634 20.3775 37.1855 21.5204 37.6397 22.7284C37.8412 23.2633 38.0023 23.8033 37.9304 24.3882C37.8805 24.798 37.8839 25.2134 37.8469 25.6256C37.8157 25.9682 37.7591 26.3091 37.7136 26.6508C37.6445 27.1658 37.5447 27.6798 37.515 28.1971C37.4862 28.6898 37.5164 29.1872 37.5486 29.6804C37.5807 30.1819 37.6507 30.6811 37.6982 31.1813C37.7519 31.7495 37.8249 32.3163 37.8412 32.8854C37.8546 33.3522 37.8114 33.8214 37.7697 34.2882C37.7161 34.8475 37.5754 35.3957 37.3524 35.9145C37.1974 36.2822 37.0127 36.6379 36.8386 37.0056L36.9086 37.0769L37.0151 37.1565L37.1231 36.9713C38.0289 35.5954 38.8337 34.1598 39.5316 32.6752C39.9791 31.7169 40.4035 30.7488 40.8047 29.7716C41.4302 28.2526 41.9355 26.69 42.3162 25.0972C42.4889 24.3822 42.6213 23.656 42.7384 22.9299C42.83 22.3621 42.9058 21.7879 42.923 21.2151C42.9408 20.6075 42.9062 19.9953 42.8482 19.3896C42.8046 18.932 42.6875 18.4717 42.3911 18.0989C41.9133 17.5001 41.3981 16.9278 40.7644 16.4744C40.2305 16.0933 39.6981 15.701 39.1258 15.3806C38.2177 14.8716 37.2348 14.5336 36.2078 14.303C35.2048 14.0774 34.1897 13.9802 33.168 13.9593C32.5655 13.9468 31.9601 14.0094 31.3591 14.0645C30.8141 14.1135 30.2726 14.1978 29.7243 14.2673C30.3129 14.5868 30.8938 14.8712 31.4406 15.206C32.5919 15.9099 33.6242 16.7569 34.5087 17.7595ZM19.5519 37.4701C19.9237 36.3216 20.4307 35.2241 20.9214 34.121C21.32 33.2258 21.5373 32.2834 21.6098 31.3146C21.6458 30.8372 21.6362 30.3537 21.6117 29.8749C21.5878 29.3421 21.5373 28.8108 21.4601 28.2828C21.357 27.6094 21.2399 26.9356 21.0749 26.2748C20.896 25.5598 20.4451 25.0615 19.6718 24.8777C19.2012 24.7661 18.7331 24.7707 18.2567 24.8434C17.0944 25.0198 16.0305 25.4334 15.0394 26.0391C14.8399 26.1609 14.7295 26.2595 14.7646 26.5351C14.8375 27.1204 14.8533 27.715 14.8504 28.3055C14.8466 29.1413 14.8096 29.9772 14.777 30.8126C14.7665 31.0845 14.7257 31.3559 14.695 31.6268C14.6489 32.0417 14.5592 32.4562 14.5621 32.8706C14.565 33.2976 14.6101 33.7343 14.7175 34.1478C15.0586 35.4593 15.7801 36.5318 16.9635 37.289C17.6912 37.7549 18.4961 37.9892 19.3802 38.0341C19.4387 37.8382 19.4929 37.6534 19.5519 37.4701ZM18.1627 26.222C18.0068 25.9066 18.096 25.645 18.4568 25.5237C18.545 25.4945 18.6352 25.4621 18.7263 25.4537C18.8525 25.4417 18.9796 25.4505 19.1067 25.4505C19.5648 25.4533 20.0052 25.5149 20.3827 25.7955C20.6255 25.9761 20.6907 26.2146 20.5333 26.461C20.3103 26.8097 19.9711 26.9847 19.5538 27.0181C18.8971 27.0704 18.4361 26.7749 18.1627 26.222ZM36.3791 26.1067L36.5282 24.8448C36.5498 24.6762 36.4582 24.6299 36.3114 24.6257C35.8495 24.6137 35.388 24.5975 34.9261 24.5901C34.4061 24.5808 33.899 24.6614 33.4174 24.8522C32.8831 25.0647 32.4763 25.4047 32.3098 25.9664C32.188 26.3803 32.1496 26.8129 32.1966 27.2408C32.2615 27.9029 32.4169 28.5538 32.6586 29.1765C32.9819 30.0069 33.3196 30.8367 33.724 31.6323C34.2713 32.709 34.8901 33.7519 35.4715 34.8124C35.6264 35.0953 35.7579 35.3912 35.9195 35.7214C36.246 35.0646 36.4242 34.3483 36.4424 33.6199C36.4582 33.0174 36.4088 32.4136 36.3723 31.8111C36.3498 31.4425 36.2956 31.0757 36.2587 30.708C36.2073 30.1958 36.1287 29.6832 36.1162 29.1696C36.1042 28.6472 36.1426 28.1221 36.1886 27.6002C36.2318 27.101 36.3172 26.605 36.3791 26.1067ZM35.3386 25.702C35.1669 26.159 34.8004 26.4174 34.3245 26.4929C33.8813 26.5638 33.4927 26.4059 33.204 26.0641C32.9982 25.821 33.0769 25.5334 33.3853 25.3685C33.7393 25.1796 34.1283 25.1319 34.5874 25.1032C34.7126 25.125 34.8997 25.1439 35.0781 25.1926C35.3367 25.263 35.4326 25.4519 35.3386 25.702ZM21.6203 39.7814C21.3671 39.5813 21.0313 39.5697 20.7905 39.7892C20.4911 40.0624 20.2278 40.3746 19.9644 40.6821C19.6608 41.0377 19.3749 41.4073 18.9835 41.6828C18.4131 42.0834 17.7468 42.2492 17.0781 42.4062C16.5466 42.5312 16.0122 42.6474 15.4793 42.7669L15.4726 42.8336C15.6309 42.904 15.7839 42.9924 15.9494 43.0429C16.7625 43.2911 17.5899 43.4152 18.4496 43.3448C19.0693 43.2934 19.6603 43.1629 20.2201 42.9068C20.991 42.5543 21.5844 41.9954 22.0885 41.3461C22.1729 41.2378 22.2113 41.0775 22.2209 40.9377C22.255 40.444 21.9955 40.0768 21.6203 39.7814ZM36.4644 39.5674C36.0658 39.6966 35.7416 39.8934 35.6451 40.3097C35.5794 40.5913 35.5554 40.8826 35.53 41.1711C35.5252 41.222 35.5909 41.3156 35.6408 41.3285C35.9478 41.4068 36.2567 41.499 36.5705 41.5263C36.9566 41.5601 37.349 41.5494 37.7376 41.5309C38.1568 41.5105 38.5789 41.4841 38.9924 41.4175C39.9657 41.2591 40.9083 41.0025 41.7449 40.469C42.0471 40.2769 42.3455 40.0805 42.6458 39.8851L42.6208 39.8439C42.3009 39.8897 41.9819 39.9458 41.6605 39.9786C41.0062 40.0462 40.3514 40.1176 39.6947 40.1541C39.3776 40.1717 39.0562 40.1129 38.7368 40.0879C38.2005 40.0458 37.6766 39.9309 37.2233 39.654C36.9619 39.4947 36.7431 39.4771 36.4644 39.5674Z" fill="#336791"/>
</svg>
