<svg width="94" height="95" viewBox="0 0 94 95" fill="none" xmlns="http://www.w3.org/2000/svg">
<path fill-rule="evenodd" clip-rule="evenodd" d="M64.1084 73.8957C64.232 73.656 64.3504 73.4444 64.4514 73.2253C64.515 73.0852 64.613 73.0572 64.7512 73.0609C65.5797 73.0845 66.4082 73.1103 67.2374 73.1184C67.9416 73.1258 68.6473 73.1125 69.3522 73.1044C70.1463 73.0948 70.9405 73.0527 71.7339 73.0756C72.7905 73.1066 73.8201 73.3153 74.7759 73.7895C75.9174 74.3566 76.781 75.2202 77.3696 76.3582C77.7397 77.0798 77.9707 77.8656 78.0504 78.674C78.1762 79.8599 78.0936 81.0185 77.7206 82.1527C77.2585 83.5584 76.381 84.6344 75.162 85.4405C74.2238 86.0608 73.1949 86.4273 72.0922 86.6367C70.9251 86.8587 69.7544 86.7872 68.5836 86.7909C67.2996 86.796 66.0162 86.768 64.7322 86.7533C64.5077 86.7511 64.4755 86.7083 64.5347 86.4922L64.5896 86.2931C64.7146 85.8963 64.7819 85.8786 65.1811 85.8122C65.4641 85.7673 65.7348 85.6636 65.976 85.5076C66.1106 85.4177 66.1661 85.1831 66.2188 85.0024C66.2641 84.8446 66.2663 84.6713 66.2678 84.5046C66.2861 81.9787 66.3051 79.4535 66.3153 76.929C66.3181 76.2905 66.3023 75.6521 66.2678 75.0145C66.2429 74.5683 66.0067 74.263 65.4802 74.1575C65.0707 74.0757 64.6583 74.0122 64.2466 73.9392L64.1084 73.8957ZM75.864 80.0118C75.8084 79.5088 75.7813 79.0014 75.6921 78.5058C75.4786 77.3162 74.9623 76.28 74.0556 75.4681C72.5894 74.156 70.8242 73.954 68.9741 74.1103C68.5529 74.1457 68.4623 74.291 68.4557 74.7276C68.4454 75.3471 68.4352 75.9666 68.4345 76.5861C68.4315 78.5508 68.4315 80.5155 68.4345 82.4802C68.4352 83.0392 68.4411 83.5983 68.4571 84.1558C68.4747 84.7266 68.6802 85.2097 69.2345 85.4309C70.1083 85.7798 71.0275 85.8211 71.9445 85.6787C73.4092 85.4523 74.4336 84.5917 75.121 83.3018C75.6651 82.2781 75.8186 81.1608 75.864 80.0118ZM79.4244 86.7016C79.4069 86.3956 79.5312 86.1426 79.6848 85.9103C79.7264 85.8476 79.8698 85.8506 79.9685 85.8307L80.8065 85.6632C81.1026 85.5998 81.2584 85.3992 81.3001 85.1064C81.3279 84.9132 81.3542 84.7178 81.3564 84.5223C81.3763 82.9759 81.3906 81.4293 81.3995 79.8827C81.4068 78.334 81.401 76.7852 81.401 75.2365L81.3944 74.9407C81.3644 74.4429 81.126 74.1848 80.6361 74.1118L79.5736 73.9488C79.4427 73.9311 79.3952 73.8677 79.4427 73.7504C79.5246 73.5506 79.6029 73.3433 79.7184 73.1634C79.7615 73.097 79.9071 73.0712 80.005 73.0734C80.5125 73.0808 81.02 73.1191 81.5275 73.1184L85.945 73.0918C86.7962 73.0911 87.6181 73.2408 88.3815 73.6516C89.2217 74.1029 89.6919 74.8013 89.8265 75.7527C89.9669 76.752 89.6663 77.5943 88.9424 78.2632C88.6448 78.539 88.2594 78.719 87.9142 78.9432L87.8016 79.014C88.1219 79.1327 88.4268 79.2352 88.7237 79.3576C89.5925 79.7168 90.2835 80.278 90.6491 81.1741C90.938 81.8814 90.938 82.6188 90.7668 83.3519C90.5007 84.4995 89.7511 85.2628 88.7764 85.8402C87.8616 86.3823 86.8715 86.698 85.817 86.7511C84.8445 86.8005 83.8675 86.782 82.8927 86.7931L82.3282 86.796C81.3888 86.7743 80.4494 86.7507 79.51 86.7253L79.4244 86.7016ZM83.4734 82.211H83.4829C83.4829 82.6963 83.4763 83.1816 83.4851 83.6668C83.4909 83.981 83.4799 84.304 83.5472 84.6064C83.6481 85.0585 83.8529 85.4663 84.356 85.5961C85.0285 85.7744 85.7311 85.8056 86.4166 85.6876C87.2773 85.5364 87.964 85.1013 88.3406 84.2745C88.6199 83.6602 88.6616 83.009 88.5658 82.3438C88.4385 81.4676 87.9771 80.8319 87.21 80.4152C86.7069 80.1416 86.1702 79.9742 85.5984 79.952C84.9578 79.9277 84.3165 79.9262 83.6759 79.9063C83.496 79.9012 83.4712 79.9934 83.4719 80.1423C83.4756 80.8312 83.4734 81.5207 83.4734 82.211ZM84.8371 78.9107C85.1874 78.893 85.5837 78.8878 85.9779 78.848C86.7325 78.772 87.2642 78.3893 87.5413 77.6614C87.6824 77.2919 87.6766 76.9113 87.6802 76.5271C87.6912 75.5263 87.1121 74.7062 86.1695 74.367C85.4419 74.1052 84.6916 74.1007 83.937 74.1214C83.6313 74.1295 83.4946 74.2644 83.4902 74.5749L83.4448 78.6231C83.4426 78.7839 83.5114 78.8532 83.6664 78.8583L84.8371 78.9107Z" fill="#94795D"/>
<path fill-rule="evenodd" clip-rule="evenodd" d="M8.00995 85.923L7.95657 86.6192C7.45932 86.6192 7.00083 86.6155 6.54233 86.6206C5.67873 86.6295 4.81512 86.6435 3.95078 86.656L3.86742 86.6612C3.74384 86.6464 3.51935 86.6464 3.5135 86.6096C3.47693 86.4023 3.48863 86.1848 3.49814 85.9702C3.49887 85.9458 3.58296 85.9148 3.63196 85.903L4.30398 85.7519C4.72298 85.642 4.8707 85.4598 4.89044 85.0232C4.91311 84.5313 4.93578 84.0386 4.93797 83.5467C4.94455 82.3358 4.93724 81.1263 4.94236 79.9153C4.94309 79.6321 4.84583 79.4212 4.58405 79.3061C4.27297 79.1669 3.95971 79.0326 3.64439 78.9034C3.49521 78.843 3.30143 78.8098 3.31898 78.6077C3.33653 78.4019 3.52446 78.3481 3.70143 78.3075C4.43414 78.1386 5.16758 77.9742 5.8981 77.7942C6.13356 77.736 6.35879 77.6379 6.64032 77.5391C6.65495 77.6925 6.682 77.8385 6.67908 77.9845L6.63593 78.6785C6.6352 78.7567 6.67542 78.8614 6.73319 78.9049C6.76829 78.9322 6.88602 78.8828 6.94452 78.8371C7.56901 78.3577 8.23006 77.9439 8.98398 77.7028C10.1518 77.3289 11.1543 77.6755 11.8563 78.691C12.1035 79.0487 12.1042 79.0487 12.4472 78.7987C13.0358 78.3673 13.6515 77.9867 14.3404 77.736C15.8526 77.1851 17.3056 77.8842 17.8314 79.4204C18.023 79.978 18.0961 80.554 18.0946 81.1425L18.0807 85.0498C18.08 85.372 18.186 85.5557 18.4902 85.656C18.8317 85.7688 19.1856 85.8463 19.5703 85.948L19.4811 86.6199C19.0438 86.6199 18.6416 86.6169 18.2394 86.6206C17.2566 86.6295 16.2738 86.6346 15.2917 86.6575C15.1206 86.6619 15.076 86.6192 15.0672 86.4576C15.0387 85.9407 15.0343 85.9414 15.517 85.8249L15.6793 85.7828C16.151 85.653 16.3082 85.507 16.3118 85.0247C16.3228 83.6397 16.3513 82.2509 16.2819 80.8689C16.2095 79.4352 15.0811 78.6719 13.7035 79.0391C13.2588 79.1619 12.8401 79.3654 12.4677 79.6395C12.3397 79.7316 12.3156 79.8378 12.3258 79.9994C12.3645 80.61 12.3887 81.2214 12.3938 81.8328C12.4026 82.9029 12.3894 83.973 12.3938 85.0439C12.3953 85.4775 12.5422 85.6434 12.9671 85.7437L13.5982 85.8905L13.7152 85.9171C13.7239 86.1206 13.732 86.3242 13.7225 86.5277C13.7166 86.6553 13.6186 86.6664 13.509 86.6641C12.8954 86.6487 12.2812 86.628 11.6677 86.6295C10.9211 86.631 10.1752 86.6523 9.42931 86.6656H9.25381C9.25381 86.4495 9.24357 86.243 9.26112 86.0373C9.26478 85.9879 9.35107 85.9185 9.4103 85.903L10.1459 85.746C10.4582 85.6685 10.6074 85.507 10.6249 85.1869C10.7083 83.7046 10.7682 82.2214 10.63 80.7398C10.5963 80.4472 10.5158 80.162 10.3916 79.8954C10.015 79.0561 9.16752 78.7058 8.18984 78.958C7.7255 79.0775 7.30649 79.2921 6.91015 79.5628C6.82372 79.6164 6.75273 79.692 6.70424 79.7819C6.65574 79.8718 6.63144 79.973 6.63374 80.0753C6.63374 81.554 6.63886 83.0327 6.64325 84.5106L6.65129 85.0807C6.66006 85.4782 6.82752 85.6877 7.21874 85.7732C7.47029 85.8308 7.72476 85.8699 8.00995 85.923Z" fill="#50382B"/>
<path fill-rule="evenodd" clip-rule="evenodd" d="M52.22 77.6909C52.3333 78.247 52.3311 78.747 51.926 79.1261C51.5238 79.503 51.0149 79.3761 50.5183 79.292C50.5644 79.5561 50.6156 79.7803 50.6405 80.0074C50.8211 81.6955 50.1008 82.9486 48.5484 83.6647C47.9619 83.9346 47.3396 84.0349 46.7041 84.0865C46.3882 84.1116 46.1118 84.355 46.0818 84.6168C46.0511 84.8823 46.2164 85.1552 46.5469 85.2348C46.9367 85.3285 47.3433 85.355 47.7432 85.4015C48.6017 85.5003 49.4697 85.5453 50.318 85.7002C51.6006 85.9332 52.3165 87.0623 52.0905 88.3618C51.8894 89.5182 51.2255 90.3597 50.2997 91.005C48.7399 92.095 47.0288 92.4136 45.2065 91.8576C44.1645 91.539 43.4296 90.8479 43.1759 89.7299C43.0486 89.1701 43.1839 88.6634 43.6014 88.2836C44.098 87.8338 44.6384 87.4326 45.1583 87.0078L45.3265 86.8374L45.1334 86.701C44.6033 86.4473 44.1791 86.0999 44.0146 85.4966C43.9583 85.2923 44.0168 85.1581 44.1886 85.0534C44.4811 84.8756 44.7722 84.695 45.061 84.5113C45.197 84.4258 45.3316 84.3373 45.4581 84.2384C45.6307 84.1057 45.6153 84.0069 45.4091 83.9302C44.9294 83.7517 44.5031 83.4928 44.1726 83.0946C43.6205 82.4301 43.464 81.6388 43.5093 80.8032C43.5802 79.4978 44.283 78.6379 45.4252 78.0847C46.7831 77.4276 48.1454 77.3863 49.5297 77.9852C50.0416 78.2064 50.5812 78.2536 51.1304 78.2153C51.5406 78.1858 51.8989 78.0294 52.22 77.6909ZM47.216 87.0432C46.1966 87.0343 45.8771 87.1612 45.2789 87.7755C44.6091 88.4643 44.6128 89.4194 45.2811 90.1112C45.7886 90.6355 46.4219 90.8811 47.1261 90.9549C47.9487 91.0404 48.759 91.0057 49.5063 90.5905C50.3034 90.1458 50.6997 89.3198 50.5205 88.4879C50.3721 87.8013 49.8705 87.4871 49.2599 87.3064C48.5652 87.1014 47.8471 87.0623 47.216 87.0432ZM45.2139 80.4735C45.2511 80.7589 45.2665 81.048 45.3294 81.3275C45.4925 82.0518 45.8047 82.6882 46.5191 83.0105C47.3579 83.3903 48.4292 83.2273 48.7962 82.04C49.047 81.2498 49.0178 80.3963 48.7136 79.6254C48.5847 79.273 48.3526 78.9685 48.0482 78.7522C47.3199 78.2396 46.0058 78.1718 45.4705 79.3046C45.2965 79.6726 45.2285 80.0642 45.2139 80.4735Z" fill="#4F382B"/>
<path fill-rule="evenodd" clip-rule="evenodd" d="M34.9248 77.5088C34.9518 77.6349 35.0059 77.778 35.0074 77.9218C35.0096 78.1954 34.9803 78.4691 34.965 78.7427V78.9801L35.1946 78.8031C35.8235 78.281 36.4991 77.8363 37.286 77.5966C38.7061 77.1652 40.1247 77.9491 40.5876 79.4079C40.7631 79.9625 40.8325 80.5326 40.8391 81.1123C40.8537 82.3999 40.8625 83.6876 40.8757 84.9753C40.8801 85.4377 40.9327 85.5203 41.3663 85.6538C41.6131 85.7281 41.8648 85.7845 42.1195 85.8227C42.2592 85.8448 42.3192 85.9001 42.3119 86.038L42.3133 86.1649C42.3082 86.6981 42.2716 86.7224 41.759 86.7209C40.532 86.7187 39.3057 86.7261 38.0786 86.7364C37.713 86.7394 37.7123 86.7504 37.6757 86.3861L37.6684 86.1767C37.6911 85.8625 37.6984 85.8654 38.0048 85.8197C38.211 85.7887 38.4158 85.7408 38.6168 85.6877C38.8238 85.6339 38.9232 85.4797 38.951 85.2732C38.9649 85.1685 38.9832 85.0638 38.9825 84.9591C38.9649 83.5519 38.9876 82.1433 38.9115 80.7383C38.8501 79.6019 37.9902 78.9248 36.8589 79.0023C36.3136 79.0404 35.7894 79.23 35.3445 79.5502C35.0425 79.7634 34.9818 80.0709 34.9833 80.402C34.9891 81.7177 35.0015 83.0334 35.0154 84.3499C35.0184 84.6382 35.0264 84.9266 35.0535 85.2128C35.082 85.5255 35.1909 85.6516 35.4951 85.7194C35.7862 85.7843 36.0831 85.8219 36.3938 85.8743L36.4202 86.1162C36.4304 86.6804 36.3719 86.7224 35.8286 86.7202C34.5599 86.715 33.2912 86.7232 32.0232 86.7372C31.8235 86.7401 31.7387 86.6767 31.7438 86.4805L31.7409 86.3964C31.708 85.8883 31.7226 85.8691 32.1994 85.7865L32.4246 85.7408C32.9409 85.6235 33.0732 85.4849 33.0806 84.9561C33.1047 83.2812 33.1135 81.6071 33.1303 79.9323C33.1325 79.6918 33.0425 79.5052 32.8202 79.4057C32.5083 79.2679 32.1945 79.1341 31.8791 79.0045C31.7051 78.9322 31.5062 78.8865 31.4996 78.6438C31.4952 78.4727 31.6766 78.3216 31.9244 78.2707C32.4224 78.1689 32.9248 78.0841 33.4169 77.9594C33.9069 77.8363 34.388 77.6711 34.9248 77.5088Z" fill="#4F372B"/>
<path fill-rule="evenodd" clip-rule="evenodd" d="M62.358 81.8836C62.3346 83.4478 61.9317 84.7127 60.8348 85.6618C59.4455 86.8662 57.278 87.2755 55.5062 86.375C54.7501 85.9907 54.1944 85.4015 53.8324 84.6367C53.2774 83.4604 53.1384 82.2236 53.428 80.9566C53.7147 79.7036 54.4671 78.7957 55.5932 78.2079C56.7515 77.6039 57.9713 77.3679 59.2575 77.685C60.8846 78.0855 62.0538 79.4233 62.2864 81.1269C62.3281 81.4256 62.3441 81.728 62.358 81.8836ZM60.4736 82.731L60.4107 82.7236C60.4107 82.5761 60.4188 82.4286 60.4092 82.2811C60.3559 81.3622 60.1511 80.4868 59.6232 79.7176C59.1223 78.9889 58.44 78.559 57.5523 78.4963C56.5585 78.4255 55.7234 78.986 55.4302 80.0096C54.99 81.5466 55.1391 83.0444 55.9128 84.4523C56.2499 85.0659 56.7493 85.5187 57.4184 85.757C58.7296 86.2223 59.8923 85.6198 60.2338 84.2657C60.3595 83.7657 60.3961 83.2428 60.4736 82.731Z" fill="#4F382B"/>
<path fill-rule="evenodd" clip-rule="evenodd" d="M30.1491 82.0043C30.1221 83.1268 29.8595 84.1645 29.1722 85.0664C28.4358 86.0326 27.4238 86.5488 26.2728 86.7664C24.9119 87.023 23.6337 86.79 22.5405 85.8688C22.0213 85.4308 21.6666 84.8695 21.4326 84.2308C21.0487 83.1836 20.9529 82.1105 21.1891 81.0168C21.4414 79.8464 22.0966 78.9518 23.1123 78.3515C24.2867 77.659 25.5539 77.35 26.9075 77.6612C28.6479 78.0624 29.6526 79.2063 30.0241 80.9379C30.0987 81.2875 30.1089 81.6489 30.1491 82.0043ZM28.2435 82.7448L28.193 82.7374V82.5265C28.1645 81.4969 27.9649 80.5161 27.3557 79.6606C26.9046 79.0256 26.3006 78.6273 25.5262 78.516C24.264 78.3345 23.4392 79.0897 23.1657 80.1156C22.8088 81.4556 22.9207 82.7794 23.4728 84.0502C23.8172 84.8422 24.3613 85.4595 25.1971 85.7589C26.5002 86.2258 27.6804 85.6078 28.0102 84.2589C28.1316 83.7655 28.1682 83.2507 28.2435 82.7448Z" fill="#4F372B"/>
<path fill-rule="evenodd" clip-rule="evenodd" d="M60.5275 24.7812C61.4247 27.3972 62.0697 30.0676 62.2825 32.8347C62.5458 36.2685 62.4258 39.6787 61.7077 43.0558L61.6156 43.3257C61.3904 43.3264 61.1608 43.2977 60.9407 43.3323C59.0811 43.6273 57.2237 43.9326 55.3656 44.2365C53.4446 44.5507 51.5222 44.8523 49.6048 45.1871C48.9255 45.3051 48.0846 45.1643 47.8103 46.1112L47.6787 46.1562L47.7716 40.4937L47.6772 26.8308L48.5723 26.6759C50.0355 26.4347 51.4988 26.1891 52.9642 25.9539C54.7119 25.6744 56.461 25.4015 58.2102 25.1286C58.9824 25.0091 59.7553 24.8978 60.5275 24.7812Z" fill="#439934"/>
<path fill-rule="evenodd" clip-rule="evenodd" d="M45.8316 62.6643C44.8875 61.8457 43.9106 61.0632 43.006 60.2018C38.1374 55.5703 34.5754 50.118 32.8212 43.5446C32.3378 41.7363 32.0161 39.8977 31.9122 38.0289C31.8391 36.7206 31.7345 35.4012 31.8267 34.0995C32.0702 30.6384 32.5667 27.2105 33.5729 23.8763L33.6285 23.7988C33.7265 23.9301 33.8669 24.0466 33.9166 24.1949C34.8994 27.1124 35.8741 30.0329 36.8445 32.9556C39.8931 42.1382 42.938 51.3231 45.9917 60.5042C46.0517 60.6834 46.206 60.8302 46.3171 60.9917L45.8316 62.6643Z" fill="#45A538"/>
<path fill-rule="evenodd" clip-rule="evenodd" d="M60.5276 24.7821C59.7547 24.8979 58.9817 25.01 58.2103 25.1295C56.4611 25.4024 54.712 25.6752 52.9643 25.9548C51.4996 26.1893 50.0364 26.4349 48.5724 26.6768L47.6773 26.8316L47.67 26.2431C47.64 25.7593 47.5903 25.2755 47.5837 24.7917L47.4836 15.5331C47.4602 13.6016 47.4251 11.6701 47.3863 9.73934C47.3666 8.53929 47.3322 7.33954 47.2832 6.14034C47.2539 5.4965 47.1508 4.85562 47.1099 4.21178C47.0858 3.84155 47.1179 3.46838 47.126 3.09668C47.5823 3.98832 48.0291 4.88659 48.4978 5.77159C49.2386 7.17063 50.4195 8.20165 51.4835 9.32634C55.6853 13.7742 58.668 18.9426 60.5276 24.7821Z" fill="#46A037"/>
<path fill-rule="evenodd" clip-rule="evenodd" d="M47.6795 46.1565L47.8112 46.1115C48.0854 45.1645 48.9263 45.3054 49.6056 45.1874C51.523 44.8526 53.4454 44.5509 55.3664 44.2367C57.2245 43.9336 59.0819 43.6283 60.9415 43.3326C61.1616 43.2979 61.3912 43.3267 61.6164 43.3259C61.2691 44.5767 60.9956 45.8548 60.5547 47.071C60.0537 48.4501 59.4483 49.7968 58.8055 51.1169C57.8426 53.0855 56.6514 54.9319 55.2567 56.6171C54.1847 57.9166 52.9899 59.1195 51.7928 60.3061C51.1303 60.9618 50.3508 61.4964 49.6239 62.0864L49.4353 61.9566L48.7574 61.3725L48.0561 59.8209C47.577 58.0114 47.3155 56.1503 47.2773 54.2778L47.2905 53.9622L47.3863 52.5948C47.4177 52.128 47.4602 51.6619 47.4799 51.1951C47.5501 49.5165 47.613 47.8365 47.6795 46.1565Z" fill="#409433"/>
<path fill-rule="evenodd" clip-rule="evenodd" d="M47.6794 46.1563C47.6136 47.8363 47.5507 49.517 47.4798 51.1971C47.46 51.6646 47.4183 52.1307 47.3862 52.5968L46.9591 52.7598C46.0099 49.9418 45.06 47.1534 44.1314 44.3582C42.595 39.7334 41.0777 35.1019 39.5435 30.4755C38.3046 26.7418 37.0571 23.0111 35.801 19.2832C35.7417 19.1092 35.5735 18.972 35.4565 18.8179L38.1914 13.7461C38.2858 13.9106 38.4093 14.0647 38.4686 14.2417C39.7336 18.0177 40.9965 21.7944 42.2484 25.5749C43.8776 30.494 45.4959 35.4153 47.1236 40.3352C47.1887 40.5313 47.2955 40.7128 47.3979 40.9333L47.7723 40.4937L47.6794 46.1563Z" fill="#4FAA41"/>
<path fill-rule="evenodd" clip-rule="evenodd" d="M35.4561 18.8184C35.5738 18.9725 35.742 19.1097 35.8005 19.2837C37.0567 23.0115 38.3043 26.7423 39.543 30.476C41.0772 35.1024 42.5945 39.7339 44.1309 44.3587C45.0596 47.1538 46.0095 49.9416 46.9586 52.7603L47.3857 52.5973L47.2899 53.9646L47.2029 54.2796C47.0544 55.7759 46.9294 57.2753 46.748 58.7687C46.6573 59.5173 46.4636 60.2518 46.3166 60.9923C46.2062 60.8308 46.0511 60.684 45.9912 60.5048C42.9367 51.3237 39.8925 42.1388 36.844 32.9562C35.874 30.0339 34.898 27.1137 33.916 24.1955C33.8663 24.0472 33.7259 23.9307 33.6279 23.7994L35.4561 18.8184Z" fill="#4AA73C"/>
<path fill-rule="evenodd" clip-rule="evenodd" d="M47.7718 40.4944L47.3974 40.9339C47.295 40.7134 47.1882 40.532 47.1231 40.3358C45.4954 35.4159 43.8771 30.4946 42.2479 25.5755C40.9945 21.7955 39.7346 18.0178 38.4681 14.2423C38.4088 14.0653 38.2852 13.9112 38.1909 13.7467L41.5729 9.25977C41.6797 9.40284 41.8318 9.53043 41.8867 9.69194C42.8256 12.4649 43.7557 15.2402 44.6815 18.0176C45.5458 20.6121 46.397 23.2096 47.2716 25.7997C47.3301 25.973 47.5341 26.0954 47.6701 26.2429L47.6774 26.8314L47.7718 40.4944Z" fill="#57AE47"/>
<path fill-rule="evenodd" clip-rule="evenodd" d="M47.6699 26.2426C47.5332 26.0958 47.3299 25.9734 47.2714 25.7993C46.3975 23.2092 45.5456 20.6118 44.6813 18.0172C43.7563 15.2398 42.8246 12.4646 41.8865 9.6916C41.8316 9.53009 41.6795 9.4025 41.5728 9.25942C42.6726 8.17309 43.738 7.04766 44.8824 6.01147C45.8996 5.09107 46.7171 4.1043 46.7551 2.64921L46.8356 2.35938L47.1251 3.0954C47.1178 3.4671 47.0849 3.84027 47.109 4.2105C47.1507 4.85434 47.2538 5.49522 47.2824 6.13906C47.3357 7.3375 47.3613 8.53815 47.3855 9.73806C47.4242 11.6688 47.4593 13.6003 47.4827 15.5319L47.5829 24.7904C47.5902 25.275 47.6407 25.7588 47.6699 26.2426Z" fill="#60B24F"/>
<path fill-rule="evenodd" clip-rule="evenodd" d="M46.3173 60.9911C46.4643 60.2506 46.6581 59.5161 46.7488 58.7675C46.9301 57.2748 47.0552 55.7748 47.2036 54.2784L47.2409 54.2725L47.2775 54.2791C47.3156 56.1516 47.5771 58.0127 48.0562 59.8221C47.9575 59.9534 47.8193 60.0692 47.7667 60.2167C47.3608 61.3716 46.9777 62.5361 46.5696 63.6903C46.514 63.8482 46.3576 63.9713 46.2486 64.1092L45.8311 62.6637L46.3173 60.9911Z" fill="#A9AA88"/>
<path fill-rule="evenodd" clip-rule="evenodd" d="M46.2485 64.1103C46.3575 63.9717 46.514 63.8493 46.5696 63.6914C46.9776 62.5372 47.3608 61.3727 47.7666 60.2178C47.8185 60.0703 47.9575 59.9545 48.0562 59.8232L48.7575 61.3749C48.6192 61.5726 48.4277 61.7518 48.3509 61.9723L47.0083 65.9489C46.9527 66.109 46.7648 66.2211 46.6376 66.356L46.2485 64.1103Z" fill="#B6B598"/>
<path fill-rule="evenodd" clip-rule="evenodd" d="M46.6372 66.3551C46.7637 66.2201 46.9524 66.108 47.008 65.948L48.3505 61.9714C48.4266 61.7509 48.6189 61.5717 48.7571 61.374L49.4357 61.9574C49.1081 62.2841 48.926 62.6617 49.0357 63.1389L48.8295 63.8196C48.7359 63.9361 48.5999 64.0379 48.5538 64.1714C48.0851 65.5254 47.6383 66.8868 47.1659 68.2401C47.1059 68.4112 46.9399 68.5462 46.8237 68.6981L46.6372 66.3551Z" fill="#C2C1A7"/>
<path fill-rule="evenodd" clip-rule="evenodd" d="M46.8233 68.6979C46.9403 68.546 47.1063 68.411 47.1655 68.2399C47.6379 66.8866 48.0854 65.5252 48.5534 64.1711C48.5995 64.0376 48.7355 63.9366 48.8291 63.8193L48.5447 66.9434C48.4686 67.0319 48.3589 67.1093 48.3224 67.2118L47.3761 69.9465C47.3096 70.1331 47.1823 70.2997 47.0829 70.4745C46.9944 70.358 46.8365 70.2452 46.8292 70.1242C46.8014 69.6507 46.8211 69.1736 46.8233 68.6979Z" fill="#CECDB7"/>
<path fill-rule="evenodd" clip-rule="evenodd" d="M47.0835 70.4745C47.1829 70.2997 47.3102 70.1331 47.3767 69.9465L48.323 67.2118C48.3595 67.1086 48.4699 67.0319 48.5453 66.9434L48.5526 68.9936L47.8718 70.754L47.0835 70.4745Z" fill="#DBDAC7"/>
<path fill-rule="evenodd" clip-rule="evenodd" d="M47.8716 70.7546L48.5524 68.9941L48.6928 71.0768L47.8716 70.7546Z" fill="#EBE9DC"/>
<path fill-rule="evenodd" clip-rule="evenodd" d="M49.0351 63.1395C48.9262 62.6631 49.1075 62.2855 49.4351 61.958L49.6238 62.0878L49.0351 63.1395Z" fill="#CECDB7"/>
<path fill-rule="evenodd" clip-rule="evenodd" d="M47.2775 54.2805L47.2409 54.2739L47.2036 54.2798L47.2906 53.9648L47.2775 54.2805Z" fill="#4FAA41"/>
</svg>
