<svg width="89" height="88" viewBox="0 0 89 88" fill="none" xmlns="http://www.w3.org/2000/svg">
<path d="M51.9309 10.8731C51.7934 10.914 51.0715 11.1524 50.3084 11.3977C46.2246 12.7193 43.3302 14.2521 42.6152 15.4715C42.3402 15.9348 42.2921 16.3163 42.4502 16.691C42.629 17.1133 42.959 17.4403 43.8665 18.0739C44.2927 18.3736 45.0146 18.9868 45.489 19.45C47.7371 21.6709 48.8234 24.3959 48.6996 27.4751C48.5621 30.9427 46.919 34.4103 43.784 37.871C42.6909 39.0836 41.5634 40.0919 39.4115 41.8018C37.6171 43.2256 36.6409 44.1521 35.974 45.0446C33.9321 47.7968 34.4821 50.2493 37.5896 52.2999C40.3327 54.112 45.1659 55.6176 50.8721 56.4351C52.7834 56.7076 54.9421 56.8847 55.4646 56.8098L55.829 56.7553L56.3996 55.7334C59.294 50.5763 60.7515 45.7054 60.9302 40.671C61.0059 38.4228 60.724 35.766 60.2359 34.2127C60.1465 33.9334 60.0846 33.695 60.0915 33.6881C60.0984 33.6813 60.9096 33.4361 61.8859 33.15C67.0352 31.6308 72.0196 30.4318 76.1377 29.7233C76.9421 29.587 77.6227 29.444 77.6571 29.4099C77.8771 29.1987 77.2377 28.2041 76.1927 27.1413C72.3427 23.2037 65.5365 20.2062 57.5477 18.9255C56.0077 18.6802 55.8221 18.5916 55.2515 17.8423C54.344 16.6501 53.4915 14.62 52.3296 10.8935C52.2952 10.7709 52.2609 10.7709 51.9309 10.8731ZM52.4602 12.2765C52.9071 13.4891 53.1821 14.436 53.1821 14.7698V15.0355L52.804 14.9946C50.7484 14.7562 47.4621 14.2521 46.7609 14.0681C46.5821 14.0205 46.479 13.9523 46.5134 13.8978C46.5684 13.8161 47.2627 13.4823 49.339 12.549C51.2709 11.677 52.0065 11.3568 52.0684 11.35C52.0959 11.3432 52.2677 11.7655 52.4602 12.2765ZM48.1084 14.8312C50.6177 15.3557 52.4534 15.6827 52.8521 15.6827C53.244 15.6827 53.2027 15.7168 51.3534 16.834C49.9302 17.6924 49.7652 17.7741 49.4077 17.7741H49.0159L47.9571 16.7182C46.6784 15.4375 45.8121 14.4973 45.8121 14.3883C45.8121 14.3475 45.8396 14.3338 45.874 14.3543C45.9084 14.3611 46.919 14.5791 48.1084 14.8312ZM46.2521 16.0097C46.8709 16.725 47.3452 17.3245 47.3177 17.345C47.2627 17.3926 45.5027 16.9635 44.4302 16.6365C43.4884 16.3503 43.3784 16.255 43.6259 15.9348C43.7909 15.7236 45.0009 14.7222 45.0902 14.7153C45.1177 14.7153 45.6334 15.2944 46.2521 16.0097ZM54.2684 17.4812C54.5159 18.0603 54.7015 18.5303 54.6946 18.5371C54.6809 18.544 51.3809 18.0398 51.0921 17.9853C51.0302 17.9717 51.5871 17.597 52.3434 17.1406C53.0996 16.6841 53.7321 16.3435 53.7665 16.3776C53.8009 16.4116 54.0209 16.9021 54.2684 17.4812ZM47.0702 18.5848C47.1321 18.6461 47.9227 21.16 47.8884 21.194C47.8746 21.2076 47.5034 20.7785 47.0565 20.2335C46.6096 19.6885 45.9359 18.9186 45.544 18.5235L44.8427 17.7946L45.929 18.1693C46.534 18.3668 47.0427 18.5576 47.0702 18.5848ZM50.2259 18.9186C51.594 19.1094 52.7284 19.2865 52.749 19.307C52.7696 19.3274 51.9377 19.9678 50.9134 20.724C49.8821 21.4801 49.0365 22.0933 49.0227 22.0796C49.009 22.066 48.9059 21.7526 48.789 21.3711C48.6721 20.9965 48.3834 20.213 48.1427 19.6271C47.9021 19.0413 47.7096 18.5644 47.7234 18.5644C47.7302 18.5644 48.8577 18.7279 50.2259 18.9186ZM53.6634 20.0018C53.9659 20.7035 54.0827 21.3711 54.1309 22.7132C54.1584 23.4353 54.1584 24.0212 54.1377 24.0212C54.1102 24.0212 53.6771 23.8713 53.1752 23.6942C52.1715 23.3331 50.2052 22.6928 49.9715 22.6451C49.8684 22.6246 50.3427 22.175 51.594 21.1123C52.5634 20.2811 53.3884 19.6067 53.4296 19.6067C53.464 19.6067 53.5671 19.7838 53.6634 20.0018ZM57.1902 20.1721C58.7027 20.4787 60.0296 20.7512 60.1327 20.7785C60.284 20.8125 59.9196 21.0373 58.3177 21.9093C57.2177 22.5088 55.9665 23.1901 55.5402 23.4285C55.114 23.667 54.7565 23.8509 54.7496 23.8441C54.7427 23.8373 54.784 23.6125 54.8459 23.3468C55.0727 22.3726 54.9284 21.16 54.4746 20.1926C54.344 19.9133 54.234 19.6612 54.234 19.6476C54.2409 19.5726 54.5159 19.6271 57.1902 20.1721ZM61.3221 22.0047C61.2465 22.3453 61.0746 22.9244 60.944 23.2991C60.6552 24.1234 59.5965 26.2693 59.4521 26.3238C59.3971 26.3443 58.8952 26.1195 58.3521 25.8197C57.809 25.52 57.0184 25.1248 56.6059 24.9409L55.8496 24.6071L58.6202 22.8426C60.9165 21.3848 61.3977 21.1055 61.4252 21.2349C61.4459 21.3235 61.3977 21.6641 61.3221 22.0047ZM63.3502 21.378C66.224 22.1955 69.2627 23.2991 69.084 23.4626C69.0496 23.4966 68.6715 23.6193 68.2521 23.7351C66.0796 24.3414 63.0615 25.3769 61.6521 25.9968C61.2121 26.1876 60.834 26.3306 60.8134 26.3034C60.7927 26.283 60.9646 25.6562 61.1984 24.9068C61.6521 23.4353 62.1815 21.4529 62.1815 21.2008C62.1815 21.0918 62.2227 21.051 62.3259 21.0782C62.3946 21.1055 62.8552 21.2417 63.3502 21.378ZM50.9821 24.3346C51.6352 24.5458 52.4052 24.8387 52.6871 24.9818C53.1959 25.2338 53.2027 25.2406 53.0584 25.3973C52.7971 25.6835 49.944 28.3199 49.8615 28.3471C49.8202 28.3608 49.7859 27.9656 49.7859 27.3866C49.7859 26.3851 49.669 24.573 49.5796 24.1711C49.5109 23.8645 49.5659 23.8713 50.9821 24.3346ZM69.2421 24.8591C68.6165 25.8878 67.5784 27.3525 66.8359 28.279C66.0727 29.226 64.4571 31.004 64.3609 31.004C64.3265 31.004 64.0927 30.7179 63.8384 30.3636C62.9171 29.0625 61.8515 27.9384 60.9165 27.2844C60.8271 27.2231 60.7721 27.155 60.7927 27.1345C60.8134 27.1141 62.3465 26.5555 64.1959 25.8878C67.9359 24.5458 69.5859 24.0008 69.689 24.0689C69.7027 24.0757 69.5034 24.43 69.2421 24.8591ZM71.5796 24.682C74.1646 26.4669 75.9177 27.9111 76.5502 28.7763C76.7084 28.9943 76.8252 29.1783 76.8115 29.1919C76.7977 29.2055 75.9659 29.2941 74.9621 29.3963C70.954 29.7846 68.1009 30.1865 66.5884 30.568C66.1827 30.6702 65.8459 30.7451 65.839 30.7383C65.8321 30.7315 66.1002 30.4045 66.4371 30.0026C68.1834 27.9248 69.7646 25.7652 70.349 24.6411C70.5071 24.3414 70.6584 24.103 70.6859 24.103C70.7202 24.103 71.119 24.3618 71.5796 24.682ZM57.1146 26.8961C57.6096 27.1618 57.9877 27.4002 57.9671 27.4411C57.9259 27.516 53.574 29.88 53.5327 29.8459C53.5259 29.8391 53.7459 29.1306 54.0346 28.2654C54.3234 27.4002 54.5984 26.4601 54.6534 26.174L54.7496 25.6494L55.4852 26.0377C55.8909 26.2489 56.6196 26.6304 57.1146 26.8961ZM53.464 27.0323C53.0446 28.4766 52.1921 30.3432 51.8002 30.6634C51.7109 30.7383 51.5321 30.6361 50.9615 30.1729C50.5559 29.8527 50.1434 29.5325 50.0334 29.4576C49.9302 29.3826 49.8477 29.3077 49.8684 29.2873C50.1709 28.9943 53.6359 26.2216 53.6565 26.2625C53.6634 26.2898 53.5809 26.6372 53.464 27.0323ZM61.3565 29.5461C62.0096 29.9821 63.4671 31.2697 63.3915 31.3515C63.3709 31.3719 61.8927 31.8488 60.1121 32.4074C58.3315 32.966 56.3446 33.5996 55.6984 33.8108C55.0521 34.0288 54.5159 34.1923 54.509 34.1855C54.5021 34.1786 54.9559 33.6677 55.5127 33.0478C56.9702 31.4332 58.469 29.7096 59.0052 29.0284L59.4659 28.4425L60.064 28.7627C60.3871 28.9398 60.9715 29.2941 61.3565 29.5461ZM57.9809 28.6196C57.9396 28.6741 57.5477 29.1646 57.1077 29.7165C56.6677 30.2683 55.609 31.6103 54.7565 32.7003L53.2027 34.6828L53.1546 34.349C53.0584 33.7018 52.7077 32.4278 52.5084 31.9986L52.309 31.5626L53.299 31.0721C54.3165 30.568 56.4477 29.4235 57.4446 28.8445C58.0565 28.4902 58.0977 28.4698 57.9809 28.6196ZM49.7309 31.0176C50.1365 31.222 50.5146 31.4945 50.5146 31.5763C50.5146 31.7057 47.8815 33.7222 47.8059 33.6473C47.7921 33.6268 48.0259 33.1636 48.3352 32.6118C48.6446 32.06 48.954 31.44 49.0296 31.2288C49.1052 31.0176 49.2152 30.8473 49.2771 30.8473C49.339 30.8405 49.5384 30.9223 49.7309 31.0176ZM51.9721 33.4974C52.1509 33.8516 52.3434 34.8395 52.2471 34.928C52.2059 34.9621 51.1196 35.473 49.8271 36.0657C48.5346 36.6516 46.8502 37.4418 46.0802 37.8233C45.3102 38.2048 44.7259 38.4705 44.7877 38.4228C44.8427 38.3751 45.6884 37.6666 46.6715 36.8628C48.569 35.3027 50.7277 33.4361 51.1196 33.0205L51.3602 32.7685L51.594 32.9865C51.7177 33.1091 51.8896 33.3407 51.9721 33.4974ZM49.8477 33.477C49.6621 33.6473 48.6446 34.5193 47.5996 35.4185C46.5546 36.3178 45.2965 37.401 44.8084 37.8233C43.8184 38.6749 43.8184 38.6749 45.0834 37.0467C46.0596 35.7864 46.5684 35.3163 47.9709 34.383C48.6515 33.9334 50.0059 33.1704 50.1434 33.1704C50.164 33.1704 50.0334 33.3066 49.8477 33.477ZM59.6584 34.3353C59.7065 34.601 59.7752 35.4253 59.8027 36.1611L59.8509 37.5031L59.5346 37.3601C58.4484 36.8628 55.3959 35.1596 55.5127 35.112C56.1796 34.8463 59.4727 33.7631 59.514 33.804C59.5415 33.8312 59.6102 34.0696 59.6584 34.3353ZM57.0734 36.7401C58.3452 37.4827 59.3971 38.0958 59.4109 38.1095C59.4246 38.1231 59.2596 38.2593 59.0534 38.4092C58.6477 38.7021 54.344 40.9094 54.2821 40.8549C54.2615 40.8345 54.3234 40.4666 54.4127 40.0442C54.5915 39.1858 54.7427 36.6243 54.674 35.8136C54.6465 35.5275 54.6602 35.3231 54.7015 35.3504C54.729 35.3708 55.8015 35.9976 57.0734 36.7401ZM53.5602 36.1951C53.6565 36.9922 53.5396 38.5931 53.3196 39.4311C53.0652 40.4121 52.914 40.8208 52.804 40.8549C52.6527 40.9026 51.7109 40.0578 51.1402 39.3493C50.5627 38.634 49.7996 37.292 49.9165 37.183C49.9852 37.1148 53.3402 35.7455 53.4502 35.7455C53.4777 35.7387 53.5259 35.9431 53.5602 36.1951ZM49.4421 38.198C49.7996 38.927 50.6109 39.9761 51.4977 40.8685C52.0684 41.4408 52.2127 41.6247 52.1234 41.686C51.7246 41.9517 49.9371 42.7828 48.8096 43.2188C47.4415 43.7502 45.6609 44.3633 45.6196 44.3088C45.6059 44.2884 46.0115 43.5526 46.5271 42.6738C47.6409 40.7595 49.0502 38.0413 49.0502 37.8165C49.0571 37.5372 49.174 37.653 49.4421 38.198ZM47.3315 38.2457C47.3109 38.3002 47.139 38.7226 46.9534 39.1858C46.1627 41.1751 44.6227 43.8796 44.279 43.8796C44.0109 43.8796 43.619 42.306 43.509 40.7936L43.454 40.0306L45.3377 39.0905C46.3759 38.5727 47.2559 38.1503 47.2971 38.1503C47.3384 38.1435 47.3521 38.1912 47.3315 38.2457ZM59.9059 40.0851C59.9127 41.2296 59.4315 44.0023 59.1702 44.2816C59.0602 44.3974 57.8709 43.9614 56.7915 43.4096C55.829 42.9191 54.2409 41.9449 54.2409 41.8427C54.2409 41.8155 54.4815 41.6928 54.784 41.5702C55.3546 41.3318 58.0152 39.9216 59.1427 39.2608L59.789 38.8793L59.844 39.1722C59.8715 39.3357 59.899 39.7513 59.9059 40.0851ZM42.1615 41.4067C42.2715 42.3128 42.5534 43.4232 42.904 44.302C43.0484 44.6631 43.1515 44.9765 43.1309 44.9901C42.9934 45.1127 37.3352 46.6591 36.5859 46.775L36.2284 46.8295L36.2834 46.557C36.359 46.1686 36.909 45.065 37.3146 44.4655C37.8234 43.723 39.0746 42.4763 39.8996 41.8972C40.5184 41.468 42.0034 40.6028 42.0446 40.6573C42.0721 40.6641 42.1134 40.998 42.1615 41.4067ZM54.9971 43.321C56.7434 44.1521 57.4034 44.4383 58.2421 44.7244L58.8815 44.9424L58.4759 45.1468C56.1865 46.2981 52.1302 47.9331 51.0852 48.1375C50.8515 48.1851 50.8171 48.1715 50.8652 48.0557C51.044 47.5925 53.464 42.6398 53.5121 42.6398C53.5396 42.6398 54.2134 42.9463 54.9971 43.321ZM51.924 43.1371C51.8002 43.723 51.1334 45.61 50.7484 46.4684C50.4115 47.2178 49.6346 48.6688 49.4971 48.8051C49.4352 48.8664 48.0534 48.0966 47.4002 47.6333C46.6646 47.1156 45.0559 45.576 45.104 45.4329C45.1246 45.3784 46.1009 45.0037 47.2834 44.6018C49.7721 43.7502 51.1609 43.2393 51.5665 43.0281C51.9515 42.8237 51.9859 42.8373 51.924 43.1371ZM58.8815 45.7395C58.8609 45.9098 58.7165 46.6523 58.5652 47.4085C58.0909 49.7656 57.5134 51.3802 57.149 51.3802C56.6402 51.3802 53.1752 50.5491 52.0546 50.154C51.2915 49.8883 50.6384 49.5817 50.4184 49.3978C50.2809 49.282 50.3565 49.2411 51.3465 48.8391C54.5502 47.5448 58.249 45.8893 58.6477 45.576C58.8884 45.3852 58.9227 45.4125 58.8815 45.7395ZM42.6565 46.4616C42.2921 47.1088 41.5496 48.1715 40.1265 50.0722L38.9165 51.6936L38.5521 51.4347C38.0434 51.0736 37.2321 50.2016 36.8952 49.6498C36.5309 49.0571 36.2834 48.3214 36.2559 47.7628L36.2352 47.3268L36.8334 47.2655C37.6446 47.1837 39.9202 46.7205 41.5359 46.2981C42.2715 46.1073 42.8834 45.9643 42.8971 45.9711C42.904 45.9915 42.8009 46.2095 42.6565 46.4616ZM46.1834 48.1306C46.589 48.4168 47.1459 48.7846 47.4277 48.9481L47.9434 49.2479L47.7096 49.3433C47.579 49.3978 45.6952 50.079 43.5159 50.8556C39.7965 52.1841 39.5559 52.2658 39.4527 52.1296C39.3909 52.0478 39.3496 51.9661 39.3565 51.9388C39.3634 51.9116 40.3671 50.624 41.5909 49.0776L43.8115 46.264L44.6296 46.9385C45.0902 47.3131 45.7777 47.8445 46.1834 48.1306ZM47.0977 52.3612C46.2865 53.567 45.599 54.5821 45.5715 54.6093C45.5096 54.6911 44.2102 54.3913 43.2409 54.0643C42.2234 53.7237 40.9652 53.097 40.4702 52.6746L40.1127 52.368L40.9171 52.15C44.1965 51.2644 48.5346 50.1267 48.5552 50.1403C48.569 50.1539 47.909 51.1554 47.0977 52.3612ZM50.9959 50.5354C52.7352 51.1281 54.3165 51.462 56.3721 51.68L56.9359 51.7413L55.4027 52.2863C51.5802 53.6556 48.4796 54.6161 46.9259 54.9159C46.4859 54.9976 46.0871 55.0726 46.0459 55.0726C46.0046 55.0726 46.314 54.6502 46.7402 54.1325C47.909 52.7223 49.174 51.1145 49.5109 50.6172C49.6759 50.3788 49.8409 50.1744 49.8752 50.1744C49.9165 50.1812 50.4184 50.3379 50.9959 50.5354ZM56.6952 53.7237C56.0352 55.4064 55.554 56.4351 55.389 56.4964C55.0659 56.619 50.549 55.965 49.1671 55.5903C48.2527 55.3451 47.6684 55.1066 47.8402 55.0453C47.909 55.0249 48.5621 54.8682 49.2977 54.7047C51.6834 54.1733 55.3271 53.0765 56.8396 52.4361C57.0321 52.3544 57.204 52.2931 57.2177 52.3067C57.2315 52.3203 56.9977 52.9539 56.6952 53.7237ZM29.9859 55.1475C29.6627 55.2838 29.5115 55.5494 29.4771 56.0468C29.4427 56.51 29.4427 56.5168 29.209 56.5168C28.9752 56.5168 28.9684 56.5304 28.9959 56.8574C29.0165 57.164 29.044 57.1981 29.2434 57.2253L29.4634 57.2526V59.7459L29.8415 59.7119L30.2265 59.6846L30.254 58.4584L30.2815 57.2321H31.409V58.1314C31.409 59.2486 31.5259 59.5416 32.014 59.7051C32.234 59.78 32.4402 59.7936 32.6602 59.7459C32.9696 59.6846 32.9834 59.6642 33.0109 59.3372L33.0384 58.9898L32.7702 59.0374C32.3027 59.1192 32.2752 59.0647 32.289 57.9338L32.2959 57.2389H32.5296C32.9352 57.2389 33.0246 57.164 33.0246 56.8302V56.5168H32.2959V56.2171C32.2959 55.7743 32.2202 55.6993 31.8009 55.7266L31.4434 55.747L31.4159 56.1285L31.3884 56.51H30.2677V56.2375C30.2677 55.8628 30.4671 55.6789 30.8109 55.747C31.0721 55.7947 31.079 55.7947 31.079 55.529C31.079 55.3859 31.0309 55.2156 30.9827 55.1611C30.8727 55.0658 30.2265 55.0521 29.9859 55.1475ZM12.0696 55.2769C11.719 55.5222 11.8909 56.0331 12.3309 56.0331C12.7846 56.0331 12.8671 55.9718 12.8671 55.6244C12.8602 55.1816 12.4615 55.0044 12.0696 55.2769ZM6.11586 55.4949C5.99211 55.5835 5.97836 55.7879 5.99898 57.6409L6.01961 59.6846L6.40461 59.7119L6.78961 59.7391V57.9611C6.78961 56.9801 6.81023 56.1966 6.83086 56.2171C6.85836 56.2375 7.09211 56.8847 7.36023 57.6545C7.62836 58.4243 7.90336 59.2078 7.97211 59.3985L8.10273 59.7459L8.50836 59.7119L8.91398 59.6846L9.53273 57.9815L10.1515 56.2784L10.1927 57.9815C10.2202 58.9216 10.2477 59.6983 10.2546 59.7119C10.2615 59.7255 10.4471 59.7255 10.6534 59.7119L11.0384 59.6846L11.059 57.6477C11.0727 56.2103 11.0521 55.5767 10.9834 55.4949C10.839 55.3178 9.92461 55.3519 9.75961 55.5358C9.69086 55.6176 9.40211 56.2784 9.12711 57.0005C8.85211 57.7226 8.60461 58.3426 8.57711 58.3766C8.54961 58.4107 8.30898 57.8316 8.04086 57.0959C7.77273 56.3465 7.47711 55.6789 7.37398 55.5767C7.22961 55.4336 7.10586 55.3928 6.72086 55.3928C6.46648 55.3928 6.19148 55.4404 6.11586 55.4949ZM14.4484 56.5168C13.8571 56.7076 13.5065 57.3139 13.5065 58.1655C13.5065 59.1192 13.8709 59.6369 14.6409 59.7664C14.9915 59.8277 15.5896 59.6914 15.7959 59.5075C15.9334 59.3849 15.9952 58.9284 15.8852 58.8263C15.8577 58.799 15.7065 58.8467 15.5484 58.9353C14.964 59.2486 14.5309 59.0715 14.3934 58.4652C14.304 58.0633 14.4002 57.5455 14.6134 57.3207C14.7852 57.1368 15.2115 57.1231 15.5415 57.2934C15.8509 57.4501 15.9402 57.3956 15.9402 57.0414C15.9402 56.8438 15.8921 56.7348 15.7477 56.6463C15.5002 56.4759 14.7715 56.4146 14.4484 56.5168ZM17.604 56.6803C17.3221 56.9256 17.3221 56.9256 17.2946 56.7416C17.274 56.5849 17.219 56.5509 16.9234 56.5304L16.5796 56.5032V59.7187H17.3909V58.7241C17.3909 57.7295 17.3909 57.7294 17.6315 57.4706C17.8309 57.2594 17.9202 57.2185 18.1609 57.2458C18.4634 57.2798 18.5252 57.2117 18.5252 56.837C18.5252 56.3738 18.0577 56.292 17.604 56.6803ZM19.8452 56.5304C19.1921 56.7212 18.7934 57.4774 18.8759 58.3698C18.9515 59.1941 19.3777 59.6642 20.1477 59.7732C21.509 59.9571 22.3959 58.8535 22.0109 57.4638C21.7771 56.6463 20.8421 56.2375 19.8452 56.5304ZM20.794 57.1572C21.2202 57.382 21.3302 58.363 20.9796 58.8263C20.7596 59.1124 20.2715 59.1669 19.9759 58.9353C19.7971 58.7922 19.7834 58.7241 19.7834 58.1246C19.7834 57.5046 19.7971 57.4569 20.0102 57.273C20.244 57.0686 20.5465 57.0278 20.794 57.1572ZM23.1865 56.5509C22.774 56.728 22.6227 56.9664 22.6227 57.4093C22.6227 57.8861 22.774 58.0633 23.4959 58.4039C23.9084 58.6014 23.9977 58.6764 23.9977 58.8467C23.9977 58.9898 23.9359 59.0715 23.7709 59.126C23.5646 59.1941 23.3721 59.1601 22.719 58.9557C22.5952 58.9148 22.5746 58.9489 22.5952 59.2214C22.6159 59.4803 22.664 59.5552 22.8634 59.6506C23.2002 59.8141 24.0115 59.8004 24.3484 59.6233C24.8365 59.3644 24.9877 58.581 24.6302 58.1859C24.5477 58.0973 24.2521 57.9134 23.9565 57.7771C23.4202 57.5251 23.2896 57.3411 23.4752 57.1231C23.599 56.9801 23.9634 56.9801 24.3277 57.1299C24.5684 57.2321 24.6165 57.2321 24.6577 57.1368C24.7402 56.9188 24.644 56.6599 24.4446 56.5577C24.1765 56.4146 23.489 56.4146 23.1865 56.5509ZM26.4659 56.4964C25.7509 56.7484 25.4277 57.1776 25.359 57.9406C25.2765 58.8808 25.6202 59.4803 26.3627 59.6983C27.6071 60.0593 28.5765 59.344 28.5696 58.0701C28.5627 57.3003 28.2121 56.7348 27.6071 56.5304C27.3252 56.4351 26.6859 56.4146 26.4659 56.4964ZM27.4077 57.273C27.6209 57.4501 27.6346 57.5046 27.6346 58.0701C27.6346 58.6014 27.614 58.6968 27.4352 58.8808C27.1809 59.1464 26.6996 59.1669 26.459 58.9284C26.2527 58.7241 26.1909 58.4584 26.239 57.9066C26.2665 57.5455 26.3215 57.4229 26.4934 57.2662C26.7821 57.021 27.119 57.0278 27.4077 57.273ZM11.9871 58.0973L12.0077 59.6914H12.819V56.5577L12.3927 56.5373L11.9665 56.51L11.9871 58.0973ZM8.11648 61.6943C7.07836 61.9191 6.29461 62.4846 5.88211 63.3225C5.62773 63.8334 5.61398 63.9084 5.61398 64.7395C5.61398 65.5434 5.63461 65.666 5.83398 66.0748C6.26711 66.9536 7.06461 67.5735 8.72836 68.3229C10.5434 69.1404 11.0384 69.6445 11.0384 70.6868C11.0384 71.6338 10.5915 72.1992 9.60836 72.4989C8.63211 72.7987 7.65586 72.6556 6.39086 72.0289C5.97148 71.8177 5.59336 71.6338 5.56586 71.6201C5.53148 71.6065 5.45586 71.6542 5.38023 71.7223C5.22898 71.879 5.20148 72.6556 5.34586 72.9145C5.64836 73.4799 7.23648 74.0045 8.61836 74.0045C11.2171 74.0045 12.8946 72.4717 12.7571 70.2168C12.7296 69.7263 12.6677 69.4878 12.4615 69.0791C12.0559 68.2684 11.5334 67.846 9.94523 67.0762C9.20961 66.7219 8.40523 66.2928 8.15086 66.1224C7.14711 65.4548 6.91336 64.3171 7.62148 63.5269C8.01336 63.0841 8.41211 62.941 9.23023 62.9342C10.0071 62.9342 10.3234 63.0159 11.2171 63.4656C11.9871 63.8539 12.0559 63.8198 12.0559 63.0636C12.0559 62.3824 12.0146 62.3211 11.3134 62.0009C10.3852 61.5989 9.14086 61.4763 8.11648 61.6943ZM18.9515 61.6466C17.4184 61.8919 16.2359 62.6276 15.4452 63.8334C15.0465 64.4466 14.8265 65.0188 14.6202 65.9862C14.3934 67.0421 14.4484 69.3924 14.7165 70.3598C15.3765 72.7374 16.8546 73.8819 19.3846 73.9909C20.7184 74.0454 21.234 73.95 22.5402 73.3982C22.5884 73.3778 22.8084 73.514 23.0284 73.6979C23.8671 74.4201 25.7096 75.4556 26.3559 75.5782C26.7546 75.6531 26.8646 75.5237 26.8646 74.9651C26.8646 74.7062 26.844 74.4405 26.8165 74.3656C26.789 74.2906 26.404 74.0522 25.9502 73.8274C25.2559 73.4868 23.8671 72.6011 23.8671 72.4989C23.8671 72.4785 23.9977 72.3014 24.149 72.097C24.8021 71.2523 25.194 70.0737 25.3315 68.5477C25.4346 67.3828 25.3384 66.1361 25.0702 65.1687C24.5821 63.4179 23.3927 62.2121 21.7152 61.7624C21.1584 61.6262 19.5634 61.5513 18.9515 61.6466ZM21.3852 63.1794C22.3477 63.5337 22.9871 64.2558 23.3584 65.3799C23.544 65.9453 23.5784 66.2042 23.6127 67.4032C23.6609 69.0109 23.5371 69.7876 23.1109 70.6868C22.4302 72.1311 20.9384 72.8532 19.199 72.5875C17.0402 72.2605 16.0915 70.6459 16.2015 67.4781C16.2634 65.6592 16.5934 64.7054 17.4459 63.9016C17.9477 63.4247 18.3121 63.2135 18.8965 63.0704C19.5702 62.8933 20.7665 62.9478 21.3852 63.1794ZM40.8621 61.7011C39.8652 61.9396 39.0196 62.5527 38.6552 63.2884C38.2427 64.1332 38.229 65.3254 38.6209 66.0952C39.0815 67.0013 39.7002 67.4713 41.6252 68.3774C43.0827 69.0654 43.5709 69.4674 43.7702 70.1418C44.004 70.9389 43.7015 71.77 43.0277 72.206C41.9759 72.8804 40.4771 72.7714 38.8752 71.9063C38.1534 71.5179 38.0502 71.5588 38.0502 72.2469C38.0502 72.8873 38.1396 73.078 38.5796 73.3301C39.934 74.1203 42.189 74.2225 43.5915 73.5685C45.2827 72.7783 46.0459 70.7004 45.2484 69.0518C45.1452 68.8406 44.8565 68.4728 44.5952 68.2207C44.1965 67.8324 43.8802 67.6416 42.5465 66.9944C40.3327 65.9181 39.8927 65.4548 40.0234 64.358C40.0921 63.813 40.3809 63.4111 40.8896 63.159C41.2402 62.9819 41.4327 62.9478 41.969 62.9478C42.7665 62.9478 43.0896 63.0296 43.894 63.4383C44.5815 63.7858 44.7259 63.813 44.8015 63.6223C44.8977 63.3838 44.8496 62.5868 44.7327 62.4164C44.5746 62.1984 43.7702 61.8442 43.0896 61.7011C42.409 61.5581 41.474 61.5513 40.8621 61.7011ZM28.2602 61.8306C28.1846 61.9055 28.164 63.3157 28.164 67.6893V73.4527L28.3634 73.6503L28.5627 73.8478H31.4365C33.6365 73.8478 34.324 73.8206 34.3927 73.7456C34.5165 73.5889 34.5715 73.1189 34.5027 72.8055L34.4409 72.5262L32.1377 72.4853L29.8346 72.4444L29.814 67.1511C29.8002 63.0432 29.7727 61.8442 29.6971 61.7965C29.5252 61.7011 28.3702 61.7216 28.2602 61.8306ZM49.8684 64.8417C49.4765 64.903 48.6927 65.2096 48.3696 65.4276C47.5927 65.9521 47.0427 66.7901 46.7334 67.9141C46.5409 68.6294 46.5409 70.3939 46.7334 71.1228C47.1321 72.6148 48.0121 73.5208 49.4146 73.8887C50.0265 74.0454 51.5734 74.0454 52.3296 73.8887C53.0446 73.7388 53.7871 73.4663 53.9246 73.3096C54.0552 73.1598 54.0484 72.3491 53.9177 72.2196C53.849 72.1515 53.6359 72.1992 53.0652 72.3899C50.8721 73.1257 49.1809 72.8055 48.5277 71.5316C48.3352 71.1569 48.1565 70.4075 48.1565 69.9851V69.7603H50.9409C52.7009 69.7603 53.8146 69.7263 53.9727 69.6718C54.3302 69.5491 54.4265 69.2426 54.3646 68.4523C54.2409 66.8854 53.7115 65.9044 52.6734 65.2845C52.0134 64.8894 50.7896 64.6918 49.8684 64.8417ZM51.3534 66.102C52.1784 66.3473 52.6871 67.0421 52.7627 68.0027L52.804 68.5545H48.1427L48.1977 68.2207C48.3421 67.3896 48.6927 66.7696 49.2359 66.4018C49.8477 65.9862 50.6109 65.8772 51.3534 66.102ZM59.3215 64.8621C58.9365 64.9848 58.3796 65.4276 57.9809 65.9249L57.5959 66.4154L57.5546 65.7001L57.5134 64.9848L57.0321 64.9575C56.764 64.9439 56.4683 64.9507 56.3652 64.9779L56.1796 65.0188V69.3856C56.1796 73.296 56.1934 73.7524 56.3102 73.8001C56.4752 73.8614 57.4309 73.8614 57.589 73.8001C57.7059 73.7593 57.7196 73.4254 57.7196 70.9048V68.0572L58.0771 67.5599C58.5652 66.8786 59.1977 66.3268 59.5621 66.2587C59.7546 66.2246 60.0571 66.2519 60.4146 66.3404C60.7652 66.429 60.999 66.4494 61.0471 66.4018C61.0884 66.3609 61.1159 66.0339 61.1021 65.6933C61.0815 65.0801 61.0677 65.0529 60.8409 64.9507C60.559 64.8144 59.6309 64.7599 59.3215 64.8621ZM73.264 64.8689C72.6246 64.9779 71.7171 65.4412 71.2496 65.9044C70.3627 66.7833 69.9915 67.9959 70.0534 69.7944C70.1084 71.4158 70.4109 72.2196 71.2702 73.0167C72.0883 73.7865 72.9546 74.0386 74.5221 73.9909C75.6702 73.95 76.7015 73.7252 77.1759 73.4118C77.4096 73.2551 77.4371 73.1938 77.4577 72.7987C77.4715 72.5603 77.444 72.3082 77.4027 72.2401C77.3202 72.1106 77.389 72.097 76.0209 72.5262C75.464 72.6965 75.1684 72.7374 74.4809 72.7442C73.1196 72.751 72.4184 72.3899 71.9577 71.4634C71.7652 71.0751 71.6965 70.8026 71.6621 70.353L71.6208 69.7603L74.5359 69.7399C78.0352 69.7126 77.8015 69.7876 77.7946 68.718C77.7877 66.8378 76.9696 65.5298 75.4915 65.0188C74.9552 64.8417 73.8759 64.7668 73.264 64.8689ZM74.7902 66.1088C75.5946 66.3473 76.124 67.0558 76.234 68.0572L76.289 68.5545H71.6277L71.6759 68.1526C71.7927 67.1716 72.4734 66.3268 73.3534 66.0611C73.6902 65.9589 74.3502 65.9862 74.7902 66.1088ZM82.8202 64.8553C82.2977 65.0256 81.5759 65.6251 81.1771 66.2178C81.0465 66.4154 81.0396 66.4018 81.0396 65.775C81.0396 65.3799 81.0052 65.0938 80.9434 65.0393C80.8127 64.9098 79.809 64.9098 79.6784 65.0393C79.5409 65.1755 79.5409 73.6162 79.6784 73.7524C79.809 73.8819 80.9709 73.8819 81.1015 73.7524C81.1702 73.6843 81.1977 72.9213 81.1977 70.8435V68.0299L81.5002 67.5871C81.9471 66.9263 82.5109 66.4086 82.9027 66.2928C83.2396 66.1906 83.3702 66.2042 84.2709 66.4358C84.5252 66.5039 84.6009 66.3609 84.6009 65.8227C84.6009 65.2232 84.5459 65.0597 84.2915 64.9439C84.0302 64.8281 83.0884 64.7668 82.8202 64.8553ZM61.2877 65.0665C61.2052 65.1687 61.4527 65.9181 62.704 69.3788C63.5359 71.6814 64.2852 73.6366 64.3677 73.7252C64.6771 74.0386 66.2102 73.9636 66.3477 73.6298C66.4509 73.3641 69.2902 65.5502 69.3452 65.3663C69.4415 65.0461 69.2696 64.9507 68.5752 64.9507C68.1696 64.9507 67.9152 64.9848 67.8671 65.0529C67.8259 65.1074 67.2484 66.7356 66.5884 68.6703C65.9284 70.6051 65.3646 72.1583 65.3302 72.1174C65.2959 72.0834 64.7321 70.5029 64.079 68.6022C63.4259 66.7015 62.8484 65.1074 62.8002 65.0461C62.6765 64.8894 61.4115 64.9098 61.2877 65.0665Z" fill="black"/>
</svg>
