<svg width="58" height="58" viewBox="0 0 58 58" fill="none" xmlns="http://www.w3.org/2000/svg">
<path d="M18.3945 56.0937C18.3058 56.0937 18.217 56.0493 18.1283 55.9606L15.0664 51.9668V56.0493H14.3564V51.035C14.3564 50.8131 14.5339 50.68 14.7114 50.68C14.8001 50.68 14.9333 50.7243 14.9776 50.8131L18.0395 54.8068V50.7243H18.7495V55.7387C18.7495 55.9606 18.572 56.0937 18.3945 56.0937ZM24.1189 56.1381C23.4089 56.1381 22.6989 56.005 22.0333 55.7387L22.2108 55.1618C22.832 55.3837 23.4976 55.5168 24.1633 55.5168C25.0508 55.5168 25.4945 55.2062 25.4945 54.7625C25.4945 54.3631 25.1395 54.1412 23.897 53.5644C22.6545 52.9875 22.2108 52.6325 22.2108 51.8781C22.2108 50.9906 22.9208 50.5912 24.2076 50.5912C24.7401 50.5912 25.5833 50.7243 26.0714 50.8575L25.9826 51.4343C25.4501 51.3012 24.7845 51.2125 24.252 51.2125C23.3201 51.2125 22.9651 51.39 22.9651 51.8337C22.9651 52.2775 23.2314 52.455 24.5183 53.0318C25.8939 53.6531 26.2489 53.9637 26.2489 54.6293C26.2045 55.6943 25.2726 56.1381 24.1189 56.1381ZM29.4883 50.7243H30.1983V56.0493H29.4883V50.7243ZM36.322 53.6531H34.547V55.4725H36.322C36.9433 55.4725 37.2983 55.0731 37.2983 54.5406C37.2983 54.0525 36.8989 53.6531 36.322 53.6531ZM35.967 51.3456H34.547V53.0318H35.967C36.5439 53.0318 36.9433 52.6768 36.9433 52.1443C36.9433 51.6562 36.5883 51.3456 35.967 51.3456ZM36.322 56.0493H34.192C33.9701 56.0493 33.837 55.8718 33.837 55.6943V51.0793C33.837 50.9018 34.0145 50.7243 34.192 50.7243H35.967C37.0764 50.7243 37.6976 51.2568 37.6976 52.1C37.6976 52.5437 37.4314 52.9875 37.032 53.2093C37.6533 53.3868 38.0526 53.9193 38.0526 54.4962C38.0083 55.3837 37.2983 56.0493 36.322 56.0493ZM41.4695 56.0493C41.292 56.0493 41.1145 55.8718 41.1145 55.6943V50.7243H41.8245V55.4281H44.6645V56.0937L41.4695 56.0493ZM49.5901 56.1381C48.1258 56.1381 47.2383 55.6056 47.2383 54.4962C47.2383 53.9637 47.5489 53.4756 48.0814 53.2537C47.6376 52.9431 47.3714 52.5437 47.3714 52.1C47.3714 51.1237 48.1258 50.6356 49.5901 50.6356C50.0783 50.6356 50.7439 50.68 51.3208 50.8131L51.232 51.39C50.6108 51.3012 50.0783 51.2568 49.5458 51.2568C48.6139 51.2568 48.1258 51.5231 48.1258 52.1443C48.1258 52.6325 48.5695 53.0318 49.1908 53.0318H50.4333C50.6108 53.0318 50.7439 53.165 50.7439 53.3425C50.7439 53.52 50.6108 53.6531 50.4333 53.6531H49.102C48.392 53.6531 47.9483 54.0081 47.9483 54.5406C47.9483 55.3393 48.6583 55.5612 49.5458 55.5612C50.0339 55.5612 50.6995 55.5168 51.232 55.3837L51.3208 55.9606C50.877 56.0493 50.167 56.1381 49.5901 56.1381ZM9.03139 51.745L10.2739 54.8956L8.36576 53.3868L9.03139 51.745ZM11.2501 55.6056L9.29764 50.8575C9.25326 50.7243 9.12014 50.6356 8.98701 50.6356C8.85389 50.6356 8.72076 50.7243 8.67639 50.8575L6.54639 56.0493H7.25639L8.09951 53.9193L10.6289 55.9606C10.7176 56.0493 10.8064 56.0937 10.8951 56.0937C11.0726 56.0937 11.2501 55.9606 11.2501 55.7387C11.2945 55.7387 11.2945 55.65 11.2501 55.6056ZM51.4095 23.4959C51.4095 35.8321 41.3808 45.8609 29.0445 45.8609C16.7083 45.8609 6.67951 35.8321 6.67951 23.4959C6.67951 11.1596 16.7083 1.13086 29.0445 1.13086C41.3808 1.13086 51.4095 11.1596 51.4095 23.4959Z" fill="#1A1918"/>
<path d="M29.3994 14.7984L35.2125 29.0871L26.4706 22.209L29.3994 14.7984ZM39.6944 32.3709L30.8194 10.9377C30.5531 10.3165 30.065 10.0059 29.4437 10.0059C28.8225 10.0059 28.29 10.3165 28.0237 10.9377L18.2612 34.4565H21.5894L25.45 24.7384L36.9875 34.0571C37.4312 34.4121 37.7862 34.5896 38.23 34.5896C39.1175 34.5896 39.8719 33.924 39.8719 32.9921C39.8719 32.859 39.7831 32.6371 39.6944 32.3709Z" fill="white"/>
</svg>
