<svg width="52" height="53" viewBox="0 0 52 53" fill="none" xmlns="http://www.w3.org/2000/svg">
<path d="M34.9375 48.3432C34.9375 48.2213 34.9781 48.0994 34.9375 47.9775C34.8563 47.8557 34.8156 47.7744 34.7344 47.6932C34.5313 47.4494 34.3281 47.2463 34.0844 47.0025L31.6875 44.565L33.5563 42.6557L34.5719 41.5588C34.7344 41.3963 34.9375 41.0713 34.9375 40.8275V40.665C34.9375 40.2994 34.775 40.0963 34.4094 40.015L34.4906 40.0557H34.2063C33.9625 40.0557 33.2719 40.7057 33.1094 40.9088C32.5 41.5182 32.0938 42.0869 31.2813 42.6963V37.8619C31.2813 37.415 31.0375 37.2119 30.5906 37.2119H30.4688C30.0219 37.2119 29.6563 37.415 29.6563 37.8619V48.3838C29.6563 48.8307 30.0219 48.9931 30.4688 48.9931H30.5906C31.0375 48.9931 31.2813 48.79 31.2813 48.3838V46.515L32.5 47.6932C32.8656 48.0588 33.2313 48.3025 33.5563 48.6275C33.7188 48.79 34.0438 48.9931 34.2875 48.9931H34.4094C34.8156 48.9931 34.9375 48.79 35.0188 48.465L34.9375 48.5057V48.3432ZM50.8219 40.0557H50.6594C49.7656 40.0557 48.9531 40.2994 48.2219 40.8275C47.0031 41.7213 46.3125 42.8994 46.3125 44.4432V48.4244C46.3125 48.8713 46.475 48.9931 46.9219 48.9931H47.0438C47.4906 48.9931 47.9375 48.8307 47.9375 48.4244V44.6869C47.9375 43.8744 48.1 43.1025 48.7094 42.4932C49.1969 42.0057 49.8063 41.5994 50.4969 41.5994C51.025 41.5994 51.6344 41.4775 51.6344 40.8275C51.6344 40.34 51.2688 40.0557 50.8219 40.0557ZM44.5656 42.0869C44.1188 41.3557 43.5094 40.7869 42.7375 40.4213C41.3156 39.7307 39.8125 39.6494 38.4313 40.4619L38.2281 40.5838C37.6594 40.9088 37.1719 41.315 36.8063 41.8432C35.75 43.3869 35.6281 45.1338 36.5625 46.7588L36.6438 46.9213C37.05 47.6119 37.5781 48.1807 38.2688 48.5463C39.7313 49.3588 41.3156 49.44 42.7781 48.6275L42.9 48.5463C43.3063 48.3025 43.3875 47.8963 43.1844 47.49C43.1031 47.3275 42.9406 47.2057 42.7781 47.1244H42.6969C42.4125 47.0838 41.6406 47.4088 41.3563 47.5307C40.7875 47.6119 40.1375 47.6525 39.5688 47.4494L42.6563 44.7682C43.1031 44.3619 43.5906 43.915 44.0781 43.5494C44.4844 43.2244 44.8906 42.7775 44.5656 42.2088V42.0869ZM41.7625 43.5494L38.3094 46.515C38.1875 46.3932 38.1063 46.2307 38.025 46.1088C37.7813 45.7025 37.6188 45.215 37.6188 44.7275C37.5781 43.5088 38.025 42.4932 39.1219 41.8838C39.9344 41.3963 40.8281 41.315 41.7219 41.64C42.1688 41.8025 42.6969 42.0869 42.9813 42.4932C42.575 42.8588 42.1281 43.1838 41.7625 43.5494ZM8.9375 37.2119H8.81563C8.36875 37.2119 8.125 37.3744 8.125 37.8213V41.1119C7.3125 40.3807 6.3375 40.0963 5.2 40.0963H4.875C4.10313 40.0963 3.37188 40.2182 2.68125 40.6244C1.21875 41.4775 0.40625 42.7369 0.40625 44.4432V44.7682C0.40625 45.54 0.609375 46.19 1.01563 46.8807C1.86875 48.3432 3.20938 49.0744 4.875 49.0744H5.2C5.97188 49.0744 6.78438 48.9525 7.43438 48.5869C8.89688 47.7338 9.75 46.4744 9.75 44.8088V37.9025C9.75 37.3744 9.38438 37.2119 8.9375 37.2119ZM7.67813 46.0682C7.06875 47.0838 6.175 47.6525 4.99688 47.6525C4.50938 47.6525 4.02188 47.5307 3.61563 47.2869C2.55938 46.7182 1.95 45.7838 1.95 44.565C1.95 44.1182 2.03125 43.7119 2.23438 43.3057C2.80313 42.1275 3.7375 41.4775 5.0375 41.4775C5.6875 41.4775 6.25625 41.6807 6.74375 42.0463C7.59688 42.6557 8.08438 43.4682 8.08438 44.5244C8.125 45.0932 7.9625 45.5807 7.67813 46.0682ZM15.275 40.0557H15.0313C14.2594 40.0557 13.4875 40.1775 12.8375 40.5838C11.375 41.4369 10.5625 42.6963 10.5625 44.4025V44.7275C10.5625 45.4994 10.7656 46.1494 11.1719 46.84C12.025 48.3025 13.3656 49.0338 15.0719 49.0338H15.3969C16.1688 49.0338 16.9406 48.9119 17.6313 48.5463C19.0938 47.6932 19.9469 46.4338 19.9469 44.7682V44.4432C19.9469 43.7119 19.7031 43.1025 19.3781 42.4932C18.4844 40.8682 17.0625 40.0557 15.275 40.0557ZM17.875 46.0682C17.2656 47.0432 16.4125 47.6525 15.2344 47.6525C14.7063 47.6525 14.1781 47.5307 13.6906 47.2463C12.675 46.6369 12.1063 45.7838 12.1063 44.6057C12.1063 44.1588 12.1875 43.7525 12.3906 43.3463C12.9594 42.1682 13.8938 41.5182 15.1938 41.5182C15.8031 41.5182 16.3313 41.6807 16.8188 42.0057C17.7125 42.615 18.2406 43.4682 18.2406 44.565C18.2813 45.0525 18.1594 45.5807 17.875 46.0682ZM27.8281 40.6244L27.7875 40.665C27.0969 40.2182 26.325 40.0557 25.5125 40.0557H25.1875C24.4156 40.0557 23.6438 40.1775 22.9938 40.5838C21.5313 41.4369 20.7188 42.6963 20.7188 44.3619V44.6869C20.7188 45.0932 20.8 45.4588 20.8813 45.865C21.5313 48.0994 23.2781 49.3588 25.6344 49.1963C26.2844 49.1557 28.0313 48.9525 28.0313 47.9775V47.815C28.0313 47.4494 27.7469 47.1244 27.4219 47.0431L27.3813 46.9619H27.0969L27.0156 47.0838C26.65 47.2463 26.0406 47.5713 25.6344 47.5713C25.1469 47.5713 24.6188 47.5713 24.1719 47.3275C22.9938 46.7588 22.3031 45.8244 22.3031 44.5244C22.3031 44.0775 22.3844 43.6713 22.5875 43.265C23.1563 42.1275 24.0906 41.3963 25.3906 41.4369C25.6344 41.4369 26.0813 41.5588 26.325 41.6807C26.5281 41.7619 27.0563 42.0869 27.3 42.0869H27.3813L27.4219 42.0057C27.7875 41.9244 28.0719 41.64 28.0719 41.2744V41.1119C28.0719 40.9494 27.9906 40.8275 27.9094 40.7057L27.8281 40.6244ZM2.35625 27.9494L2.39688 28.0307C5.60625 33.4744 11.2125 35.7494 17.3469 35.7494C29.2094 35.7494 39 30.4275 43.4688 19.2557C46.475 19.4182 49.5625 18.5244 51.025 15.64L51.3906 14.9088L50.6594 14.5025C48.9125 13.4869 46.5969 13.365 44.6469 13.9338C44.4031 11.8213 43.0219 9.99316 41.3969 8.69316L40.7469 8.16504L40.2188 8.81504C39.1219 10.0744 38.7969 12.1869 38.9594 13.8119C39.0813 14.99 39.4469 16.2088 40.1781 17.1838C39.6094 17.5088 39 17.9557 38.4313 18.1588C37.2938 18.565 36.0344 18.9713 34.8156 18.9713H32.0938V13.2432H26.8125V3.08691H20.7188V7.96191H10.5625V13.2432H5.28125V18.9307H0.73125L0.65 19.54C0.446875 22.14 0.771875 24.6588 1.86875 27.0557L2.35625 27.9494ZM26.8125 14.4619H31.2813V18.9307H26.8125V14.4619ZM21.5313 3.89941H26V8.36816H21.5313V3.89941ZM21.5313 9.18066H26V13.6494H21.5313V9.18066ZM21.5313 14.4619H26V18.9307H21.5313V14.4619ZM16.25 9.18066H20.7188V13.6494H16.25V9.18066ZM16.25 14.4619H20.7188V18.9307H16.25V14.4619ZM16.6969 27.1369C16.6969 27.8275 16.1281 28.3963 15.4375 28.3963C14.7469 28.3963 14.1781 27.8275 14.1781 27.1369C14.1781 26.4463 14.7469 25.8775 15.4375 25.8775C16.1281 25.9182 16.6969 26.4463 16.6969 27.1369ZM11.375 9.18066H15.4375V13.6494H11.375V9.18066ZM11.375 14.4619H15.4375V18.9307H11.375V14.4619ZM6.09375 14.4619H10.5625V18.9307H6.09375V14.4619ZM7.06875 29.8994C7.71875 29.8994 8.36875 29.8994 8.97813 29.8588C10.5625 29.7775 11.9438 29.5744 13.0813 29.2494C14.0156 31.4025 15.7219 33.3932 18.7688 34.8557L17.3469 34.8963C10.9281 34.8557 7.475 32.7025 4.63125 29.8588C5.48438 29.8994 6.29688 29.8994 7.06875 29.8994ZM15.4375 28.0307C15.925 28.0307 16.3313 27.6244 16.3313 27.1369C16.3313 27.015 16.2906 26.8932 16.25 26.8119C16.1688 26.9338 16.0875 27.015 15.925 27.015C15.7219 27.015 15.5594 26.8525 15.5594 26.6494C15.5594 26.5275 15.6406 26.4057 15.7219 26.3244C15.6813 26.2838 15.5594 26.2432 15.4375 26.2432C14.95 26.2432 14.5438 26.6494 14.5438 27.1369C14.5844 27.6244 14.95 28.0307 15.4375 28.0307Z" fill="#019BC6"/>
</svg>
