<svg width="58" height="58" viewBox="0 0 58 58" fill="none" xmlns="http://www.w3.org/2000/svg">
<path d="M26.8448 22.2307C26.9592 22.3143 27.0941 22.3652 27.2351 22.3781C27.3762 22.3909 27.5181 22.3652 27.6457 22.3037C27.7732 22.2422 27.8817 22.1472 27.9595 22.0288C28.0373 21.9105 28.0815 21.7732 28.0873 21.6317L28.1051 21.6228L28.3669 16.959C28.0518 16.9989 27.7367 17.0522 27.4172 17.1232C25.6866 17.5181 24.1823 18.3701 23.0064 19.5239L26.8271 22.2352L26.8448 22.2307ZM26.3301 29.06C26.2856 28.863 26.1664 28.6908 25.9975 28.5799C25.8287 28.469 25.6233 28.4279 25.4248 28.4654L25.4159 28.4565L20.8276 29.2331C21.5186 31.1371 22.8157 32.7616 24.5196 33.857L26.299 29.5615L26.2857 29.5437C26.3478 29.3973 26.37 29.2287 26.3301 29.06ZM24.8036 25.7541C24.9589 25.7097 25.1009 25.621 25.2118 25.4879C25.4736 25.1595 25.4292 24.6847 25.1142 24.4095L25.1186 24.3918L21.6263 21.2678C20.5924 22.954 20.0998 24.9775 20.3261 27.0632L24.7991 25.7719L24.8036 25.7541ZM28.1938 27.1253L29.4807 27.7465L30.7676 27.1297L31.0871 25.7408L30.1951 24.6314H28.7662L27.8743 25.7408L28.1938 27.1253ZM30.8652 21.6184C30.8741 21.7781 30.9273 21.9379 31.0382 22.071C31.3001 22.3994 31.7749 22.4615 32.1121 22.2174L32.1254 22.2219L35.9239 19.5283C34.4784 18.1116 32.6075 17.2088 30.5989 16.959L30.8652 21.6184ZM33.5321 28.4477C33.368 28.4149 33.1976 28.4384 33.0484 28.5142C32.6668 28.6962 32.5026 29.1488 32.6668 29.5304L32.6624 29.5393L34.4596 33.8792C36.1902 32.7742 37.4859 31.1279 38.1649 29.2242L33.5366 28.4432L33.5321 28.4477ZM30.1729 30.7463C30.0975 30.6043 29.9777 30.4889 29.8224 30.4135C29.6412 30.3239 29.4323 30.3086 29.24 30.3708C29.0477 30.4329 28.8873 30.5677 28.7929 30.7463H28.7884L26.5342 34.8244C28.0962 35.3569 29.8179 35.4767 31.5486 35.0817C31.8592 35.0107 32.1609 34.9264 32.4538 34.8288L30.1907 30.7419H30.1729V30.7463Z" fill="#486BB3"/>
<path d="M50.7675 29.8587L47.0977 13.9236C47.0017 13.51 46.8139 13.1234 46.5481 12.7923C46.2823 12.4612 45.9454 12.1942 45.5624 12.0111L30.71 4.91993C30.2796 4.71581 29.8092 4.62262 29.3344 4.64481C28.9572 4.66256 28.5889 4.75574 28.2472 4.91993L13.3994 12.0155C13.0159 12.198 12.6787 12.4649 12.4128 12.7961C12.1469 13.1272 11.9593 13.5142 11.864 13.9281L8.19861 29.8631C8.02555 30.6042 8.16755 31.3852 8.58467 32.0242C8.63349 32.0996 8.68674 32.175 8.74442 32.246L19.0217 45.026C19.2888 45.3574 19.6267 45.6246 20.0107 45.8081C20.3946 45.9917 20.8149 46.0868 21.2404 46.0866L37.7213 46.0822C38.5866 46.0822 39.4031 45.6917 39.94 45.026L50.2129 32.246C50.4804 31.9163 50.6694 31.5299 50.7655 31.1163C50.8616 30.7027 50.8623 30.2726 50.7675 29.8587ZM45.1186 29.6634C45.0121 30.1382 44.4974 30.4267 43.9737 30.3113H43.9604C43.956 30.3113 43.9471 30.3069 43.9427 30.3069C43.8672 30.2891 43.7785 30.2758 43.7119 30.258C43.4057 30.1782 43.1883 30.0539 42.9132 29.9519C42.323 29.7389 41.8393 29.5658 41.3645 29.4948C41.1249 29.477 41.0006 29.5924 40.8675 29.6812C40.8009 29.6679 40.6012 29.6324 40.4859 29.6146C39.6339 32.2904 37.8189 34.6068 35.3605 36.0579C35.4049 36.1599 35.4759 36.3774 35.507 36.4173C35.4493 36.5682 35.365 36.7102 35.4404 36.9409C35.6135 37.3891 35.893 37.824 36.2303 38.352C36.3945 38.5961 36.5587 38.7825 36.7051 39.062C36.7406 39.1286 36.785 39.2307 36.8205 39.3017C37.0512 39.7898 36.8826 40.3534 36.4433 40.5664C35.9995 40.7794 35.4493 40.553 35.2141 40.0649C35.1786 39.9939 35.1342 39.9007 35.1032 39.8386C34.9789 39.5502 34.9345 39.3017 34.8458 39.0221C34.6461 38.4319 34.4775 37.9394 34.2379 37.5267C34.1003 37.327 33.9361 37.3004 33.7852 37.2515C33.7586 37.2027 33.6521 37.0119 33.5944 36.9099C30.9503 37.9128 28.0293 37.9065 25.3895 36.8921L25.1898 37.256C25.0389 37.2959 24.8969 37.3359 24.8082 37.4424C24.4842 37.8284 24.3555 38.4497 24.1204 39.0399C24.0316 39.3194 23.9917 39.5679 23.863 39.8564C23.8364 39.9229 23.7875 40.0117 23.752 40.0827C23.5169 40.5708 22.9666 40.7971 22.5273 40.5841C22.088 40.3711 21.9194 39.812 22.1501 39.3194C22.1856 39.2484 22.23 39.1464 22.2655 39.0798C22.4119 38.8002 22.5805 38.6139 22.7403 38.3698C23.0775 37.8417 23.3704 37.3714 23.5435 36.9232C23.5879 36.7767 23.5213 36.5726 23.4636 36.4217L23.6234 36.0357C21.2582 34.6334 19.39 32.4014 18.498 29.6368L18.112 29.7034C18.0099 29.6457 17.8014 29.5081 17.6017 29.5214C17.1269 29.588 16.6387 29.7655 16.053 29.9785C15.7779 30.085 15.5604 30.2048 15.2542 30.2847C15.1921 30.3024 15.0989 30.3202 15.0235 30.3379C15.019 30.3379 15.0102 30.3424 15.0057 30.3424H14.9924C14.4644 30.4577 13.954 30.1693 13.8475 29.6945C13.741 29.2197 14.0739 28.7404 14.5975 28.6117C14.6019 28.6117 14.6064 28.6073 14.6108 28.6073H14.6197C14.6951 28.5895 14.7883 28.5629 14.8549 28.554C15.1655 28.4964 15.414 28.5097 15.7069 28.4875C16.3281 28.4209 16.8429 28.3677 17.2999 28.2257C17.4464 28.168 17.5839 27.9683 17.6815 27.8396L18.0543 27.7331C17.6372 24.8443 18.3427 22.0087 19.8692 19.7146L19.5852 19.4616C19.5675 19.3507 19.5453 19.0933 19.4077 18.9469C19.0572 18.6185 18.6179 18.3478 18.0854 18.0194C17.8324 17.873 17.6017 17.7754 17.3487 17.589C17.2955 17.5491 17.2245 17.4869 17.1624 17.4426C17.1579 17.4381 17.1535 17.4381 17.149 17.4337C16.723 17.092 16.6254 16.5062 16.9316 16.1246C17.1047 15.9072 17.3665 15.8007 17.6416 15.8096C17.8546 15.8184 18.072 15.8939 18.2629 16.0447C18.325 16.0936 18.4049 16.1557 18.4625 16.2045C18.7022 16.4086 18.8486 16.6127 19.0483 16.8257C19.4876 17.2695 19.847 17.6422 20.2464 17.9085C20.455 18.0283 20.6147 17.9795 20.7745 17.9617C20.8277 17.9972 20.9964 18.1215 21.094 18.1881C22.6072 16.5817 24.5952 15.3924 26.9027 14.8688C27.4396 14.749 27.9765 14.6647 28.509 14.6203L28.5312 14.2431C28.651 14.1277 28.7842 13.9636 28.8197 13.7816C28.8596 13.3024 28.7975 12.7876 28.722 12.1708C28.6821 11.8824 28.6111 11.6383 28.6022 11.3277C28.5978 11.2611 28.6022 11.1724 28.6022 11.1014V11.0747C28.6022 10.5289 29.0016 10.0852 29.4897 10.0852C29.9823 10.0852 30.3772 10.5289 30.3772 11.0747C30.3772 11.1502 30.3817 11.2567 30.3772 11.3277C30.3639 11.6427 30.2974 11.8824 30.2574 12.1708C30.182 12.7921 30.1199 13.3068 30.1554 13.7816C30.1909 14.0212 30.3284 14.1144 30.4438 14.2254C30.4482 14.2919 30.4571 14.5049 30.466 14.6203C33.2927 14.8732 35.9152 16.1646 37.8455 18.1836L38.1828 17.944C38.2982 17.9529 38.5511 17.9839 38.7242 17.8863C39.1235 17.6201 39.483 17.2473 39.9223 16.8036C40.122 16.5906 40.2684 16.3864 40.508 16.1823C40.5613 16.1335 40.6456 16.0714 40.7077 16.0226C41.1337 15.6809 41.7284 15.7208 42.0345 16.1024C42.3407 16.4841 42.2431 17.0742 41.8171 17.4115C41.755 17.4603 41.6795 17.5269 41.6219 17.5712C41.3689 17.7576 41.1337 17.8552 40.8852 18.0017C40.3527 18.3301 39.9134 18.6007 39.5629 18.9291C39.3987 19.1066 39.412 19.2708 39.3942 19.4305L39.0792 19.7146C39.8469 20.855 40.4193 22.1507 40.7432 23.5619C41.0672 24.9641 41.116 26.3664 40.9296 27.7109L41.289 27.8174C41.3556 27.9106 41.4843 28.1325 41.6707 28.2035C42.1277 28.3455 42.6425 28.3987 43.2637 28.4653C43.5566 28.4875 43.8051 28.4742 44.1157 28.5319C44.1912 28.5452 44.2977 28.5762 44.3731 28.594C44.8923 28.7094 45.2295 29.1886 45.1186 29.6634Z" fill="#486BB3"/>
<path d="M37.3128 21.2676L33.8427 24.3738V24.3827C33.7363 24.4762 33.6572 24.5967 33.6135 24.7314C33.5699 24.8661 33.5634 25.0101 33.5947 25.1482C33.6261 25.2863 33.6941 25.4134 33.7916 25.5161C33.8892 25.6188 34.0126 25.6933 34.1489 25.7317L34.1533 25.7495L38.6485 27.0452C38.7417 26.0734 38.684 25.0705 38.4533 24.0676C38.227 23.047 37.832 22.1107 37.3128 21.2676Z" fill="#486BB3"/>
<path d="M5.66983 50.2203C5.80739 50.0694 5.94939 49.9141 6.09139 49.7499C6.24227 49.5857 6.38427 49.4259 6.52183 49.2706C6.65939 49.1064 6.78808 48.9556 6.90789 48.8091C7.03214 48.6671 7.13864 48.5385 7.22739 48.432H8.88702C8.5542 48.8136 8.23027 49.1775 7.91077 49.528C7.60014 49.8741 7.25402 50.2291 6.87683 50.5975C7.0632 50.7661 7.25845 50.9702 7.45814 51.2054C7.65783 51.4361 7.85308 51.6758 8.03945 51.9287C8.22583 52.1772 8.39889 52.4301 8.5542 52.6786C8.70952 52.9271 8.84264 53.1579 8.94914 53.362H7.3472C7.24514 53.1978 7.12977 53.0203 7.00108 52.8295C6.87683 52.6298 6.7437 52.4346 6.59727 52.2393C6.45527 52.0396 6.29995 51.8488 6.13577 51.6669C5.98045 51.4849 5.82514 51.3341 5.66539 51.2054V53.362H4.26758V46.3064L5.66539 46.0801V50.2203M13.8126 53.2067C13.573 53.2733 13.2668 53.3398 12.8941 53.3931C12.5169 53.4552 12.1264 53.4863 11.7137 53.4863C11.2966 53.4863 10.946 53.4286 10.662 53.3176C10.3869 53.2067 10.1695 53.047 10.0053 52.8473C9.84108 52.6387 9.7257 52.3991 9.65914 52.1151C9.58814 51.8355 9.55708 51.5249 9.55708 51.1876V48.4408H10.9549V51.019C10.9549 51.4672 11.0126 51.7956 11.1324 51.9953C11.2522 52.195 11.4741 52.297 11.798 52.297C11.9001 52.297 12.0066 52.2926 12.1175 52.2881C12.2285 52.2748 12.3305 52.2615 12.4193 52.2526V48.4453H13.8171V53.2067M18.299 50.8681C18.299 49.9673 17.9661 49.5191 17.305 49.5191C17.163 49.5191 17.0165 49.5369 16.8745 49.5768C16.737 49.6123 16.626 49.6611 16.5373 49.7188V52.2615C16.6083 52.2748 16.6926 52.2881 16.7991 52.297C16.9056 52.3014 17.021 52.3059 17.1452 52.3059C17.5268 52.3059 17.8153 52.1728 18.0061 51.911C18.2013 51.6491 18.299 51.303 18.299 50.8681ZM19.7234 50.9081C19.7234 51.303 19.6657 51.658 19.5459 51.9775C19.4418 52.2827 19.2721 52.5614 19.0489 52.794C18.8315 53.0203 18.5608 53.1934 18.2413 53.3176C17.9218 53.4374 17.5579 53.4951 17.1541 53.4951C16.9855 53.4951 16.808 53.4863 16.6216 53.4685C16.4396 53.4552 16.2577 53.4374 16.0758 53.4108C15.9027 53.3842 15.7296 53.3576 15.5699 53.3265C15.4057 53.291 15.2637 53.2511 15.1395 53.2156V46.3197L16.5373 46.0934V48.5518C16.6943 48.4826 16.8578 48.4291 17.0254 48.392C17.194 48.3565 17.376 48.3343 17.5712 48.3343C17.9218 48.3343 18.2324 48.3965 18.4986 48.5207C18.7693 48.6405 18.9912 48.8136 19.1731 49.0355C19.3551 49.2618 19.4926 49.5325 19.5858 49.852C19.6746 50.167 19.7234 50.5176 19.7234 50.9081ZM20.5621 50.9436C20.5621 50.5043 20.6286 50.1226 20.7573 49.7987C20.8949 49.4659 21.0724 49.1908 21.2898 48.9733C21.5073 48.7559 21.7602 48.5873 22.0398 48.4763C22.3282 48.3654 22.6211 48.3077 22.9228 48.3077C23.624 48.3077 24.1786 48.5251 24.5825 48.9556C24.9907 49.3816 25.1904 50.0073 25.1904 50.8415C25.1904 50.9214 25.186 51.0146 25.1815 51.1122C25.1771 51.2054 25.1682 51.2897 25.1638 51.3651H21.991C22.022 51.6536 22.1551 51.8799 22.3948 52.0485C22.6344 52.2171 22.9495 52.3014 23.3533 52.3014C23.6106 52.3014 23.8591 52.2793 24.1032 52.2349C24.3114 52.1968 24.5151 52.1373 24.7111 52.0574L24.8975 53.1934C24.8221 53.2289 24.7245 53.2688 24.5958 53.3043C24.4715 53.3398 24.3295 53.3753 24.1742 53.3975C24.0233 53.4286 23.8636 53.4552 23.6861 53.4729C23.513 53.4907 23.3355 53.4996 23.1625 53.4996C22.7187 53.4996 22.3326 53.433 21.9998 53.3043C21.6759 53.1712 21.4008 52.9937 21.1833 52.7718C20.9674 52.5368 20.804 52.2585 20.7041 51.9553C20.6109 51.6447 20.5621 51.3075 20.5621 50.9436ZM23.8458 50.4111C23.8417 50.2929 23.8193 50.1762 23.7793 50.0649C23.7482 49.954 23.695 49.8519 23.6195 49.7632C23.5485 49.6744 23.4598 49.6035 23.3488 49.5458C23.2423 49.4881 23.1092 49.4614 22.945 49.4614C22.7897 49.4614 22.6521 49.4881 22.5412 49.5458C22.4303 49.5946 22.3326 49.6656 22.2616 49.7543C22.1862 49.8431 22.1285 49.9451 22.0841 50.0649C22.0486 50.1759 22.0176 50.2913 21.9998 50.4111H23.8458ZM29.2507 49.6789C29.1265 49.6478 28.98 49.6168 28.8114 49.5857C28.632 49.5476 28.449 49.5282 28.2656 49.528C28.1768 49.528 28.0703 49.5369 27.9461 49.5546C27.8263 49.568 27.7375 49.5813 27.6754 49.6034V53.3753H26.2776V48.7026C26.5261 48.6139 26.8234 48.534 27.1606 48.4586C27.5068 48.3787 27.884 48.3388 28.3055 48.3388C28.381 48.3388 28.4697 48.3432 28.5762 48.3565C28.6827 48.361 28.7892 48.3743 28.8957 48.392C29.0022 48.4053 29.1087 48.4231 29.2152 48.4497C29.3217 48.4675 29.4105 48.4941 29.4859 48.5251L29.2507 49.6789ZM30.2314 48.6095C30.471 48.5429 30.7772 48.4763 31.15 48.4231C31.5271 48.361 31.9176 48.3299 32.3303 48.3299C32.7475 48.3299 33.098 48.3876 33.3731 48.4985C33.6527 48.605 33.8746 48.7559 34.0388 48.96C34.203 49.1597 34.3183 49.3993 34.3849 49.6745C34.4559 49.9496 34.487 50.2558 34.487 50.593V53.3798H33.0891V50.7616C33.0891 50.3134 33.0315 49.994 32.9116 49.8031C32.7918 49.6168 32.57 49.5236 32.246 49.5236C32.144 49.5236 32.0375 49.528 31.9265 49.5413C31.8156 49.5458 31.7135 49.5591 31.6248 49.568V53.3753H30.227V48.6095M35.5298 50.9436C35.5298 50.5043 35.5963 50.1226 35.725 49.7987C35.8626 49.4659 36.0401 49.1908 36.2575 48.9733C36.475 48.7559 36.7279 48.5873 37.0075 48.4763C37.2959 48.3654 37.5888 48.3077 37.8905 48.3077C38.5916 48.3077 39.1463 48.5251 39.5501 48.9556C39.9584 49.3816 40.1581 50.0073 40.1581 50.8415C40.1581 50.9214 40.1536 51.0146 40.1492 51.1122C40.1448 51.2054 40.1359 51.2897 40.1315 51.3651H36.9586C36.9897 51.6536 37.1228 51.8799 37.3625 52.0485C37.6021 52.2171 37.9171 52.3014 38.321 52.3014C38.5783 52.3014 38.8268 52.2793 39.0709 52.2349C39.2791 52.1968 39.4828 52.1373 39.6788 52.0574L39.8652 53.1934C39.7898 53.2289 39.6921 53.2688 39.5635 53.3043C39.4392 53.3398 39.2972 53.3753 39.1419 53.3975C38.991 53.4286 38.8313 53.4552 38.6538 53.4729C38.4807 53.4907 38.3032 53.4996 38.1301 53.4996C37.6864 53.4996 37.3003 53.433 36.9675 53.3043C36.6436 53.1712 36.3685 52.9937 36.151 52.7718C35.9351 52.5368 35.7717 52.2585 35.6718 51.9553C35.583 51.6447 35.5298 51.3075 35.5298 50.9436ZM38.8135 50.4111C38.8094 50.2929 38.7869 50.1762 38.747 50.0649C38.7159 49.954 38.6626 49.8519 38.5872 49.7632C38.5162 49.6744 38.4275 49.6035 38.3165 49.5458C38.21 49.4881 38.0769 49.4614 37.9127 49.4614C37.7574 49.4614 37.6198 49.4881 37.5089 49.5458C37.398 49.5946 37.3003 49.6656 37.2293 49.7543C37.1539 49.8431 37.0962 49.9451 37.0518 50.0649C37.0163 50.1759 36.9853 50.2913 36.9675 50.4111H38.8135ZM41.1965 47.2116L42.5943 46.9853V48.4408H44.2716V49.6034H42.5943V51.3385C42.5943 51.6314 42.6431 51.8666 42.7451 52.0441C42.8516 52.2171 43.0602 52.3059 43.3753 52.3059C43.5261 52.3059 43.677 52.2926 43.8368 52.2704C44.001 52.2393 44.1474 52.1994 44.2761 52.1506L44.4713 53.2378C44.3027 53.3043 44.1163 53.3664 43.9078 53.4153C43.6992 53.4641 43.4463 53.4907 43.149 53.4907C42.7673 53.4907 42.4523 53.4419 42.1993 53.3398C41.9508 53.2333 41.7511 53.0913 41.6003 52.9094C41.4494 52.723 41.3429 52.4967 41.2808 52.2349C41.2231 51.9731 41.1965 51.6802 41.1965 51.3607V47.2116ZM44.9861 50.9436C44.9861 50.5043 45.0526 50.1226 45.1813 49.7987C45.3189 49.4659 45.4964 49.1908 45.7138 48.9733C45.9313 48.7559 46.1842 48.5873 46.4638 48.4763C46.7522 48.3654 47.0451 48.3077 47.3468 48.3077C48.048 48.3077 48.6026 48.5251 49.0065 48.9556C49.4147 49.3816 49.6144 50.0073 49.6144 50.8415C49.6144 50.9214 49.61 51.0146 49.6055 51.1122C49.6011 51.2054 49.5922 51.2897 49.5878 51.3651H46.415C46.446 51.6536 46.5791 51.8799 46.8188 52.0485C47.0584 52.2171 47.3735 52.3014 47.7773 52.3014C48.0346 52.3014 48.2831 52.2793 48.5272 52.2349C48.7354 52.1968 48.9391 52.1373 49.1351 52.0574L49.3215 53.1934C49.2461 53.2289 49.1485 53.2688 49.0198 53.3043C48.8955 53.3398 48.7535 53.3753 48.5982 53.3975C48.4473 53.4286 48.2876 53.4552 48.1101 53.4729C47.937 53.4907 47.7595 53.4996 47.5865 53.4996C47.1427 53.4996 46.7566 53.433 46.4238 53.3043C46.0999 53.1712 45.8248 52.9937 45.6073 52.7718C45.3914 52.5368 45.228 52.2585 45.1281 51.9553C45.0349 51.6447 44.9861 51.3075 44.9861 50.9436ZM48.2698 50.4111C48.2657 50.2929 48.2433 50.1762 48.2033 50.0649C48.1722 49.954 48.119 49.8519 48.0435 49.7632C47.9725 49.6744 47.8838 49.6035 47.7728 49.5458C47.6663 49.4881 47.5332 49.4614 47.369 49.4614C47.2137 49.4614 47.0761 49.4881 46.9652 49.5458C46.8543 49.5946 46.7566 49.6656 46.6856 49.7543C46.6102 49.8431 46.5525 49.9451 46.5081 50.0649C46.4726 50.1759 46.4416 50.2913 46.4238 50.4111H48.2698ZM52.1171 52.3725C52.3745 52.3725 52.5565 52.3458 52.663 52.297C52.7695 52.2482 52.8227 52.1506 52.8227 52.0041C52.8227 51.8932 52.7517 51.7956 52.6141 51.7113C52.4766 51.6225 52.268 51.5249 51.984 51.4184C51.7666 51.3385 51.5669 51.2542 51.385 51.1655C51.2119 51.0767 51.061 50.9746 50.9368 50.8548C50.8125 50.7306 50.7149 50.5841 50.6439 50.4155C50.5729 50.2469 50.5418 50.0428 50.5418 49.8076C50.5418 49.3461 50.7149 48.9778 51.0566 48.7115C51.4027 48.4408 51.8731 48.3077 52.4721 48.3077C52.7739 48.3077 53.0579 48.3343 53.333 48.392C53.6081 48.4408 53.8256 48.4985 53.9898 48.5606L53.7457 49.6478C53.5815 49.5901 53.404 49.5413 53.2132 49.497C53.0268 49.4526 52.8138 49.4304 52.5742 49.4304C52.1349 49.4304 51.9175 49.5502 51.9175 49.7943C51.9175 49.8519 51.9263 49.9008 51.9441 49.9451C51.9618 49.9895 52.0018 50.0339 52.055 50.0783C52.1127 50.1138 52.1881 50.1581 52.2813 50.2114C52.3834 50.2558 52.5076 50.3046 52.6585 50.3623C52.9647 50.4732 53.2176 50.5886 53.4173 50.6995C53.617 50.806 53.7723 50.9258 53.8877 51.0545C54.0075 51.1788 54.0874 51.3208 54.1318 51.4761C54.1806 51.6314 54.2072 51.8133 54.2072 52.0219C54.2072 52.51 54.0208 52.8783 53.6525 53.1268C53.2886 53.3753 52.7739 53.504 52.1038 53.504C51.6645 53.504 51.3006 53.4685 51.0078 53.3931C50.7193 53.3176 50.5196 53.2555 50.4087 53.2067L50.6439 52.0707C50.8835 52.1639 51.1276 52.2393 51.3761 52.297C51.6246 52.3458 51.8731 52.3725 52.1171 52.3725Z" fill="#486CB4"/>
</svg>
