<svg width="72" height="72" viewBox="0 0 72 72" fill="none" xmlns="http://www.w3.org/2000/svg">
<path d="M33.2063 28.034C33.3492 28.1385 33.5179 28.2021 33.6942 28.2182C33.8705 28.2343 34.0479 28.2021 34.2073 28.1252C34.3668 28.0484 34.5024 27.9296 34.5996 27.7816C34.6969 27.6337 34.7521 27.4621 34.7594 27.2852L34.7816 27.2741L35.1089 21.4443C34.715 21.4943 34.3212 21.5608 33.9218 21.6496C31.7585 22.1432 29.8782 23.2082 28.4082 24.6504L33.1841 28.0396L33.2063 28.034ZM32.5628 36.5707C32.5073 36.3243 32.3583 36.1091 32.1472 35.9705C31.9361 35.8318 31.6794 35.7805 31.4313 35.8274L31.4202 35.8163L25.6847 36.787C26.5485 39.167 28.1699 41.1976 30.2997 42.5668L32.524 37.1975L32.5074 37.1753C32.585 36.9922 32.6128 36.7814 32.5628 36.5707ZM30.6547 32.4382C30.8489 32.3828 31.0264 32.2718 31.165 32.1054C31.4923 31.695 31.4368 31.1014 31.043 30.7575L31.0485 30.7354L26.6832 26.8304C25.3907 28.9382 24.775 31.4675 25.0579 34.0746L30.6492 32.4604L30.6547 32.4382ZM34.8925 34.1522L36.5011 34.9288L38.1097 34.1578L38.5091 32.4216L37.3942 31.0349H35.6081L34.4932 32.4216L34.8925 34.1522ZM38.2318 27.2686C38.2428 27.4682 38.3094 27.6679 38.4481 27.8343C38.7753 28.2448 39.3689 28.3225 39.7904 28.0174L39.8071 28.0229L44.5552 24.656C42.7483 22.885 40.4096 21.7567 37.8989 21.4443L38.2318 27.2686ZM41.5654 35.8052C41.3603 35.7643 41.1473 35.7936 40.9608 35.8884C40.4838 36.1158 40.2785 36.6816 40.4838 37.1586L40.4782 37.1697L42.7247 42.5946C44.888 41.2134 46.5077 39.1555 47.3564 36.7759L41.571 35.7996L41.5654 35.8052ZM37.3664 38.6785C37.2721 38.501 37.1224 38.3568 36.9282 38.2625C36.7018 38.1505 36.4406 38.1314 36.2003 38.2091C35.9599 38.2868 35.7594 38.4552 35.6414 38.6785H35.6358L32.818 43.7761C34.7705 44.4417 36.9227 44.5914 39.086 44.0978C39.4743 44.009 39.8514 43.9036 40.2175 43.7816L37.3886 38.6729H37.3664V38.6785Z" fill="#486BB3"/>
<path d="M63.1099 37.5692L58.5227 17.6504C58.4027 17.1334 58.1679 16.6501 57.8356 16.2362C57.5034 15.8224 57.0823 15.4886 56.6035 15.2597L38.0381 6.39576C37.5 6.14061 36.9121 6.02412 36.3185 6.05186C35.8471 6.07404 35.3867 6.19053 34.9596 6.39576L16.3997 15.2652C15.9204 15.4934 15.4988 15.8269 15.1665 16.2409C14.8342 16.6549 14.5997 17.1386 14.4805 17.6559L9.89878 37.5747C9.68245 38.5011 9.85995 39.4773 10.3814 40.2761C10.4424 40.3704 10.5089 40.4647 10.581 40.5534L23.4276 56.5284C23.7615 56.9426 24.1839 57.2766 24.6639 57.5061C25.1438 57.7355 25.6691 57.8544 26.201 57.8541L46.8021 57.8486C47.8838 57.8486 48.9044 57.3605 49.5756 56.5284L62.4166 40.5534C62.751 40.1412 62.9872 39.6583 63.1074 39.1413C63.2275 38.6242 63.2284 38.0866 63.1099 37.5692ZM56.0488 37.3251C55.9156 37.9187 55.2722 38.2792 54.6177 38.135H54.601C54.5955 38.135 54.5844 38.1294 54.5789 38.1294C54.4846 38.1072 54.3736 38.0906 54.2904 38.0684C53.9077 37.9686 53.6359 37.8133 53.292 37.6857C52.5542 37.4194 51.9496 37.2031 51.3561 37.1144C51.0566 37.0922 50.9013 37.2364 50.7349 37.3473C50.6517 37.3307 50.4021 37.2863 50.2578 37.2641C49.1928 40.6089 46.9242 43.5044 43.8512 45.3182C43.9067 45.4458 43.9954 45.7176 44.0342 45.7675C43.9621 45.9561 43.8567 46.1336 43.951 46.422C44.1674 46.9823 44.5168 47.5258 44.9384 48.1859C45.1436 48.491 45.3489 48.724 45.5319 49.0734C45.5763 49.1566 45.6317 49.2842 45.6761 49.373C45.9646 49.9831 45.7538 50.6876 45.2046 50.9538C44.6499 51.2201 43.9621 50.9372 43.6681 50.327C43.6238 50.2383 43.5683 50.1218 43.5295 50.0441C43.3742 49.6836 43.3187 49.373 43.2078 49.0235C42.9582 48.2858 42.7474 47.6701 42.4478 47.1542C42.2759 46.9046 42.0706 46.8713 41.8821 46.8103C41.8488 46.7493 41.7156 46.5108 41.6435 46.3832C38.3383 47.6369 34.6871 47.629 31.3874 46.361L31.1378 46.8158C30.9492 46.8658 30.7717 46.9157 30.6607 47.0488C30.2558 47.5314 30.0949 48.3079 29.801 49.0457C29.69 49.3951 29.6401 49.7058 29.4792 50.0663C29.446 50.1495 29.3849 50.2605 29.3406 50.3492C29.0466 50.9594 28.3588 51.2422 27.8096 50.976C27.2605 50.7097 27.0497 50.0108 27.3382 49.3951C27.3825 49.3064 27.438 49.1788 27.4824 49.0956C27.6654 48.7462 27.8762 48.5132 28.0759 48.2081C28.4974 47.548 28.8635 46.9601 29.0799 46.3998C29.1353 46.2168 29.0521 45.9616 28.98 45.773L29.1797 45.2905C26.2232 43.5376 23.888 40.7476 22.7731 37.2919L22.2905 37.3751C22.1629 37.303 21.9022 37.131 21.6526 37.1476C21.0591 37.2308 20.4489 37.4527 19.7167 37.719C19.3728 37.8521 19.101 38.0019 18.7183 38.1017C18.6407 38.1239 18.5242 38.1461 18.4299 38.1683C18.4243 38.1683 18.4132 38.1738 18.4077 38.1738H18.391C17.731 38.318 17.0931 37.9575 16.9599 37.364C16.8268 36.7704 17.2428 36.1714 17.8974 36.0105C17.9029 36.0105 17.9085 36.005 17.914 36.005H17.9251C18.0194 35.9828 18.1359 35.9495 18.2191 35.9384C18.6074 35.8663 18.918 35.8829 19.2841 35.8552C20.0607 35.772 20.7041 35.7055 21.2754 35.528C21.4585 35.4558 21.6304 35.2062 21.7524 35.0454L22.2184 34.9122C21.697 31.3012 22.5789 27.7568 24.4871 24.889L24.1321 24.5729C24.1099 24.4342 24.0821 24.1125 23.9102 23.9294C23.472 23.519 22.9228 23.1806 22.2572 22.7701C21.941 22.5871 21.6526 22.4651 21.3364 22.2321C21.2699 22.1822 21.1811 22.1045 21.1035 22.049C21.0979 22.0435 21.0924 22.0435 21.0868 22.0379C20.5543 21.6108 20.4323 20.8787 20.815 20.4016C21.0314 20.1298 21.3586 19.9967 21.7025 20.0078C21.9688 20.0189 22.2406 20.1132 22.4791 20.3018C22.5567 20.3628 22.6566 20.4405 22.7287 20.5015C23.0282 20.7566 23.2113 21.0118 23.4609 21.278C24.01 21.8327 24.4593 22.2987 24.9585 22.6315C25.2192 22.7812 25.4189 22.7202 25.6186 22.698C25.6852 22.7424 25.896 22.8977 26.018 22.9809C27.9095 20.9729 30.3945 19.4864 33.2789 18.8319C33.95 18.6821 34.6212 18.5767 35.2868 18.5212L35.3146 18.0497C35.4643 17.9055 35.6307 17.7003 35.6751 17.4729C35.725 16.8738 35.6474 16.2304 35.5531 15.4594C35.5032 15.0988 35.4144 14.7937 35.4033 14.4054C35.3978 14.3222 35.4033 14.2113 35.4033 14.1226V14.0893C35.4033 13.407 35.9025 12.8523 36.5127 12.8523C37.1284 12.8523 37.6221 13.407 37.6221 14.0893C37.6221 14.1836 37.6276 14.3167 37.6221 14.4054C37.6054 14.7993 37.5222 15.0988 37.4723 15.4594C37.378 16.2359 37.3003 16.8794 37.3447 17.4729C37.3891 17.7724 37.561 17.8889 37.7053 18.0276C37.7108 18.1108 37.7219 18.377 37.733 18.5212C41.2664 18.8374 44.5446 20.4515 46.9574 22.9754L47.379 22.6758C47.5232 22.6869 47.8394 22.7258 48.0557 22.6037C48.5549 22.2709 49.0042 21.805 49.5534 21.2503C49.803 20.984 49.986 20.7289 50.2856 20.4737C50.3521 20.4127 50.4575 20.3351 50.5352 20.274C51.0677 19.8469 51.811 19.8969 52.1937 20.3739C52.5764 20.8509 52.4544 21.5887 51.9219 22.0102C51.8442 22.0712 51.7499 22.1544 51.6778 22.2099C51.3617 22.4429 51.0677 22.5649 50.7571 22.748C50.0914 23.1584 49.5423 23.4968 49.1041 23.9072C48.8989 24.1291 48.9155 24.3344 48.8933 24.534L48.4995 24.889C49.4591 26.3146 50.1746 27.9343 50.5796 29.6982C50.9845 31.451 51.0455 33.2038 50.8125 34.8845L51.2618 35.0176C51.345 35.1341 51.5059 35.4115 51.7389 35.5002C52.3102 35.6777 52.9536 35.7443 53.7302 35.8275C54.0963 35.8552 54.4069 35.8386 54.7952 35.9107C54.8895 35.9273 55.0226 35.9662 55.1169 35.9883C55.7659 36.1326 56.1874 36.7316 56.0488 37.3251Z" fill="#486BB3"/>
<path d="M46.2922 26.8301L41.9545 30.7129V30.724C41.8216 30.8409 41.7226 30.9914 41.668 31.1598C41.6135 31.3283 41.6053 31.5083 41.6445 31.6809C41.6837 31.8535 41.7687 32.0124 41.8907 32.1408C42.0126 32.2691 42.1669 32.3622 42.3373 32.4102L42.3428 32.4324L47.9618 34.0521C48.0783 32.8373 48.0062 31.5837 47.7177 30.3302C47.4348 29.0544 46.9412 27.884 46.2922 26.8301Z" fill="#486BB3"/>
<path d="M6.73816 63.0209C6.91012 62.8323 7.08762 62.6382 7.26512 62.433C7.45371 62.2277 7.63121 62.028 7.80316 61.8339C7.97512 61.6287 8.13598 61.4401 8.28574 61.257C8.44106 61.0795 8.57418 60.9187 8.68512 60.7855H10.7596C10.3436 61.2626 9.93871 61.7174 9.53934 62.1556C9.15106 62.5883 8.7184 63.032 8.24691 63.4924C8.47988 63.7032 8.72395 63.9584 8.97355 64.2523C9.22316 64.5408 9.46723 64.8403 9.7002 65.1565C9.93316 65.4671 10.1495 65.7833 10.3436 66.0939C10.5378 66.4045 10.7042 66.693 10.8373 66.9481H8.83488C8.7073 66.7429 8.56309 66.521 8.40223 66.2825C8.24691 66.0329 8.08051 65.7888 7.89746 65.5448C7.71996 65.2952 7.52582 65.0566 7.32059 64.8292C7.12645 64.6018 6.9323 64.4132 6.73262 64.2523V66.9481H4.98535V58.1286L6.73262 57.8457V63.0209M16.9167 66.754C16.6171 66.8372 16.2344 66.9204 15.7685 66.9869C15.297 67.0646 14.8089 67.1034 14.293 67.1034C13.7716 67.1034 13.3334 67.0313 12.9784 66.8927C12.6345 66.754 12.3627 66.5543 12.1575 66.3047C11.9522 66.044 11.808 65.7445 11.7248 65.3895C11.6361 65.04 11.5972 64.6517 11.5972 64.2302V60.7966H13.3445V64.0194C13.3445 64.5796 13.4166 64.9901 13.5664 65.2397C13.7161 65.4893 13.9935 65.6169 14.3984 65.6169C14.526 65.6169 14.6591 65.6113 14.7978 65.6058C14.9364 65.5891 15.064 65.5725 15.175 65.5614V60.8022H16.9222V66.754M22.5246 63.8308C22.5246 62.7048 22.1086 62.1445 21.2821 62.1445C21.1046 62.1445 20.9215 62.1667 20.744 62.2166C20.5721 62.261 20.4334 62.322 20.3225 62.3941V65.5725C20.4112 65.5891 20.5166 65.6058 20.6497 65.6169C20.7829 65.6224 20.9271 65.628 21.0824 65.628C21.5594 65.628 21.92 65.4616 22.1585 65.1343C22.4025 64.807 22.5246 64.3744 22.5246 63.8308ZM24.3051 63.8807C24.3051 64.3744 24.233 64.8181 24.0832 65.2175C23.9531 65.599 23.7411 65.9473 23.462 66.2381C23.1902 66.521 22.8518 66.7373 22.4525 66.8927C22.0531 67.0424 21.5982 67.1145 21.0935 67.1145C20.8827 67.1145 20.6608 67.1034 20.4279 67.0813C20.2004 67.0646 19.973 67.0424 19.7456 67.0091C19.5293 66.9759 19.3129 66.9426 19.1132 66.9038C18.908 66.8594 18.7305 66.8095 18.5752 66.7651V58.1452L20.3225 57.8623V60.9353C20.5188 60.8489 20.7232 60.782 20.9326 60.7356C21.1434 60.6912 21.3708 60.6635 21.6149 60.6635C22.0531 60.6635 22.4414 60.7412 22.7742 60.8965C23.1125 61.0462 23.3899 61.2626 23.6173 61.5399C23.8447 61.8228 24.0167 62.1612 24.1332 62.5605C24.2441 62.9544 24.3051 63.3926 24.3051 63.8807ZM25.3535 63.9251C25.3535 63.3759 25.4367 62.8989 25.5975 62.494C25.7695 62.078 25.9914 61.7341 26.2632 61.4623C26.535 61.1905 26.8511 60.9797 27.2006 60.841C27.5611 60.7023 27.9272 60.6302 28.3044 60.6302C29.1808 60.6302 29.8742 60.902 30.3789 61.4401C30.8893 61.9726 31.1389 62.7547 31.1389 63.7975C31.1389 63.8973 31.1333 64.0138 31.1278 64.1359C31.1222 64.2523 31.1111 64.3577 31.1056 64.452H27.1396C27.1784 64.8126 27.3448 65.0955 27.6443 65.3062C27.9439 65.517 28.3377 65.6224 28.8425 65.6224C29.1642 65.6224 29.4748 65.5947 29.7799 65.5392C30.0402 65.4916 30.2948 65.4173 30.5398 65.3173L30.7728 66.7373C30.6785 66.7817 30.5564 66.8316 30.3956 66.876C30.2403 66.9204 30.0628 66.9648 29.8686 66.9925C29.68 67.0313 29.4804 67.0646 29.2585 67.0868C29.0422 67.109 28.8203 67.1201 28.6039 67.1201C28.0493 67.1201 27.5667 67.0369 27.1507 66.876C26.7457 66.7096 26.4018 66.4877 26.13 66.2104C25.8601 65.9166 25.6559 65.5687 25.531 65.1898C25.4145 64.8015 25.3535 64.3799 25.3535 63.9251ZM29.4582 63.2594C29.453 63.1118 29.425 62.9658 29.375 62.8268C29.3361 62.6881 29.2696 62.5605 29.1753 62.4496C29.0865 62.3387 28.9756 62.2499 28.8369 62.1778C28.7038 62.1057 28.5374 62.0724 28.3322 62.0724C28.138 62.0724 27.9661 62.1057 27.8274 62.1778C27.6887 62.2388 27.5667 62.3276 27.4779 62.4385C27.3836 62.5495 27.3115 62.677 27.2561 62.8268C27.2117 62.9655 27.1729 63.1097 27.1507 63.2594H29.4582ZM36.2143 62.3442C36.059 62.3054 35.8759 62.2666 35.6651 62.2277C35.4408 62.1801 35.2122 62.1559 34.9829 62.1556C34.8719 62.1556 34.7388 62.1667 34.5835 62.1889C34.4337 62.2055 34.3228 62.2222 34.2451 62.2499V66.9648H32.4979V61.1239C32.8085 61.013 33.1801 60.9131 33.6017 60.8188C34.0343 60.719 34.5058 60.6691 35.0328 60.6691C35.1271 60.6691 35.238 60.6746 35.3711 60.6912C35.5043 60.6968 35.6374 60.7134 35.7705 60.7356C35.9036 60.7523 36.0368 60.7745 36.1699 60.8077C36.303 60.8299 36.4139 60.8632 36.5082 60.902L36.2143 62.3442ZM37.4401 61.0074C37.7397 60.9242 38.1224 60.841 38.5883 60.7745C39.0598 60.6968 39.5479 60.658 40.0638 60.658C40.5852 60.658 41.0234 60.7301 41.3673 60.8687C41.7168 61.0019 41.9941 61.1905 42.1993 61.4456C42.4046 61.6952 42.5488 61.9948 42.632 62.3387C42.7207 62.6826 42.7596 63.0653 42.7596 63.4869V66.9703H41.0123V63.6977C41.0123 63.1374 40.9402 62.738 40.7904 62.4995C40.6407 62.2666 40.3633 62.1501 39.9584 62.1501C39.8308 62.1501 39.6977 62.1556 39.559 62.1723C39.4204 62.1778 39.2928 62.1945 39.1818 62.2055V66.9648H37.4346V61.0074M44.0631 63.9251C44.0631 63.3759 44.1463 62.8989 44.3072 62.494C44.4791 62.078 44.701 61.7341 44.9728 61.4623C45.2446 61.1905 45.5607 60.9797 45.9102 60.841C46.2707 60.7023 46.6368 60.6302 47.014 60.6302C47.8904 60.6302 48.5838 60.902 49.0886 61.4401C49.5989 61.9726 49.8485 62.7547 49.8485 63.7975C49.8485 63.8973 49.8429 64.0138 49.8374 64.1359C49.8318 64.2523 49.8207 64.3577 49.8152 64.452H45.8492C45.888 64.8126 46.0544 65.0955 46.354 65.3062C46.6535 65.517 47.0473 65.6224 47.5521 65.6224C47.8738 65.6224 48.1844 65.5947 48.4895 65.5392C48.7498 65.4916 49.0044 65.4173 49.2494 65.3173L49.4824 66.7373C49.3881 66.7817 49.2661 66.8316 49.1052 66.876C48.9499 66.9204 48.7724 66.9648 48.5783 66.9925C48.3897 67.0313 48.19 67.0646 47.9681 67.0868C47.7518 67.109 47.5299 67.1201 47.3136 67.1201C46.7589 67.1201 46.2763 67.0369 45.8603 66.876C45.4554 66.7096 45.1115 66.4877 44.8397 66.2104C44.5697 65.9166 44.3655 65.5687 44.2406 65.1898C44.1297 64.8015 44.0631 64.3799 44.0631 63.9251ZM48.1678 63.2594C48.1626 63.1118 48.1346 62.9658 48.0846 62.8268C48.0457 62.6881 47.9792 62.5605 47.8849 62.4496C47.7961 62.3387 47.6852 62.2499 47.5465 62.1778C47.4134 62.1057 47.247 62.0724 47.0418 62.0724C46.8476 62.0724 46.6757 62.1057 46.537 62.1778C46.3983 62.2388 46.2763 62.3276 46.1875 62.4385C46.0932 62.5495 46.0211 62.677 45.9657 62.8268C45.9213 62.9655 45.8825 63.1097 45.8603 63.2594H48.1678ZM51.1465 59.2602L52.8937 58.9773V60.7966H54.9904V62.2499H52.8937V64.4187C52.8937 64.7848 52.9547 65.0788 53.0823 65.3007C53.2154 65.517 53.4761 65.628 53.87 65.628C54.0586 65.628 54.2472 65.6113 54.4468 65.5836C54.6521 65.5448 54.8351 65.4948 54.996 65.4338L55.24 66.7928C55.0293 66.876 54.7963 66.9537 54.5356 67.0147C54.2749 67.0757 53.9587 67.109 53.5871 67.109C53.11 67.109 52.7162 67.048 52.4 66.9204C52.0894 66.7873 51.8398 66.6098 51.6512 66.3823C51.4626 66.1494 51.3295 65.8665 51.2518 65.5392C51.1797 65.2119 51.1465 64.8459 51.1465 64.4465V59.2602ZM55.8835 63.9251C55.8835 63.3759 55.9667 62.8989 56.1275 62.494C56.2995 62.078 56.5214 61.7341 56.7932 61.4623C57.065 61.1905 57.3811 60.9797 57.7306 60.841C58.0911 60.7023 58.4572 60.6302 58.8344 60.6302C59.7108 60.6302 60.4042 60.902 60.909 61.4401C61.4193 61.9726 61.6689 62.7547 61.6689 63.7975C61.6689 63.8973 61.6633 64.0138 61.6578 64.1359C61.6522 64.2523 61.6411 64.3577 61.6356 64.452H57.6696C57.7084 64.8126 57.8748 65.0955 58.1743 65.3062C58.4739 65.517 58.8677 65.6224 59.3725 65.6224C59.6942 65.6224 60.0048 65.5947 60.3099 65.5392C60.5702 65.4916 60.8248 65.4173 61.0698 65.3173L61.3028 66.7373C61.2085 66.7817 61.0864 66.8316 60.9256 66.876C60.7703 66.9204 60.5928 66.9648 60.3986 66.9925C60.21 67.0313 60.0104 67.0646 59.7885 67.0868C59.5722 67.109 59.3503 67.1201 59.134 67.1201C58.5793 67.1201 58.0967 67.0369 57.6807 66.876C57.2757 66.7096 56.9318 66.4877 56.66 66.2104C56.3901 65.9166 56.1859 65.5687 56.061 65.1898C55.9445 64.8015 55.8835 64.3799 55.8835 63.9251ZM59.9882 63.2594C59.983 63.1118 59.955 62.9658 59.905 62.8268C59.8661 62.6881 59.7996 62.5605 59.7053 62.4496C59.6165 62.3387 59.5056 62.2499 59.3669 62.1778C59.2338 62.1057 59.0674 62.0724 58.8622 62.0724C58.668 62.0724 58.4961 62.1057 58.3574 62.1778C58.2187 62.2388 58.0967 62.3276 58.0079 62.4385C57.9136 62.5495 57.8415 62.677 57.7861 62.8268C57.7417 62.9655 57.7029 63.1097 57.6807 63.2594H59.9882ZM64.7973 65.7112C65.119 65.7112 65.3465 65.6779 65.4796 65.6169C65.6127 65.5559 65.6793 65.4338 65.6793 65.2508C65.6793 65.1121 65.5905 64.9901 65.4186 64.8847C65.2466 64.7737 64.9859 64.6517 64.6309 64.5186C64.3591 64.4187 64.1095 64.3134 63.8821 64.2024C63.6657 64.0915 63.4772 63.9639 63.3218 63.8141C63.1665 63.6588 63.0445 63.4758 62.9557 63.265C62.867 63.0542 62.8282 62.7991 62.8282 62.5051C62.8282 61.9282 63.0445 61.4678 63.4716 61.135C63.9043 60.7966 64.4922 60.6302 65.2411 60.6302C65.6182 60.6302 65.9732 60.6635 66.3172 60.7356C66.6611 60.7966 66.9329 60.8687 67.1381 60.9464L66.833 62.3054C66.6278 62.2333 66.4059 62.1723 66.1674 62.1168C65.9344 62.0613 65.6682 62.0336 65.3686 62.0336C64.8195 62.0336 64.5477 62.1834 64.5477 62.4884C64.5477 62.5605 64.5588 62.6216 64.581 62.677C64.6032 62.7325 64.6531 62.788 64.7197 62.8434C64.7918 62.8878 64.8861 62.9433 65.0025 63.0098C65.1301 63.0653 65.2854 63.1263 65.474 63.1984C65.8568 63.3371 66.1729 63.4813 66.4225 63.62C66.6722 63.7531 66.8663 63.9029 67.0105 64.0637C67.1603 64.2191 67.2601 64.3966 67.3156 64.5907C67.3766 64.7848 67.4099 65.0123 67.4099 65.273C67.4099 65.8831 67.1769 66.3435 66.7165 66.6541C66.2617 66.9648 65.6183 67.1256 64.7807 67.1256C64.2315 67.1256 63.7767 67.0812 63.4106 66.9869C63.05 66.8927 62.8004 66.815 62.6618 66.754L62.9557 65.334C63.2553 65.4505 63.5604 65.5448 63.871 65.6169C64.1816 65.6779 64.4922 65.7112 64.7973 65.7112Z" fill="#486CB4"/>
</svg>
