<svg width="60" height="61" viewBox="0 0 60 61" fill="none" xmlns="http://www.w3.org/2000/svg">
<path fill-rule="evenodd" clip-rule="evenodd" d="M30.0001 1.55273C18.9878 1.55273 10.0571 10.481 10.0571 21.4957C10.0571 30.3068 15.7712 37.7824 23.6954 40.4191C24.692 40.6038 25.0581 39.9865 25.0581 39.4596C25.0581 38.9843 25.0393 37.413 25.0309 35.7471C19.4823 36.9532 18.3118 33.394 18.3118 33.394C17.4048 31.0887 16.0974 30.4755 16.0974 30.4755C14.2881 29.238 16.2334 29.2634 16.2334 29.2634C18.2363 29.404 19.291 31.3188 19.291 31.3188C21.0695 34.3676 23.9565 33.4859 25.0942 32.9763C25.2737 31.6873 25.7903 30.8069 26.3607 30.3091C21.931 29.8052 17.2745 28.0948 17.2745 20.4532C17.2745 18.2759 18.0535 16.497 19.3295 15.1001C19.1223 14.5976 18.4398 12.5688 19.5226 9.82195C19.5226 9.82195 21.197 9.28664 25.007 11.8671C26.5984 11.4251 28.3046 11.2034 29.9992 11.1959C31.6942 11.2038 33.4013 11.4255 34.9951 11.8671C38.8013 9.28711 40.4739 9.82242 40.4739 9.82242C41.5595 12.5693 40.877 14.5976 40.6698 15.1005C41.9485 16.4965 42.722 18.2759 42.722 20.4537C42.722 28.113 38.0565 29.7996 33.6156 30.2927C34.3309 30.9115 34.9684 32.1255 34.9684 33.9865C34.9684 36.6546 34.9459 38.8019 34.9459 39.4587C34.9459 39.9883 35.3049 40.6108 36.3156 40.4149C44.2356 37.7749 49.9421 30.3021 49.9421 21.4938C49.9431 10.4815 41.0143 1.55273 30.0001 1.55273Z" fill="#181616"/>
<path d="M17.6113 30.1856C17.5667 30.285 17.4106 30.3145 17.2691 30.2465C17.1238 30.1809 17.0431 30.0464 17.09 29.9465C17.1322 29.8453 17.2888 29.8167 17.4336 29.8847C17.5789 29.9503 17.6614 30.0862 17.6117 30.1856H17.6113ZM18.4189 31.0875C18.3238 31.1751 18.1377 31.1343 18.0111 30.9947C17.8808 30.8554 17.8564 30.6693 17.953 30.5803C18.0505 30.4922 18.2309 30.5334 18.3608 30.6726C18.492 30.8132 18.5178 30.9975 18.4184 31.087L18.4189 31.0875ZM19.205 32.235C19.0831 32.3203 18.883 32.2406 18.7597 32.0629C18.6369 31.8862 18.6369 31.6739 18.762 31.5881C18.8858 31.5028 19.0827 31.5797 19.2073 31.7554C19.3302 31.9359 19.3302 32.1492 19.205 32.2354V32.235ZM20.2822 33.345C20.173 33.4654 19.94 33.4331 19.7698 33.2686C19.5955 33.1078 19.5472 32.8795 19.6564 32.759C19.7675 32.6386 20.0014 32.6723 20.173 32.8354C20.3464 32.9957 20.3989 33.2245 20.2822 33.3445V33.345ZM21.7691 33.989C21.7203 34.1456 21.4963 34.2164 21.2703 34.1503C21.0444 34.0818 20.8972 33.899 20.9422 33.7415C20.9891 33.584 21.215 33.5104 21.4423 33.5812C21.6673 33.6487 21.815 33.8297 21.7686 33.989H21.7691ZM23.4003 34.1086C23.4064 34.2726 23.2147 34.4095 22.9775 34.4123C22.7394 34.4179 22.5463 34.2848 22.5434 34.1226C22.5434 33.9567 22.7309 33.8217 22.9691 33.8179C23.2063 33.8132 23.4003 33.9454 23.4003 34.1086ZM24.9191 33.8503C24.9472 34.0106 24.7831 34.1756 24.5473 34.2192C24.3158 34.2623 24.102 34.1629 24.072 34.0036C24.0439 33.8395 24.2113 33.6754 24.4423 33.6323C24.6781 33.5911 24.8891 33.6876 24.9191 33.8507V33.8503Z" fill="#181616"/>
<path d="M11.6508 51.6105H6.63521C6.57305 51.6105 6.51344 51.6352 6.46949 51.6792C6.42553 51.7231 6.40084 51.7828 6.40084 51.8449V54.2974C6.40084 54.3596 6.42553 54.4192 6.46949 54.4631C6.51344 54.5071 6.57305 54.5318 6.63521 54.5318H8.59131V57.5787C8.59131 57.5787 8.15209 57.7287 6.93662 57.7287C5.50412 57.7287 3.50209 57.2055 3.50209 52.803C3.50209 48.4001 5.58709 47.8202 7.54459 47.8202C9.23865 47.8202 9.96803 48.1184 10.433 48.2623C10.5783 48.3063 10.7143 48.161 10.7143 48.0316L11.2735 45.6621C11.2744 45.6266 11.2667 45.5915 11.251 45.5596C11.2353 45.5278 11.2122 45.5002 11.1835 45.4793C10.9946 45.3443 9.84428 44.7012 6.93756 44.7012C3.58881 44.7012 0.153809 46.1252 0.153809 52.9746C0.153809 59.823 4.08662 60.8435 7.40068 60.8435C10.1447 60.8435 11.8093 59.6707 11.8093 59.6707C11.8777 59.6332 11.8852 59.5371 11.8852 59.4926V51.8445C11.8852 51.7823 11.8605 51.7227 11.8166 51.6787C11.7726 51.6348 11.713 51.6101 11.6508 51.6101V51.6105ZM37.2685 45.2862H34.4438C34.413 45.2863 34.3825 45.2925 34.3541 45.3044C34.3257 45.3163 34.2999 45.3337 34.2782 45.3556C34.2565 45.3775 34.2394 45.4035 34.2277 45.432C34.2161 45.4606 34.2102 45.4911 34.2104 45.522L34.2113 50.9801H29.8088V45.522C29.809 45.4912 29.8031 45.4607 29.7915 45.4322C29.7799 45.4036 29.7628 45.3777 29.7412 45.3558C29.7195 45.3339 29.6938 45.3165 29.6654 45.3046C29.6371 45.2926 29.6066 45.2864 29.5758 45.2862H26.7516C26.7208 45.2863 26.6903 45.2925 26.6619 45.3044C26.6335 45.3163 26.6077 45.3337 26.586 45.3556C26.5643 45.3775 26.5472 45.4035 26.5355 45.432C26.5239 45.4606 26.518 45.4911 26.5182 45.522V60.3016C26.5182 60.4315 26.6232 60.5374 26.7516 60.5374H29.5758C29.6067 60.5372 29.6371 60.531 29.6655 60.519C29.6939 60.507 29.7197 60.4896 29.7413 60.4676C29.763 60.4457 29.7801 60.4197 29.7916 60.3911C29.8032 60.3625 29.8091 60.332 29.8088 60.3012V53.9796H34.2113L34.2038 60.3012C34.2038 60.4315 34.3088 60.5374 34.4382 60.5374H37.2685C37.2993 60.5372 37.3298 60.531 37.3582 60.519C37.3866 60.507 37.4123 60.4896 37.434 60.4676C37.4556 60.4457 37.4727 60.4197 37.4843 60.3911C37.4959 60.3625 37.5017 60.332 37.5015 60.3012V45.5215C37.5018 45.4907 37.496 45.4601 37.4844 45.4316C37.4728 45.4031 37.4557 45.3771 37.4341 45.3552C37.4124 45.3334 37.3866 45.316 37.3582 45.3041C37.3298 45.2923 37.2993 45.2862 37.2685 45.2862ZM15.1594 45.6223C14.1544 45.6223 13.3388 46.444 13.3388 47.4612C13.3388 48.477 14.1544 49.301 15.1594 49.301C16.1654 49.301 16.9805 48.477 16.9805 47.4612C16.9805 46.444 16.1649 45.6223 15.1594 45.6223ZM16.5451 50.126H13.7297C13.6004 50.126 13.4851 50.2591 13.4851 50.3885V60.1629C13.4851 60.4502 13.6641 60.5355 13.8957 60.5355H16.4316C16.7105 60.5355 16.7785 60.3987 16.7785 60.1582V50.3618C16.7786 50.331 16.7727 50.3005 16.761 50.272C16.7493 50.2435 16.7322 50.2176 16.7105 50.1958C16.6888 50.1739 16.6631 50.1566 16.6347 50.1447C16.6063 50.1328 16.5758 50.1266 16.5451 50.1265V50.126ZM48.2354 50.148H45.4322C45.4015 50.1483 45.371 50.1546 45.3427 50.1666C45.3144 50.1786 45.2887 50.1961 45.2671 50.218C45.2455 50.24 45.2284 50.2659 45.2169 50.2945C45.2053 50.323 45.1995 50.3535 45.1997 50.3843V57.6312C45.1997 57.6312 44.4872 58.1515 43.4771 58.1515C42.4669 58.1515 42.1988 57.6935 42.1988 56.704V50.3843C42.1991 50.3535 42.1932 50.3229 42.1816 50.2944C42.1701 50.2658 42.153 50.2398 42.1313 50.2179C42.1097 50.1959 42.0839 50.1784 42.0555 50.1665C42.0271 50.1545 41.9967 50.1482 41.9658 50.148H39.1215C39.0592 50.1485 38.9997 50.1737 38.956 50.218C38.9122 50.2622 38.8878 50.322 38.888 50.3843V57.1821C38.888 60.1212 40.5263 60.8402 42.7796 60.8402C44.6283 60.8402 46.119 59.8184 46.119 59.8184C46.119 59.8184 46.1893 60.3574 46.2221 60.4207C46.2549 60.4845 46.3379 60.5487 46.4283 60.5487L48.2377 60.5407C48.2686 60.5406 48.2992 60.5344 48.3277 60.5224C48.3562 60.5105 48.3821 60.4931 48.4038 60.4711C48.4256 60.4492 48.4428 60.4232 48.4545 60.3946C48.4662 60.366 48.4722 60.3354 48.4721 60.3045L48.4707 50.3829C48.4704 50.3207 48.4457 50.2612 48.4018 50.2171C48.3579 50.1731 48.2985 50.1481 48.2363 50.1476L48.2354 50.148ZM55.8957 49.8162C54.3038 49.8162 53.221 50.5263 53.221 50.5263V45.5215C53.2212 45.4907 53.2153 45.4602 53.2037 45.4317C53.1921 45.4032 53.175 45.3772 53.1533 45.3553C53.1317 45.3335 53.106 45.316 53.0776 45.3041C53.0492 45.2921 53.0188 45.2859 52.988 45.2857H50.1563C50.1254 45.2857 50.0948 45.2918 50.0663 45.3037C50.0378 45.3155 50.0119 45.3329 49.9901 45.3548C49.9683 45.3768 49.9511 45.4028 49.9394 45.4314C49.9277 45.46 49.9217 45.4906 49.9219 45.5215V60.3012C49.9217 60.3321 49.9277 60.3627 49.9394 60.3913C49.9511 60.4199 49.9683 60.4459 49.9901 60.4678C50.0119 60.4897 50.0378 60.5071 50.0663 60.519C50.0948 60.5308 50.1254 60.537 50.1563 60.537H52.1213C52.2104 60.537 52.2769 60.4915 52.3261 60.4113C52.3744 60.3316 52.4452 59.7298 52.4452 59.7298C52.4452 59.7298 53.603 60.8266 55.7958 60.8266C58.3693 60.8266 59.8458 59.5216 59.8458 54.9663C59.8458 50.411 57.488 49.8157 55.8952 49.8157L55.8957 49.8162ZM54.7894 58.143C53.8177 58.1135 53.1582 57.6724 53.1582 57.6724V52.992C53.1582 52.992 53.8088 52.5935 54.6066 52.5213C55.6158 52.4309 56.5885 52.736 56.5885 55.1435C56.5885 57.6827 56.1502 58.1838 54.7899 58.1426L54.7894 58.143ZM24.9352 58.0877C24.8119 58.0877 24.496 58.1379 24.1712 58.1379C23.1305 58.1379 22.7776 57.6541 22.7776 57.0279V52.872H24.8963C24.9272 52.872 24.9579 52.8658 24.9864 52.8539C25.015 52.842 25.0409 52.8246 25.0627 52.8026C25.0845 52.7807 25.1017 52.7546 25.1134 52.726C25.1251 52.6973 25.1309 52.6666 25.1307 52.6357V50.3595C25.1308 50.3286 25.1248 50.298 25.1131 50.2695C25.1014 50.2409 25.0841 50.215 25.0624 50.1931C25.0406 50.1713 25.0147 50.1539 24.9862 50.1421C24.9577 50.1302 24.9272 50.1241 24.8963 50.1241H22.7776L22.7743 47.3257C22.7743 47.2193 22.7199 47.1663 22.5971 47.1663H19.7096C19.598 47.1663 19.5376 47.216 19.5376 47.3234V50.2155C19.5376 50.2155 18.0905 50.5648 17.993 50.5929C17.9443 50.6071 17.9016 50.6367 17.8712 50.6773C17.8407 50.7178 17.8243 50.7672 17.8243 50.8179V52.6352C17.8241 52.666 17.83 52.6965 17.8416 52.725C17.8532 52.7535 17.8703 52.7795 17.8919 52.8014C17.9136 52.8233 17.9393 52.8407 17.9677 52.8526C17.996 52.8646 18.0265 52.8708 18.0572 52.871H19.5376V57.2435C19.5376 60.492 21.8157 60.8107 23.3532 60.8107C24.0549 60.8107 24.8954 60.5857 25.0341 60.5341C25.1185 60.5027 25.1668 60.416 25.1668 60.3218L25.1687 58.3226C25.1677 58.2606 25.1427 58.2015 25.099 58.1576C25.0553 58.1137 24.9962 58.0885 24.9343 58.0873L24.9352 58.0877Z" fill="#100E0F"/>
</svg>
