<svg width="66" height="65" viewBox="0 0 66 65" fill="none" xmlns="http://www.w3.org/2000/svg">
<path d="M56.1647 25.2363L53.5626 17.2274L48.4054 1.35696C48.1407 0.539869 46.9854 0.539869 46.7196 1.35696L41.5625 17.2279H24.438L19.2809 1.35696C19.0156 0.539869 17.8603 0.539869 17.5951 1.35696L12.4379 17.2279L9.83576 25.2368C9.7201 25.5928 9.72011 25.9763 9.83579 26.3323C9.95146 26.6884 10.1769 26.9987 10.4797 27.2187L33.0002 43.5802L55.5208 27.2182C55.8236 26.9982 56.049 26.6879 56.1647 26.3318C56.2804 25.9758 56.2804 25.5923 56.1647 25.2363Z" fill="#FC6D26"/>
<path d="M33.0002 43.5808L41.5624 17.2285H24.438L33.0002 43.5808Z" fill="#E24329"/>
<path d="M32.9999 43.5808L24.4377 17.2285H12.4375L32.9999 43.5808Z" fill="#FC6D26"/>
<path d="M12.4378 17.2285L9.83563 25.2374C9.72009 25.5934 9.72016 25.9768 9.83583 26.3327C9.9515 26.6886 10.1768 26.9988 10.4796 27.2189L33.0001 43.5808L12.4378 17.2285Z" fill="#FCA326"/>
<path d="M12.4375 17.2285H24.4377L19.2805 1.35658C19.0152 0.539995 17.8599 0.539995 17.5947 1.35658L12.4375 17.2285Z" fill="#E24329"/>
<path d="M33 43.5808L41.5622 17.2285H53.5624L33 43.5808Z" fill="#FC6D26"/>
<path d="M53.5624 17.2285L56.1645 25.2374C56.28 25.5934 56.28 25.9768 56.1643 26.3327C56.0486 26.6886 55.8233 26.9988 55.5205 27.2189L33 43.5808L53.5624 17.2285Z" fill="#FCA326"/>
<path d="M53.5626 17.2285H41.5625L46.7197 1.35658C46.9849 0.539995 48.1402 0.539995 48.4055 1.35658L53.5626 17.2285Z" fill="#E24329"/>
<path d="M33.7022 47.6223H31.4291L31.4367 64.5336H40.6302V62.4428H33.7088L33.7012 47.6223H33.7022ZM49.3838 61.5644C49.0197 61.943 48.5824 62.2435 48.0985 62.4476C47.6146 62.6518 47.0942 62.7554 46.5691 62.7521C44.8387 62.7521 44.1416 61.8996 44.1416 60.7894C44.1416 59.1112 45.3034 58.3108 47.7825 58.3108C48.2473 58.3108 48.996 58.3624 49.3833 58.4399V61.5634L49.3838 61.5644ZM47.0338 51.3144C45.1991 51.3144 43.5154 51.9649 42.2026 53.0473L43.0061 54.438C43.9355 53.8963 45.0716 53.3536 46.6987 53.3536C48.5581 53.3536 49.3843 54.3089 49.3843 55.9101V56.7353C49.0228 56.6584 48.2741 56.6067 47.8099 56.6067C43.8323 56.6067 41.8184 58.0015 41.8184 60.919C41.8184 63.5262 43.4192 64.8434 45.8466 64.8434C47.4818 64.8434 49.0487 64.0942 49.5909 62.8812L50.0045 64.5336H51.6057V55.8843C51.6057 53.1475 50.4176 51.3144 47.0343 51.3144H47.0338ZM58.9372 62.8296C58.0852 62.8296 57.336 62.7263 56.768 62.4681V54.6455C57.5425 54.0001 58.4978 53.5353 59.7113 53.5353C61.9064 53.5353 62.7589 55.0844 62.7589 57.5889C62.7589 61.1513 61.39 62.8296 58.9367 62.8296M59.8915 51.3144C57.8605 51.3144 56.768 52.6965 56.768 52.6965V50.5145L56.7604 47.6223H54.54L54.547 64.121C55.6573 64.5852 57.1811 64.8434 58.8335 64.8434C63.0677 64.8434 65.1079 62.1325 65.1079 57.4593C65.1079 53.7672 63.2232 51.3144 59.8915 51.3144ZM8.99974 49.4555C11.0146 49.4555 12.3055 50.1267 13.1571 50.798L14.1341 49.1072C12.8027 47.9397 11.0121 47.3125 9.102 47.3125C4.27339 47.3125 0.890625 50.2563 0.890625 56.1947C0.890625 62.416 4.54069 64.8434 8.71522 64.8434C10.807 64.8434 12.589 64.3524 13.7509 63.8623L13.7033 57.2142V55.1234H7.50529V57.2142H11.4566L11.5042 62.2616C10.9878 62.5197 10.0836 62.7263 8.86963 62.7263C5.51319 62.7263 3.26544 60.6152 3.26544 56.1683C3.26646 51.65 5.59065 49.4555 8.99923 49.4555M24.981 47.6223H22.7601L22.7672 50.4624V60.273C22.7672 63.0103 23.9554 64.8434 27.3386 64.8434C27.8054 64.8434 28.2625 64.8009 28.7065 64.7204V62.7258C28.3648 62.7779 28.0195 62.804 27.6738 62.8037C25.8138 62.8037 24.9876 61.849 24.9876 60.2482V53.4832H28.706V51.6242H24.9871L24.98 47.6223H24.981ZM17.125 64.5336H19.346V51.6242H17.124V64.5336H17.125ZM17.125 49.8432H19.346V47.6223H17.124V49.8427L17.125 49.8432Z" fill="#5C5C5C"/>
</svg>
