<svg width="66" height="65" viewBox="0 0 66 65" fill="none" xmlns="http://www.w3.org/2000/svg">
<path d="M56.0641 25.1933L53.462 17.1844L48.3048 1.31399C48.0401 0.4969 46.8848 0.4969 46.619 1.31399L41.4619 17.1849H24.3375L19.1803 1.31399C18.915 0.4969 17.7597 0.4969 17.4945 1.31399L12.3373 17.1849L9.73518 25.1938C9.61952 25.5498 9.61952 25.9333 9.7352 26.2894C9.85088 26.6454 10.0763 26.9557 10.3791 27.1758L32.8997 43.5373L55.4202 27.1753C55.723 26.9552 55.9484 26.6449 56.0641 26.2889C56.1798 25.9328 56.1798 25.5493 56.0641 25.1933Z" fill="#FC6D26"/>
<path d="M32.9001 43.5379L41.4623 17.1855H24.3379L32.9001 43.5379Z" fill="#E24329"/>
<path d="M32.9002 43.5379L24.338 17.1855H12.3379L32.9002 43.5379Z" fill="#FC6D26"/>
<path d="M12.3372 17.1855L9.73505 25.1944C9.6195 25.5504 9.61957 25.9338 9.73524 26.2897C9.85091 26.6457 10.0763 26.9558 10.379 27.1759L32.8995 43.5379L12.3372 17.1855Z" fill="#FCA326"/>
<path d="M12.3379 17.1856H24.338L19.1809 1.31361C18.9156 0.497027 17.7603 0.497027 17.4951 1.31361L12.3379 17.1856Z" fill="#E24329"/>
<path d="M32.9004 43.5379L41.4626 17.1855H53.4627L32.9004 43.5379Z" fill="#FC6D26"/>
<path d="M53.4627 17.1855L56.0649 25.1944C56.1804 25.5504 56.1804 25.9338 56.0647 26.2897C55.949 26.6457 55.7237 26.9558 55.4209 27.1759L32.9004 43.5379L53.4627 17.1855Z" fill="#FCA326"/>
<path d="M53.4621 17.1856H41.4619L46.6191 1.31361C46.8844 0.497027 48.0396 0.497027 48.3049 1.31361L53.4621 17.1856Z" fill="#E24329"/>
<path d="M33.6026 47.5794H31.3295L31.3371 64.4906H40.5306V62.3998H33.6092L33.6016 47.5794H33.6026ZM49.2842 61.5215C48.9201 61.9 48.4828 62.2005 47.9989 62.4047C47.515 62.6088 46.9946 62.7124 46.4694 62.7091C44.7391 62.7091 44.042 61.8566 44.042 60.7464C44.042 59.0682 45.2038 58.2678 47.6829 58.2678C48.1477 58.2678 48.8964 58.3194 49.2837 58.3969V61.5205L49.2842 61.5215ZM46.9342 51.2714C45.0995 51.2714 43.4157 51.922 42.103 53.0043L42.9065 54.395C43.8359 53.8533 44.972 53.3106 46.599 53.3106C48.4585 53.3106 49.2847 54.2659 49.2847 55.8672V56.6924C48.9232 56.6154 48.1745 56.5638 47.7103 56.5638C43.7327 56.5638 41.7188 57.9585 41.7188 60.876C41.7188 63.4832 43.3196 64.8005 45.747 64.8005C47.3822 64.8005 48.9491 64.0512 49.4913 62.8382L49.9049 64.4906H51.5061V55.8414C51.5061 53.1046 50.318 51.2714 46.9347 51.2714H46.9342ZM58.8376 62.7866C57.9856 62.7866 57.2364 62.6833 56.6684 62.4251V54.6026C57.4429 53.9571 58.3982 53.4924 59.6117 53.4924C61.8068 53.4924 62.6593 55.0415 62.6593 57.5459C62.6593 61.1084 61.2904 62.7866 58.8371 62.7866M59.7919 51.2714C57.7608 51.2714 56.6684 52.6535 56.6684 52.6535V50.4716L56.6608 47.5794H54.4403L54.4474 64.078C55.5576 64.5423 57.0815 64.8005 58.7339 64.8005C62.9681 64.8005 65.0083 62.0895 65.0083 57.4163C65.0083 53.7242 63.1236 51.2714 59.7919 51.2714ZM8.90013 49.4125C10.915 49.4125 12.2059 50.0838 13.0575 50.7551L14.0345 49.0642C12.7031 47.8968 10.9125 47.2695 9.00239 47.2695C4.17378 47.2695 0.791016 50.2134 0.791016 56.1517C0.791016 62.373 4.44108 64.8005 8.61562 64.8005C10.7074 64.8005 12.4894 64.3094 13.6513 63.8193L13.6037 57.1713V55.0805H7.40568V57.1713H11.357L11.4045 62.2186C10.8882 62.4768 9.98401 62.6833 8.77002 62.6833C5.41358 62.6833 3.16583 60.5723 3.16583 56.1254C3.16685 51.6071 5.49104 49.4125 8.89962 49.4125M24.8814 47.5794H22.6605L22.6676 50.4194V60.23C22.6676 62.9673 23.8558 64.8005 27.239 64.8005C27.7058 64.8005 28.1629 64.7579 28.6069 64.6774V62.6828C28.2651 62.7349 27.9199 62.761 27.5742 62.7608C25.7142 62.7608 24.888 61.806 24.888 60.2052V53.4402H28.6064V51.5813H24.8875L24.8804 47.5794H24.8814ZM17.0254 64.4906H19.2464V51.5813H17.0244V64.4906H17.0254ZM17.0254 49.8003H19.2464V47.5794H17.0244V49.7998L17.0254 49.8003Z" fill="#5C5C5C"/>
</svg>
