<svg width="24" height="24" viewBox="0 0 24 24" fill="none" xmlns="http://www.w3.org/2000/svg">
<g id="double-tap">
<g id="Group">
<path id="Vector" d="M8.99184 4.51193C10.2594 4.51193 11.3752 5.32174 11.7682 6.52713L12.3218 8.22931C12.851 8.03567 13.419 7.99859 13.9693 8.1206C14.1909 5.22073 11.8908 2.81342 9.06248 2.81342C6.34856 2.81342 4.14061 5.02198 4.14061 7.7367C4.14061 9.9154 5.55511 11.7441 7.47577 12.398L7.5217 12.3506L6.21483 8.33749C5.60536 6.46887 6.98677 4.51193 8.99184 4.51193Z" fill="#8F00FF"/>
<path id="Vector_2" d="M21.9606 18.5628C22.7073 17.3028 22.8753 15.7842 22.4212 14.3918L20.8673 9.62686C20.6081 8.83182 19.7535 8.39757 18.9585 8.65683C18.1634 8.9161 17.7292 9.77068 17.9886 10.5661L17.832 10.0862C17.5728 9.29114 16.7105 8.85891 15.9155 9.11818C15.1224 9.37679 14.6857 10.2307 14.9456 11.0275L14.7734 10.4994C14.5149 9.70688 13.6579 9.27535 12.865 9.52941C12.0597 9.78821 11.6287 10.6474 11.8873 11.4406L10.4313 6.96314C10.172 6.1681 9.31702 5.73399 8.52197 5.99325C7.72697 6.25252 7.29267 7.10714 7.55194 7.90214L10.5137 16.9969C10.6341 17.3661 10.4324 17.763 10.0632 17.8833C9.69403 18.0037 9.29714 17.8021 9.17676 17.4329L8.01309 13.8645C7.25831 14.6438 6.95255 15.7968 7.31592 16.9111L7.8413 18.4965C8.49412 20.4728 10.1911 21.9226 12.2456 22.2579C12.6774 23.5823 14.1015 24.3073 15.427 23.875L20.499 22.2211C21.8239 21.789 22.5481 20.3646 22.1159 19.0392L21.9606 18.5628Z" fill="#8F00FF"/>
<path id="Vector_3" d="M2.73431 7.73672C2.73431 4.24659 5.57311 1.40719 9.06244 1.40719C12.5599 1.40719 15.4311 4.26966 15.3895 7.81284C15.8456 7.64789 16.3156 7.59881 16.7959 7.66561C16.7576 3.43223 13.3035 0 9.06244 0C4.7977 0 1.32806 3.47067 1.32806 7.73672C1.32806 10.7843 3.12385 13.5519 5.91267 14.8013C6.03525 14.3499 6.22978 13.918 6.492 13.5222C4.30852 12.5498 2.73431 10.3451 2.73431 7.73672Z" fill="#8F00FF"/>
</g>
</g>
</svg>
