<svg width="40" height="40" viewBox="0 0 40 40" fill="none" xmlns="http://www.w3.org/2000/svg">
<rect width="40" height="40" rx="20" fill="#E9D8FF"/>
<path d="M16.9918 12.512C18.2594 12.512 19.3752 13.3218 19.7682 14.5272L20.3218 16.2294C20.851 16.0357 21.419 15.9986 21.9693 16.1207C22.1909 13.2208 19.8908 10.8135 17.0625 10.8135C14.3486 10.8135 12.1406 13.022 12.1406 15.7368C12.1406 17.9155 13.5551 19.7442 15.4758 20.3981L15.5217 20.3507L14.2148 16.3376C13.6054 14.4689 14.9868 12.512 16.9918 12.512Z" fill="#8F00FF"/>
<path d="M29.9606 26.5625C30.7073 25.3025 30.8753 23.784 30.4212 22.3916L28.8673 17.6266C28.6081 16.8316 27.7535 16.3973 26.9585 16.6566C26.1634 16.9159 25.7292 17.7704 25.9886 18.5659L25.832 18.0859C25.5728 17.2909 24.7105 16.8587 23.9155 17.1179C23.1224 17.3765 22.6857 18.2304 22.9456 19.0272L22.7734 18.4992C22.5149 17.7066 21.6579 17.2751 20.865 17.5292C20.0597 17.788 19.6287 18.6472 19.8873 19.4403L18.4313 14.9629C18.172 14.1679 17.317 13.7337 16.522 13.993C15.727 14.2523 15.2927 15.1069 15.5519 15.9019L18.5137 24.9966C18.6341 25.3658 18.4324 25.7627 18.0632 25.8831C17.694 26.0035 17.2971 25.8018 17.1768 25.4326L16.0131 21.8643C15.2583 22.6436 14.9525 23.7965 15.3159 24.9109L15.8413 26.4963C16.4941 28.4725 18.1911 29.9223 20.2456 30.2577C20.6774 31.582 22.1015 32.307 23.427 31.8748L28.499 30.2208C29.8239 29.7888 30.5481 28.3643 30.1159 27.039L29.9606 26.5625Z" fill="#8F00FF"/>
<path d="M10.7343 15.7367C10.7343 12.2466 13.5731 9.40719 17.0624 9.40719C20.5599 9.40719 23.4311 12.2697 23.3895 15.8128C23.8456 15.6479 24.3156 15.5988 24.7959 15.6656C24.7576 11.4322 21.3035 8 17.0624 8C12.7977 8 9.32806 11.4707 9.32806 15.7367C9.32806 18.7843 11.1238 21.5519 13.9127 22.8013C14.0353 22.3499 14.2298 21.918 14.492 21.5222C12.3085 20.5498 10.7343 18.3451 10.7343 15.7367Z" fill="#8F00FF"/>
</svg>
