<svg width="38" height="38" viewBox="0 0 38 38" fill="none" xmlns="http://www.w3.org/2000/svg">
<path d="M35.577 0.584473H2.81445C2.27573 0.584473 1.75908 0.798479 1.37814 1.17941C0.997209 1.56035 0.783203 2.077 0.783203 2.61572V35.3813C0.783203 35.9201 0.997209 36.4367 1.37814 36.8177C1.75908 37.1986 2.27573 37.4126 2.81445 37.4126H20.4457V23.1532H15.652V17.5938H20.4457V13.4938C20.4457 8.7376 23.352 6.14697 27.5957 6.14697C29.0278 6.14187 30.4591 6.21489 31.8832 6.36572V11.3376H28.9488C26.6395 11.3376 26.1926 12.4345 26.1926 14.0438V17.5938H31.6957L30.9801 23.1532H26.1926V37.4157H35.5676C36.106 37.4149 36.6222 37.2006 37.003 36.8199C37.3837 36.4391 37.598 35.9229 37.5988 35.3845V2.61885C37.5997 2.08121 37.3873 1.56516 37.0083 1.18382C36.6293 0.802483 36.1146 0.586953 35.577 0.584473Z" fill="white"/>
</svg>
