<svg width="67" height="65" viewBox="0 0 67 65" fill="none" xmlns="http://www.w3.org/2000/svg">
<path d="M17.1 23.35H16.95V23.5V41.45V41.6H17.1H29.3H29.45V41.45V40.5V40.35H29.3H18.35V32.75H28.5H28.65V32.6V31.65V31.5H28.5H18.35V24.6H29.15H29.3V24.45V23.5V23.35H29.15H17.1ZM30.25 23.35H29.9572L30.1283 23.5876L36.3646 32.2492L29.6791 41.3613L29.5039 41.6H29.8H31.1H31.1765L31.2214 41.5381L37.1995 33.306L43.1283 41.5377L43.1732 41.6H43.25H44.6H44.8948L44.7213 41.3617L38.084 32.2479L51.0233 13.5855L50.7823 13.407L42.8823 23.407L42.8822 23.4069L42.8787 23.4117L37.2505 31.1444L31.6716 23.4122L31.6267 23.35H31.55H30.25ZM44.95 24.45V24.6H45.1H51.25V41.45V41.6H51.4H52.5H52.65V41.45V24.6H58.85H59V24.45V23.5V23.35H58.85H45.1H44.95V23.5V24.45ZM2 23.35H1.85V23.5V41.45V41.6H2H3.1H3.24955L3.25 41.4505L3.29855 25.3313L14.4264 41.5349L14.4262 41.535L14.4303 41.5405L22.3303 51.9905L22.5745 51.8163L3.47447 23.4163L3.42989 23.35H3.35H2ZM62.4 36.25V36.1H62.25H61.65H61.5V36.25V39C61.5 39.2062 61.4538 39.324 61.3908 39.3909C61.3295 39.456 61.2268 39.5 61.05 39.5C60.9026 39.5 60.7908 39.458 60.718 39.3938C60.6475 39.3316 60.6 39.2369 60.6 39.1V38.95H60.45H59.85H59.7V39.1V39.15C59.7 39.5156 59.8416 39.8313 60.0864 40.0546C60.3302 40.2769 60.6679 40.4 61.05 40.4C61.4552 40.4 61.7979 40.2778 62.0389 40.0295C62.2793 39.7817 62.4 39.4276 62.4 39V36.25ZM63 38.95H62.8389L62.8504 39.1107C62.8782 39.5002 63.0471 39.8279 63.339 40.0557C63.6283 40.2815 64.0261 40.4 64.5 40.4C64.9732 40.4 65.3841 40.2819 65.6802 40.0492C65.9803 39.8134 66.15 39.4692 66.15 39.05C66.15 38.7169 66.051 38.4503 65.8354 38.2421C65.6267 38.0406 65.3222 37.9073 64.9387 37.8051L64.9387 37.8049L64.9325 37.8036L64.4825 37.7036L64.4825 37.7035L64.4794 37.7029C64.2416 37.6553 64.0941 37.5873 64.0085 37.516C63.9288 37.4495 63.9 37.3786 63.9 37.3C63.9 37.1721 63.953 37.0657 64.0542 36.9874C64.1587 36.9067 64.3235 36.85 64.55 36.85C64.7545 36.85 64.9077 36.8956 65.0118 36.9713C65.1122 37.0443 65.1807 37.1551 65.2012 37.3186L65.2176 37.45H65.35H65.95H66.112L66.0996 37.2885C66.042 36.5407 65.407 36.05 64.55 36.05C64.0999 36.05 63.7132 36.1691 63.4361 36.3965C63.156 36.6264 63 36.9573 63 37.35C63 37.6538 63.0838 37.9183 63.2776 38.1271C63.4686 38.3327 63.7514 38.468 64.1186 38.5467L64.1206 38.5471L64.6206 38.6471C64.8596 38.6949 65.0204 38.7634 65.1188 38.8421C65.211 38.9159 65.25 38.999 65.25 39.1C65.25 39.2192 65.1923 39.3263 65.0758 39.4088C64.9568 39.4931 64.7767 39.55 64.55 39.55C64.3238 39.55 64.1275 39.4933 63.9862 39.4043C63.8451 39.3155 63.7658 39.2001 63.7485 39.0788L63.7301 38.95H63.6H63ZM58.75 40.35C58.9051 40.35 59.0467 40.3029 59.1498 40.1998C59.2529 40.0967 59.3 39.9551 59.3 39.8C59.3 39.6449 59.2529 39.5033 59.1498 39.4002C59.0467 39.2971 58.9051 39.25 58.75 39.25C58.5949 39.25 58.4533 39.2971 58.3502 39.4002C58.2471 39.5033 58.2 39.6449 58.2 39.8C58.2 40.1449 58.4797 40.35 58.75 40.35Z" fill="black" stroke="black" stroke-width="0.3"/>
</svg>
