<svg width="82" height="86" viewBox="0 0 82 86" fill="none" xmlns="http://www.w3.org/2000/svg">
<path d="M29.8748 54.5302L30.0099 54.5954L30.2506 54.7105C30.5579 54.8554 30.8679 54.999 31.1807 55.137L31.3774 55.2237C31.7364 55.3797 32.0975 55.5281 32.4628 55.6709L32.7274 55.7736C33.0647 55.9039 33.4076 56.0301 33.7512 56.1501L33.88 56.1938C34.2572 56.3242 34.6379 56.4455 35.0221 56.5641L35.2986 56.6452C35.6891 56.7624 36.0747 56.9018 36.4778 56.976C62.0598 61.5979 69.49 41.743 69.49 41.743C63.2488 49.7995 52.171 51.9249 41.6748 49.5589C41.2773 49.4701 40.891 49.3467 40.5033 49.2329L40.2115 49.1456C39.8334 49.0306 39.4573 48.9095 39.0833 48.7822L38.9286 48.7267C38.5954 48.6098 38.2638 48.4879 37.9342 48.3613L37.6556 48.2531C37.2949 48.1125 36.937 47.965 36.5821 47.8107L36.3672 47.7164C36.0637 47.5807 35.7619 47.4415 35.4616 47.2989L35.1992 47.1741C34.9641 47.0604 34.731 46.939 34.4987 46.8204L34.0312 46.5777C33.7486 46.4272 33.4689 46.2716 33.1921 46.111L32.9086 45.9543C32.5405 45.7385 32.1759 45.517 31.8148 45.29L31.5201 45.0958C31.258 44.9292 30.9985 44.7583 30.7419 44.5834L30.4914 44.4086C30.2436 44.2352 29.9987 44.0598 29.7558 43.8816L29.4297 43.6368C29.2064 43.4685 28.9852 43.2975 28.7663 43.1236L28.4702 42.8879C28.1916 42.6613 27.9159 42.4313 27.643 42.1979L27.5527 42.1223C27.2581 41.8667 26.9679 41.6061 26.6821 41.3408L26.4372 41.1071C26.2251 40.9081 26.0173 40.707 25.8122 40.501L25.5673 40.2583C25.3075 39.9947 25.0521 39.727 24.801 39.4553L24.7632 39.4151C24.4984 39.1278 24.2392 38.8356 23.9856 38.5385L23.782 38.2986C23.593 38.0732 23.4055 37.8444 23.2228 37.6135L23.0178 37.3611C22.7983 37.0801 22.583 36.796 22.3718 36.5088C16.5449 28.6326 14.451 17.7697 19.1085 8.84846L14.9801 14.0369C9.68999 21.5698 10.3492 31.371 14.3894 39.3762L14.6855 39.9456L14.8751 40.3061L14.9927 40.5135L15.2033 40.8873C15.3286 41.1064 15.4567 41.3241 15.5883 41.5419L15.8087 41.9018C15.9543 42.1348 16.1033 42.365 16.2566 42.5952L16.447 42.8879C16.6576 43.1985 16.8732 43.5092 17.095 43.8143L17.1139 43.8386L17.2231 43.9849C17.4155 44.2477 17.6136 44.5071 17.8137 44.7636L18.0363 45.0438C18.2148 45.2664 18.3974 45.4883 18.5822 45.7088L18.7907 45.955C19.0392 46.2456 19.2925 46.534 19.5515 46.8163L19.5668 46.8322L19.5962 46.8641C19.8482 47.1373 20.1071 47.4036 20.3689 47.6713L20.6166 47.9188C20.8196 48.1213 21.0253 48.3204 21.2339 48.5187L21.4865 48.7565C21.7643 49.0159 22.045 49.2704 22.3319 49.52L22.3459 49.5304L22.4929 49.6552C22.7455 49.8716 23.0031 50.0873 23.262 50.2988L23.5804 50.5498C23.7918 50.7176 24.0059 50.8834 24.2215 51.0463L24.5637 51.3043C24.8017 51.4776 25.041 51.6482 25.2825 51.8153L25.5449 51.9998L25.617 52.0504C25.8465 52.2071 26.081 52.3569 26.3154 52.5074L26.6177 52.7071C26.9768 52.9325 27.3421 53.1551 27.7109 53.3701L28.0132 53.5393C28.2848 53.6939 28.557 53.8458 28.8334 53.9942L29.2869 54.2272L29.8748 54.5302ZM32.4593 29.0147C33.0325 29.8288 33.6672 30.7969 34.428 31.4515C34.7037 31.7524 34.992 32.0451 35.286 32.3342L35.5127 32.5548C35.799 32.8294 36.0894 33.0991 36.3889 33.3619L36.4253 33.3924L36.4337 33.4015C36.7661 33.6899 37.1091 33.9673 37.4576 34.2405L37.6906 34.4208C38.0406 34.6864 38.3968 34.9472 38.7621 35.1961L38.7936 35.219L39.2821 35.538L39.5144 35.6905C39.7755 35.8556 40.0393 36.0178 40.3087 36.1718L40.4207 36.2363C40.6524 36.3687 40.8875 36.4991 41.1227 36.6253L41.3718 36.755L41.8631 37.0067L41.9373 37.04C42.2746 37.2043 42.6147 37.3624 42.9618 37.5129L43.1879 37.6052C43.465 37.7217 43.7457 37.8361 44.027 37.9429L44.3867 38.0732C44.6429 38.1675 44.899 38.2535 45.1579 38.3388L45.5072 38.4498C45.8753 38.5628 46.2385 38.7057 46.622 38.7688C66.3729 42.012 70.9331 26.9427 70.9331 26.9427C66.8222 32.8086 58.8622 35.6066 50.3675 33.4223C49.9922 33.3246 49.6193 33.2178 49.2492 33.1019L48.9126 32.9944C48.6501 32.9105 48.3891 32.821 48.1302 32.7274L47.7774 32.5971C47.4947 32.4895 47.2138 32.3774 46.9348 32.2607L46.7081 32.165C46.3607 32.0153 46.0172 31.8569 45.6779 31.69L45.1607 31.4293L44.8626 31.2774C44.6429 31.1595 44.4245 31.0361 44.209 30.912L44.0529 30.8239C43.7859 30.6695 43.5217 30.5102 43.2607 30.3461L43.022 30.1873L42.5097 29.8517C42.1476 29.6028 41.7917 29.345 41.4425 29.0785L41.2024 28.8906C37.4842 25.9829 34.5371 22.0067 33.1354 17.4986C31.6671 12.8247 31.9834 7.57667 34.5274 3.31819L31.4019 7.69109C27.5765 13.1451 27.7844 20.4478 30.7685 26.2166C31.2676 27.1861 31.8325 28.121 32.4593 29.0147ZM53.2775 22.2667L53.7681 22.4352L53.9843 22.5032C54.2174 22.5753 54.4476 22.6599 54.6877 22.7043C65.5933 24.7923 68.5522 17.1588 69.3395 16.0354C66.748 19.7322 62.3936 20.6191 57.0503 19.3341C56.6128 19.2238 56.1812 19.0919 55.757 18.9389C55.2348 18.7549 54.7225 18.5443 54.2223 18.3078C53.2728 17.8552 52.3711 17.31 51.5307 16.6803C46.7494 13.0847 43.7792 6.2286 46.8991 0.643555L45.2111 2.94858C42.9562 6.23762 42.7344 10.322 44.2992 13.9529C45.9495 17.8085 49.3311 20.832 53.2775 22.2667ZM42.7505 66.5096H39.793C39.7093 66.5128 39.6289 66.5426 39.5637 66.5947C39.4985 66.6468 39.452 66.7184 39.4311 66.7987L38.3814 71.6113L37.3316 76.4238C37.311 76.5042 37.2647 76.5758 37.1996 76.6279C37.1345 76.68 37.0541 76.7099 36.9705 76.713H34.8773C32.8064 76.713 33.0458 75.2935 33.4699 73.3491L33.4825 73.2901L33.5287 73.0446L33.5371 72.9989L33.6316 72.4996L33.733 71.9649L33.8408 71.4206L34.3181 69.11L34.7961 66.7994C34.8052 66.7641 34.8059 66.7272 34.798 66.6916C34.7901 66.6561 34.7739 66.6228 34.7507 66.5945C34.7275 66.5663 34.6979 66.5438 34.6643 66.5289C34.6308 66.5141 34.5942 66.5072 34.5574 66.5089H31.5222C31.4386 66.5119 31.3583 66.5418 31.2934 66.5941C31.2285 66.6464 31.1825 66.7182 31.1625 66.7987L30.5096 69.8666L29.8573 72.9351L29.8559 72.9392L29.7957 73.2249C29.0441 76.6249 29.2429 79.8682 33.3285 79.9701L33.4475 79.9722H39.8601C39.9438 79.9691 40.0241 79.9392 40.0892 79.8871C40.1543 79.835 40.2006 79.7634 40.2213 79.683L41.6041 73.2416L42.987 66.7994C43.0213 66.6399 42.9149 66.5103 42.7505 66.5096ZM11.0785 66.4756H7.83122C7.74733 66.4788 7.66668 66.5086 7.60107 66.5605C7.53547 66.6124 7.48835 66.6837 7.4666 66.7641L7.15867 68.1107L6.85074 69.4574C6.81505 69.6162 6.91932 69.7459 7.08379 69.7459H10.3562C10.44 69.7428 10.5206 69.713 10.5859 69.6609C10.6513 69.6088 10.6979 69.5372 10.7188 69.4567L11.0162 68.1107L11.3136 66.7648C11.3479 66.6059 11.2429 66.4756 11.0785 66.4756ZM10.1365 70.6668H6.86334C6.77948 70.6701 6.69888 70.6999 6.6333 70.7518C6.56772 70.8037 6.52057 70.875 6.49872 70.9553L6.03892 72.9732L5.57983 74.9905L5.45176 75.5688L5.01016 77.6283L4.56926 79.6886C4.53497 79.8474 4.46428 80.104 4.41179 80.2579C4.41179 80.2579 3.80013 82.0609 2.77207 82.0401L2.6433 82.0373L1.7538 82.0214H1.7531C1.66954 82.0233 1.58882 82.0518 1.52281 82.1026C1.4568 82.1534 1.40898 82.2239 1.38638 82.3036L1.04696 83.7175L0.708235 85.1308C0.669744 85.2889 0.773321 85.4193 0.936384 85.422C1.51935 85.429 2.82525 85.4435 3.61538 85.4435C6.18309 85.4435 7.53728 84.0338 8.40439 79.9771L9.41986 75.3212L10.3723 70.9546C10.4066 70.7972 10.3003 70.6668 10.1365 70.6668ZM70.4047 69.5753L70.2689 69.0199L70.1353 68.4512L70.0674 68.1641C69.8014 67.1399 69.0211 66.5498 67.3261 66.5498L64.6877 66.547L62.2578 66.5435H59.5236C59.44 66.5466 59.3597 66.5764 59.2947 66.6286C59.2297 66.6807 59.1835 66.7523 59.1631 66.8327L59.0421 67.3986L58.8993 68.0671L58.8594 68.255L57.6284 73.969L56.4597 79.3932C56.4247 79.5527 56.4135 79.7482 56.4331 79.8273C56.4527 79.907 56.7683 79.9722 56.9321 79.9722H59.3983C59.5628 79.9722 59.7706 79.9431 59.8602 79.907C59.9498 79.871 60.082 79.5513 60.1149 79.3925L60.553 77.2435L60.9918 75.0938L60.9925 75.0903L61.0513 74.8039L61.5832 72.3352L62.0528 70.155C62.0735 70.0748 62.1197 70.0034 62.1847 69.9513C62.2496 69.8992 62.3297 69.8692 62.4132 69.8659L70.1737 69.8624C70.3382 69.8638 70.4418 69.7341 70.4047 69.5753ZM80.3949 64.5547L79.7973 64.5568H77.3135C77.2225 64.5619 77.1337 64.5864 77.0531 64.6286C76.9725 64.6709 76.9022 64.7299 76.8467 64.8016L71.3537 72.7749C71.2613 72.9094 71.1556 72.89 71.1192 72.7319L70.7147 70.9754C70.6929 70.8949 70.6457 70.8235 70.58 70.7716C70.5142 70.7197 70.4334 70.69 70.3494 70.6869H66.8187C66.6543 70.6869 66.557 70.8145 66.6018 70.9705L68.1841 76.4633C68.2289 76.6201 68.2324 76.8766 68.1918 77.0348L67.5025 79.6927C67.4612 79.8509 67.5619 79.9791 67.7264 79.9791H71.2165C71.3009 79.9757 71.3822 79.9463 71.4489 79.895C71.5157 79.8436 71.5646 79.7729 71.5888 79.6927L72.2789 77.0348C72.3335 76.8474 72.4193 76.6704 72.5329 76.5112L81.4503 64.7843C81.5497 64.6539 81.4958 64.5478 81.332 64.5492L80.3949 64.5547ZM52.3411 71.4331V71.4303C52.329 71.514 52.2872 71.5908 52.2232 71.6468C52.1593 71.7028 52.0772 71.7345 51.9919 71.7361H47.515C47.3596 71.7361 47.2812 71.6321 47.3043 71.5031L47.3085 71.4927L47.3057 71.4941L47.3078 71.4795L47.3281 71.4039C47.7557 70.2778 48.6263 69.5386 50.2633 69.5386C52.1067 69.5379 52.4664 70.4296 52.3411 71.4331ZM51.0275 66.3126C45.2811 66.3126 43.9192 69.7688 43.155 73.2575C42.3915 76.8135 42.4565 80.1372 48.4038 80.1372H49.1246L49.3038 80.1366H49.3458L50.0596 80.1345H50.0722C51.6427 80.1282 53.218 80.1164 53.8556 80.1116C53.9386 80.1074 54.0182 80.0769 54.0823 80.0244C54.1465 79.9719 54.1919 79.9004 54.2118 79.8203L54.4525 78.6546L54.4994 78.4279L54.7863 77.0368C54.7955 77.0016 54.7961 76.9647 54.7883 76.9291C54.7804 76.8936 54.7642 76.8604 54.7409 76.8321C54.7177 76.8039 54.6881 76.7815 54.6546 76.7667C54.621 76.7519 54.5844 76.7452 54.5477 76.747H49.2016C47.0748 76.747 46.4435 76.1874 46.6766 74.5411H55.2223L55.2216 74.5418L55.2272 74.5411C55.2948 74.5382 55.3602 74.5161 55.4154 74.4773C55.4706 74.4386 55.5134 74.3849 55.5387 74.3227L55.559 74.2492L55.5583 74.2499C56.8271 69.5073 56.4632 66.3133 51.0275 66.3126ZM23.8667 71.415L23.7855 71.6987V71.6993L23.1402 73.9655L22.495 76.231C22.4686 76.3113 22.418 76.3817 22.3501 76.4326C22.2822 76.4836 22.2001 76.5127 22.115 76.5161H18.6997C16.1089 76.5161 15.4777 74.5078 16.1089 71.5468C16.7395 68.5178 17.9761 66.6351 20.5263 66.4444C24.0115 66.1836 24.7086 68.6121 23.8667 71.415ZM26.2097 76.342C26.2097 76.342 27.8201 72.467 28.1854 70.2299C28.6844 67.2349 27.1706 62.8897 21.3242 62.8897C15.5113 62.8897 12.9862 67.0373 12.0233 71.5468C11.0603 76.0889 12.3221 80.0714 18.1021 80.0388L22.6622 80.0221L26.9236 80.0069C27.008 80.0027 27.0892 79.9729 27.156 79.9216C27.2229 79.8702 27.2722 79.7998 27.2973 79.7198L28.0398 76.9141C28.0811 76.756 27.981 76.627 27.8166 76.6256L27.1048 76.6215L26.3931 76.6173C26.2538 76.6166 26.174 76.5265 26.1908 76.4079L26.2097 76.342ZM54.9872 73.7478C54.9872 73.7733 54.9822 73.7986 54.9724 73.8221C54.9626 73.8457 54.9482 73.8671 54.9301 73.8852C54.9119 73.9033 54.8903 73.9176 54.8666 73.9274C54.8428 73.9372 54.8173 73.9423 54.7916 73.9423C54.7659 73.9424 54.7404 73.9374 54.7166 73.9277C54.6928 73.9179 54.6712 73.9037 54.6529 73.8857C54.6347 73.8677 54.6202 73.8463 54.6103 73.8228C54.6004 73.7992 54.5953 73.774 54.5953 73.7485C54.5952 73.697 54.6157 73.6476 54.6524 73.6111C54.6891 73.5746 54.7389 73.5541 54.7909 73.554C54.8429 73.5539 54.8927 73.5743 54.9296 73.6106C54.9664 73.6469 54.9871 73.6963 54.9872 73.7478Z" fill="#0868AC"/>
</svg>
