<svg width="41" height="41" viewBox="0 0 41 41" fill="none" xmlns="http://www.w3.org/2000/svg">
<path d="M14.6367 40.3125C18.3555 40.3125 21.3555 37.3125 21.3555 33.5938V26.875H14.6367C10.918 26.875 7.91797 29.875 7.91797 33.5938C7.91797 37.3125 10.918 40.3125 14.6367 40.3125ZM7.91797 20.1562C7.91797 16.4375 10.918 13.4375 14.6367 13.4375H21.3555V26.875H14.6367C10.918 26.875 7.91797 23.875 7.91797 20.1562ZM7.91797 6.71875C7.91797 3 10.918 0 14.6367 0H21.3555V13.4375H14.6367C10.918 13.4375 7.91797 10.4375 7.91797 6.71875ZM21.3555 0H28.0742C31.793 0 34.793 3 34.793 6.71875C34.793 10.4375 31.793 13.4375 28.0742 13.4375H21.3555V0ZM34.793 20.1562C34.793 23.875 31.793 26.875 28.0742 26.875C24.3555 26.875 21.3555 23.875 21.3555 20.1562C21.3555 16.4375 24.3555 13.4375 28.0742 13.4375C31.793 13.4375 34.793 16.4375 34.793 20.1562Z" fill="white"/>
</svg>
