<svg width="20" height="20" viewBox="0 0 20 20" fill="none" xmlns="http://www.w3.org/2000/svg">
<g id="Iconly/Light-Outline/Filter 2">
<g id="Filter 2">
<mask id="mask0_873_2006" style="mask-type:luminance" maskUnits="userSpaceOnUse" x="1" y="1" width="17" height="17">
<path id="Clip 2" fill-rule="evenodd" clip-rule="evenodd" d="M1.66699 1.66669H17.9167V17.9173H1.66699V1.66669Z" fill="white"/>
</mask>
<g mask="url(#mask0_873_2006)">
<path id="Fill 1" fill-rule="evenodd" clip-rule="evenodd" d="M7.31116 9.66561C7.32616 9.67894 7.34033 9.69144 7.35449 9.70644C8.25366 10.6281 8.74949 11.8489 8.74949 13.1448V16.4648L10.6128 15.4498C10.7595 15.3698 10.8503 15.2131 10.8503 15.0406V13.1348C10.8503 11.8439 11.3412 10.6273 12.232 9.71061L16.2628 5.42311C16.5237 5.14561 16.667 4.78144 16.667 4.39728V3.61728C16.667 3.23061 16.362 2.91644 15.9887 2.91644H3.59616C3.22199 2.91644 2.91699 3.23061 2.91699 3.61728V4.39728C2.91699 4.78144 3.06033 5.14561 3.32116 5.42228L7.31116 9.66561ZM8.45533 17.9173C8.28699 17.9173 8.12033 17.8723 7.96866 17.7823C7.67533 17.6073 7.49949 17.2981 7.49949 16.9548V13.1448C7.49949 12.1989 7.14699 11.3081 6.50449 10.6256C6.48533 10.6098 6.46616 10.5923 6.44949 10.5739L2.41116 6.27978C1.93116 5.76978 1.66699 5.10061 1.66699 4.39728V3.61728C1.66699 2.54144 2.53283 1.66644 3.59616 1.66644H15.9887C17.0512 1.66644 17.917 2.54144 17.917 3.61728V4.39728C17.917 5.09978 17.6528 5.76811 17.1745 6.27894L13.1353 10.5739C12.4662 11.2639 12.1003 12.1714 12.1003 13.1348V15.0406C12.1003 15.6706 11.7595 16.2473 11.2112 16.5473L8.91033 17.8006C8.76699 17.8781 8.61116 17.9173 8.45533 17.9173Z" fill="#6D6D6D"/>
</g>
</g>
</g>
</svg>
