<svg width="39" height="38" viewBox="0 0 39 38" fill="none" xmlns="http://www.w3.org/2000/svg">
<path fill-rule="evenodd" clip-rule="evenodd" d="M19.4552 0.594727C9.0343 0.594727 0.583984 9.04316 0.583984 19.466C0.583984 27.8041 5.99117 34.8775 13.4893 37.3732C14.4321 37.5482 14.7784 36.9638 14.7784 36.4654C14.7784 36.0154 14.7609 34.5288 14.7527 32.9519C9.50274 34.0935 8.39492 30.7254 8.39492 30.7254C7.53648 28.5441 6.29961 27.9641 6.29961 27.9641C4.58711 26.7929 6.42867 26.8172 6.42867 26.8172C8.32336 26.95 9.32148 28.7619 9.32148 28.7619C11.0046 31.6463 13.7362 30.8125 14.813 30.3307C14.9824 29.111 15.4715 28.2782 16.0112 27.8069C11.8196 27.3304 7.41305 25.7119 7.41305 18.481C7.41305 16.4207 8.15055 14.7372 9.35773 13.4154C9.16148 12.9404 8.51555 11.021 9.54023 8.4216C9.54023 8.4216 11.1246 7.91441 14.7309 10.356C16.2365 9.93754 17.8512 9.72723 19.4552 9.72004C21.0584 9.72723 22.674 9.93692 24.1824 10.3554C27.7843 7.91379 29.3668 8.42098 29.3668 8.42098C30.394 11.02 29.748 12.9397 29.5521 13.4147C30.7621 14.7366 31.4943 16.42 31.4943 18.4804C31.4943 25.7285 27.0796 27.3241 22.8774 27.7916C23.5546 28.3772 24.1577 29.526 24.1577 31.2863C24.1577 33.8113 24.1359 35.8435 24.1359 36.465C24.1359 36.9672 24.4759 37.5557 25.4321 37.3704C32.9259 34.8722 38.3268 27.801 38.3268 19.466C38.3265 9.04379 29.8771 0.595039 19.4552 0.595039V0.594727Z" fill="white"/>
<path d="M7.7323 27.6894C7.69073 27.7832 7.54323 27.8113 7.40886 27.7473C7.27136 27.686 7.1948 27.5582 7.23917 27.4641C7.2798 27.3673 7.42761 27.3407 7.56417 27.4054C7.70167 27.4669 7.7798 27.596 7.73198 27.6898L7.7323 27.6894ZM8.49667 28.5423C8.40699 28.6257 8.23105 28.5869 8.11167 28.4548C7.98792 28.3235 7.9648 28.1476 8.05636 28.0629C8.14949 27.9798 8.32011 28.0191 8.44386 28.1504C8.56699 28.2835 8.59136 28.4579 8.49698 28.5426L8.49667 28.5423ZM9.24105 29.6288C9.12542 29.7094 8.93605 29.6341 8.81917 29.4663C8.70355 29.2982 8.70355 29.0966 8.8223 29.0163C8.93886 28.9357 9.12542 29.0085 9.24417 29.1748C9.35917 29.3451 9.35917 29.5466 9.24105 29.6285V29.6288ZM10.2601 30.6791C10.157 30.7932 9.93636 30.7626 9.77511 30.6073C9.61042 30.4551 9.56449 30.2385 9.66792 30.1248C9.77292 30.0104 9.99449 30.0423 10.1567 30.1966C10.3214 30.3485 10.371 30.5654 10.2607 30.6788L10.2601 30.6791ZM11.6664 31.2888C11.6204 31.4366 11.4085 31.5038 11.1945 31.4407C10.981 31.376 10.8414 31.2032 10.8851 31.0538C10.9289 30.9048 11.1423 30.8351 11.3576 30.9023C11.571 30.9666 11.7107 31.1385 11.6664 31.2888ZM13.211 31.4016C13.2164 31.5573 13.0351 31.686 12.811 31.6891C12.5851 31.6944 12.4023 31.5682 12.4001 31.4151C12.4001 31.2579 12.5776 31.1307 12.8032 31.1263C13.0273 31.1223 13.2114 31.2473 13.2114 31.4013L13.211 31.4016ZM14.6479 31.1573C14.6748 31.3088 14.5189 31.4648 14.296 31.5063C14.0773 31.5469 13.8742 31.4526 13.846 31.3023C13.8192 31.1466 13.9779 30.9907 14.1967 30.9504C14.4198 30.9119 14.6198 31.0035 14.6479 31.1576V31.1573Z" fill="white"/>
</svg>
