<svg width="102" height="100" viewBox="0 0 102 100" fill="none" xmlns="http://www.w3.org/2000/svg">
<g clip-path="url(#clip0_104_348)">
<path d="M50.8999 100C78.5141 100 100.9 77.6142 100.9 50C100.9 22.3858 78.5141 0 50.8999 0C23.2857 0 0.899902 22.3858 0.899902 50C0.899902 77.6142 23.2857 100 50.8999 100Z" fill="#5FFE9F"/>
<path d="M71.763 52.1886V50.4196C72.2512 50.4196 72.6475 50.0236 72.6475 49.5351V44.2281C72.6475 43.7395 72.2512 43.3436 71.763 43.3436H66.9866L66.8153 42.6791C66.4241 41.1596 65.8167 39.704 65.0107 38.3575L64.6569 37.7657L68.048 34.3686C68.3894 34.0266 68.3894 33.4724 68.048 33.1303L64.2917 29.3684C63.9448 29.0378 63.3999 29.0378 63.053 29.3684L59.6556 32.7658L59.0641 32.412C57.7156 31.6056 56.2586 30.9982 54.737 30.6067L54.0729 30.434V25.6535C54.0729 25.165 53.6769 24.769 53.1884 24.769H47.8814C47.3928 24.769 46.9969 25.165 46.9969 25.6535V30.4298L46.3325 30.6015C44.8129 30.9923 43.3573 31.5997 42.0101 32.4048L41.4183 32.7589L38.0219 29.3684C37.6747 29.035 37.1264 29.035 36.7791 29.3684L33.0217 33.1248C32.8566 33.2896 32.7636 33.5135 32.7636 33.7467C32.7636 33.9803 32.8566 34.2038 33.0217 34.3686L36.4191 37.7657L36.0653 38.3575C35.2596 39.704 34.6518 41.1596 34.2611 42.6791L34.0876 43.3436H29.3068C28.8183 43.3436 28.4223 43.7395 28.4223 44.2281V49.5351C28.4223 50.0236 28.8183 50.4196 29.3068 50.4196V52.1886C27.8415 52.1886 26.6533 51.0004 26.6533 49.5351V44.2281C26.6533 42.7628 27.8415 41.5746 29.3068 41.5746H32.7291C33.0939 40.3515 33.5873 39.1705 34.201 38.0517L31.7686 35.6194C31.271 35.1229 30.9915 34.4491 30.9915 33.7467C30.9915 33.0443 31.271 32.3705 31.7686 31.8744L35.5277 28.1153C36.575 27.1129 38.2261 27.1129 39.2734 28.1153L41.7051 30.5466C42.8238 29.9333 44.0051 29.441 45.2279 29.0765V25.6535C45.2279 24.1882 46.4161 23 47.8814 23H53.1884C54.6537 23 55.8419 24.1882 55.8419 25.6535V29.0765C57.065 29.441 58.2456 29.9344 59.3647 30.5476L61.7971 28.1153C62.8447 27.1129 64.4955 27.1129 65.5431 28.1153L69.3015 31.8734C69.7987 32.3699 70.0779 33.0429 70.0779 33.7457C70.0779 34.4484 69.7987 35.1222 69.3015 35.6183L66.8692 38.0507C67.4824 39.1702 67.9755 40.3515 68.3407 41.5746H71.763C73.2283 41.5746 74.4165 42.7628 74.4165 44.2281V49.5351C74.4165 51.0004 73.2283 52.1886 71.763 52.1886Z" fill="black"/>
<path d="M62.9184 46.8801H61.1494C61.1494 41.0182 56.3973 36.2661 50.5354 36.2661C44.6735 36.2661 39.9213 41.0182 39.9213 46.8801H38.1523C38.1523 40.0411 43.6964 34.4971 50.5354 34.4971C57.374 34.4971 62.9184 40.0411 62.9184 46.8801Z" fill="black"/>
<path d="M50.535 53.959C47.6041 53.959 45.228 51.5826 45.228 48.652C45.228 45.721 47.6041 43.345 50.535 43.345C53.4663 43.345 55.8421 45.721 55.8421 48.652C55.8389 51.5819 53.465 53.9559 50.535 53.959ZM50.535 45.114C48.5812 45.114 46.997 46.6981 46.997 48.652C46.997 50.6058 48.5812 52.19 50.535 52.19C52.4889 52.19 54.0731 50.6058 54.0731 48.652C54.0731 46.6981 52.4889 45.114 50.535 45.114Z" fill="black"/>
<path d="M65.5717 57.4956C62.6407 57.4956 60.2646 55.1192 60.2646 52.1886C60.2646 49.2576 62.6407 46.8816 65.5717 46.8816C68.5026 46.8816 70.8787 49.2576 70.8787 52.1886C70.8756 55.1185 68.5016 57.4925 65.5717 57.4956ZM65.5717 48.6506C63.6178 48.6506 62.0337 50.2347 62.0337 52.1886C62.0337 54.1424 63.6178 55.7266 65.5717 55.7266C67.5255 55.7266 69.1097 54.1424 69.1097 52.1886C69.1097 50.2347 67.5255 48.6506 65.5717 48.6506Z" fill="black"/>
<path d="M35.4989 57.4956C32.568 57.4956 30.1919 55.1192 30.1919 52.1886C30.1919 49.2576 32.568 46.8816 35.4989 46.8816C38.4302 46.8816 40.8059 49.2576 40.8059 52.1886C40.8028 55.1185 38.4288 57.4925 35.4989 57.4956ZM35.4989 48.6506C33.5451 48.6506 31.9609 50.2347 31.9609 52.1886C31.9609 54.1424 33.5451 55.7266 35.4989 55.7266C37.4528 55.7266 39.0369 54.1424 39.0369 52.1886C39.0369 50.2347 37.4528 48.6506 35.4989 48.6506Z" fill="black"/>
<path d="M73.5902 59.765C72.2721 58.859 70.7093 58.3757 69.1096 58.3802H62.0336C61.6035 58.384 61.174 58.423 60.75 58.4966C60.1841 57.6114 59.4478 56.8478 58.584 56.2491C58.4545 56.1513 58.3184 56.0625 58.1763 55.9841C56.9391 55.2347 55.5194 54.8401 54.0731 54.8422H46.9971C44.2921 54.8325 41.7716 56.2128 40.3225 58.4966C39.8976 58.423 39.4674 58.384 39.0365 58.3802H31.9605C30.3622 58.3757 28.7998 58.8583 27.4824 59.7632C25.305 61.2448 24.0014 63.7072 24 66.3407V69.8787C24.0031 72.2938 25.4083 74.4871 27.6019 75.4987C28.4118 75.8802 29.2966 76.0754 30.1915 76.0702H39.0365V74.3012H31.076V64.5717H29.307V74.2124C28.9739 74.1457 28.6505 74.0379 28.3437 73.8925C26.7769 73.17 25.7725 71.6038 25.769 69.8787V66.3407C25.7711 64.2911 26.7865 62.3753 28.4809 61.2227C29.5046 60.5199 30.7184 60.1457 31.9605 60.1492H39.0365C39.1924 60.1492 39.3427 60.1658 39.4947 60.1761C39.1955 61.0198 39.0403 61.9078 39.0365 62.8027V71.6477C39.0397 74.0891 41.018 76.0671 43.4591 76.0702H46.1126V61.9182H44.3436V74.3012H43.4591C41.9938 74.3012 40.8055 73.113 40.8055 71.6477V62.8027C40.8055 59.3828 43.5779 56.6112 46.9971 56.6112H54.0731C55.2112 56.6118 56.3265 56.927 57.297 57.5212C57.3869 57.5703 57.4732 57.6256 57.5551 57.6864C58.384 58.2541 59.0643 59.0124 59.5383 59.8976C60.0148 60.7918 60.2646 61.7893 60.2646 62.8027V71.6477C60.2646 73.113 59.0764 74.3012 57.6111 74.3012H56.7266V61.9182H54.9576V76.0702H57.6111C60.0525 76.0671 62.0305 74.0891 62.0336 71.6477V62.8027C62.0295 61.9078 61.875 61.0202 61.5762 60.1761C61.7285 60.1658 61.8788 60.1492 62.0336 60.1492H69.1096C70.3524 60.1457 71.5672 60.5209 72.5917 61.2244C74.2847 62.3777 75.2987 64.2922 75.3011 66.3407V69.8787C75.298 71.61 74.286 73.1807 72.7116 73.8994C72.4092 74.0424 72.0907 74.1475 71.7631 74.2124V64.5717H69.9941V74.3012H62.0336V76.0702H70.8786C71.7683 76.0757 72.648 75.8829 73.4534 75.5056C75.6543 74.4971 77.0667 72.2997 77.0702 69.8787V66.3407C77.0688 63.7083 75.7662 61.2468 73.5902 59.765Z" fill="black"/>
<path d="M46.9971 74.2997H54.0731V76.0687H46.9971V74.2997Z" fill="black"/>
</g>
<defs>
<clipPath id="clip0_104_348">
<rect width="101" height="100" fill="white" transform="translate(0.5)"/>
</clipPath>
</defs>
</svg>
