<svg width="100" height="100" viewBox="0 0 100 100" fill="none" xmlns="http://www.w3.org/2000/svg">
<path d="M49.8155 100C77.3278 100 99.631 77.6142 99.631 50C99.631 22.3858 77.3278 0 49.8155 0C22.3032 0 0 22.3858 0 50C0 77.6142 22.3032 100 49.8155 100Z" fill="#5FFE9F"/>
<path d="M26.4907 45.8496H23.7125C23.2368 45.8496 22.7806 46.0533 22.4442 46.416C22.1079 46.7787 21.9189 47.2706 21.9189 47.7834V55.54C21.9189 56.0528 22.1079 56.5447 22.4442 56.9074C22.7806 57.27 23.2368 57.4738 23.7125 57.4738H26.4907" stroke="#1F1F1F" stroke-width="3.11405" stroke-linecap="round"/>
<path d="M73.9596 45.8496H75.9173C76.393 45.8496 76.8492 46.0533 77.1856 46.416C77.5219 46.7787 77.7109 47.2706 77.7109 47.7834V55.54C77.7109 56.0528 77.5219 56.5447 77.1856 56.9074C76.8492 57.27 76.393 57.4738 75.9173 57.4738H73.1392" stroke="#1F1F1F" stroke-width="3.11405" stroke-linecap="round"/>
<path d="M60.2123 70.5232H63.8578C67.9737 67.5176 71.0298 63.2702 72.5822 58.3979C74.1345 53.5255 74.1022 48.2822 72.4899 43.4296C70.8777 38.577 67.7694 34.368 63.6168 31.4141C59.4642 28.4601 54.4835 26.9151 49.3984 27.0036C44.3134 27.092 39.3887 28.8093 35.3401 31.9059C31.2915 35.0025 28.3297 39.3171 26.8852 44.2229C25.4406 49.1286 25.5885 54.3699 27.3073 59.1853C29.0262 64.0008 32.2264 68.1394 36.4431 71" stroke="#1F1F1F" stroke-width="3" stroke-linecap="round"/>
<path d="M57.3702 72.8249H47.7345C47.2301 72.8227 46.747 72.6166 46.3903 72.2516C46.0337 71.8866 45.8323 71.3922 45.8301 70.876V70.6218C45.8326 70.1057 46.034 69.6114 46.3906 69.2465C46.7472 68.8815 47.2302 68.6754 47.7345 68.6729H57.3702C57.8746 68.6751 58.3577 68.8811 58.7144 69.2462C59.0711 69.6112 59.2724 70.1056 59.2746 70.6218V70.876C59.2726 71.3923 59.0714 71.8869 58.7147 72.2519C58.358 72.617 57.8747 72.823 57.3702 72.8249Z" stroke="#1F1F1F" stroke-width="3" stroke-linecap="round"/>
<path d="M35.057 55.8622H41.2785V54.3537H37.6138V54.294L38.8879 53.0454C40.682 51.4091 41.1635 50.5909 41.1635 49.598C41.1635 48.0852 39.9277 47.0156 38.057 47.0156C36.2246 47.0156 34.9675 48.1108 34.9717 49.8239H36.7231C36.7189 48.9886 37.2473 48.4773 38.0442 48.4773C38.8112 48.4773 39.3822 48.9545 39.3822 49.7216C39.3822 50.4162 38.9561 50.8935 38.1635 51.6562L35.057 54.5327V55.8622ZM42.2959 54.3281H46.4849V55.8622H48.2491V54.3281H49.3315V52.8494H48.2491V47.1349H45.9394L42.2959 52.875V54.3281ZM46.519 52.8494H44.1539V52.7812L46.4508 49.1463H46.519V52.8494ZM55.9174 54.652L57.0381 53.5312L55.0523 51.5497L57.0381 49.5682L55.9174 48.4389L53.9316 50.4247L51.9415 48.4389L50.8251 49.5682L52.8066 51.5497L50.8251 53.5312L51.9415 54.652L53.9316 52.6662L55.9174 54.652ZM59.0623 55.8622H60.9671L64.5893 48.6648V47.1349H58.4657V48.6435H62.6802V48.7031L59.0623 55.8622Z" fill="#1F1F1F"/>
</svg>
