<svg width="36" height="37" viewBox="0 0 36 37" fill="none" xmlns="http://www.w3.org/2000/svg">
<rect y="0.443359" width="36" height="36" rx="18" fill="#E6EDFF"/>
<g clip-path="url(#clip0_4055_15330)">
<path d="M19.0624 6.44336C11.8433 6.44336 6 12.2856 6 19.5058C6 19.8945 6.31509 20.2096 6.70378 20.2096H19.0624C19.4511 20.2096 19.7662 19.8945 19.7662 19.5058V7.14714C19.7662 6.75845 19.4511 6.44336 19.0624 6.44336Z" fill="#0038FF"/>
<path d="M14.0554 22.2445C13.932 22.0191 13.6953 21.8789 13.4382 21.8789H9.27601C9.052 21.8789 8.84129 21.9855 8.70873 22.1662C8.57612 22.3469 8.5375 22.5797 8.60458 22.7935C9.93016 27.0155 13.7536 30.1544 18.3588 30.4436V25.1683C16.5525 24.9441 14.9442 23.8671 14.0554 22.2445Z" fill="#0038FF"/>
<path d="M22.3501 9.04789C22.1364 8.98086 21.9034 9.01953 21.7228 9.15205C21.5422 9.28466 21.4355 9.49532 21.4355 9.71938V13.8816C21.4355 14.1386 21.5757 14.3752 21.8012 14.4987C23.4236 15.3876 24.5007 16.9958 24.7249 18.8021H30.0002C29.7104 14.1869 26.5621 10.3704 22.3501 9.04789Z" fill="#0038FF"/>
<path d="M24.7254 20.21C24.4061 22.795 22.3512 24.85 19.7661 25.1693V30.4433C25.2577 30.0976 29.6532 25.709 29.9994 20.21H24.7254Z" fill="#0038FF"/>
</g>
<defs>
<clipPath id="clip0_4055_15330">
<rect width="24" height="24" fill="white" transform="translate(6 6.44336)"/>
</clipPath>
</defs>
</svg>
