<svg width="107" height="40" viewBox="0 0 107 40" fill="none" xmlns="http://www.w3.org/2000/svg">
<path fill-rule="evenodd" clip-rule="evenodd" d="M50.45 15.2645C49.398 15.2645 48.5039 14.4878 48.5039 13.363C48.5039 12.2648 49.398 11.4614 50.45 11.4614C51.4756 11.4614 52.3699 12.2648 52.3699 13.363C52.3699 14.4878 51.4756 15.2645 50.45 15.2645Z" fill="white"/>
<mask id="mask0_1825_1492" style="mask-type:luminance" maskUnits="userSpaceOnUse" x="0" y="0" width="107" height="40">
<path fill-rule="evenodd" clip-rule="evenodd" d="M0.912109 40H106.285V0H0.912109V40Z" fill="white"/>
</mask>
<g mask="url(#mask0_1825_1492)">
<path fill-rule="evenodd" clip-rule="evenodd" d="M48.8203 28.2704H52.0813V16.2988H48.8203V28.2704Z" fill="white"/>
<path fill-rule="evenodd" clip-rule="evenodd" d="M55.8931 24.7087C56.1561 25.5657 56.8926 26.0209 57.8656 26.0209C58.8649 26.0209 59.5225 25.6192 59.5225 24.8426C59.5225 24.3069 59.1544 24.0391 58.3388 23.8248L55.9719 23.2892C54.1837 22.8607 52.9214 21.9234 52.9214 19.9146C52.9214 17.5846 54.9725 16.0312 57.6026 16.0312C60.5742 16.0312 62.2049 17.4775 62.5995 19.7272H59.496C59.2857 19.0575 58.7335 18.5487 57.6551 18.5487C56.8663 18.5487 56.1034 18.9238 56.1034 19.6736C56.1034 20.1557 56.4191 20.4235 57.1554 20.611L59.575 21.1734C61.6263 21.6823 62.7046 22.8339 62.7046 24.6551C62.7046 27.0923 60.6271 28.5385 57.8919 28.5385C55.0252 28.5385 53.0002 27.1458 52.6582 24.7087H55.8931Z" fill="white"/>
<path fill-rule="evenodd" clip-rule="evenodd" d="M65.9143 20.9858H70.4641C70.4378 19.727 69.7016 18.7361 68.3601 18.7361C67.0978 18.7361 66.2036 19.5128 65.9143 20.9858ZM73.5941 24.3604C73.1732 26.9046 71.3324 28.5383 68.3867 28.5383C64.9677 28.5383 62.6797 25.994 62.6797 22.298C62.6797 18.6825 65.0467 16.031 68.3339 16.031C71.7793 16.031 73.6729 18.4682 73.6729 21.9767V22.9944H65.8358C65.9408 24.7889 66.9404 25.8601 68.3867 25.8601C69.4911 25.8601 70.3066 25.378 70.5695 24.3604H73.5941Z" fill="white"/>
<path fill-rule="evenodd" clip-rule="evenodd" d="M74.252 16.2988H77.5129V17.3969C78.1443 16.647 79.3014 16.031 80.6688 16.031C83.3251 16.031 84.8242 17.7987 84.8242 20.4501V28.2704H81.5632V21.1464C81.5632 19.8876 80.932 19.0306 79.6433 19.0306C78.6438 19.0306 77.7759 19.6467 77.5129 20.6912V28.2704H74.252V16.2988Z" fill="white"/>
<path fill-rule="evenodd" clip-rule="evenodd" d="M88.5064 24.7087C88.7694 25.5657 89.5058 26.0209 90.4788 26.0209C91.4781 26.0209 92.1357 25.6192 92.1357 24.8426C92.1357 24.3069 91.7676 24.0391 90.9521 23.8248L88.5852 23.2892C86.797 22.8607 85.5347 21.9234 85.5347 19.9146C85.5347 17.5846 87.5858 16.0312 90.2159 16.0312C93.1875 16.0312 94.8182 17.4775 95.2128 19.7272H92.1092C91.899 19.0575 91.3468 18.5487 90.2684 18.5487C89.4796 18.5487 88.7167 18.9238 88.7167 19.6736C88.7167 20.1557 89.0324 20.4235 89.7687 20.611L92.1883 21.1734C94.2396 21.6823 95.3179 22.8339 95.3179 24.6551C95.3179 27.0923 93.2403 28.5385 90.5051 28.5385C87.6385 28.5385 85.6135 27.1458 85.2715 24.7087H88.5064Z" fill="white"/>
<path fill-rule="evenodd" clip-rule="evenodd" d="M98.5276 20.9858H103.077C103.051 19.727 102.315 18.7361 100.973 18.7361C99.711 18.7361 98.8169 19.5128 98.5276 20.9858ZM106.207 24.3604C105.786 26.9046 103.946 28.5383 101 28.5383C97.5809 28.5383 95.293 25.994 95.293 22.298C95.293 18.6825 97.66 16.031 100.947 16.031C104.393 16.031 106.286 18.4682 106.286 21.9767V22.9944H98.449C98.5541 24.7889 99.5536 25.8601 101 25.8601C102.104 25.8601 102.92 25.378 103.183 24.3604H106.207Z" fill="white"/>
<path fill-rule="evenodd" clip-rule="evenodd" d="M37.9337 21.4835L33.9246 31.4034C33.5271 32.3869 32.7776 33.1537 31.8139 33.5628L22.0908 37.6904C21.1385 38.095 20.0534 38.0977 19.0991 37.6974L9.35772 33.6146C8.39193 33.2099 7.6389 32.4466 7.2373 31.465L3.18397 21.5636C2.78211 20.5821 2.77979 19.5001 3.17723 18.5168L7.18634 8.59667C7.58358 7.61349 8.3335 6.8465 9.29725 6.43726L19.0203 2.30973C19.4993 2.10632 20.0053 2.00321 20.5243 2.00321C21.0372 2.00321 21.5378 2.10397 22.0121 2.30293L31.7534 6.38564C32.7192 6.79037 33.4722 7.55365 33.8739 8.53522L37.9269 18.4367C38.3288 19.418 38.3313 20.5 37.9337 21.4835ZM39.742 17.6658L35.6888 7.76444C35.0851 6.2891 33.9532 5.14141 32.5015 4.533L22.7602 0.450365C22.0472 0.151647 21.2948 0 20.5237 0C19.7437 0 18.983 0.155148 18.2628 0.460664L8.53963 4.58819C7.09087 5.2034 5.96407 6.3562 5.36663 7.83404L1.35752 17.7541C0.760145 19.2324 0.76378 20.859 1.3677 22.3343L5.42103 32.2356C6.02475 33.711 7.15677 34.8587 8.60837 35.467L18.3496 39.5497C19.0625 39.8484 19.8149 40.0001 20.5859 40.0001C21.3663 40.0001 22.1269 39.8449 22.8471 39.5393L32.5701 35.4117C34.0188 34.7967 35.1457 33.6439 35.743 32.1658L39.7522 22.2459C40.3496 20.7674 40.3459 19.1409 39.742 17.6658Z" fill="white"/>
<path fill-rule="evenodd" clip-rule="evenodd" d="M32.0019 11.2566C31.7573 10.1363 30.9876 9.21117 29.943 8.78181L22.0709 5.54438C21.2348 5.20049 20.2874 5.2083 19.4565 5.56612L11.4355 9.02183C10.5025 9.42367 9.79642 10.2198 9.49806 11.2061L7.282 18.5411C6.84114 20.0002 7.37361 21.5639 8.60676 22.4323L10.4205 23.7089V21.6893V21.2739L9.72536 20.7846C9.20096 20.4153 8.97465 19.7506 9.16209 19.1303L11.3781 11.7952C11.5049 11.376 11.8051 11.0377 12.2018 10.8667L20.2227 7.41092C20.4031 7.33305 20.5938 7.29374 20.7895 7.29374C20.977 7.29374 21.1603 7.32995 21.3343 7.40157L29.2065 10.6392C29.6507 10.8217 29.9778 11.2151 30.0817 11.6912L31.9799 20.3897C32.0307 20.6232 32.0253 20.8681 31.964 21.0986L30.13 27.9949C29.9536 28.658 29.3537 29.115 28.6691 29.0878L28.6036 29.0851C28.4866 29.2339 28.358 29.3743 28.2158 29.503C28.1436 29.5684 28.0738 29.6266 28.0024 29.6813L26.2797 30.997L28.5919 31.0893C28.6372 31.091 28.6819 31.092 28.7269 31.092C30.2678 31.092 31.6256 30.0337 32.0286 28.5185L33.8627 21.6222C34.0067 21.0806 34.0198 20.5043 33.9001 19.9554L32.0019 11.2566Z" fill="white"/>
<path fill-rule="evenodd" clip-rule="evenodd" d="M20.7411 28.5404L13.5645 23.489V25.5087V25.924L19.6228 30.1882C20.1204 30.5384 20.6972 30.7448 21.2979 30.7931L21.8724 30.3543L23.7861 28.8927L21.511 28.8019C21.2348 28.791 20.9686 28.7004 20.7411 28.5404Z" fill="white"/>
<path fill-rule="evenodd" clip-rule="evenodd" d="M28.1115 21.3093L26.7519 27.1556C26.7108 27.3321 26.6098 27.4891 26.4673 27.598L24.7228 28.9303L22.2287 30.8352L20.8559 31.8838C20.7226 31.9855 20.5597 32.0385 20.3962 32.0385C20.2959 32.0385 20.1954 32.0186 20.1014 31.978L13.4427 29.115C13.1597 28.9933 12.9766 28.7123 12.9766 28.3992V25.5089V23.0739V21.1041C12.9766 20.9527 13.0196 20.8058 13.1008 20.679L15.3648 17.153C15.5064 16.9326 15.7451 16.8011 16.0036 16.8011C16.0792 16.8011 16.1545 16.8126 16.2277 16.8357L19.5399 17.8735C19.8 17.955 20.0716 17.9959 20.3432 17.9959C20.5297 17.9959 20.7163 17.9766 20.8994 17.9378L24.1489 17.2485C24.1988 17.238 24.2494 17.2329 24.2999 17.2329C24.5014 17.2329 24.7009 17.3141 24.8441 17.4597L27.9087 20.5806C28.0971 20.7727 28.173 21.045 28.1115 21.3093ZM30.0257 21.7707C30.2457 20.8255 29.9743 19.851 29.2996 19.1642L26.235 16.0433C25.7195 15.5181 25.0339 15.2288 24.3047 15.2288C24.118 15.2288 23.9305 15.2486 23.7478 15.2875L20.4984 15.9768C20.4475 15.9877 20.3952 15.9931 20.3431 15.9931C20.267 15.9931 20.1909 15.9816 20.1185 15.9586L16.8065 14.9211C16.5458 14.8393 16.2758 14.7979 16.0038 14.7979C15.079 14.7979 14.2247 15.2685 13.7188 16.0566L11.4549 19.5826C11.1636 20.0361 11.0098 20.562 11.0098 21.1039V21.6892V24.1241V28.399C11.0098 29.5194 11.6646 30.5246 12.6779 30.9603L19.3365 33.8233C19.6744 33.9684 20.0315 34.0422 20.398 34.0422C20.985 34.0422 21.5669 33.8446 22.0363 33.486L25.3442 30.9596L27.6475 29.2005C27.7082 29.1542 27.7664 29.105 27.8228 29.0539C28.2404 28.6758 28.5369 28.1734 28.6662 27.6169L30.0257 21.7707Z" fill="white"/>
</g>
</svg>
