<svg width="24" height="24" viewBox="0 0 24 24" fill="none" xmlns="http://www.w3.org/2000/svg">
<g clip-path="url(#clip0_4279_6336)">
<path d="M9 10C6.243 10 4 7.757 4 5C4 2.243 6.243 0 9 0C11.757 0 14 2.243 14 5C14 7.757 11.757 10 9 10ZM9 1.5C7.07 1.5 5.5 3.07 5.5 5C5.5 6.93 7.07 8.5 9 8.5C10.93 8.5 12.5 6.93 12.5 5C12.5 3.07 10.93 1.5 9 1.5Z" fill="#1B1C17"/>
<path d="M8.85 21.5H0.5C0.086 21.5 -0.25 21.164 -0.25 20.75V16.75C-0.25 14.131 1.881 12 4.5 12H13.5C14.952 12 16.303 12.646 17.205 13.771C17.464 14.094 17.413 14.567 17.089 14.826C16.767 15.087 16.294 15.033 16.035 14.711C15.418 13.941 14.494 13.501 13.5 13.501H4.5C2.708 13.501 1.25 14.959 1.25 16.751V20H8.85C9.264 20 9.6 20.336 9.6 20.75C9.6 21.164 9.264 21.5 8.85 21.5Z" fill="#1B1C17"/>
<path d="M16.75 23.9993C16.694 23.9993 16.638 23.9933 16.581 23.9793C16.177 23.8863 15.926 23.4843 16.018 23.0803L17.518 16.5803C17.612 16.1773 18.015 15.9223 18.417 16.0183C18.821 16.1113 19.072 16.5133 18.98 16.9173L17.48 23.4173C17.401 23.7653 17.092 23.9993 16.75 23.9993Z" fill="#1B1C17"/>
<path d="M20.7504 23C20.5454 23 20.3414 22.916 20.1924 22.752C19.9154 22.443 19.9404 21.97 20.2484 21.692L22.1294 20L20.2484 18.308C19.9404 18.031 19.9154 17.557 20.1924 17.248C20.4704 16.94 20.9444 16.916 21.2524 17.192L23.7524 19.442C23.9104 19.585 24.0004 19.787 24.0004 20C24.0004 20.213 23.9104 20.415 23.7524 20.558L21.2524 22.808C21.1084 22.937 20.9294 23 20.7504 23Z" fill="#1B1C17"/>
<path d="M14.25 22.9997C14.071 22.9997 13.892 22.9367 13.748 22.8077L11.248 20.5577C11.09 20.4147 11 20.2127 11 19.9997C11 19.7867 11.09 19.5847 11.248 19.4417L13.748 17.1917C14.056 16.9157 14.53 16.9407 14.808 17.2477C15.085 17.5567 15.06 18.0297 14.752 18.3077L12.871 19.9997L14.752 21.6917C15.06 21.9687 15.085 22.4427 14.808 22.7517C14.659 22.9157 14.455 22.9997 14.25 22.9997Z" fill="#1B1C17"/>
</g>
<defs>
<clipPath id="clip0_4279_6336">
<rect width="24" height="24" fill="white"/>
</clipPath>
</defs>
</svg>
