<svg width="41" height="40" viewBox="0 0 41 40" fill="none" xmlns="http://www.w3.org/2000/svg">
<path d="M36.9902 0.9374H4.49023C3.75283 0.929896 3.04257 1.21523 2.51529 1.73078C1.98802 2.24634 1.6868 2.95002 1.67773 3.6874V36.3187C1.68844 37.0549 1.99038 37.757 2.51748 38.2712C3.04457 38.7854 3.7539 39.0699 4.49023 39.0624H36.9902C37.7277 39.0682 38.4375 38.7819 38.9645 38.2661C39.4915 37.7502 39.7928 37.0467 39.8027 36.3093V3.67803C39.7896 2.9428 39.4868 2.24248 38.9601 1.72929C38.4335 1.2161 37.7256 0.931518 36.9902 0.9374Z" fill="white"/>
<path d="M7.32109 15.228H12.9805V33.4374H7.32109V15.228ZM10.1523 6.16553C10.8014 6.16553 11.436 6.35805 11.9756 6.71874C12.5153 7.07942 12.9359 7.59207 13.1841 8.19182C13.4324 8.79157 13.4972 9.45148 13.3703 10.0881C13.2435 10.7247 12.9306 11.3093 12.4714 11.7681C12.0122 12.2268 11.4273 12.5391 10.7906 12.6654C10.1539 12.7916 9.49401 12.7262 8.8945 12.4774C8.29498 12.2285 7.78274 11.8075 7.42257 11.2675C7.06239 10.7275 6.87048 10.0928 6.8711 9.44365C6.87192 8.57395 7.21799 7.74016 7.83325 7.12548C8.44852 6.5108 9.28264 6.16553 10.1523 6.16553ZM16.5305 15.228H21.9555V17.728H22.0305C22.7867 16.2968 24.6305 14.7874 27.3836 14.7874C33.1148 14.7749 34.1773 18.5468 34.1773 23.4374V33.4374H28.518V24.578C28.518 22.4687 28.4805 19.753 25.5773 19.753C22.6742 19.753 22.1805 22.053 22.1805 24.4405V33.4374H16.5305V15.228Z" fill="#00218F"/>
</svg>
