<svg width="24" height="25" viewBox="0 0 24 25" fill="none" xmlns="http://www.w3.org/2000/svg">
<path d="M16.9395 3.19043C18.2805 3.19043 19.5705 3.72043 20.5195 4.67143C21.4695 5.62043 22.0005 6.90043 22.0005 8.24043V16.1404C22.0005 18.9304 19.7305 21.1904 16.9395 21.1904H7.06049C4.26949 21.1904 2.00049 18.9304 2.00049 16.1404V8.24043C2.00049 5.45043 4.25949 3.19043 7.06049 3.19043H16.9395ZM18.0705 8.39043C17.8605 8.37943 17.6605 8.45043 17.5095 8.59043L13.0005 12.1904C12.4205 12.6714 11.5895 12.6714 11.0005 12.1904L6.50049 8.59043C6.18949 8.36043 5.75949 8.39043 5.50049 8.66043C5.23049 8.93043 5.20049 9.36043 5.42949 9.66043L5.56049 9.79043L10.1105 13.3404C10.6705 13.7804 11.3495 14.0204 12.0605 14.0204C12.7695 14.0204 13.4605 13.7804 14.0195 13.3404L18.5305 9.73043L18.6105 9.65043C18.8495 9.36043 18.8495 8.94043 18.5995 8.65043C18.4605 8.50143 18.2695 8.41043 18.0705 8.39043Z" fill="#5FFE9F"/>
</svg>
