<svg width="24" height="24" viewBox="0 0 24 24" fill="none" xmlns="http://www.w3.org/2000/svg">
<path d="M18.5622 21.6458L16.8072 21.1958L16.0272 22.8233C15.7497 23.3933 14.9397 23.3933 14.6697 22.8158L13.0947 19.4408C14.9172 19.2458 16.5972 18.5633 17.9997 17.5358L19.4247 20.5958C19.6947 21.1733 19.1772 21.7958 18.5622 21.6458Z" fill="#00218F"/>
<path d="M10.9053 19.4408L9.33032 22.8158C9.06032 23.3933 8.25032 23.3933 7.97282 22.8233L7.19282 21.1958L5.43782 21.6458C4.82282 21.7958 4.30532 21.1733 4.57532 20.5958L6.00032 17.5358C7.40282 18.5633 9.08282 19.2458 10.9053 19.4408Z" fill="#00218F"/>
<path d="M12 0.75C7.23675 0.75 3.375 4.61175 3.375 9.375C3.375 14.1383 7.23675 18 12 18C16.7633 18 20.625 14.1383 20.625 9.375C20.625 4.61175 16.7633 0.75 12 0.75ZM15.8917 9.17325L14.505 10.5247L14.832 12.4335C14.94 13.0627 14.2793 13.5435 13.7137 13.2457L12 12.345L10.2863 13.2457C9.72075 13.5427 9.06 13.0627 9.168 12.4335L9.495 10.5247L8.10825 9.17325C7.65075 8.727 7.9035 7.95075 8.53575 7.8585L10.452 7.58025L11.3093 5.844C11.592 5.271 12.4088 5.271 12.6915 5.844L13.5487 7.58025L15.465 7.8585C16.0973 7.95 16.3493 8.727 15.8925 9.17325H15.8917Z" fill="#00218F"/>
</svg>
