<svg width="24" height="24" viewBox="0 0 24 24" fill="none" xmlns="http://www.w3.org/2000/svg">
<g id="milestone">
<g id="Icon">
<path id="Vector" fill-rule="evenodd" clip-rule="evenodd" d="M15.25 11V13C15.25 14.519 16.481 15.75 18 15.75H20C21.519 15.75 22.75 14.519 22.75 13V11C22.75 9.481 21.519 8.25 20 8.25H18C16.481 8.25 15.25 9.481 15.25 11Z" fill="#0085FF"/>
<path id="Vector_2" fill-rule="evenodd" clip-rule="evenodd" d="M1.25 4V6C1.25 7.519 2.481 8.75 4 8.75H6C7.519 8.75 8.75 7.519 8.75 6V4C8.75 2.481 7.519 1.25 6 1.25H4C2.481 1.25 1.25 2.481 1.25 4Z" fill="#0085FF"/>
<path id="Vector_3" fill-rule="evenodd" clip-rule="evenodd" d="M1.25 18V20C1.25 21.519 2.481 22.75 4 22.75H6C7.519 22.75 8.75 21.519 8.75 20V18C8.75 16.481 7.519 15.25 6 15.25H4C2.481 15.25 1.25 16.481 1.25 18Z" fill="#0085FF"/>
<path id="Vector_4" fill-rule="evenodd" clip-rule="evenodd" d="M4.961 16.749L5 16.75L5.032 16.746C5.176 16.726 5.75 16.604 5.75 15.987V15C5.75 14.403 5.987 13.831 6.409 13.409C6.831 12.987 7.403 12.75 8 12.75H16C16.414 12.75 16.75 12.414 16.75 12C16.75 11.586 16.414 11.25 16 11.25H8C7.005 11.25 6.052 11.645 5.348 12.348C4.645 13.052 4.25 14.005 4.25 15V15.987V15.993V16C4.25 16.052 4.255 16.103 4.266 16.152C4.286 16.259 4.326 16.347 4.378 16.419C4.506 16.609 4.719 16.737 4.961 16.749Z" fill="#0085FF"/>
<path id="Vector_5" fill-rule="evenodd" clip-rule="evenodd" d="M18.961 9.749L19 9.75L19.032 9.746C19.176 9.726 19.75 9.604 19.75 8.987C19.75 8.913 19.75 8.517 19.75 8C19.75 7.005 19.355 6.052 18.652 5.348C17.948 4.645 16.995 4.25 16 4.25H8C7.586 4.25 7.25 4.586 7.25 5C7.25 5.414 7.586 5.75 8 5.75H16C16.597 5.75 17.169 5.987 17.591 6.409C18.013 6.831 18.25 7.403 18.25 8V8.987V8.993V9C18.25 9.052 18.255 9.103 18.266 9.152C18.286 9.259 18.326 9.347 18.378 9.419C18.506 9.609 18.719 9.737 18.961 9.749Z" fill="#0085FF"/>
<path id="Vector_6" fill-rule="evenodd" clip-rule="evenodd" d="M8 19.75H15C15.303 19.75 15.577 19.567 15.693 19.287C15.809 19.007 15.745 18.684 15.53 18.47L13.53 16.47C13.238 16.177 12.762 16.177 12.47 16.47C12.177 16.762 12.177 17.238 12.47 17.53L13.189 18.25H8C7.586 18.25 7.25 18.586 7.25 19C7.25 19.414 7.586 19.75 8 19.75Z" fill="#0085FF"/>
<path id="Vector_7" fill-rule="evenodd" clip-rule="evenodd" d="M14.47 18.47L12.47 20.47C12.177 20.762 12.177 21.238 12.47 21.53C12.762 21.823 13.238 21.823 13.53 21.53L15.53 19.53C15.823 19.238 15.823 18.762 15.53 18.47C15.238 18.177 14.762 18.177 14.47 18.47Z" fill="#0085FF"/>
</g>
</g>
</svg>
