<svg width="61" height="60" viewBox="0 0 61 60" fill="none" xmlns="http://www.w3.org/2000/svg">
<path d="M59.3168 15.9654C59.3164 14.7327 59.1924 13.5031 58.9465 12.2951C58.7005 11.0585 58.2824 9.8625 57.7043 8.74199C57.1002 7.65668 56.3494 6.6598 55.473 5.77949C54.5692 4.89515 53.5194 4.1736 52.3699 3.64668C51.2355 3.07467 50.0222 2.67496 48.7699 2.46074C47.5277 2.22168 46.1637 2.22168 44.9215 2.10449H14.2793C13.3234 2.12006 12.3697 2.19992 11.4246 2.34355C10.4867 2.45397 9.5686 2.69375 8.69648 3.05605C8.44805 3.17324 8.07773 3.29512 7.8293 3.4123C7.00418 3.8546 6.21987 4.36911 5.48555 4.94981C5.23711 5.18887 4.98867 5.30605 4.74023 5.54043C3.82667 6.38778 3.07115 7.39091 2.50898 8.50293C1.89508 9.60769 1.47494 10.8094 1.2668 12.0561C1.08207 13.2725 0.95848 14.4975 0.896484 15.7264V44.0342C0.89687 45.2669 1.02093 46.4965 1.2668 47.7045C1.51279 48.9411 1.93092 50.1371 2.50898 51.2576C3.1131 52.3429 3.86392 53.3398 4.74023 54.2201C5.64406 55.1045 6.69387 55.826 7.84336 56.3529C8.97776 56.9249 10.1911 57.3246 11.4434 57.5389C12.6855 57.7779 14.0496 57.7779 15.2918 57.8951H44.9262C46.2172 57.8942 47.5054 57.7749 48.7746 57.5389C50.0269 57.3246 51.2402 56.9249 52.3746 56.3529C53.4995 55.7837 54.5432 55.0664 55.4777 54.2201C56.3913 53.3728 57.1468 52.3696 57.709 51.2576C58.3229 50.1529 58.743 48.9511 58.9512 47.7045C59.1359 46.488 59.2595 45.263 59.3215 44.0342V15.9654H59.3168Z" fill="#F05138"/>
<path d="M39.9432 45.2342C34.7354 48.1076 27.5775 48.4029 20.3729 45.4545C14.7554 43.1752 9.95249 39.2607 6.58691 34.2186C8.151 35.4158 9.85979 36.4112 11.6729 37.1811C19.1119 40.5092 26.5463 40.2795 31.7822 37.1811C24.3291 31.7154 18.001 24.6092 13.2854 18.8061C12.3548 17.8253 11.5241 16.7544 10.8057 15.6092C16.5057 20.5826 25.5713 26.8592 28.7963 28.6357C24.1916 23.9177 19.9602 18.8494 16.14 13.4764C22.4902 19.6474 29.4779 25.1266 36.9854 29.8217C37.3182 29.9998 37.576 30.1498 37.7822 30.2904C38.0023 29.7532 38.1917 29.2039 38.3494 28.6451C40.0885 22.6029 38.101 15.7357 33.7604 10.0498C43.8104 15.8482 49.7869 26.742 47.2838 35.8639C47.2182 36.1123 47.1479 36.3326 47.0728 36.5904L47.1619 36.6936C52.126 42.6139 50.7619 48.8811 50.1385 47.7092C47.4432 42.6561 42.4604 44.217 39.9432 45.2342Z" fill="#FEFEFE"/>
</svg>
