<svg width="24" height="24" viewBox="0 0 24 24" fill="none" xmlns="http://www.w3.org/2000/svg">
<path d="M23.0086 1.01235C22.425 0.413405 21.5613 0.190267 20.756 0.425149L1.97665 5.88615C1.12697 6.12221 0.524719 6.79984 0.362486 7.66069C0.196752 8.53679 0.775655 9.64896 1.53197 10.114L7.40387 13.723C8.00612 14.0929 8.78343 14.0001 9.28181 13.4975L16.0057 6.73173C16.3442 6.3794 16.9044 6.3794 17.2429 6.73173C17.5814 7.07231 17.5814 7.62428 17.2429 7.9766L10.5073 14.7435C10.0078 15.245 9.9144 16.026 10.282 16.632L13.8699 22.5628C14.29 23.2674 15.0137 23.6667 15.8073 23.6667C15.9007 23.6667 16.0057 23.6667 16.0991 23.655C17.0095 23.5375 17.7331 22.9151 18.0015 22.0343L23.5688 3.27896C23.8139 2.48037 23.5922 1.6113 23.0086 1.01235Z" fill="#C5C5C5"/>
</svg>
