<svg width="40" height="40" viewBox="0 0 40 40" fill="none" xmlns="http://www.w3.org/2000/svg">
<path d="M20 7.49996C23.314 7.50376 26.4913 8.82194 28.8346 11.1653C31.178 13.5087 32.4962 16.6859 32.5 20C32.5 20.3315 32.6317 20.6494 32.8661 20.8838C33.1005 21.1183 33.4185 21.25 33.75 21.25C34.0815 21.25 34.3995 21.1183 34.6339 20.8838C34.8683 20.6494 35 20.3315 35 20C35.0011 16.8687 34.0219 13.8156 32.1997 11.2691C30.3775 8.72255 27.8039 6.81039 24.8398 5.80087C21.8756 4.79135 18.6699 4.73513 15.6722 5.64009C12.6745 6.54505 10.0353 8.36578 8.125 10.8468V8.51933C8.125 8.18781 7.9933 7.86987 7.75888 7.63545C7.52446 7.40103 7.20652 7.26933 6.875 7.26933C6.54348 7.26933 6.22554 7.40103 5.99112 7.63545C5.7567 7.86987 5.625 8.18781 5.625 8.51933V14.3125C5.625 14.644 5.7567 14.9619 5.99112 15.1963C6.22554 15.4308 6.54348 15.5625 6.875 15.5625H12.6644C12.9959 15.5625 13.3138 15.4308 13.5483 15.1963C13.7827 14.9619 13.9144 14.644 13.9144 14.3125C13.9144 13.9809 13.7827 13.663 13.5483 13.4286C13.3138 13.1942 12.9959 13.0625 12.6644 13.0625H9.6125C10.754 11.3536 12.2989 9.95216 14.1105 8.98201C15.9222 8.01187 17.9449 7.50286 20 7.49996Z" fill="#0085FF"/>
<path d="M20 35C22.2944 34.9969 24.5577 34.4683 26.6161 33.4548C28.6745 32.4413 30.4735 30.9698 31.875 29.1531V31.4806C31.875 31.8121 32.0067 32.1301 32.2411 32.3645C32.4755 32.5989 32.7935 32.7306 33.125 32.7306C33.4565 32.7306 33.7745 32.5989 34.0089 32.3645C34.2433 32.1301 34.375 31.8121 34.375 31.4806V25.6906C34.375 25.3591 34.2433 25.0412 34.0089 24.8067C33.7745 24.5723 33.4565 24.4406 33.125 24.4406H27.3356C27.0041 24.4406 26.6862 24.5723 26.4517 24.8067C26.2173 25.0412 26.0856 25.3591 26.0856 25.6906C26.0856 26.0221 26.2173 26.3401 26.4517 26.5745C26.6862 26.8089 27.0041 26.9406 27.3356 26.9406H30.3875C28.8991 29.1713 26.7325 30.8639 24.2079 31.7682C21.6833 32.6726 18.9348 32.7407 16.3685 31.9625C13.8023 31.1842 11.5545 29.601 9.95741 27.4468C8.36035 25.2926 7.49876 22.6817 7.5 20C7.5 19.6685 7.3683 19.3505 7.13388 19.1161C6.89946 18.8817 6.58152 18.75 6.25 18.75C5.91848 18.75 5.60054 18.8817 5.36612 19.1161C5.1317 19.3505 5 19.6685 5 20C5.00447 23.9769 6.58625 27.7896 9.39833 30.6017C12.2104 33.4137 16.0231 34.9955 20 35Z" fill="#0085FF"/>
</svg>
