<svg width="24" height="25" viewBox="0 0 24 25" fill="none" xmlns="http://www.w3.org/2000/svg">
<path d="M12.1415 7.0899C11.9075 7.21614 11.7616 7.45618 11.7616 7.71726V11.7827H3.73429C3.32896 11.7827 3 12.104 3 12.5C3 12.8959 3.32896 13.2172 3.73429 13.2172H11.7616V17.2827C11.7616 17.5447 11.9075 17.7848 12.1415 17.9101C12.3755 18.0372 12.6614 18.0286 12.8875 17.89L20.6573 13.1073C20.8708 12.9753 21 12.7467 21 12.5C21 12.2532 20.8708 12.0247 20.6573 11.8927L12.8875 7.10998C12.7681 7.0373 12.632 7 12.4959 7C12.3745 7 12.2521 7.0306 12.1415 7.0899Z" fill="#1B1C17"/>
</svg>
