<svg width="24" height="24" viewBox="0 0 24 24" fill="none" xmlns="http://www.w3.org/2000/svg">
<g clip-path="url(#clip0_3195_11556)">
<path d="M15.9756 0H7.99018C6.58094 0.00159801 5.43896 1.14358 5.43756 2.55282V21.4473C5.43896 22.8566 6.58094 23.9985 7.99018 23.9999H15.9756C17.3849 23.9985 18.5269 22.8566 18.5285 21.4473V2.55282C18.5269 1.14358 17.3849 0.00159801 15.9756 0ZM17.4374 21.4473C17.4366 22.2543 16.7826 22.9083 15.9756 22.9091H7.99018C7.18319 22.9083 6.5292 22.2543 6.5284 21.4473V2.55282C6.5292 1.74563 7.18319 1.09164 7.99018 1.09084H15.9756C16.7826 1.09164 17.4366 1.74563 17.4374 2.55282V21.4473Z" fill="#6D6D6D"/>
<path d="M13.6194 2.18188H10.3467C10.0454 2.18188 9.80113 2.42598 9.80113 2.72721C9.80113 3.02843 10.0454 3.27273 10.3467 3.27273H13.6194C13.9206 3.27273 14.1647 3.02843 14.1647 2.72721C14.1647 2.42598 13.9206 2.18188 13.6194 2.18188Z" fill="#6D6D6D"/>
<path d="M13.0739 20.7272C13.0739 21.3299 12.5855 21.8182 11.983 21.8182C11.3804 21.8182 10.892 21.3299 10.892 20.7272C10.892 20.1248 11.3804 19.6364 11.983 19.6364C12.5855 19.6364 13.0739 20.1248 13.0739 20.7272Z" fill="#6D6D6D"/>
</g>
<defs>
<clipPath id="clip0_3195_11556">
<rect width="24" height="24" fill="white"/>
</clipPath>
</defs>
</svg>
