<svg width="101" height="100" viewBox="0 0 101 100" fill="none" xmlns="http://www.w3.org/2000/svg">
<g clip-path="url(#clip0_104_322)">
<path d="M50.3999 100C78.0141 100 100.4 77.6142 100.4 50C100.4 22.3858 78.0141 0 50.3999 0C22.7857 0 0.399902 22.3858 0.399902 50C0.399902 77.6142 22.7857 100 50.3999 100Z" fill="#5FFE9F"/>
<path d="M60.0486 41.1083C60.0486 40.8816 59.9586 40.6642 59.7983 40.5038C59.638 40.3435 59.4205 40.2535 59.1938 40.2535H58.1111C57.9815 39.8525 57.8196 39.4628 57.6269 39.0881L58.3937 38.3213C58.4731 38.2419 58.536 38.1477 58.579 38.044C58.622 37.9403 58.6441 37.8292 58.6441 37.7169C58.6441 37.6046 58.622 37.4935 58.579 37.3898C58.536 37.2861 58.4731 37.1919 58.3937 37.1125L56.1956 34.9145C56.1163 34.8351 56.022 34.7721 55.9183 34.7291C55.8146 34.6861 55.7035 34.664 55.5912 34.664C55.479 34.664 55.3678 34.6861 55.2641 34.7291C55.1604 34.7721 55.0662 34.8351 54.9868 34.9145L54.22 35.6812C53.8453 35.4886 53.4555 35.3267 53.0546 35.1971V34.1143C53.0546 33.8876 52.9646 33.6702 52.8043 33.5099C52.6439 33.3496 52.4265 33.2595 52.1998 33.2595H49.091C48.8643 33.2595 48.6469 33.3496 48.4865 33.5099C48.3262 33.6702 48.2362 33.8876 48.2362 34.1143V35.1971C47.8352 35.3266 47.4455 35.4886 47.0708 35.6813L46.304 34.9145C46.2246 34.8351 46.1304 34.7721 46.0267 34.7291C45.923 34.6861 45.8119 34.664 45.6996 34.664C45.5873 34.664 45.4762 34.6861 45.3725 34.7291C45.2688 34.7721 45.1745 34.8351 45.0952 34.9145L42.8972 37.1125C42.8178 37.1919 42.7548 37.2861 42.7118 37.3898C42.6688 37.4935 42.6467 37.6047 42.6467 37.7169C42.6467 37.8292 42.6688 37.9403 42.7118 38.044C42.7548 38.1477 42.8178 38.242 42.8972 38.3213L43.6639 39.0881C43.4713 39.4629 43.3094 39.8526 43.1798 40.2535H42.097C41.8703 40.2535 41.6529 40.3436 41.4926 40.5039C41.3322 40.6642 41.2422 40.8816 41.2422 41.1083V44.2171C41.2422 44.4439 41.3322 44.6613 41.4926 44.8216C41.6529 44.9819 41.8703 45.072 42.097 45.072H43.1798C43.3093 45.4729 43.4713 45.8627 43.664 46.2374L42.8972 47.0042C42.8178 47.0835 42.7548 47.1777 42.7118 47.2814C42.6688 47.3851 42.6467 47.4963 42.6467 47.6086C42.6467 47.7208 42.6688 47.832 42.7118 47.9357C42.7548 48.0394 42.8178 48.1336 42.8972 48.213L45.0952 50.411C45.1746 50.4904 45.2688 50.5534 45.3725 50.5963C45.4762 50.6393 45.5874 50.6614 45.6996 50.6614C45.8119 50.6614 45.923 50.6393 46.0267 50.5963C46.1304 50.5534 46.2247 50.4904 46.304 50.411L47.0708 49.6442C47.4456 49.8368 47.8353 49.9987 48.2362 50.1284V51.2111C48.2362 51.4378 48.3263 51.6553 48.4866 51.8156C48.6469 51.9759 48.8643 52.0659 49.091 52.0659H52.1998C52.4266 52.0659 52.644 51.9759 52.8043 51.8156C52.9646 51.6553 53.0547 51.4378 53.0547 51.2111V50.1284C53.4556 49.9988 53.8454 49.8369 54.2201 49.6442L54.9869 50.411C55.0662 50.4904 55.1604 50.5533 55.2641 50.5963C55.3678 50.6393 55.479 50.6614 55.5913 50.6614C55.7035 50.6614 55.8147 50.6393 55.9184 50.5963C56.0221 50.5533 56.1163 50.4904 56.1957 50.411L58.3937 48.2129C58.4731 48.1336 58.5361 48.0393 58.579 47.9356C58.622 47.8319 58.6441 47.7208 58.6441 47.6085C58.6441 47.4963 58.622 47.3851 58.579 47.2814C58.5361 47.1777 58.4731 47.0835 58.3937 47.0041L57.6269 46.2373C57.8195 45.8626 57.9814 45.4728 58.1111 45.0719H59.1938C59.4205 45.0719 59.638 44.9819 59.7983 44.8216C59.9586 44.6612 60.0486 44.4438 60.0486 44.2171V41.1083ZM58.339 43.3623H58.0418C57.694 43.3649 57.3561 43.4786 57.0775 43.6867C56.7988 43.8948 56.594 44.1866 56.4928 44.5193C56.3873 44.8507 56.2536 45.1724 56.0934 45.481C55.9288 45.7881 55.8668 46.1397 55.9164 46.4845C55.9661 46.8293 56.1248 47.1492 56.3693 47.3973L56.5805 47.6085L55.5912 48.5978L55.38 48.3865C55.132 48.142 54.8122 47.9832 54.4674 47.9336C54.1227 47.8839 53.7711 47.946 53.4641 48.1106C53.1553 48.2709 52.8335 48.4045 52.502 48.5101C52.1693 48.6113 51.8776 48.8161 51.6694 49.0948C51.4613 49.3734 51.3476 49.7113 51.345 50.0591V50.3563H49.9458V50.0591C49.9432 49.7113 49.8296 49.3734 49.6214 49.0948C49.4133 48.8161 49.1216 48.6113 48.7888 48.5101C48.4575 48.4046 48.1357 48.2709 47.8271 48.1107C47.5201 47.9461 47.1684 47.8841 46.8236 47.9338C46.4789 47.9834 46.159 48.1421 45.9108 48.3866L45.6996 48.5978L44.7104 47.6085L44.9216 47.3973C45.1661 47.1492 45.3247 46.8294 45.3744 46.4847C45.424 46.14 45.362 45.7884 45.1975 45.4814C45.0373 45.1727 44.9036 44.8508 44.798 44.5193C44.6969 44.1866 44.492 43.8949 44.2134 43.6867C43.9347 43.4786 43.5969 43.3649 43.2491 43.3623H42.9519V41.9632H43.2491C43.5968 41.9605 43.9347 41.8469 44.2133 41.6387C44.492 41.4306 44.6968 41.1389 44.798 40.8061C44.9036 40.4748 45.0372 40.153 45.1975 39.8444C45.362 39.5374 45.424 39.1857 45.3744 38.8409C45.3248 38.4961 45.1661 38.1763 44.9216 37.9281L44.7104 37.7169L45.6996 36.7277L45.9108 36.9389C46.1588 37.1835 46.4786 37.3423 46.8234 37.3919C47.1682 37.4416 47.5198 37.3795 47.8267 37.2148C48.1355 37.0546 48.4573 36.9209 48.7888 36.8153C49.1216 36.7142 49.4133 36.5093 49.6214 36.2307C49.8296 35.952 49.9432 35.6142 49.9458 35.2664V34.9692H51.345V35.2664C51.3476 35.6142 51.4613 35.952 51.6694 36.2307C51.8775 36.5093 52.1693 36.7141 52.502 36.8153C52.8334 36.9209 53.1551 37.0545 53.4637 37.2148C53.7707 37.3794 54.1224 37.4414 54.4672 37.3918C54.812 37.3422 55.1319 37.1834 55.38 36.9389L55.5912 36.7277L56.5804 37.7169L56.3692 37.9281C56.1248 38.1762 55.9661 38.496 55.9164 38.8407C55.8668 39.1855 55.9288 39.537 56.0933 39.844C56.2535 40.1528 56.3872 40.4746 56.4928 40.8061C56.594 41.1389 56.7988 41.4306 57.0775 41.6387C57.3561 41.8469 57.694 41.9605 58.0418 41.9631H58.339V43.3623Z" fill="black"/>
<path d="M50.6451 37.5339C49.6307 37.5339 48.6391 37.8347 47.7956 38.3983C46.9521 38.9619 46.2947 39.763 45.9065 40.7002C45.5183 41.6374 45.4168 42.6687 45.6147 43.6636C45.8126 44.6585 46.3011 45.5724 47.0184 46.2897C47.7357 47.0071 48.6496 47.4955 49.6445 47.6934C50.6395 47.8914 51.6707 47.7898 52.6079 47.4016C53.5452 47.0134 54.3462 46.356 54.9098 45.5125C55.4734 44.669 55.7742 43.6774 55.7742 42.663C55.7727 41.3031 55.2318 39.9994 54.2703 39.0378C53.3087 38.0763 52.005 37.5354 50.6451 37.5339ZM50.6451 46.0823C49.9689 46.0823 49.3078 45.8818 48.7455 45.5061C48.1831 45.1303 47.7449 44.5963 47.4861 43.9715C47.2273 43.3467 47.1596 42.6592 47.2915 41.9959C47.4234 41.3326 47.7491 40.7233 48.2273 40.2451C48.7055 39.7669 49.3148 39.4413 49.9781 39.3093C50.6414 39.1774 51.3289 39.2451 51.9537 39.5039C52.5785 39.7627 53.1125 40.201 53.4882 40.7633C53.864 41.3256 54.0645 41.9867 54.0645 42.663C54.0635 43.5695 53.7029 44.4386 53.0619 45.0797C52.4208 45.7207 51.5517 46.0813 50.6451 46.0823Z" fill="black"/>
<path d="M25.8548 76.0008H75.4354C75.5769 76.0008 75.7162 75.9657 75.8407 75.8986C75.9653 75.8316 76.0713 75.7346 76.1491 75.6165C76.227 75.4984 76.2743 75.3628 76.2869 75.2219C76.2994 75.081 76.2768 74.9392 76.221 74.8091L71.092 62.8414C71.0262 62.6876 70.9166 62.5566 70.777 62.4645C70.6373 62.3724 70.4737 62.3233 70.3064 62.3234H60.0484V64.033H69.7429L74.139 74.2911H27.1513L31.5473 64.033H41.2419V62.3234H30.9838C30.8166 62.3233 30.6529 62.3724 30.5133 62.4645C30.3736 62.5566 30.2641 62.6876 30.1982 62.8414L25.0692 74.8091C25.0134 74.9392 24.9908 75.081 25.0034 75.2219C25.0159 75.3628 25.0633 75.4984 25.1411 75.6165C25.219 75.7346 25.325 75.8316 25.4495 75.8986C25.5741 75.9657 25.7133 76.0008 25.8548 76.0008Z" fill="black"/>
<path d="M48.0811 54.6277H49.7907V59.7568H48.0811V54.6277Z" fill="black"/>
<path d="M48.0811 61.4661H49.7907V63.1757H48.0811V61.4661Z" fill="black"/>
<path d="M48.0811 64.8872H49.7907V69.1614H48.0811V64.8872Z" fill="black"/>
<path d="M51.5 54.6277H53.2097V60.6116H51.5V54.6277Z" fill="black"/>
<path d="M51.5 62.3234H53.2097V69.1621H51.5V62.3234Z" fill="black"/>
<path d="M54.9189 56.3383H56.6286V64.0319H54.9189V56.3383Z" fill="black"/>
<path d="M44.6611 65.7405H46.3708V67.4502H44.6611V65.7405Z" fill="black"/>
<path d="M44.6611 55.485H46.3708V64.0334H44.6611V55.485Z" fill="black"/>
<path d="M54.9189 65.7405H56.6286V67.4502H54.9189V65.7405Z" fill="black"/>
<path d="M64.3226 25.5639C64.0959 25.5639 63.8785 25.6539 63.7181 25.8142C63.5578 25.9746 63.4678 26.192 63.4678 26.4187V31.5477C63.4678 31.7745 63.5578 31.9919 63.7181 32.1522C63.8785 32.3125 64.0959 32.4026 64.3226 32.4026H66.8871V34.1123H65.1775C64.9507 34.1123 64.7333 34.2023 64.573 34.3626C64.4127 34.523 64.3226 34.7404 64.3226 34.9671V39.2413C64.3226 39.468 64.4127 39.6854 64.573 39.8458C64.7333 40.0061 64.9507 40.0961 65.1775 40.0961H69.4516C69.6784 40.0961 69.8958 40.0061 70.0561 39.8458C70.2164 39.6854 70.3065 39.468 70.3065 39.2413V37.5316H74.5807C74.8074 37.5316 75.0248 37.4416 75.1851 37.2812C75.3455 37.1209 75.4355 36.9035 75.4355 36.6768V29.8381C75.4355 29.6113 75.3455 29.3939 75.1851 29.2336C75.0248 29.0733 74.8074 28.9832 74.5807 28.9832H70.3065V26.4187C70.3065 26.192 70.2164 25.9746 70.0561 25.8142C69.8958 25.6539 69.6784 25.5639 69.4516 25.5639H64.3226ZM65.1775 30.6929V27.2736H68.5968V28.9832H67.742C67.5152 28.9832 67.2978 29.0733 67.1375 29.2336C66.9772 29.3939 66.8871 29.6113 66.8871 29.8381V30.6929H65.1775ZM68.5968 38.3865H66.0323V35.8219H66.8871V36.6768C66.8871 36.9035 66.9772 37.1209 67.1375 37.2812C67.2978 37.4416 67.5152 37.5316 67.742 37.5316H68.5968V38.3865ZM73.7258 30.6929V35.8219H68.5968V30.6929H73.7258Z" fill="black"/>
<path d="M53.2099 29.8387C53.4367 29.8387 53.6541 29.7486 53.8144 29.5883C53.9747 29.428 54.0648 29.2106 54.0648 28.9839V23.8548C54.0648 23.6281 53.9747 23.4107 53.8144 23.2504C53.6541 23.0901 53.4367 23 53.2099 23H48.0809C47.8542 23 47.6368 23.0901 47.4765 23.2504C47.3161 23.4107 47.2261 23.6281 47.2261 23.8548V28.9839C47.2261 29.2106 47.3161 29.428 47.4765 29.5883C47.6368 29.7486 47.8542 29.8387 48.0809 29.8387H53.2099ZM48.9358 24.7097H52.3551V28.129H48.9358V24.7097Z" fill="black"/>
<path d="M26.7098 48.6444H31.8389C32.0656 48.6444 32.283 48.5543 32.4433 48.394C32.6036 48.2337 32.6937 48.0163 32.6937 47.7895V45.225H36.9679C37.1946 45.225 37.412 45.135 37.5723 44.9746C37.7327 44.8143 37.8227 44.5969 37.8227 44.3702V37.5315C37.8227 37.3048 37.7327 37.0873 37.5723 36.927C37.412 36.7667 37.1946 36.6766 36.9679 36.6766H30.1292C29.9025 36.6766 29.685 36.7667 29.5247 36.927C29.3644 37.0873 29.2743 37.3048 29.2743 37.5315V41.8057H26.7098C26.4831 41.8057 26.2657 41.8957 26.1054 42.056C25.945 42.2164 25.855 42.4338 25.855 42.6605V47.7895C25.855 48.0163 25.945 48.2337 26.1054 48.394C26.2657 48.5543 26.4831 48.6444 26.7098 48.6444ZM30.984 38.3863H36.113V43.5153H30.984V38.3863ZM27.5647 43.5153H29.2743V44.3702C29.2743 44.5969 29.3644 44.8143 29.5247 44.9746C29.685 45.135 29.9025 45.225 30.1292 45.225H30.984V46.9347H27.5647V43.5153Z" fill="black"/>
<path d="M31.8387 34.1116H36.1129C36.3396 34.1116 36.5571 34.0216 36.7174 33.8612C36.8777 33.7009 36.9678 33.4835 36.9678 33.2568V28.9826C36.9678 28.7559 36.8777 28.5384 36.7174 28.3781C36.5571 28.2178 36.3396 28.1277 36.1129 28.1277H31.8387C31.612 28.1277 31.3946 28.2178 31.2343 28.3781C31.0739 28.5384 30.9839 28.7559 30.9839 28.9826V33.2568C30.9839 33.4835 31.0739 33.7009 31.2343 33.8612C31.3946 34.0216 31.612 34.1116 31.8387 34.1116ZM32.6936 29.8374H35.2581V32.4019H32.6936V29.8374Z" fill="black"/>
<path d="M63.4676 48.6467C63.2409 48.6467 63.0235 48.7368 62.8632 48.8971C62.7029 49.0574 62.6128 49.2748 62.6128 49.5016V52.9209C62.6128 53.1476 62.7029 53.3651 62.8632 53.5254C63.0235 53.6857 63.2409 53.7758 63.4676 53.7758H66.887C67.1137 53.7758 67.3311 53.6857 67.4914 53.5254C67.6518 53.3651 67.7418 53.1476 67.7418 52.9209V49.5016C67.7418 49.2748 67.6518 49.0574 67.4914 48.8971C67.3311 48.7368 67.1137 48.6467 66.887 48.6467H63.4676ZM66.0321 52.0661H64.3225V50.3564H66.0321V52.0661Z" fill="black"/>
<path d="M33.2857 66.5969H39.5321V64.8872H32.6934C32.5193 64.8873 32.3494 64.9404 32.2064 65.0395C32.0633 65.1386 31.9539 65.279 31.8928 65.442L29.3283 72.2807C29.2798 72.41 29.2634 72.5492 29.2805 72.6862C29.2975 72.8233 29.3475 72.9542 29.4262 73.0677C29.5049 73.1812 29.6099 73.274 29.7323 73.3381C29.8547 73.4021 29.9907 73.4356 30.1288 73.4356H71.1611C71.2992 73.4356 71.4353 73.4021 71.5577 73.3381C71.68 73.274 71.785 73.1812 71.8637 73.0677C71.9424 72.9542 71.9924 72.8233 72.0095 72.6862C72.0265 72.5492 72.0101 72.41 71.9617 72.2807L69.3972 65.442C69.336 65.279 69.2266 65.1386 69.0836 65.0395C68.9405 64.9404 68.7706 64.8873 68.5966 64.8872H61.7579V66.5969H68.0043L69.9277 71.7259H31.3623L33.2857 66.5969Z" fill="black"/>
</g>
<defs>
<clipPath id="clip0_104_322">
<rect width="101" height="100" fill="white"/>
</clipPath>
</defs>
</svg>
