<svg width="24" height="25" viewBox="0 0 24 25" fill="none" xmlns="http://www.w3.org/2000/svg">
<path d="M12 23.5C18.0752 23.5 23 18.5751 23 12.5C23 6.42484 18.0752 1.49997 12 1.49997C5.92487 1.49997 1 6.42484 1 12.5C1 18.5751 5.92487 23.5 12 23.5Z" fill="#0094FF"/>
<path d="M17.1832 11.0851L10.4507 7.1981C10.2023 7.05471 9.92058 6.97922 9.6338 6.97922C9.34701 6.97922 9.06528 7.05471 8.81691 7.1981C8.56855 7.34149 8.3623 7.54773 8.2189 7.79609C8.07551 8.04446 8.00001 8.32619 8.00001 8.61298V16.387C7.99895 16.6742 8.07377 16.9566 8.21691 17.2056C8.36006 17.4546 8.56644 17.6613 8.81516 17.8049C9.06389 17.9485 9.34614 18.0239 9.63334 18.0233C9.92054 18.0228 10.2025 17.9464 10.4507 17.8018L17.1832 13.9148C17.4316 13.7714 17.6378 13.5652 17.7812 13.3168C17.9246 13.0685 18.0001 12.7867 18.0001 12.5C18.0001 12.2132 17.9246 11.9315 17.7812 11.6831C17.6378 11.4347 17.4316 11.2285 17.1832 11.0851Z" fill="url(#paint0_linear_3195_504)"/>
<defs>
<linearGradient id="paint0_linear_3195_504" x1="7.24537" y1="8.68882" x2="14.8677" y2="16.3111" gradientUnits="userSpaceOnUse">
<stop stop-color="white"/>
<stop offset="1" stop-color="#EDF1F2"/>
</linearGradient>
</defs>
</svg>
