<svg width="24" height="24" viewBox="0 0 24 24" fill="none" xmlns="http://www.w3.org/2000/svg">
<g clip-path="url(#clip0_4279_6344)">
<mask id="mask0_4279_6344" style="mask-type:luminance" maskUnits="userSpaceOnUse" x="0" y="0" width="24" height="24">
<path d="M0 1.90735e-06H24V24H0V1.90735e-06Z" fill="white"/>
</mask>
<g mask="url(#mask0_4279_6344)">
<path fill-rule="evenodd" clip-rule="evenodd" d="M11.6856 23.9258C11.8835 24.0247 12.1165 24.0247 12.3144 23.9258L23.6113 18.2773C23.8495 18.1582 24 17.9148 24 17.6484C24 17.3821 23.8495 17.1386 23.6113 17.0195L17.9629 14.1953C17.7649 14.0963 17.5319 14.0963 17.334 14.1953L12 16.8623L6.66601 14.1953C6.46806 14.0963 6.23506 14.0963 6.03712 14.1953L0.388678 17.0195C0.15047 17.1386 0 17.3821 0 17.6484C0 17.9148 0.15047 18.1582 0.388678 18.2773L11.6856 23.9258ZM2.27536 17.6484L6.35156 15.6103L11.6856 18.2773C11.8835 18.3763 12.1165 18.3763 12.3144 18.2773L17.6484 15.6103L21.7246 17.6484L12 22.5108L2.27536 17.6484Z" fill="#1B1C17"/>
<path fill-rule="evenodd" clip-rule="evenodd" d="M11.6856 18.2773C11.8835 18.3763 12.1165 18.3763 12.3144 18.2773L23.6113 12.6289C23.8495 12.5098 24 12.2663 24 12C24 11.7337 23.8495 11.4902 23.6113 11.3711L17.9629 8.54689C17.7649 8.44791 17.5319 8.44791 17.334 8.54689L12 11.2139L6.66601 8.54689C6.46806 8.44791 6.23506 8.44791 6.03712 8.54689L0.388678 11.3711C0.15047 11.4902 0 11.7337 0 12C0 12.2663 0.15047 12.5098 0.388678 12.6289L11.6856 18.2773ZM2.27536 12L6.35156 9.9619L11.6856 12.6289C11.8835 12.7279 12.1165 12.7279 12.3144 12.6289L17.6484 9.9619L21.7246 12L12 16.8623L2.27536 12Z" fill="#1B1C17"/>
<path fill-rule="evenodd" clip-rule="evenodd" d="M11.6856 12.6289C11.8835 12.7279 12.1165 12.7279 12.3144 12.6289L23.6113 6.98046C23.8495 6.86135 24 6.61789 24 6.35156C24 6.08524 23.8495 5.84177 23.6113 5.72267L12.3144 0.0742311C12.1165 -0.0247431 11.8835 -0.0247431 11.6856 0.0742311L0.388678 5.72267C0.15047 5.84177 0 6.08524 0 6.35156C0 6.61789 0.15047 6.86135 0.388678 6.98046L11.6856 12.6289ZM2.27536 6.35156L12 1.48924L21.7246 6.35156L12 11.2139L2.27536 6.35156Z" fill="#1B1C17"/>
</g>
</g>
<defs>
<clipPath id="clip0_4279_6344">
<rect width="24" height="24" fill="white"/>
</clipPath>
</defs>
</svg>
