<svg width="36" height="36" viewBox="0 0 36 36" fill="none" xmlns="http://www.w3.org/2000/svg">
<g clip-path="url(#clip0_4193_1724)">
<mask id="mask0_4193_1724" style="mask-type:luminance" maskUnits="userSpaceOnUse" x="0" y="0" width="36" height="36">
<path d="M0 3.8147e-06H36V36H0V3.8147e-06Z" fill="white"/>
</mask>
<g mask="url(#mask0_4193_1724)">
<path fill-rule="evenodd" clip-rule="evenodd" d="M17.5283 35.8887C17.8253 36.0371 18.1747 36.0371 18.4717 35.8887L35.417 27.416C35.7743 27.2373 36 26.8721 36 26.4727C36 26.0732 35.7743 25.708 35.417 25.5293L26.9443 21.293C26.6474 21.1445 26.2979 21.1445 26.001 21.293L18 25.2935L9.99901 21.293C9.70209 21.1445 9.3526 21.1445 9.05567 21.293L0.583017 25.5293C0.225706 25.708 0 26.0732 0 26.4727C0 26.8721 0.225706 27.2373 0.583017 27.416L17.5283 35.8887ZM3.41304 26.4727L9.52734 23.4155L17.5283 27.416C17.8253 27.5645 18.1747 27.5645 18.4717 27.416L26.4727 23.4155L32.587 26.4727L18 33.7661L3.41304 26.4727Z" fill="#133AA5"/>
<path fill-rule="evenodd" clip-rule="evenodd" d="M17.5283 27.416C17.8253 27.5645 18.1747 27.5645 18.4717 27.416L35.417 18.9433C35.7743 18.7647 36 18.3995 36 18C36 17.6005 35.7743 17.2353 35.417 17.0567L26.9443 12.8203C26.6474 12.6719 26.2979 12.6719 26.001 12.8203L18 16.8208L9.99901 12.8203C9.70209 12.6719 9.3526 12.6719 9.05567 12.8203L0.583017 17.0567C0.225706 17.2353 0 17.6005 0 18C0 18.3995 0.225706 18.7647 0.583017 18.9433L17.5283 27.416ZM3.41304 18L9.52734 14.9428L17.5283 18.9433C17.8253 19.0918 18.1747 19.0918 18.4717 18.9433L26.4727 14.9428L32.587 18L18 25.2935L3.41304 18Z" fill="#133AA5"/>
<path fill-rule="evenodd" clip-rule="evenodd" d="M17.5283 18.9433C17.8253 19.0918 18.1747 19.0918 18.4717 18.9433L35.417 10.4707C35.7743 10.292 36 9.92683 36 9.52734C36 9.12786 35.7743 8.76266 35.417 8.584L18.4717 0.111349C18.1747 -0.0371132 17.8253 -0.0371132 17.5283 0.111349L0.583017 8.584C0.225706 8.76266 0 9.12786 0 9.52734C0 9.92683 0.225706 10.292 0.583017 10.4707L17.5283 18.9433ZM3.41304 9.52734L18 2.23387L32.587 9.52734L18 16.8208L3.41304 9.52734Z" fill="#133AA5"/>
</g>
</g>
<defs>
<clipPath id="clip0_4193_1724">
<rect width="36" height="36" fill="white"/>
</clipPath>
</defs>
</svg>
