<svg width="36" height="37" viewBox="0 0 36 37" fill="none" xmlns="http://www.w3.org/2000/svg">
<rect y="0.443359" width="36" height="36" rx="18" fill="#DEFFEB"/>
<path d="M26.0256 23.2655V20.1276H24.8745V22.6361C24.8745 23.0284 24.5534 23.3487 24.1619 23.3487H9.90584C9.51438 23.3487 9.19324 23.0286 9.19324 22.6361V14.085C9.19324 13.6917 9.51438 13.3716 9.90584 13.3716H18.0619V12.6406H8.86125C8.41161 12.6406 8.04238 13.007 8.04238 13.4577V18.3629V23.2655V24.0825L6 26.5347C6 27.2122 6.54867 27.7619 7.22507 27.7619H26.8417C27.5181 27.7619 28.0667 27.2122 28.0667 26.5347L26.0243 24.0825V23.2655H26.0256ZM18.6701 27.3518H15.3998C15.286 27.3518 15.1952 27.261 15.1952 27.1473C15.1952 27.0335 15.286 26.9427 15.3998 26.9427H18.669C18.781 26.9427 18.8736 27.0335 18.8736 27.1473C18.8717 27.261 18.782 27.3518 18.6701 27.3518ZM13.6648 26.5347L14.2885 25.7862H19.7796L20.4032 26.5347H13.6648Z" fill="#00E95D"/>
<path d="M17.3997 18.6699H15.6924V20.3754H17.3997V18.6699Z" fill="#00E95D"/>
<path d="M18.4685 16.3252H16.7622V18.0325H18.4685V16.3252Z" fill="#00E95D"/>
<path d="M20.1467 18.4668H18.4404V20.173H20.1467V18.4668Z" fill="#00E95D"/>
<path d="M21.8222 15.6309H19.7974V17.6557H21.8222V15.6309Z" fill="#00E95D"/>
<path d="M24.6859 9.4248H22.6611V11.4496H24.6859V9.4248Z" fill="#00E95D"/>
<path d="M21.0121 13.0869H18.9873V15.1117H21.0121V13.0869Z" fill="#00E95D"/>
<path d="M25.0617 12.2207H22.1699V15.1125H25.0617V12.2207Z" fill="#00E95D"/>
<path d="M27.8274 15.7061H24.3296V19.2049H27.8274V15.7061Z" fill="#00E95D"/>
<path d="M30.0002 9.125H25.6538V13.4714H30.0002V9.125Z" fill="#00E95D"/>
<path d="M23.6727 17.8877H21.6479V19.9125H23.6727V17.8877Z" fill="#00E95D"/>
</svg>
