<svg width="17" height="14" viewBox="0 0 17 14" fill="none" xmlns="http://www.w3.org/2000/svg">
<path fill-rule="evenodd" clip-rule="evenodd" d="M16.4298 2.18655C14.0439 3.40131 12.851 4.82863 12.851 6.46855C13.8679 6.59002 14.7088 7.02024 15.3738 7.75922C16.0387 8.4982 16.3712 9.35357 16.3712 10.3254C16.3712 11.3579 16.0485 12.2285 15.4031 12.9371C14.7577 13.6457 13.9461 14 12.9683 14C11.8731 14 10.9246 13.5394 10.1228 12.6182C9.32096 11.697 8.92005 10.5785 8.92005 9.26247C8.92005 5.31451 11.0517 2.22705 15.3151 0L16.4298 2.18655ZM8.00978 2.18655C5.60429 3.40131 4.40156 4.82863 4.40156 6.46855C5.43808 6.59002 6.28878 7.02024 6.95372 7.75922C7.61865 8.4982 7.95111 9.35357 7.95111 10.3254C7.95111 11.3579 7.62354 12.2285 6.96838 12.9371C6.31323 13.6457 5.49675 14 4.5189 14C3.42372 14 2.48012 13.5394 1.68807 12.6182C0.89602 11.697 0.5 10.5785 0.5 9.26247C0.5 5.31451 2.62188 2.22705 6.86571 0L8.00978 2.18655Z" fill="#2EC5CE"/>
</svg>
