<svg width="25" height="24" viewBox="0 0 25 24" fill="none" xmlns="http://www.w3.org/2000/svg">
<g id="reload 1" clip-path="url(#clip0_3246_805)">
<path id="Vector" d="M24.1514 7.16538C23.7869 6.91692 23.2904 7.01081 23.0419 7.37509L21.4135 9.76269C20.9905 7.79174 20.0106 5.98068 18.5525 4.52272C16.5547 2.52484 13.8984 1.42456 11.0728 1.42456C8.24741 1.42456 5.59102 2.52484 3.59314 4.52272C-0.53121 8.64708 -0.53121 15.3579 3.59314 19.4821C5.65532 21.5443 8.36408 22.5754 11.0728 22.5754C13.7816 22.5754 16.4904 21.5443 18.5525 19.4821C18.8643 19.1703 18.8643 18.6648 18.5525 18.353C18.2408 18.0412 17.7352 18.0412 17.4235 18.353C13.9217 21.8547 8.2241 21.8547 4.72238 18.353C1.22066 14.8513 1.22066 9.15346 4.72238 5.65175C6.41868 3.95555 8.67396 3.02133 11.073 3.02133C13.4719 3.02133 15.7273 3.95555 17.4235 5.65185C18.7328 6.96099 19.5861 8.60599 19.9081 10.3918L17.074 8.45887C16.7098 8.21041 16.2131 8.3043 15.9646 8.66858C15.7161 9.03286 15.81 9.52956 16.1743 9.77802L20.4019 12.6615C20.4021 12.6616 20.4024 12.6618 20.4026 12.662C20.4694 12.7076 20.5407 12.7411 20.6141 12.764C20.6163 12.7647 20.6184 12.7659 20.6207 12.7665C20.6331 12.7704 20.6458 12.7719 20.6584 12.775C20.7222 12.791 20.787 12.8008 20.8517 12.8008C21.1067 12.8008 21.3574 12.6788 21.512 12.4523L24.3611 8.27492C24.6095 7.91054 24.5156 7.41384 24.1514 7.16538Z" fill="#0094FF"/>
</g>
<defs>
<clipPath id="clip0_3246_805">
<rect width="24" height="24" fill="white" transform="translate(0.5)"/>
</clipPath>
</defs>
</svg>
