<svg width="196" height="42" viewBox="0 0 196 42" fill="none" xmlns="http://www.w3.org/2000/svg">
<path d="M20.0606 28.4468V24.2119L33.7876 34.5515V27.2901L18.4756 15.7485L13.6494 19.3803L16.8798 21.7864V26.0493L10.8498 21.4956L3.17869 27.2772V38.7907L0 41.1882V13.9348L18.4864 0L36.9663 13.9348V18.1697L20.0671 5.42183V12.7026L36.9663 25.4397V41.1904L20.0606 28.4468ZM3.13993 15.783V22.9927L16.8798 12.7026V5.42183L3.13993 15.783Z" fill="white"/>
<path d="M50.6759 28.3162H48.6343C48.5659 28.3259 48.4961 28.3196 48.4306 28.2977C48.365 28.2758 48.3054 28.2389 48.2565 28.19C48.2077 28.1411 48.1708 28.0816 48.1489 28.016C48.127 27.9504 48.1207 27.8806 48.1304 27.8122V13.3798C48.1207 13.3113 48.127 13.2416 48.1489 13.176C48.1708 13.1104 48.2077 13.0508 48.2565 13.0019C48.3054 12.953 48.365 12.9162 48.4306 12.8943C48.4961 12.8724 48.5659 12.866 48.6343 12.8758H54.3521C55.6012 12.8758 56.5782 13.2197 57.2831 13.9076C57.9881 14.5954 58.3405 15.5655 58.3405 16.8177V18.6896C58.3405 20.5005 57.6277 21.7025 56.202 22.2956V22.3903L58.7734 27.7475C58.917 28.1338 58.7806 28.3263 58.3642 28.3248H56.426C56.2134 28.3382 56.0005 28.3059 55.8014 28.2301C55.651 28.1362 55.54 27.9907 55.4892 27.8208L53.0879 22.6316H51.4792C51.2854 22.6316 51.1906 22.7199 51.1906 22.8965V27.8208C51.1993 27.8896 51.1917 27.9595 51.1686 28.0249C51.1455 28.0903 51.1074 28.1494 51.0574 28.1975C51.0074 28.2456 50.9469 28.2814 50.8807 28.302C50.8145 28.3226 50.7444 28.3275 50.6759 28.3162ZM51.4448 20.1716H53.8008C54.3133 20.1716 54.688 20.0639 54.9292 19.8485C55.1704 19.6331 55.2889 19.282 55.2889 18.8016V16.9276C55.2889 16.43 55.1704 16.0659 54.9292 15.8505C54.688 15.6351 54.3133 15.5145 53.8008 15.5145H51.4448C51.4091 15.5095 51.3727 15.5128 51.3386 15.5242C51.3044 15.5357 51.2733 15.5549 51.2479 15.5804C51.2224 15.6058 51.2032 15.6369 51.1918 15.6711C51.1803 15.7053 51.177 15.7416 51.182 15.7773V19.911C51.1774 19.9465 51.181 19.9826 51.1926 20.0165C51.2042 20.0504 51.2234 20.0812 51.2488 20.1064C51.2743 20.1316 51.3052 20.1506 51.3392 20.1619C51.3731 20.1733 51.4093 20.1766 51.4448 20.1716Z" fill="white"/>
<path d="M75.0799 28.3165H72.3879C71.1216 28.3165 70.1446 27.9805 69.4569 27.3084C68.7691 26.6363 68.4253 25.667 68.4253 24.4004V16.7836C68.4253 15.517 68.7691 14.5483 69.4569 13.8777C70.1446 13.2071 71.1216 12.8703 72.3879 12.8674H75.0799C76.3447 12.8674 77.3217 13.2042 78.0109 13.8777C78.7 14.5512 79.0439 15.5198 79.0425 16.7836V24.4004C79.0425 25.6641 78.6986 26.6335 78.0109 27.3084C77.3232 27.9834 76.3462 28.3194 75.0799 28.3165ZM72.8724 25.6735H74.5781C75.0906 25.6735 75.4553 25.5658 75.6721 25.3504C75.8875 25.1349 75.9951 24.7687 75.9951 24.2561V16.9322C75.9951 16.4195 75.8875 16.0548 75.6721 15.8379C75.4567 15.6211 75.0921 15.5134 74.5781 15.5148H72.8724C72.3599 15.5148 72.001 15.6225 71.7956 15.8379C71.5803 16.0533 71.4834 16.4195 71.4834 16.9322V24.2561C71.4834 24.7687 71.5889 25.1349 71.7956 25.3504C72.0024 25.5658 72.3556 25.6735 72.8724 25.6735Z" fill="white"/>
<path d="M95.6878 28.3165H93.069C91.8056 28.3165 90.8293 27.9805 90.1402 27.3084C89.451 26.6363 89.1064 25.667 89.1064 24.4004V16.7836C89.1064 15.517 89.451 14.5483 90.1402 13.8777C90.8293 13.2071 91.8056 12.8703 93.069 12.8674H95.6878C96.9369 12.8674 97.9103 13.2078 98.6081 13.8885C99.3058 14.5692 99.654 15.5342 99.6525 16.7836V17.9123C99.6629 17.9841 99.6565 18.0574 99.6337 18.1262C99.6109 18.1951 99.5724 18.2578 99.5212 18.3092C99.47 18.3606 99.4075 18.3994 99.3387 18.4225C99.27 18.4456 99.1968 18.4523 99.1249 18.4422H97.1048C96.7689 18.4422 96.6009 18.2656 96.6009 17.9123V16.9279C96.6009 16.4152 96.4932 16.0504 96.2779 15.8336C96.0625 15.6168 95.6978 15.5091 95.1839 15.5105H93.5471C93.0497 15.5105 92.6857 15.6182 92.4703 15.8336C92.255 16.049 92.1473 16.4152 92.1473 16.9279V24.2518C92.1473 24.7644 92.255 25.1306 92.4703 25.346C92.6857 25.5614 93.0432 25.6691 93.5471 25.6691H95.1795C95.6921 25.6691 96.0568 25.5614 96.2736 25.346C96.4889 25.1306 96.5966 24.7644 96.5966 24.2518V23.2673C96.5966 22.9141 96.7646 22.7374 97.1005 22.7374H99.1206C99.1924 22.7273 99.2656 22.7341 99.3344 22.7572C99.4032 22.7803 99.4657 22.819 99.5169 22.8705C99.5681 22.9219 99.6066 22.9845 99.6294 23.0534C99.6522 23.1223 99.6586 23.1955 99.6482 23.2673V24.3961C99.6482 25.6455 99.3001 26.6105 98.6037 27.2912C97.9074 27.9719 96.9354 28.3136 95.6878 28.3165Z" fill="white"/>
<path d="M112.264 28.3162H110.222C110.154 28.3259 110.084 28.3196 110.018 28.2977C109.953 28.2758 109.893 28.2389 109.844 28.19C109.796 28.1411 109.759 28.0816 109.737 28.016C109.715 27.9504 109.709 27.8806 109.718 27.8122V13.3798C109.709 13.3113 109.715 13.2416 109.737 13.176C109.759 13.1104 109.796 13.0508 109.844 13.0019C109.893 12.953 109.953 12.9162 110.018 12.8943C110.084 12.8724 110.154 12.866 110.222 12.8758H112.264C112.332 12.866 112.402 12.8724 112.468 12.8943C112.533 12.9162 112.593 12.953 112.642 13.0019C112.69 13.0508 112.727 13.1104 112.749 13.176C112.771 13.2416 112.777 13.3113 112.768 13.3798V20.2276H112.817C113.012 19.7058 113.262 19.2061 113.562 18.737L117.213 13.3798C117.308 13.2186 117.446 13.0865 117.611 12.9977C117.776 12.9089 117.962 12.8667 118.15 12.8758H120.503C120.68 12.8758 120.788 12.9274 120.829 13.0308C120.87 13.1342 120.829 13.2678 120.697 13.4272L116.132 19.7473L121.225 27.7174C121.337 27.9091 121.358 28.0577 121.285 28.1611C121.229 28.2205 121.159 28.2656 121.081 28.2925C121.003 28.3195 120.921 28.3276 120.839 28.3162H119.086C118.526 28.3162 118.15 28.1482 117.958 27.8122L114.282 21.9251L112.774 23.7043V27.8122C112.784 27.8812 112.778 27.9517 112.756 28.0178C112.733 28.084 112.696 28.144 112.646 28.193C112.597 28.2421 112.536 28.2787 112.47 28.3001C112.403 28.3215 112.333 28.327 112.264 28.3162Z" fill="white"/>
<path d="M130.279 24.3768V23.8964C130.269 23.8277 130.275 23.7576 130.297 23.6918C130.319 23.6259 130.356 23.5661 130.405 23.517C130.454 23.468 130.514 23.4309 130.58 23.4089C130.646 23.3869 130.716 23.3805 130.785 23.3902H132.826C132.895 23.3809 132.965 23.3876 133.03 23.4097C133.096 23.4319 133.155 23.469 133.204 23.518C133.253 23.5671 133.29 23.6267 133.312 23.6924C133.333 23.758 133.34 23.8279 133.33 23.8964V24.0881C133.33 24.697 133.451 25.1135 133.692 25.3375C133.931 25.5637 134.373 25.6735 135.012 25.6735H136.141C136.765 25.6735 137.202 25.555 137.45 25.3138C137.698 25.0725 137.823 24.6245 137.823 23.9675V23.681C137.832 23.4677 137.785 23.2556 137.685 23.0665C137.586 22.8773 137.439 22.7178 137.258 22.604C136.834 22.3403 136.351 22.1877 135.852 22.1602C135.243 22.1032 134.637 22.0104 134.039 21.8823C133.421 21.7563 132.814 21.5798 132.225 21.3546C131.624 21.1042 131.128 20.6547 130.819 20.0815C130.443 19.4482 130.255 18.6347 130.255 17.6409V16.803C130.255 15.5522 130.607 14.5822 131.312 13.8928C132.017 13.2035 132.996 12.8618 134.25 12.8675H136.651C137.917 12.8675 138.903 13.2114 139.608 13.8993C140.313 14.5872 140.665 15.5572 140.663 16.8095V17.264C140.673 17.3324 140.667 17.4022 140.645 17.4678C140.623 17.5334 140.586 17.593 140.537 17.6419C140.488 17.6907 140.429 17.7276 140.363 17.7495C140.297 17.7714 140.228 17.7777 140.159 17.768H138.118C138.049 17.7777 137.979 17.7714 137.914 17.7495C137.848 17.7276 137.789 17.6907 137.74 17.6419C137.691 17.593 137.654 17.5334 137.632 17.4678C137.61 17.4022 137.604 17.3324 137.614 17.264V17.1197C137.614 16.495 137.493 16.0706 137.252 15.8466C137.013 15.6312 136.571 15.5106 135.932 15.5106H134.995C134.349 15.5106 133.892 15.6355 133.662 15.8832C133.431 16.1309 133.313 16.6156 133.313 17.3351V17.7917C133.313 18.5457 133.97 18.9765 135.283 19.0842C136.527 19.1701 137.75 19.4454 138.91 19.9006C139.503 20.1723 139.996 20.6247 140.316 21.193C140.719 21.9158 140.914 22.7358 140.881 23.5625V24.3789C140.881 25.6283 140.528 26.5976 139.823 27.2869C139.118 27.9762 138.141 28.3202 136.892 28.3187H134.267C133.018 28.3187 132.041 27.9748 131.336 27.2869C130.631 26.5991 130.279 25.629 130.279 24.3768Z" fill="white"/>
<path d="M153.531 28.3163H151.489C151.421 28.326 151.351 28.3196 151.286 28.2977C151.22 28.2758 151.16 28.239 151.112 28.1901C151.063 28.1412 151.026 28.0816 151.004 28.016C150.982 27.9505 150.976 27.8807 150.985 27.8122V13.3799C150.976 13.3114 150.982 13.2416 151.004 13.1761C151.026 13.1105 151.063 13.0509 151.112 13.002C151.16 12.9531 151.22 12.9163 151.286 12.8944C151.351 12.8725 151.421 12.8661 151.489 12.8758H153.531C153.599 12.8661 153.669 12.8725 153.735 12.8944C153.8 12.9163 153.86 12.9531 153.909 13.002C153.958 13.0509 153.994 13.1105 154.016 13.1761C154.038 13.2416 154.045 13.3114 154.035 13.3799V19.0279C154.035 19.2024 154.132 19.2907 154.323 19.2907H158.385C158.421 19.2957 158.457 19.2924 158.491 19.2809C158.525 19.2695 158.556 19.2503 158.582 19.2248C158.607 19.1993 158.627 19.1683 158.638 19.1341C158.649 19.0999 158.653 19.0636 158.648 19.0279V13.3713C158.638 13.3027 158.645 13.2329 158.667 13.1673C158.69 13.1018 158.727 13.0422 158.776 12.9934C158.825 12.9446 158.884 12.9078 158.95 12.8859C159.016 12.864 159.085 12.8576 159.154 12.8672H161.196C161.264 12.8575 161.334 12.8639 161.399 12.8858C161.465 12.9077 161.524 12.9445 161.573 12.9934C161.622 13.0423 161.659 13.1019 161.681 13.1674C161.703 13.233 161.709 13.3028 161.699 13.3713V27.8036C161.709 27.8721 161.703 27.9418 161.681 28.0074C161.659 28.073 161.622 28.1326 161.573 28.1815C161.524 28.2304 161.465 28.2672 161.399 28.2891C161.334 28.311 161.264 28.3174 161.196 28.3077H159.154C159.085 28.3173 159.016 28.3109 158.95 28.289C158.884 28.2671 158.825 28.2303 158.776 28.1815C158.727 28.1326 158.69 28.0731 158.667 28.0076C158.645 27.942 158.638 27.8722 158.648 27.8036V22.1815C158.653 22.1456 158.65 22.109 158.639 22.0745C158.628 22.0401 158.608 22.0087 158.583 21.983C158.557 21.9573 158.526 21.9379 158.492 21.9263C158.458 21.9148 158.421 21.9114 158.385 21.9165H154.323C154.132 21.9165 154.035 22.0048 154.035 22.1815V27.8036C154.046 27.8727 154.041 27.9435 154.02 28.0102C153.998 28.0769 153.962 28.1377 153.913 28.1876C153.864 28.2375 153.803 28.2752 153.737 28.2976C153.671 28.3199 153.6 28.3263 153.531 28.3163Z" fill="white"/>
<path d="M175.222 13.3713V27.8037C175.232 27.8721 175.225 27.9419 175.204 28.0075C175.182 28.0731 175.145 28.1327 175.096 28.1816C175.047 28.2304 174.987 28.2673 174.922 28.2892C174.856 28.3111 174.787 28.3174 174.718 28.3077H172.677C172.608 28.3178 172.538 28.3117 172.472 28.29C172.406 28.2683 172.346 28.2315 172.297 28.1825C172.248 28.1336 172.211 28.0739 172.189 28.0081C172.167 27.9423 172.161 27.8723 172.17 27.8037V13.3713C172.161 13.3027 172.167 13.2327 172.189 13.1669C172.211 13.1011 172.248 13.0414 172.297 12.9925C172.346 12.9435 172.406 12.9067 172.472 12.885C172.538 12.8633 172.608 12.8572 172.677 12.8673H174.718C174.787 12.8576 174.856 12.8639 174.922 12.8858C174.987 12.9077 175.047 12.9446 175.096 12.9935C175.145 13.0424 175.182 13.1019 175.204 13.1675C175.225 13.2331 175.232 13.3029 175.222 13.3713Z" fill="white"/>
<path d="M188.238 28.3162H186.196C186.128 28.3259 186.058 28.3196 185.993 28.2977C185.927 28.2758 185.867 28.2389 185.819 28.19C185.77 28.1411 185.733 28.0816 185.711 28.016C185.689 27.9504 185.683 27.8806 185.692 27.8122V13.3798C185.683 13.3113 185.689 13.2416 185.711 13.176C185.733 13.1104 185.77 13.0508 185.819 13.0019C185.867 12.953 185.927 12.9162 185.993 12.8943C186.058 12.8724 186.128 12.866 186.196 12.8758H192.058C193.307 12.8758 194.277 13.2161 194.966 13.8968C195.655 14.5775 195.999 15.5425 195.999 16.7919V19.0989C195.999 20.3483 195.655 21.3133 194.966 21.994C194.277 22.6747 193.307 23.015 192.058 23.015H189.043C188.85 23.015 188.755 23.1033 188.755 23.28V27.8208C188.764 27.8898 188.756 27.96 188.733 28.0255C188.709 28.0911 188.671 28.1504 188.621 28.1985C188.571 28.2467 188.51 28.2824 188.443 28.3028C188.377 28.3233 188.307 28.3279 188.238 28.3162ZM189.007 20.3461H191.554C192.067 20.3461 192.416 20.2363 192.631 20.0208C192.847 19.8054 192.944 19.4479 192.944 18.9438V16.9254C192.944 16.4128 192.838 16.0487 192.631 15.8312C192.425 15.6136 192.063 15.508 191.554 15.508H189.007C188.971 15.503 188.935 15.5064 188.901 15.5178C188.866 15.5292 188.835 15.5484 188.81 15.5739C188.784 15.5994 188.765 15.6304 188.754 15.6646C188.742 15.6988 188.739 15.7351 188.744 15.7708V20.079C188.739 20.1145 188.743 20.1506 188.755 20.1845C188.766 20.2184 188.785 20.2492 188.811 20.2744C188.836 20.2996 188.867 20.3187 188.901 20.33C188.935 20.3413 188.971 20.3446 189.007 20.3396V20.3461Z" fill="white"/>
</svg>
