<svg width="24" height="24" viewBox="0 0 24 24" fill="none" xmlns="http://www.w3.org/2000/svg">
<path d="M23.0081 1.01229C22.4245 0.413344 21.5608 0.190206 20.7555 0.425088L1.97616 5.88609C1.12648 6.12215 0.524231 6.79978 0.361998 7.66062C0.196263 8.53673 0.775167 9.6489 1.53148 10.114L7.40338 13.7229C8.00563 14.0929 8.78295 14.0001 9.28132 13.4974L16.0052 6.73167C16.3437 6.37934 16.9039 6.37934 17.2424 6.73167C17.5809 7.07224 17.5809 7.62422 17.2424 7.97654L10.5068 14.7435C10.0073 15.245 9.91391 16.0259 10.2816 16.6319L13.8694 22.5627C14.2895 23.2673 15.0132 23.6666 15.8068 23.6666C15.9002 23.6666 16.0052 23.6666 16.0986 23.6549C17.009 23.5375 17.7326 22.915 18.0011 22.0342L23.5683 3.2789C23.8134 2.4803 23.5917 1.61124 23.0081 1.01229" fill="#0094FF"/>
</svg>
