<svg width="92" height="92" viewBox="0 0 92 92" fill="none" xmlns="http://www.w3.org/2000/svg">
<g clip-path="url(#clip0_4062_18251)">
<path d="M64.9494 1.47506L65.8466 4.07926C66.0944 4.7985 65.7122 5.58257 64.9929 5.83034L61.0865 7.17606H53.7803L59.2903 1.96728L63.1985 0.621378C63.9177 0.373612 64.7016 0.755822 64.9494 1.47506Z" fill="#40CE79"/>
<path d="M61.0865 7.17557L48.7551 11.4238V33.2323H43.2451V11.4238C43.2451 9.07284 44.7365 6.98089 46.9607 6.215L59.2902 1.9668L61.0865 7.17557Z" fill="#5FFE9F"/>
<path d="M46 35.9873L57.9378 91.4545H62.2089C62.9133 91.4545 63.5043 90.923 63.5787 90.2226L69.0501 38.7423V35.9873H46Z" fill="#2C51B9"/>
<path d="M63.5399 35.9873H22.9497V38.7423L28.4211 90.2226C28.4955 90.9231 29.0865 91.4545 29.7909 91.4545H57.9376L63.5399 38.7423V35.9873Z" fill="#285CEB"/>
<path d="M65.2205 24.9678H60.375V35.9877H69.0501V33.2328L66.5229 25.8966C66.3313 25.3408 65.8084 24.9678 65.2205 24.9678Z" fill="#D6D6D6"/>
<path d="M60.3751 24.9678H26.7798C26.1919 24.9678 25.6688 25.3408 25.4774 25.8966L22.9502 33.2328V35.9877H63.2225V33.2328L60.3751 24.9678Z" fill="#F3F3F3"/>
<path d="M71.8049 33.2324H66.2949V38.7424H71.8049C73.3264 38.7424 74.5599 37.5089 74.5599 35.9874C74.5599 34.4659 73.3266 33.2324 71.8049 33.2324Z" fill="#C0C0C0"/>
<path d="M69.0501 35.9874C69.0501 34.4659 67.8166 33.2324 66.2952 33.2324H20.1949C18.6734 33.2324 17.4399 34.4659 17.4399 35.9874C17.4399 37.5089 18.6734 38.7424 20.1949 38.7424H66.2952C67.8168 38.7424 69.0501 37.5089 69.0501 35.9874Z" fill="#DEDEDE"/>
</g>
<defs>
<clipPath id="clip0_4062_18251">
<rect width="90.9091" height="90.9091" fill="white" transform="translate(0.54541 0.545898)"/>
</clipPath>
</defs>
</svg>
