<svg width="92" height="92" viewBox="0 0 92 92" fill="none" xmlns="http://www.w3.org/2000/svg">
<g clip-path="url(#clip0_4062_18418)">
<path d="M81.7133 58.4506C81.6899 58.6861 81.6762 58.9256 81.6762 59.1688C81.6762 62.8057 84.5257 65.7801 88.1129 65.9803C88.1807 65.984 88.3159 65.9863 88.4358 65.9874C88.5601 65.9883 88.6601 66.0894 88.6601 66.2137V74.0746C88.6601 77.6542 85.7582 80.5561 82.1786 80.5561H9.34395C5.76435 80.5561 2.86249 77.6542 2.86249 74.0746V66.8286C2.86249 66.37 3.20238 65.9857 3.65637 65.9223C3.99515 65.875 4.32594 65.8028 4.64728 65.7071C7.46769 64.8681 9.52299 62.2599 9.52299 59.169C9.52299 57.4853 8.91371 55.9458 7.9035 54.7584C7.89961 54.7527 7.89385 54.7449 7.88606 54.7389C6.83263 53.5052 5.34431 52.6523 3.6586 52.4156C3.20368 52.3516 2.8623 51.9683 2.8623 51.5087V45.336C2.8623 41.7564 5.76417 38.8545 9.34376 38.8545H82.1803C85.7589 38.8545 88.6599 41.7554 88.6599 45.3341V52.1256C88.6599 52.2493 88.5586 52.3506 88.435 52.3504C88.3938 52.3504 88.3586 52.3504 88.3411 52.3508C84.8899 52.4293 82.068 55.0707 81.7133 58.4506Z" fill="#285CEB"/>
<path d="M88.6601 45.3339V52.1243C88.6601 52.2486 88.5602 52.3495 88.4359 52.3506C88.3124 52.3517 88.171 52.3541 88.1003 52.3582C84.7589 52.5506 82.0599 55.1495 81.7135 58.4508L14.8445 77.6989C11.4033 78.6896 7.81408 76.7024 6.82335 73.2631L4.64728 65.707C7.46769 64.8681 9.52299 62.2599 9.52299 59.169C9.52299 57.4853 8.91371 55.9458 7.9035 54.7584C7.89961 54.7527 7.89385 54.7449 7.88606 54.7389C6.83263 53.5052 5.34431 52.6523 3.6586 52.4156C3.20368 52.3515 2.8623 51.9682 2.8623 51.5087V45.336C2.8623 41.7564 5.76417 38.8545 9.34376 38.8545H82.1803C85.7589 38.8545 88.6601 41.7554 88.6601 45.3339Z" fill="#2C51B9"/>
<path d="M86.7644 51.7735L65.9517 57.7642L63.2764 58.5342L16.7698 71.9201C13.3301 72.9108 9.74013 70.9238 8.7494 67.4841L6.78205 60.6492C6.63678 60.1446 6.87741 59.6062 7.35367 59.385C10.3494 57.993 11.9687 54.5902 11.0258 51.3173C10.0854 48.047 6.90932 46.0253 3.63418 46.4355C3.11414 46.5006 2.62063 46.1934 2.47555 45.6898L0.79948 39.8663C-0.18939 36.4265 1.79577 32.8347 5.23548 31.8458L28.4888 25.1529L51.7421 18.4599L54.4174 17.69L75.23 11.6992C78.6697 10.7085 82.2597 12.6937 83.2505 16.1334L85.0327 22.3248C85.1199 22.6278 84.9544 22.9464 84.656 23.048C84.4759 23.1094 84.2924 23.1755 84.1788 23.2252C81.0928 24.5759 79.408 28.0358 80.3655 31.3597C81.3588 34.8082 84.836 36.869 88.2941 36.1547C88.3256 36.1482 88.3664 36.1388 88.4124 36.1275C88.7214 36.0518 89.0356 36.2323 89.1236 36.5379L91.2002 43.7529C92.1893 47.1928 90.2041 50.7828 86.7644 51.7735Z" fill="#F8F9FF"/>
<path d="M83.1879 15.9363C82.119 12.6192 78.6029 10.728 75.2298 11.6988L5.23503 31.8454C1.92444 32.7983 -0.0378967 36.1599 0.701993 39.4777L83.1879 15.9363Z" fill="#B3C3EC"/>
<path d="M53.0796 18.0742L64.6143 58.1491L16.7699 71.9201C13.3304 72.9101 9.73946 70.9244 8.74947 67.4849L6.78231 60.6502C6.63704 60.1455 6.87767 59.6071 7.35392 59.386C10.3498 57.9938 11.969 54.591 11.0268 51.3173C10.0853 48.0463 6.9094 46.0257 3.63444 46.4349C3.1144 46.4999 2.62089 46.1926 2.47599 45.6891L0.799922 39.8659C-0.190062 36.4264 1.79566 32.8355 5.23518 31.8455L53.0796 18.0742Z" fill="#F3F5FF"/>
<path d="M53.0796 18.0742L5.23535 31.8453C3.14647 32.4498 1.30584 34.1856 0.756488 36.4399C0.503983 37.4069 0.472072 38.4433 0.701942 39.4757C0.702128 39.4763 0.702128 39.477 0.702313 39.4776L54.7965 24.0392L53.0796 18.0742Z" fill="#94ABE4"/>
<path d="M33.5668 46.945L32.9243 58.1647C32.9015 58.5621 33.2783 58.863 33.6609 58.7528L36.7789 57.8554C36.9755 57.7988 37.1275 57.6424 37.1785 57.4444L40.3331 45.2051L33.5668 46.945Z" fill="#0942DF"/>
<path d="M32.5734 43.4936L26.0646 34.3322C25.834 34.0077 25.9932 33.5526 26.3758 33.4424L29.4938 32.545C29.6904 32.4884 29.9021 32.54 30.0507 32.6806L39.2292 41.3701L32.5734 43.4936Z" fill="#0942DF"/>
<path d="M19.4793 47.0544C19.4793 47.0544 40.4319 39.7778 42.9246 39.0603C45.4174 38.3429 48.2178 40.8589 48.2178 40.8589C48.2178 40.8589 47.1835 44.4787 44.6907 45.1962C42.1979 45.9136 20.583 50.8893 20.583 50.8893L18.4383 51.6251C18.178 51.7144 17.891 51.6077 17.7521 51.3702L15.1706 46.9537C14.9112 46.5099 15.317 45.9739 15.8146 46.103L19.4793 47.0544Z" fill="#0942DF"/>
<path d="M75.2002 23.5427L63.1358 27.0153C62.6021 27.1689 62.0447 26.8607 61.8911 26.3269L60.8906 22.8505C60.7369 22.3167 61.0451 21.7594 61.5789 21.6058L73.6433 18.1332C74.177 17.9796 74.7344 18.2878 74.888 18.8216L75.8886 22.298C76.0422 22.8319 75.734 23.3891 75.2002 23.5427Z" fill="#0942DF"/>
<path d="M55.3764 50.581L58.0949 60.0261L50.4252 62.2337L47.7066 52.7886C47.5316 52.1806 47.8827 51.5457 48.4906 51.3708L53.9587 49.7969C54.5667 49.622 55.2014 49.973 55.3764 50.581Z" fill="#5FFE9F"/>
<path d="M78.4539 74.7683H65.1483C64.5798 74.7683 64.1191 74.3076 64.1191 73.7391V70.41C64.1191 69.8415 64.5798 69.3809 65.1483 69.3809H78.4539C79.0221 69.3809 79.483 69.8415 79.483 70.41V73.7391C79.483 74.3076 79.0221 74.7683 78.4539 74.7683Z" fill="#5FFE9F"/>
<path d="M65.9519 57.7645L63.2766 58.5344L62.7386 56.6624C62.5252 55.924 62.9519 55.1522 63.6903 54.9407C64.4269 54.7274 65.2005 55.1541 65.412 55.8925L65.9519 57.7645Z" fill="#EAEAEA"/>
<path d="M63.5643 49.4714L62.5439 45.9222C62.3305 45.1838 61.5587 44.7571 60.8222 44.9704C60.0838 45.1819 59.6571 45.9537 59.8686 46.6921L60.8908 50.2413C61.0652 50.8517 61.6218 51.2487 62.2266 51.2487C62.3547 51.2487 62.4845 51.2302 62.6126 51.1931C63.351 50.9816 63.7777 50.2098 63.5643 49.4714ZM60.696 39.501L59.6738 35.9518C59.4604 35.2134 58.6905 34.7886 57.9521 35.0001C57.2137 35.2134 56.7869 35.9834 57.0003 36.7218L58.0207 40.271C58.197 40.8814 58.7535 41.2784 59.3565 41.2784C59.4845 41.2784 59.6144 41.2598 59.7424 41.2227C60.4808 41.0112 60.9075 40.2394 60.696 39.501ZM57.8259 29.5307L56.8036 25.9834C56.5921 25.245 55.8185 24.8182 55.0819 25.0297C54.3435 25.2431 53.9168 26.0149 54.1302 26.7533L55.1506 30.3006C55.3268 30.911 55.8834 31.3081 56.4882 31.3081C56.6144 31.3081 56.7443 31.2914 56.8723 31.2542C57.6107 31.0409 58.0374 30.2691 57.8259 29.5307Z" fill="#EAEAEA"/>
<path d="M54.0038 21.2841C53.8758 21.3212 53.7459 21.3379 53.6179 21.3379C53.0131 21.3379 52.4565 20.9409 52.2821 20.3324L51.7422 18.4604L54.4175 17.6904L54.9555 19.5624C55.1689 20.3008 54.7422 21.0708 54.0038 21.2841Z" fill="#EAEAEA"/>
<path d="M74.8085 45.1871C74.2041 45.1871 73.6477 44.7901 73.4722 44.1803C73.2595 43.4417 73.6859 42.6708 74.4245 42.4582L81.9026 40.3057C82.6395 40.093 83.4119 40.5192 83.6245 41.258C83.8371 41.9966 83.4108 42.7674 82.6722 42.9801L75.194 45.1326C75.0657 45.1695 74.9362 45.1871 74.8085 45.1871Z" fill="#60B7FF"/>
<path d="M76.1884 49.9801C75.5839 49.9801 75.0275 49.5831 74.852 48.973C74.6394 48.2346 75.0658 47.4636 75.8044 47.251L83.2825 45.0986C84.0196 44.886 84.7918 45.3122 85.0044 46.051C85.217 46.7894 84.7906 47.5604 84.0521 47.773L76.5739 49.9254C76.4454 49.9625 76.3157 49.9801 76.1884 49.9801Z" fill="#60B7FF"/>
<path d="M15.62 65.3376C15.0156 65.3376 14.4592 64.9405 14.2837 64.3307C14.0711 63.5921 14.4974 62.8212 15.236 62.6086L25.782 59.5732C26.5191 59.3607 27.2915 59.7867 27.5039 60.5255C27.7165 61.2641 27.2902 62.035 26.5516 62.2476L16.0056 65.283C15.877 65.3199 15.7475 65.3376 15.62 65.3376Z" fill="#FF6969"/>
<path d="M57.3057 73.1872H42.5131C41.7444 73.1872 41.1216 72.5642 41.1216 71.7958C41.1216 71.0273 41.7444 70.4043 42.5131 70.4043H57.3057C58.0743 70.4043 58.6971 71.0273 58.6971 71.7958C58.6971 72.5642 58.0743 73.1872 57.3057 73.1872Z" fill="#60B7FF"/>
</g>
<defs>
<clipPath id="clip0_4062_18418">
<rect width="90.9091" height="90.9091" fill="white" transform="translate(0.54541 0.545898)"/>
</clipPath>
</defs>
</svg>
