<svg width="92" height="92" viewBox="0 0 92 92" fill="none" xmlns="http://www.w3.org/2000/svg">
<path d="M89.8853 50.8216C89.6757 50.0403 89.2498 49.3339 88.6565 48.7839C88.0633 48.2338 87.3268 47.8625 86.5318 47.7125C85.7369 47.5625 84.9157 47.64 84.1628 47.936C83.4099 48.232 82.7559 48.7346 82.276 49.3859C82.2138 49.1443 82.089 48.9234 81.9141 48.7455L81.8852 48.7162V29.3097C82.3424 29.0616 82.7244 28.6948 82.991 28.2481C83.2575 27.8013 83.3988 27.2909 83.4001 26.7707V6.32768C83.3979 5.56208 83.0928 4.82845 82.5515 4.28709C82.0101 3.74572 81.2765 3.44063 80.5109 3.43848H50.1272C49.3615 3.44063 48.6279 3.74572 48.0865 4.28707C47.5451 4.82843 47.24 5.56206 47.2378 6.32768V11.3453H10.2456C8.97932 11.3468 7.76536 11.8505 6.86997 12.7459C5.97458 13.6413 5.47087 14.8553 5.46932 16.1215V63.6002C4.11563 65.2358 3.11856 67.1362 2.54201 69.1795C1.96547 71.2228 1.82215 73.3641 2.12125 75.466C2.42036 77.568 3.15528 79.5842 4.27893 81.3856C5.40258 83.187 6.89017 84.7338 8.64637 85.9269C10.4026 87.1199 12.3886 87.9329 14.4773 88.3138C16.566 88.6947 18.7112 88.635 20.7755 88.1386C22.8397 87.6421 24.7775 86.72 26.4647 85.4311C28.1518 84.1422 29.5511 82.5151 30.5728 80.654H43.5189V85.3857C43.5198 86.2278 43.8548 87.035 44.4502 87.6304C45.0456 88.2258 45.8528 88.5607 46.6948 88.5617H79.147C79.9891 88.5608 80.7963 88.2258 81.3918 87.6304C81.9872 87.035 82.3221 86.2278 82.323 85.3857V66.4369L89.4539 54.0841C89.7386 53.5961 89.9234 53.0563 89.9974 52.4962C90.0715 51.9361 90.0334 51.3669 89.8853 50.8216Z" fill="#F5F5F5"/>
<path d="M77.1805 75.3449C77.0966 75.4901 76.9877 75.6194 76.8588 75.7267L70.4717 81.0356C70.2486 81.2212 69.9739 81.334 69.6847 81.3586C69.3955 81.3833 69.1057 81.3187 68.8544 81.1736C68.6031 81.0285 68.4022 80.8098 68.279 80.547C68.1559 80.2842 68.1162 79.99 68.1654 79.7039L69.5697 71.5152C69.5981 71.3498 69.6555 71.1908 69.7394 71.0455L82.0148 49.782C82.0945 49.6452 82.1817 49.5128 82.276 49.3856C82.2138 49.144 82.089 48.9231 81.9142 48.7451L72.9102 39.6151C72.7782 39.4813 72.6209 39.375 72.4474 39.3024C72.2739 39.2299 72.0878 39.1925 71.8998 39.1924H46.6945C45.8525 39.1934 45.0452 39.5284 44.4499 40.1238C43.8545 40.7192 43.5195 41.5265 43.5186 42.3685V85.3857C43.5195 86.2278 43.8545 87.035 44.4499 87.6304C45.0453 88.2258 45.8525 88.5607 46.6945 88.5617H79.1471C79.9891 88.5608 80.7964 88.2258 81.3918 87.6304C81.9872 87.035 82.3221 86.2278 82.3231 85.3857V66.4369L77.1805 75.3449Z" fill="#E1EFFF"/>
<path d="M45.2941 85.3864V42.3695C45.2951 41.5275 45.63 40.7202 46.2254 40.1248C46.8208 39.5294 47.6281 39.1944 48.4701 39.1934H46.6945C45.8525 39.1944 45.0452 39.5294 44.4499 40.1248C43.8545 40.7202 43.5195 41.5275 43.5186 42.3695V85.3864C43.5195 86.2284 43.8545 87.0356 44.4499 87.631C45.0453 88.2264 45.8525 88.5613 46.6945 88.5623H48.4701C47.6281 88.5613 46.8208 88.2264 46.2254 87.631C45.63 87.0356 45.2951 86.2284 45.2941 85.3864Z" fill="#D7E8F9"/>
<path d="M50.1272 3.43848H80.5109C81.2765 3.44063 82.0101 3.74572 82.5515 4.28709C83.0928 4.82845 83.3979 5.56208 83.4001 6.32768V26.7707C83.398 27.5363 83.0929 28.27 82.5515 28.8114C82.0102 29.3528 81.2765 29.6579 80.5109 29.6601H59.8108L53.0056 36.4653V29.6604H50.1272C49.3615 29.6583 48.6277 29.3532 48.0863 28.8117C47.5449 28.2702 47.2398 27.5364 47.2378 26.7707V6.32768C47.2399 5.56205 47.5451 4.82839 48.0865 4.28702C48.6279 3.74565 49.3615 3.44058 50.1272 3.43848Z" fill="#0942DF"/>
<path d="M55.4917 29.6611H53.0059V36.4664L55.4917 33.9806V29.6611Z" fill="#265AB0"/>
<path d="M49.7236 26.7707V6.32768C49.7258 5.56206 50.0309 4.82843 50.5723 4.28707C51.1137 3.74572 51.8474 3.44063 52.613 3.43848H50.1272C49.3616 3.44063 48.6279 3.74572 48.0865 4.28707C47.5451 4.82843 47.24 5.56206 47.2378 6.32768V26.7707C47.2399 27.5363 47.5451 28.27 48.0865 28.8114C48.6279 29.3528 49.3615 29.6579 50.1272 29.6601H52.613C51.8473 29.6579 51.1136 29.3528 50.5722 28.8114C50.0309 28.27 49.7257 27.5363 49.7236 26.7707Z" fill="#265AB0"/>
<path d="M73.2891 7.35645C73.1026 7.35645 72.9181 7.39316 72.7458 7.46451C72.5736 7.53585 72.4171 7.64042 72.2853 7.77224C72.1535 7.90406 72.049 8.06055 71.9777 8.23278C71.9063 8.40501 71.8696 8.5896 71.8697 8.77601V9.5008C70.0075 10.4877 67.9581 10.9703 65.6289 10.9703H58.6777C57.1625 10.9703 55.9297 12.1352 55.9297 13.5674V17.795C55.9297 19.2272 57.1625 20.3921 58.6777 20.3921H60.1907L61.036 24.6022C61.1005 24.9237 61.2744 25.2131 61.5281 25.4209C61.7817 25.6288 62.0996 25.7423 62.4276 25.7423H63.9572C64.1437 25.7424 64.3284 25.7058 64.5007 25.6345C64.673 25.5633 64.8296 25.4587 64.9616 25.3269C65.0935 25.1951 65.1981 25.0386 65.2695 24.8663C65.3409 24.694 65.3777 24.5094 65.3777 24.3229V20.3921H65.6293C67.9581 20.3921 70.0076 20.8747 71.87 21.8618V22.5814C71.87 22.9579 72.0196 23.3189 72.2858 23.5851C72.5519 23.8513 72.913 24.0008 73.2894 24.0008C73.6659 24.0008 74.0269 23.8513 74.2931 23.5851C74.5593 23.3189 74.7088 22.9579 74.7088 22.5814V8.77601C74.7088 8.58957 74.6721 8.40495 74.6008 8.2327C74.5294 8.06045 74.4249 7.90394 74.293 7.77211C74.1612 7.64029 74.0046 7.53573 73.8324 7.4644C73.6601 7.39308 73.4755 7.3564 73.2891 7.35645Z" fill="#E7F8FF"/>
<path d="M17.216 58.0664C14.2001 58.0659 11.2517 58.9598 8.74389 60.6351C6.23603 62.3103 4.28131 64.6917 3.12695 67.478C1.97258 70.2642 1.67043 73.3302 2.2587 76.2882C2.84697 79.2462 4.29924 81.9633 6.43184 84.0959C8.56443 86.2285 11.2816 87.6807 14.2396 88.269C17.1976 88.8572 20.2636 88.555 23.0498 87.4006C25.8361 86.2462 28.2174 84.2915 29.8926 81.7836C31.5679 79.2757 32.4617 76.3274 32.4612 73.3114C32.456 69.2698 30.8481 65.3951 27.9902 62.5373C25.1323 59.6794 21.2577 58.0716 17.216 58.0664Z" fill="#0942DF"/>
<path d="M3.91904 73.3115C3.92452 69.4385 5.40208 65.7123 8.05236 62.888C10.7026 60.0638 14.3274 58.3526 18.1923 58.1011C17.8691 58.0805 17.5444 58.0665 17.2157 58.0665C15.209 58.0596 13.2207 58.449 11.3647 59.2122C9.5088 59.9754 7.82177 61.0974 6.40037 62.514C4.97898 63.9305 3.85118 65.6137 3.08166 67.467C2.31214 69.3204 1.91602 71.3074 1.91602 73.3141C1.91602 75.3208 2.31214 77.3078 3.08166 79.1612C3.85118 81.0145 4.97898 82.6977 6.40037 84.1142C7.82177 85.5308 9.5088 86.6528 11.3647 87.416C13.2207 88.1792 15.209 88.5685 17.2157 88.5617C17.5442 88.5617 17.869 88.5477 18.1923 88.5271C14.3268 88.2748 10.7017 86.5627 8.05146 83.7375C5.40121 80.9122 3.92398 77.1852 3.91904 73.3115Z" fill="#265AB0"/>
<path d="M47.2377 11.3457H10.2455C8.97924 11.3473 7.76528 11.851 6.86989 12.7464C5.9745 13.6417 5.47079 14.8557 5.46924 16.122V26.0272H28.49C28.7243 26.0271 28.9549 25.969 29.1614 25.8581C29.3678 25.7473 29.5436 25.5871 29.6731 25.3919L31.8341 22.1316H47.2377V11.3457Z" fill="#4671E7"/>
<path d="M47.243 6.21777C47.2416 6.25471 47.2373 6.29093 47.2373 6.32804C47.238 6.29093 47.243 6.25471 47.243 6.21777Z" fill="#C4DAEC"/>
<path fill-rule="evenodd" clip-rule="evenodd" d="M14.0557 20.1084C14.3367 20.1079 14.6113 20.0242 14.8447 19.8677C15.0782 19.7113 15.26 19.4892 15.3673 19.2295C15.4746 18.9698 15.5026 18.6841 15.4477 18.4085C15.3927 18.1329 15.2573 17.8798 15.0586 17.6811C14.8599 17.4824 14.6068 17.347 14.3312 17.2921C14.0556 17.2371 13.77 17.2651 13.5102 17.3724C13.2505 17.4797 13.0284 17.6616 12.872 17.895C12.7156 18.1285 12.6318 18.403 12.6313 18.684C12.6316 19.0617 12.7817 19.4239 13.0488 19.691C13.3159 19.958 13.678 20.1082 14.0557 20.1084Z" fill="white"/>
<path fill-rule="evenodd" clip-rule="evenodd" d="M18.7561 20.1084C19.0374 20.1089 19.3124 20.026 19.5465 19.8702C19.7807 19.7144 19.9633 19.4927 20.0714 19.2331C20.1795 18.9734 20.2082 18.6876 20.1538 18.4117C20.0995 18.1358 19.9645 17.8821 19.766 17.6829C19.5675 17.4837 19.3144 17.3478 19.0387 17.2925C18.763 17.2371 18.477 17.2648 18.217 17.3719C17.957 17.4791 17.7346 17.6609 17.5779 17.8945C17.4213 18.128 17.3374 18.4028 17.3369 18.684C17.3371 19.0608 17.4866 19.4222 17.7525 19.6891C18.0185 19.9561 18.3793 20.1068 18.7561 20.1084Z" fill="white"/>
<path fill-rule="evenodd" clip-rule="evenodd" d="M23.4573 20.1084C23.7385 20.1089 24.0136 20.026 24.2477 19.8702C24.4818 19.7144 24.6645 19.4927 24.7726 19.2331C24.8807 18.9734 24.9094 18.6876 24.855 18.4117C24.8007 18.1358 24.6657 17.8821 24.4672 17.6829C24.2687 17.4837 24.0156 17.3478 23.7399 17.2925C23.4641 17.2371 23.1782 17.2648 22.9182 17.3719C22.6582 17.4791 22.4358 17.6609 22.2791 17.8945C22.1225 18.128 22.0386 18.4028 22.0381 18.684C22.0375 19.0611 22.1866 19.423 22.4528 19.6901C22.7189 19.9572 23.0802 20.1076 23.4573 20.1084Z" fill="white"/>
<path d="M24.5472 72.0588L13.4538 66.15C13.2376 66.0348 12.9952 65.9776 12.7502 65.9839C12.5053 65.9901 12.2661 66.0597 12.056 66.1858C11.8459 66.312 11.6721 66.4903 11.5514 66.7036C11.4307 66.9168 11.3672 67.1577 11.3672 67.4027V79.2209C11.3672 79.4659 11.4307 79.7067 11.5514 79.9199C11.6722 80.1331 11.8461 80.3114 12.0561 80.4375C12.2662 80.5635 12.5054 80.633 12.7503 80.6392C12.9953 80.6454 13.2376 80.5881 13.4538 80.4728L24.5465 74.5643C24.7737 74.4433 24.9637 74.2628 25.0962 74.0421C25.2286 73.8214 25.2986 73.5689 25.2986 73.3115C25.2986 73.0541 25.2286 72.8016 25.0962 72.5809C24.9637 72.3602 24.7737 72.1798 24.5465 72.0588H24.5472Z" fill="white"/>
<path d="M37.2425 30.707H14.4077C13.6238 30.707 12.9883 31.3425 12.9883 32.1264V52.2434C12.9883 53.0273 13.6238 53.6628 14.4077 53.6628H37.2425C38.0264 53.6628 38.6619 53.0273 38.6619 52.2434V32.1264C38.6619 31.3425 38.0264 30.707 37.2425 30.707Z" fill="#00A3FF"/>
<path d="M14.9384 52.2436V32.1264C14.9387 31.7499 15.0884 31.3889 15.3548 31.1227C15.6212 30.8565 15.9823 30.707 16.3588 30.707H14.4077C14.0312 30.707 13.6702 30.8566 13.404 31.1228C13.1378 31.3889 12.9883 31.75 12.9883 32.1264V52.2436C12.9883 52.6201 13.1378 52.9811 13.404 53.2473C13.6702 53.5135 14.0312 53.663 14.4077 53.663H16.358C15.9816 53.6628 15.6207 53.5131 15.3545 53.247C15.0883 52.9809 14.9387 52.62 14.9384 52.2436Z" fill="#3899D0"/>
<path d="M23.1149 34.7539C22.3822 34.7539 21.6659 34.9711 21.0567 35.3782C20.4474 35.7852 19.9726 36.3638 19.6922 37.0407C19.4118 37.7176 19.3384 38.4625 19.4813 39.1811C19.6243 39.8998 19.9771 40.5599 20.4952 41.078C21.0133 41.5961 21.6734 41.9489 22.392 42.0918C23.1107 42.2348 23.8555 42.1614 24.5325 41.881C25.2094 41.6006 25.7879 41.1257 26.195 40.5165C26.602 39.9072 26.8193 39.191 26.8192 38.4583C26.8181 37.4762 26.4275 36.5346 25.733 35.8401C25.0386 35.1457 24.097 34.755 23.1149 34.7539Z" fill="white"/>
<path d="M89.8853 50.8224C89.665 50.002 89.2067 49.2653 88.568 48.7052C87.9293 48.1451 87.139 47.7869 86.2969 47.6757C85.4547 47.5645 84.5985 47.7053 83.8364 48.0804C83.0742 48.4555 82.4403 49.0481 82.0147 49.7832L69.7391 71.0476C69.6552 71.1929 69.5978 71.3519 69.5694 71.5172L68.1651 79.706C68.1159 79.992 68.1555 80.2862 68.2787 80.549C68.4019 80.8118 68.6027 81.0305 68.8541 81.1756C69.1054 81.3208 69.3952 81.3853 69.6844 81.3607C69.9736 81.336 70.2482 81.2232 70.4714 81.0376L76.8584 75.7287C76.9874 75.6214 77.0963 75.4922 77.1802 75.3469L89.4536 54.0857C89.7385 53.5977 89.9233 53.0577 89.9975 52.4975C90.0716 51.9372 90.0334 51.3678 89.8853 50.8224Z" fill="#5FFE9F"/>
<path d="M74.7154 49.7427H82.0409C82.1138 49.6195 82.1922 49.5008 82.2761 49.3865C82.214 49.1449 82.0891 48.924 81.9143 48.7461L72.9104 39.6161C72.7783 39.4823 72.621 39.376 72.4475 39.3034C72.2741 39.2309 72.0879 39.1934 71.8999 39.1934V46.9272C71.8999 47.6739 72.1965 48.3901 72.7245 48.9181C73.2526 49.4461 73.9687 49.7427 74.7154 49.7427Z" fill="#CADEEF"/>
<path d="M55.2861 75.6122H51.0478C50.6714 75.6122 50.3103 75.4627 50.0441 75.1965C49.778 74.9303 49.6284 74.5693 49.6284 74.1928C49.6284 73.8164 49.778 73.4554 50.0441 73.1892C50.3103 72.923 50.6714 72.7734 51.0478 72.7734H55.2861C55.6625 72.7734 56.0236 72.923 56.2897 73.1892C56.5559 73.4554 56.7055 73.8164 56.7055 74.1928C56.7055 74.5693 56.5559 74.9303 56.2897 75.1965C56.0236 75.4627 55.6625 75.6122 55.2861 75.6122Z" fill="#0942DF"/>
<path d="M65.5682 81.3651H51.0478C50.6714 81.3651 50.3103 81.2156 50.0441 80.9494C49.778 80.6832 49.6284 80.3222 49.6284 79.9458C49.6284 79.5693 49.778 79.2083 50.0441 78.9421C50.3103 78.6759 50.6714 78.5264 51.0478 78.5264H65.5682C65.9447 78.5264 66.3057 78.6759 66.5719 78.9421C66.8381 79.2083 66.9876 79.5693 66.9876 79.9458C66.9876 80.3222 66.8381 80.6832 66.5719 80.9494C66.3057 81.2156 65.9447 81.3651 65.5682 81.3651Z" fill="#0942DF"/>
<path d="M65.5681 75.6122H60.1474C59.771 75.6122 59.4099 75.4627 59.1438 75.1965C58.8776 74.9303 58.728 74.5693 58.728 74.1928C58.728 73.8164 58.8776 73.4554 59.1438 73.1892C59.4099 72.923 59.771 72.7734 60.1474 72.7734H65.5681C65.9445 72.7734 66.3055 72.923 66.5717 73.1892C66.8379 73.4554 66.9874 73.8164 66.9874 74.1928C66.9874 74.5693 66.8379 74.9303 66.5717 75.1965C66.3055 75.4627 65.9445 75.6122 65.5681 75.6122Z" fill="#0942DF"/>
<path d="M55.2861 64.1171H51.0478C50.6714 64.1171 50.3103 63.9676 50.0441 63.7014C49.778 63.4352 49.6284 63.0742 49.6284 62.6977C49.6284 62.3213 49.778 61.9602 50.0441 61.6941C50.3103 61.4279 50.6714 61.2783 51.0478 61.2783H55.2861C55.6625 61.2783 56.0236 61.4279 56.2897 61.6941C56.5559 61.9602 56.7055 62.3213 56.7055 62.6977C56.7055 63.0742 56.5559 63.4352 56.2897 63.7014C56.0236 63.9676 55.6625 64.1171 55.2861 64.1171Z" fill="#0942DF"/>
<path d="M65.5682 69.8642H51.0478C50.6714 69.8642 50.3103 69.7146 50.0441 69.4484C49.778 69.1823 49.6284 68.8212 49.6284 68.4448C49.6284 68.0683 49.778 67.7073 50.0441 67.4411C50.3103 67.1749 50.6714 67.0254 51.0478 67.0254H65.5682C65.9447 67.0254 66.3057 67.1749 66.5719 67.4411C66.8381 67.7073 66.9876 68.0683 66.9876 68.4448C66.9876 68.8212 66.8381 69.1823 66.5719 69.4484C66.3057 69.7146 65.9447 69.8642 65.5682 69.8642Z" fill="#0942DF"/>
<path d="M70.7319 64.1171H60.1474C59.771 64.1171 59.4099 63.9676 59.1438 63.7014C58.8776 63.4352 58.728 63.0742 58.728 62.6977C58.728 62.3213 58.8776 61.9602 59.1438 61.6941C59.4099 61.4279 59.771 61.2783 60.1474 61.2783H70.7319C71.1084 61.2783 71.4694 61.4279 71.7356 61.6941C72.0018 61.9602 72.1513 62.3213 72.1513 62.6977C72.1513 63.0742 72.0018 63.4352 71.7356 63.7014C71.4694 63.9676 71.1084 64.1171 70.7319 64.1171Z" fill="#0942DF"/>
<path d="M73.2334 58.3642H51.0478C50.6714 58.3642 50.3103 58.2146 50.0441 57.9484C49.778 57.6823 49.6284 57.3212 49.6284 56.9448C49.6284 56.5683 49.778 56.2073 50.0441 55.9411C50.3103 55.6749 50.6714 55.5254 51.0478 55.5254H73.2334C73.6098 55.5254 73.9708 55.6749 74.237 55.9411C74.5032 56.2073 74.6527 56.5683 74.6527 56.9448C74.6527 57.3212 74.5032 57.6823 74.237 57.9484C73.9708 58.2146 73.6098 58.3642 73.2334 58.3642Z" fill="#0942DF"/>
<path d="M56.4684 52.6163H51.0477C50.674 52.6121 50.317 52.4607 50.0542 52.195C49.7914 51.9292 49.644 51.5706 49.644 51.1968C49.644 50.8231 49.7914 50.4644 50.0542 50.1987C50.317 49.9329 50.674 49.7815 51.0477 49.7773H56.4684C56.8421 49.7815 57.1991 49.9329 57.4619 50.1987C57.7247 50.4644 57.8721 50.8231 57.8721 51.1968C57.8721 51.5706 57.7247 51.9292 57.4619 52.195C57.1991 52.4607 56.8421 52.6121 56.4684 52.6163Z" fill="#0942DF"/>
<path d="M73.289 24.0016C73.1025 24.0016 72.9179 23.9648 72.7456 23.8935C72.5733 23.8221 72.4168 23.7174 72.285 23.5855C72.1532 23.4536 72.0486 23.297 71.9774 23.1246C71.9061 22.9523 71.8695 22.7676 71.8696 22.5811V8.77681C71.8696 8.40037 72.0192 8.03934 72.2854 7.77315C72.5515 7.50696 72.9126 7.35742 73.289 7.35742C73.6655 7.35742 74.0265 7.50696 74.2927 7.77315C74.5589 8.03934 74.7084 8.40037 74.7084 8.77681V22.5822C74.7084 22.9587 74.5589 23.3197 74.2927 23.5859C74.0265 23.8521 73.6655 24.0016 73.289 24.0016Z" fill="#FF6969"/>
<path d="M78.1748 56.4346L85.6153 60.7336L87.5574 57.3691L80.1118 53.0791L78.1748 56.4346Z" fill="#83A7C5"/>
<path d="M87.5575 57.3692L89.454 54.0844C90.0156 53.0984 90.1643 51.9302 89.8677 50.8349C89.5711 49.7396 88.8533 48.8061 87.8709 48.2381C86.8885 47.6702 85.7213 47.5138 84.6241 47.8033C83.5269 48.0927 82.5887 48.8045 82.0144 49.7831L80.1113 53.0797L87.5575 57.3692Z" fill="#FF6969"/>
<path d="M69.7401 71.0459V71.047C69.6562 71.1922 69.5987 71.3513 69.5704 71.5166L68.1661 79.7053C68.1168 79.9914 68.1565 80.2856 68.2797 80.5484C68.4029 80.8112 68.6037 81.0299 68.8551 81.175C69.1064 81.3201 69.3962 81.3847 69.6854 81.36C69.9746 81.3354 70.2492 81.2226 70.4723 81.037L76.8594 75.7281C76.9884 75.6208 77.0973 75.4916 77.1812 75.3463L69.7401 71.0459Z" fill="#F4BAA6"/>
<path d="M69.7397 71.0527L78.1752 56.4425L80.3653 57.707L71.9298 72.3172L69.7397 71.0527Z" fill="#40CE79"/>
<path d="M5.46924 16.1222V26.0272H8.63721V16.0375C8.63795 14.9327 9.02051 13.8622 9.72008 13.0072C10.4197 12.1521 11.3933 11.5652 12.476 11.3457H10.2459C8.97951 11.3472 7.76543 11.8509 6.86995 12.7463C5.97448 13.6417 5.47074 14.8558 5.46924 16.1222Z" fill="#3B63D1"/>
<path d="M8.63721 60.7161V26.0273H5.46924V63.6017C6.38536 62.4967 7.4517 61.5254 8.63721 60.7161Z" fill="#DDDDDD"/>
<path d="M65.3773 10.9707H58.6777C57.1625 10.9707 55.9297 12.1357 55.9297 13.5678V17.7955C55.9297 19.2276 57.1625 20.3926 58.6777 20.3926H65.3768L65.3773 10.9707Z" fill="#FF6969"/>
<path d="M59.8062 18.8888C58.291 18.8888 57.0582 17.7236 57.0582 16.2916V12.0638C57.0591 11.8431 57.0898 11.6236 57.1495 11.4111C56.7804 11.6382 56.475 11.9551 56.2618 12.3323C56.0485 12.7095 55.9344 13.1346 55.9302 13.5679V17.7955C55.9302 19.2277 57.163 20.3927 58.6782 20.3927H65.3773V18.8888H59.8062Z" fill="#F75E5E"/>
<path d="M61.0363 24.6026C61.1007 24.9242 61.2746 25.2135 61.5283 25.4213C61.782 25.6292 62.0998 25.7428 62.4278 25.7427H63.9574C64.1439 25.7429 64.3286 25.7062 64.5009 25.635C64.6733 25.5637 64.8299 25.4592 64.9618 25.3274C65.0937 25.1956 65.1983 25.039 65.2697 24.8668C65.3411 24.6945 65.3779 24.5098 65.3779 24.3233V20.3926H60.1909L61.0363 24.6026Z" fill="#80FFB3"/>
<path d="M62.7438 25.2294L62.1511 22.2777C62.1205 22.1251 62.1241 21.9677 62.1617 21.8167C62.1993 21.6656 62.2699 21.5249 62.3685 21.4045C62.4671 21.2841 62.5912 21.1871 62.7319 21.1205C62.8725 21.0539 63.0262 21.0194 63.1818 21.0194H65.3768V20.3926H60.1914L61.0364 24.6026C61.1009 24.9242 61.2747 25.2135 61.5284 25.4213C61.7821 25.6292 62.1 25.7428 62.4279 25.7427H62.9606C62.8549 25.5878 62.7811 25.4132 62.7438 25.2294Z" fill="#80FFB3"/>
<path d="M71.8698 21.8617V15.3672C71.8698 18.8349 65.3774 18.8881 65.3774 18.8881V20.392H65.629C67.9573 20.392 70.0069 20.8746 71.8698 21.8617Z" fill="#9DE6FF"/>
<path d="M84.1871 51.0782C84.6531 50.2757 85.3656 49.645 86.2187 49.2797C87.0718 48.9144 88.0199 48.8341 88.9223 49.0507C88.4677 48.5492 87.9011 48.1622 87.2687 47.921C86.6363 47.6798 85.9559 47.5913 85.2828 47.6626C84.6097 47.734 83.963 47.9633 83.3952 48.3317C82.8275 48.7002 82.3547 49.1975 82.0154 49.7831L80.1123 53.0796L82.3035 54.3421L84.1871 51.0782Z" fill="#F75E5E"/>
<path d="M82.303 54.3415L80.1118 53.0791L78.1748 56.4346L80.3644 57.6997L82.303 54.3415Z" fill="#759FBC"/>
<path d="M68.4797 77.874L68.1656 79.7059C68.1164 79.9919 68.156 80.2861 68.2792 80.5489C68.4024 80.8117 68.6032 81.0304 68.8546 81.1755C69.1059 81.3207 69.3957 81.3852 69.6849 81.3606C69.9741 81.3359 70.2487 81.2232 70.4719 81.0376L71.8998 79.8504L68.4797 77.874Z" fill="#83A7C5"/>
<path d="M68.4795 77.8738L70.6581 79.1327L71.7421 72.8117C71.7706 72.6464 71.828 72.4875 71.9118 72.3422L71.9296 72.311L69.74 71.0459V71.047C69.6561 71.1923 69.5986 71.3513 69.5702 71.5166L68.48 77.8731L68.4795 77.8738Z" fill="#EFAD9C"/>
<path d="M68.4795 77.874L68.1654 79.7059C68.1184 79.9767 68.1512 80.2554 68.2597 80.508C68.3683 80.7606 68.548 80.9761 68.7769 81.1284C69.0058 81.2807 69.274 81.3631 69.5489 81.3656C69.8238 81.3682 70.0936 81.2907 70.3252 81.1427C70.3271 81.0951 70.3315 81.0477 70.3384 81.0006L70.658 79.1325L68.4795 77.874Z" fill="#759FBC"/>
<path d="M32.298 39.3008C32.146 39.147 31.9649 39.0249 31.7653 38.9418C31.5657 38.8586 31.3515 38.816 31.1352 38.8164C30.9186 38.8191 30.7049 38.866 30.507 38.9542C30.3092 39.0424 30.1314 39.1701 29.9846 39.3294L24.2659 45.5382L22.5049 43.718C22.3566 43.5647 22.1789 43.4428 21.9825 43.3595C21.7861 43.2762 21.5749 43.2333 21.3616 43.2333H21.3421C21.1255 43.236 20.9117 43.2829 20.7139 43.371C20.5161 43.4592 20.3383 43.5868 20.1915 43.7461L14.9385 49.4473V51.5925H36.7117V43.861L32.298 39.3008Z" fill="white"/>
</svg>
