<svg width="92" height="92" viewBox="0 0 92 92" fill="none" xmlns="http://www.w3.org/2000/svg">
<g clip-path="url(#clip0_4062_18280)">
<path d="M84.5676 34.017C84.5676 25.04 77.2911 17.7637 68.3142 17.7637C55.6908 17.7637 44.8226 17.7637 34.8313 17.7637C23.6578 34.6326 22.7457 54.5334 34.3361 70.1053C50.7553 75.9993 67.4337 77.1903 84.5678 70.1053V34.017H84.5676Z" fill="#005DAF"/>
<path d="M34.8311 17.7637C31.004 17.7637 27.305 17.7637 23.686 17.7637C14.7089 17.7637 7.43262 25.0401 7.43262 34.017V70.1053C15.8817 75.5472 24.8366 75.6827 34.3358 70.1053C29.8497 53.5284 29.3612 33.8258 34.8311 17.7637Z" fill="#0942DF"/>
<path d="M77.6804 36.2207C77.6804 29.8313 72.4995 24.6504 66.1101 24.6504H32.894C23.7811 39.2788 24.7386 55.8215 34.3358 70.1049C52.4746 77.1083 76.5256 74.1752 77.6804 70.1049V36.2207Z" fill="#F5F5F5"/>
<path d="M32.8939 24.6514H25.8896C19.5003 24.6514 14.3193 29.8323 14.3193 36.2217V70.1059C16.5777 72.8959 26.6789 75.4786 34.3355 70.1059C30.468 55.8144 29.5768 39.2733 32.8939 24.6514Z" fill="#E3E4E4"/>
<path d="M91.4543 76.6252C91.4543 73.0236 88.536 70.1055 84.9346 70.1055H58.3964L34.8307 72.3553C31.2322 79.8145 33.1196 84.1003 42.1301 89.3892H78.6903C85.7391 89.3892 91.4543 83.6715 91.4543 76.6252Z" fill="#4671E7"/>
<path d="M7.06512 70.1055C3.45823 70.1055 0.54541 73.0312 0.54541 76.6252C0.54541 83.6738 6.26079 89.3892 13.3094 89.3892H42.1303C39.0836 84.0463 36.5095 77.8452 34.5912 71.0311L33.6033 70.1055H7.06512Z" fill="#2C51B9"/>
<path d="M33.6035 70.1055H58.3968C58.3968 74.6717 54.6946 78.3699 50.1323 78.3699H41.8679C37.3042 78.3699 33.6035 74.6692 33.6035 70.1055Z" fill="#0942DF"/>
<path d="M66.6612 82.9611C68.4362 82.9611 69.8752 81.5222 69.8752 79.7472C69.8752 77.9721 68.4362 76.5332 66.6612 76.5332C64.8862 76.5332 63.4473 77.9721 63.4473 79.7472C63.4473 81.5222 64.8862 82.9611 66.6612 82.9611Z" fill="#FF6969"/>
<path d="M79.0577 82.9611C80.8327 82.9611 82.2717 81.5222 82.2717 79.7472C82.2717 77.9721 80.8327 76.5332 79.0577 76.5332C77.2827 76.5332 75.8438 77.9721 75.8438 79.7472C75.8438 81.5222 77.2827 82.9611 79.0577 82.9611Z" fill="#5FFE9F"/>
<path d="M64.5947 49.9605V54.438C64.5947 57.3526 61.6819 59.371 58.9529 58.3479L53.5754 56.3314L50.04 52.5665L53.5754 48.067L58.9529 46.0505C61.6821 45.0276 64.5947 47.0459 64.5947 49.9605Z" fill="#625AC4"/>
<path d="M53.5756 57.1577C53.5756 60.5057 50.8631 63.2182 47.5151 63.2182H35.6694L31.5371 52.9336L35.6694 41.1797H47.5151C50.8631 41.1797 53.5756 43.8922 53.5756 47.2402V48.0668V57.1577Z" fill="#827CD1"/>
<path d="M35.6692 41.1797V63.2184H33.4653C30.1173 63.2184 27.4048 60.5059 27.4048 57.1578V47.2404C27.4048 43.8924 30.1173 41.1799 33.4653 41.1799L35.6692 41.1797Z" fill="#625AC4"/>
<path d="M81.2615 34.2929C86.8792 34.2929 91.4543 29.74 91.4543 24.1001V12.8051C91.4543 7.17605 86.8906 2.6123 81.2615 2.6123H56.5813C50.3588 13.0992 50.1397 25.5024 61.0998 34.2927C63.5041 34.2929 78.0754 34.2929 81.2615 34.2929Z" fill="#FF6969"/>
<path d="M56.5814 2.6123H46.5508C40.9217 2.6123 36.358 7.17605 36.358 12.8051V17.7639C36.3635 24.4019 36.3461 24.1224 36.3727 24.6491C36.6574 30.0228 41.1055 34.2927 46.5508 34.2927H61.1C55.8092 25.0825 54.2801 12.8078 56.5814 2.6123Z" fill="#EA5555"/>
<path d="M50.1324 26.028H46.0001V10.8765C46.0001 10.1159 45.3834 9.49902 44.6226 9.49902C43.862 9.49902 43.2451 10.1157 43.2451 10.8765V27.4055C43.2451 28.1661 43.8618 28.7829 44.6226 28.7829H50.1322C50.8928 28.7829 51.5097 28.1663 51.5097 27.4055C51.5097 26.6446 50.893 26.028 50.1324 26.028Z" fill="white"/>
<path d="M55.6421 9.49902C54.8815 9.49902 54.2646 10.1157 54.2646 10.8765V27.4055C54.2646 28.1661 54.8813 28.7829 55.6421 28.7829C56.4028 28.7829 57.0196 28.1663 57.0196 27.4055V10.8765C57.0196 10.1157 56.4028 9.49902 55.6421 9.49902Z" fill="white"/>
<path d="M72.6063 9.57016C71.8847 9.32974 71.1046 9.71966 70.864 10.4414L66.661 23.0501L62.4581 10.4414C62.2175 9.71966 61.4373 9.32939 60.7157 9.57016C59.9939 9.81075 59.604 10.5909 59.8444 11.3125L65.354 27.8415C65.5415 28.404 66.068 28.7834 66.6608 28.7834C67.2537 28.7834 67.7802 28.404 67.9677 27.8415L73.4773 11.3125C73.718 10.5909 73.3281 9.81075 72.6063 9.57016Z" fill="white"/>
<path d="M83.1903 20.5186C83.951 20.5186 84.5678 19.9019 84.5678 19.1411C84.5678 18.3804 83.9511 17.7636 83.1903 17.7636H79.058V12.254H83.1903C83.951 12.254 84.5678 11.6373 84.5678 10.8765C84.5678 10.1159 83.9511 9.49902 83.1903 9.49902H77.6807C76.9201 9.49902 76.3032 10.1157 76.3032 10.8765V27.4055C76.3032 28.1661 76.9199 28.7829 77.6807 28.7829H83.1903C83.951 28.7829 84.5678 28.1663 84.5678 27.4055C84.5678 26.6448 83.9511 26.028 83.1903 26.028H79.058V20.5184L83.1903 20.5186Z" fill="white"/>
</g>
<defs>
<clipPath id="clip0_4062_18280">
<rect width="90.9091" height="90.9091" fill="white" transform="translate(0.54541 0.545898)"/>
</clipPath>
</defs>
</svg>
