<svg width="92" height="92" viewBox="0 0 92 92" fill="none" xmlns="http://www.w3.org/2000/svg">
<path d="M44.4865 89.504C35.9471 84.0176 14.1562 67.3858 11.3835 42.3903C9.04105 21.2858 24.8214 2.0691 45.9577 2.06153C65.2259 2.05546 80.8486 17.7479 80.8486 37.1055C80.8486 65.0297 56.6001 83.6252 47.4638 89.4979C46.5517 90.0843 45.3971 90.0903 44.485 89.5055L44.4865 89.504Z" fill="#285CEB"/>
<path d="M45.9998 65.6978C61.8989 65.6978 74.7877 52.8091 74.7877 36.91C74.7877 21.0108 61.8989 8.12207 45.9998 8.12207C30.1007 8.12207 17.2119 21.0108 17.2119 36.91C17.2119 52.8091 30.1007 65.6978 45.9998 65.6978Z" fill="white"/>
<path d="M29.3335 32.3639V50.5457C29.3335 52.2199 30.6896 53.576 32.3638 53.576H59.6365C61.3108 53.576 62.6668 52.2199 62.6668 50.5457V32.3639L46.0002 21.7578L29.3335 32.3639Z" fill="#F5F5F5"/>
<path d="M35.394 53.5763V36.9097C35.394 36.0763 36.0759 35.3945 36.9092 35.3945H41.4546C42.288 35.3945 42.9698 36.0763 42.9698 36.9097V53.5763H35.394Z" fill="#265AB0"/>
<path d="M55.0908 23.97V20.2427C55.0908 19.4094 55.7726 18.7275 56.606 18.7275H59.6363C60.4696 18.7275 61.1514 19.4094 61.1514 20.2427V27.8184L55.0908 23.97Z" fill="#FF6969"/>
<path d="M55.0909 35.3945H50.5454C49.7086 35.3945 49.0303 36.0729 49.0303 36.9097V41.4551C49.0303 42.2919 49.7086 42.9703 50.5454 42.9703H55.0909C55.9277 42.9703 56.606 42.2919 56.606 41.4551V36.9097C56.606 36.0729 55.9277 35.3945 55.0909 35.3945Z" fill="#4F86D1"/>
<path d="M62.6637 33.878C62.1076 33.878 61.544 33.725 61.0394 33.4053L46 23.8356L30.9607 33.4053C29.547 34.3053 27.6773 33.8871 26.7758 32.4765C25.8773 31.0629 26.294 29.1902 27.7046 28.2917L44.3713 17.6856C45.3652 17.0553 46.6319 17.0553 47.6258 17.6856L64.2925 28.2917C65.7046 29.1902 66.1197 31.0629 65.2213 32.4765C64.644 33.3841 63.6637 33.8796 62.6622 33.8796L62.6637 33.878Z" fill="#285CEB"/>
</svg>
