<svg width="92" height="92" viewBox="0 0 92 92" fill="none" xmlns="http://www.w3.org/2000/svg">
<g clip-path="url(#clip0_4062_18355)">
<path d="M8.04076 49.1055L2.75864 59.8729C2.69969 60.0005 2.64767 60.1316 2.6019 60.2648C1.64895 63.1326 2.13097 66.2828 3.89677 68.7352C5.66256 71.1869 8.49851 72.642 11.5203 72.6468H20.9243V66.3778H11.5203C10.5417 66.3785 9.6193 65.9221 9.02561 65.1439C8.43193 64.3658 8.23565 63.356 8.49504 62.412L13.7147 51.8013L8.04076 49.1055Z" fill="#5FFE9F"/>
<path d="M71.0796 31.8965H80.6243C83.4526 31.8986 86.1298 33.1733 87.9136 35.3677C89.6981 37.5621 90.4 40.4432 89.825 43.2125L83.3049 69.4657L77.2231 67.9448L83.712 41.8178C83.8722 40.9301 83.6316 40.0173 83.0538 39.3252C82.4608 38.5914 81.5675 38.1655 80.6243 38.1655H71.0796" fill="#5FFE9F"/>
<path d="M72.6463 85.1854V67.9443H19.3569V85.1854C19.3569 88.6477 22.1638 91.4545 25.6267 91.4545H66.3773C68.3504 91.4545 70.2085 90.5258 71.393 88.9473L72.6463 85.1854Z" fill="#285CEB"/>
<path d="M72.6463 68.07V6.81857C72.6463 3.35565 69.8395 0.548828 66.3773 0.548828H25.6267C22.1638 0.548828 19.3569 3.35565 19.3569 6.81857V78.9158H66.4716" fill="#285CEB"/>
<path d="M19.3569 9.95312H72.6463V78.9155H19.3569V9.95312Z" fill="#ECECEC"/>
<path d="M72.6463 9.95312V12.9465C63.8694 17.3353 38.4471 33.1338 19.3569 75.3735V9.95312H72.6463Z" fill="#F5F5F5"/>
<path d="M49.1365 86.753H42.8668C42.0012 86.753 41.2993 86.0512 41.2993 85.1856C41.2993 84.32 42.0012 83.6182 42.8668 83.6182H49.1365C50.0021 83.6182 50.7032 84.32 50.7032 85.1856C50.7032 86.0512 50.0021 86.753 49.1365 86.753Z" fill="white"/>
<path d="M56.973 55.4065H50.7033V49.1368C50.7033 48.2712 50.0021 47.5693 49.1366 47.5693H42.8668C42.0013 47.5693 41.2994 48.2712 41.2994 49.1368V55.4065H35.0303C34.1648 55.4065 33.4629 56.1077 33.4629 56.9733V63.243C33.4629 64.1086 34.1648 64.8104 35.0303 64.8104H41.2994V71.0795C41.2994 71.9451 42.0013 72.6469 42.8668 72.6469H49.1366C50.0021 72.6469 50.7033 71.9451 50.7033 71.0795V64.8104H56.973C57.8386 64.8104 58.5405 64.1086 58.5405 63.243V56.9733C58.5405 56.1077 57.8386 55.4065 56.973 55.4065Z" fill="#FF6969"/>
<path d="M91.4545 78.916C91.4545 85.8412 85.8409 91.4548 78.9158 91.4548C71.9906 91.4548 66.377 85.8412 66.377 78.916C66.377 71.9916 71.9906 66.3779 78.9158 66.3779C85.8409 66.3779 91.4545 71.9916 91.4545 78.916Z" fill="#C1D2FF"/>
<path d="M85.1848 78.9155C85.1848 82.3785 82.378 85.1853 78.9157 85.1853C75.4535 85.1853 72.646 82.3785 72.646 78.9155C72.646 75.4533 75.4535 72.6465 78.9157 72.6465C82.378 72.6465 85.1848 75.4533 85.1848 78.9155Z" fill="#285CEB"/>
<path d="M60.108 28.7618H58.5406C57.675 28.7618 56.9731 28.0599 56.9731 27.1944C56.9731 26.3288 57.675 25.627 58.5406 25.627H60.108C60.9736 25.627 61.6748 26.3288 61.6748 27.1944C61.6748 28.0599 60.9736 28.7618 60.108 28.7618Z" fill="#3B3A89"/>
<path d="M52.271 28.7618H41.8794C41.0139 28.7618 40.312 28.0599 40.312 27.1944C40.312 26.3288 41.0139 25.627 41.8794 25.627H52.271C53.1366 25.627 53.8384 26.3288 53.8384 27.1944C53.8384 28.0599 53.1366 28.7618 52.271 28.7618Z" fill="#3B3A89"/>
<path d="M55.4059 36.5987H36.7388C35.8733 36.5987 35.1714 35.8969 35.1714 35.0313C35.1714 34.1657 35.8733 33.4639 36.7388 33.4639H55.4059C56.2714 33.4639 56.9733 34.1657 56.9733 35.0313C56.9733 35.8969 56.2714 36.5987 55.4059 36.5987Z" fill="#3B3A89"/>
<path d="M20.7752 10.9528L15.9682 8.74595C15.7608 8.65093 15.5222 8.65162 15.3142 8.74664C15.1068 8.84235 14.9514 9.02337 14.8883 9.24323L7.02063 36.7157C6.14605 39.6598 7.56853 42.7988 10.3587 44.0819L15.5576 46.4719C18.3533 47.7515 21.6637 46.7785 23.3227 44.1901L39.0053 19.3428C39.1309 19.1521 39.1669 18.9162 39.1038 18.6964C39.0407 18.4772 38.8854 18.2955 38.6773 18.2005L33.7329 15.9353L36.3456 10.2371L42.118 12.8844C43.7555 13.6418 44.9796 15.0781 45.4686 16.8148C45.9603 18.5667 45.6746 20.4448 44.6856 21.9714L28.4959 47.5962C25.1758 52.7812 18.5448 54.7308 12.9464 52.1681L7.74609 49.7836C2.15117 47.214 -0.697959 40.9172 1.06437 35.0178L9.18313 6.66181C9.69498 4.91266 10.9351 3.46799 12.5864 2.69606C14.2232 1.92968 16.1138 1.91997 17.7583 2.6697L23.3899 5.25112" fill="#5FFE9F"/>
<path d="M18.7603 3.13281L23.5229 5.31613C25.0966 6.03812 25.7874 7.89893 25.0661 9.47261C24.3441 11.0463 22.484 11.7371 20.9103 11.0151L16.147 8.83107L18.7603 3.13281Z" fill="#5FFE9F"/>
<path d="M36.3459 10.237L41.0475 12.3933L38.4342 18.0915L33.7325 15.936C32.1589 15.2147 31.4681 13.3539 32.1901 11.7802C32.9114 10.2065 34.7722 9.51572 36.3459 10.237Z" fill="#5FFE9F"/>
</g>
<defs>
<clipPath id="clip0_4062_18355">
<rect width="90.9091" height="90.9091" fill="white" transform="translate(0.54541 0.545898)"/>
</clipPath>
</defs>
</svg>
