<svg width="92" height="92" viewBox="0 0 92 92" fill="none" xmlns="http://www.w3.org/2000/svg">
<g clip-path="url(#clip0_4062_18307)">
<path d="M84.352 27.5348C84.352 25.1854 82.4401 23.2734 80.0906 23.2734H60.2043H54.5225H11.9088C9.55939 23.2734 7.64746 25.1854 7.64746 27.5348V78.6712C7.64746 79.4553 8.28382 80.0916 9.06792 80.0916H35.7213L38.2625 81.3629C38.4585 81.4609 38.6773 81.5121 38.8975 81.5121H53.102C53.3222 81.5121 53.5409 81.4609 53.7369 81.3629L56.2781 80.0916H82.9315C83.7156 80.0916 84.352 79.4553 84.352 78.6712V27.5348Z" fill="#96B2FF"/>
<path d="M78.6705 30.3755C78.6705 29.5914 78.0341 28.9551 77.25 28.9551H14.75C13.966 28.9551 13.3296 29.5914 13.3296 30.3755V72.9892C13.3296 73.7733 13.966 74.4096 14.75 74.4096H77.25C78.0341 74.4096 78.6705 73.7733 78.6705 72.9892V30.3755Z" fill="#F5F5F5"/>
<path d="M78.6705 72.9892C78.6705 73.7733 78.0341 74.4096 77.25 74.4096H14.75C13.966 74.4096 13.3296 73.7733 13.3296 72.9892V30.3755C13.3296 29.5914 13.966 28.9551 14.75 28.9551H77.25C78.0341 28.9551 78.6705 29.5914 78.6705 30.3755V72.9892ZM16.1705 71.5687H75.8296V31.796H16.1705V71.5687Z" fill="#265AB0"/>
<path d="M91.4545 78.6705C91.4545 77.8864 90.8181 77.25 90.034 77.25H55.9431C55.723 77.25 55.5042 77.3011 55.3082 77.3991L52.767 78.6705H39.2329L36.6917 77.3991C36.4957 77.3011 36.2769 77.25 36.0568 77.25H1.96586C1.18177 77.25 0.54541 77.8864 0.54541 78.6705V84.3523C0.54541 86.7017 2.45734 88.6136 4.80677 88.6136H87.1931C89.5426 88.6136 91.4545 86.7017 91.4545 84.3523V78.6705Z" fill="#265AB0"/>
<path d="M63.8197 18.7716C63.4163 18.5103 62.9078 18.4705 62.4688 18.6651L46.0001 25.9804L29.5313 18.6651C29.0924 18.4705 28.5839 18.5117 28.1805 18.7716C27.7771 19.0344 27.5342 19.4818 27.5342 19.9634V34.1679C27.5342 34.7304 27.8651 35.2389 28.3779 35.4662L45.4234 43.0372C45.6066 43.1196 45.8041 43.1594 46.0001 43.1594C46.1961 43.1594 46.3936 43.1196 46.5768 43.0372L63.6222 35.4662C64.135 35.2389 64.466 34.7304 64.466 34.1679V19.9634C64.466 19.4818 64.2231 19.0344 63.8197 18.7716Z" fill="#285CEB"/>
<path d="M71.5679 40.3182C70.7838 40.3182 70.1475 39.6832 70.1475 38.8977V16.1705C70.1475 15.3849 70.7838 14.75 71.5679 14.75C72.352 14.75 72.9884 15.3849 72.9884 16.1705V38.8977C72.9884 39.6832 72.352 40.3182 71.5679 40.3182Z" fill="#8F8F8F"/>
<path d="M72.1447 14.8729L46.5766 3.50923C46.2087 3.34588 45.7896 3.34588 45.4232 3.50923L19.855 14.8729C19.3422 15.1016 19.0112 15.6101 19.0112 16.1712C19.0112 16.7322 19.3408 17.2408 19.8536 17.4695L45.4232 28.8331C45.6064 28.9155 45.8038 28.9553 45.9999 28.9553C46.1959 28.9553 46.3933 28.9155 46.5766 28.8331L72.1462 17.4695C72.659 17.2408 72.9885 16.7322 72.9885 16.1712C72.9885 15.6101 72.6575 15.1016 72.1447 14.8729Z" fill="#5683FF"/>
<path d="M71.5681 37.4775H67.3067C65.74 37.4775 64.4658 38.7517 64.4658 40.3184V43.1594C64.4658 44.7261 65.74 46.0003 67.3067 46.0003H70.1476C71.7144 46.0003 72.9885 44.7261 72.9885 43.1594V38.898C72.9885 38.1139 72.3522 37.4775 71.5681 37.4775Z" fill="#40CE79"/>
<path d="M60.2045 48.8409H48.8409C48.0568 48.8409 47.4204 48.206 47.4204 47.4205C47.4204 46.6349 48.0568 46 48.8409 46H60.2045C60.9886 46 61.625 46.6349 61.625 47.4205C61.625 48.206 60.9886 48.8409 60.2045 48.8409Z" fill="#285CEB"/>
<path d="M60.2045 54.5225H31.7955C31.0114 54.5225 30.375 53.8876 30.375 53.1021C30.375 52.3166 31.0114 51.6816 31.7955 51.6816H60.2045C60.9886 51.6816 61.625 52.3166 61.625 53.1021C61.625 53.8876 60.9886 54.5225 60.2045 54.5225Z" fill="#285CEB"/>
<path d="M60.2045 60.2042H31.7955C31.0114 60.2042 30.375 59.5692 30.375 58.7837C30.375 57.9982 31.0114 57.3633 31.7955 57.3633H60.2045C60.9886 57.3633 61.625 57.9982 61.625 58.7837C61.625 59.5692 60.9886 60.2042 60.2045 60.2042Z" fill="#285CEB"/>
<path d="M43.1591 65.8868H31.7955C31.0114 65.8868 30.375 65.2519 30.375 64.4664C30.375 63.6808 31.0114 63.0459 31.7955 63.0459H43.1591C43.9432 63.0459 44.5795 63.6808 44.5795 64.4664C44.5795 65.2519 43.9432 65.8868 43.1591 65.8868Z" fill="#285CEB"/>
<path d="M37.4771 48.8409C38.2616 48.8409 38.8975 48.2049 38.8975 47.4205C38.8975 46.636 38.2616 46 37.4771 46C36.6926 46 36.0566 46.636 36.0566 47.4205C36.0566 48.2049 36.6926 48.8409 37.4771 48.8409Z" fill="#285CEB"/>
<path d="M48.8409 65.8868C49.6254 65.8868 50.2613 65.2508 50.2613 64.4664C50.2613 63.6819 49.6254 63.0459 48.8409 63.0459C48.0564 63.0459 47.4204 63.6819 47.4204 64.4664C47.4204 65.2508 48.0564 65.8868 48.8409 65.8868Z" fill="#285CEB"/>
<path d="M43.1592 48.8409C43.9437 48.8409 44.5797 48.2049 44.5797 47.4205C44.5797 46.636 43.9437 46 43.1592 46C42.3747 46 41.7388 46.636 41.7388 47.4205C41.7388 48.2049 42.3747 48.8409 43.1592 48.8409Z" fill="#285CEB"/>
</g>
<defs>
<clipPath id="clip0_4062_18307">
<rect width="90.9091" height="90.9091" fill="white" transform="translate(0.54541 0.545898)"/>
</clipPath>
</defs>
</svg>
