<svg width="92" height="92" viewBox="0 0 92 92" fill="none" xmlns="http://www.w3.org/2000/svg">
<g clip-path="url(#clip0_4062_18264)">
<path d="M72.8389 31.3306L42.8062 42.2615C42.115 42.5131 41.7588 43.2773 42.0104 43.9684L50.5124 67.3272C50.764 68.0185 51.5282 68.3746 52.2192 68.123L82.2517 57.1921C82.9428 56.9407 83.2991 56.1765 83.0475 55.4854L74.5457 32.1266C74.2941 31.4355 73.5299 31.0792 72.8389 31.3306Z" fill="#285CEB"/>
<path d="M72.8389 31.3306L67.833 33.1527C68.5242 32.9011 69.2883 33.2576 69.5397 33.9487L78.0416 57.3075C78.2932 57.9988 77.9369 58.7626 77.246 59.0142L82.2519 57.1921C82.9429 56.9407 83.2993 56.1765 83.0477 55.4854L74.5457 32.1266C74.2941 31.4355 73.5299 31.0792 72.8389 31.3306Z" fill="#265AB0"/>
<path d="M49.873 85.0383C44.1228 87.131 37.7422 84.1554 35.6493 78.4055C33.5566 72.6559 36.5321 66.2752 42.2819 64.182C45.0674 63.1681 48.0809 63.2997 50.7674 64.5526C53.454 65.8052 55.4918 68.0291 56.5055 70.8148C58.5982 76.5646 55.6228 82.9453 49.873 85.0383Z" fill="#C8DFFF"/>
<path d="M38.7827 66.2501C39.7843 65.374 40.9582 64.6635 42.2815 64.1817C43.5863 63.7068 44.9411 63.4866 46.2889 63.5118L27.0579 10.6745C25.8023 7.22454 21.9736 5.43921 18.5237 6.69489L1.42194 12.914C0.73071 13.1656 0.374531 13.9296 0.626129 14.6207L2.44822 19.6263C2.69964 20.3176 3.46384 20.6738 4.15489 20.4222L20.005 14.6581L38.7827 66.2501Z" fill="#9EB2D3"/>
<path d="M89.5519 55.9577C89.4735 55.7416 89.3445 55.5584 89.1839 55.4162C88.83 55.1031 88.3204 54.9888 87.8453 55.1617H87.8451L54.4424 67.3134C55.3282 68.3297 56.0301 69.5092 56.5052 70.8143C56.987 72.1376 57.197 73.4936 57.1697 74.8237L90.578 62.6701H90.5782C90.5956 62.6637 90.6118 62.6557 90.6288 62.6488C90.654 62.6383 90.6794 62.6287 90.7037 62.617C90.8477 62.5474 90.9731 62.4535 91.0793 62.3434C91.1224 62.2985 91.1636 62.2518 91.2 62.2017C91.2045 62.1957 91.208 62.1889 91.2124 62.1827C91.4039 61.9089 91.491 61.5669 91.4403 61.2246C91.4379 61.2095 91.434 61.1948 91.4312 61.1798C91.4179 61.1072 91.3999 61.035 91.374 60.9631L89.5519 55.9577Z" fill="#96A5BE"/>
<path d="M89.552 55.9577C89.4735 55.7416 89.3446 55.5584 89.184 55.4162C88.8301 55.1031 88.3205 54.9888 87.8453 55.1617H87.8452L82.8398 56.9836C83.3148 56.8109 83.8244 56.9252 84.1781 57.2383C84.3388 57.3805 84.4677 57.5637 84.5462 57.7798L86.3683 62.7853C86.3944 62.857 86.4123 62.9293 86.4256 63.0019C86.4284 63.0168 86.4324 63.0318 86.4347 63.0469C86.4853 63.3892 86.3983 63.7312 86.2067 64.005C86.2024 64.011 86.1987 64.0177 86.1944 64.0238C86.158 64.0737 86.1168 64.1205 86.0735 64.1655C85.9673 64.2756 85.842 64.3695 85.6982 64.4389C85.6738 64.4506 85.6484 64.4604 85.6232 64.4709C85.6062 64.4778 85.5898 64.4858 85.5726 64.4922L90.5783 62.6701H90.5785C90.5959 62.6637 90.612 62.6557 90.6291 62.6488C90.6543 62.6383 90.6797 62.6287 90.704 62.617C90.848 62.5474 90.9734 62.4535 91.0795 62.3434C91.1227 62.2985 91.1639 62.2518 91.2003 62.2017C91.2047 62.1957 91.2083 62.1889 91.2127 62.1827C91.4041 61.9089 91.4913 61.5669 91.4405 61.2246C91.4382 61.2095 91.4343 61.1948 91.4315 61.1798C91.4181 61.1072 91.4002 61.035 91.3743 60.9631L89.552 55.9577Z" fill="#7691B1"/>
<path d="M47.4436 78.3636C45.3736 79.117 43.0766 78.046 42.3232 75.976C41.5698 73.9061 42.6407 71.6089 44.7105 70.8553C46.7808 70.1021 49.078 71.1733 49.8312 73.2431C50.5846 75.3129 49.5135 77.6099 47.4436 78.3636Z" fill="#285CEB"/>
<path d="M64.0332 7.13727L34.0007 18.0684C33.3095 18.32 32.9531 19.0842 33.2047 19.7752L41.0992 41.4654C41.351 42.1566 42.1151 42.5128 42.8061 42.2612L72.8388 31.3303C73.53 31.0789 73.8862 30.3146 73.6348 29.6236L65.7401 7.93325C65.4885 7.24203 64.7242 6.88585 64.0332 7.13727Z" fill="#265AB0"/>
<path d="M64.0332 7.13727L59.0273 8.95936C59.7186 8.70794 60.4826 9.06412 60.7342 9.75517L68.6287 31.4455C68.8803 32.1367 68.524 32.9006 67.8329 33.1522L72.8388 31.3301C73.53 31.0787 73.8862 30.3145 73.6348 29.6234L65.7401 7.93308C65.4885 7.24203 64.7243 6.88585 64.0332 7.13727Z" fill="#1E4585"/>
<path d="M46.7057 20.5289C46.9573 21.2201 47.7215 21.5763 48.4126 21.3248L55.0866 18.8955C55.7778 18.6441 56.134 17.8799 55.8824 17.1888L53.6054 10.9326L44.4287 14.2726L46.7057 20.5289Z" fill="#5FFE9F"/>
<path d="M55.4147 44.4574C55.6663 45.1486 56.4307 45.5048 57.1215 45.2534L63.7957 42.824C64.4868 42.5726 64.8429 41.8084 64.5914 41.1174L62.3142 34.8613L53.1377 38.2013L55.4147 44.4574Z" fill="#40CE79"/>
</g>
<defs>
<clipPath id="clip0_4062_18264">
<rect width="90.9091" height="90.9091" fill="white" transform="translate(0.54541 0.545898)"/>
</clipPath>
</defs>
</svg>
