<svg width="92" height="92" viewBox="0 0 92 92" fill="none" xmlns="http://www.w3.org/2000/svg">
<g clip-path="url(#clip0_4062_18387)">
<path d="M84.1376 20.5752V80.5715C84.1376 84.6121 80.8616 87.8882 76.821 87.8882H15.1784C11.1378 87.8882 7.86182 84.6121 7.86182 80.5715V20.5752H84.1376Z" fill="#F5F5F5"/>
<path d="M18.8368 87.8882H15.1784C11.1378 87.8882 7.86182 84.6121 7.86182 80.5715V20.5752H11.5201V80.5715C11.5201 84.6121 14.7961 87.8882 18.8368 87.8882Z" fill="#E6E6E6"/>
<path d="M84.1376 23.8672V47.7066C83.6621 47.7871 83.1737 47.8291 82.6743 47.8291H81.3939C78.9685 47.8291 76.7735 46.8469 75.1858 45.2573C73.5962 43.6696 72.614 41.4747 72.614 39.0492C72.614 41.4747 71.6317 43.6696 70.0422 45.2573C68.4545 46.8469 66.2595 47.8291 63.834 47.8291C58.9849 47.8291 55.0541 43.8983 55.0541 39.0492C55.0541 43.8983 51.1232 47.8291 46.2741 47.8291H46.0912C43.6657 47.8291 41.4707 46.8469 39.883 45.2573C38.2935 43.6696 37.3112 41.4747 37.3112 39.0492C37.3112 43.8983 33.3804 47.8291 28.5313 47.8291H28.1655C25.74 47.8291 23.545 46.8469 21.9573 45.2573C20.3678 43.6696 19.3855 41.4747 19.3855 39.0492C19.3855 43.8983 15.4546 47.8291 10.6056 47.8291H9.32514C8.82578 47.8291 8.3374 47.7871 7.86182 47.7066V23.8672H84.1376Z" fill="#E6E6E6"/>
<path d="M21.3576 20.5743L19.5705 32.8406C19.4479 33.8082 19.3857 34.7813 19.3857 35.7563C19.3857 35.9099 19.3821 36.0617 19.3747 36.2136C19.137 40.8505 15.3012 44.5362 10.6058 44.5362H9.32536C6.8999 44.5362 4.70491 43.554 3.1172 41.9644C1.62827 40.4773 0.671622 38.4579 0.556385 36.2136C0.549068 36.0617 0.54541 35.9099 0.54541 35.7563C0.54541 34.7923 0.757592 33.8411 1.16915 32.9686L7.86204 20.5743L14.0131 18.7451L21.3576 20.5743Z" fill="#0942DF"/>
<path d="M37.3115 20.5743V35.7563C37.3115 35.9099 37.3078 36.0617 37.3005 36.2136C37.0627 40.8505 33.227 44.5362 28.5315 44.5362H28.1657C25.7402 44.5362 23.5452 43.554 21.9575 41.9644C20.4686 40.4773 19.512 38.4579 19.3967 36.2136C19.3894 36.0617 19.3857 35.9099 19.3857 35.7563C19.3857 34.7813 19.4479 33.8082 19.5705 32.8406L21.3576 20.5743L29.0823 18.7451L37.3115 20.5743Z" fill="#5FFE9F"/>
<path d="M55.0543 20.5743V35.7563C55.0543 35.9099 55.0507 36.0617 55.0434 36.2136C54.8056 40.8505 50.9698 44.5362 46.2744 44.5362H46.0915C41.396 44.5362 37.5603 40.8505 37.3225 36.2136C37.3152 36.0617 37.3115 35.9099 37.3115 35.7563V20.5743L46.3658 18.7451L55.0543 20.5743Z" fill="#0942DF"/>
<path d="M72.6141 35.7563C72.6141 35.9099 72.6104 36.0617 72.6031 36.2136C72.4879 38.4579 71.5312 40.4773 70.0423 41.9644C68.4546 43.554 66.2596 44.5362 63.8342 44.5362C59.1387 44.5362 55.303 40.8505 55.0652 36.2136C55.0579 36.0617 55.0542 35.9099 55.0542 35.7563V20.5743L63.1939 18.7451L70.8252 20.5743L72.4476 32.8388C72.5574 33.8082 72.6141 34.7813 72.6141 35.7563Z" fill="#5FFE9F"/>
<path d="M91.4544 35.7563C91.4544 35.9099 91.4508 36.0617 91.4434 36.2136C91.2057 40.8505 87.3699 44.5362 82.6745 44.5362H81.3941C78.9686 44.5362 76.7736 43.554 75.1859 41.9644C73.697 40.4773 72.7403 38.4579 72.6251 36.2136C72.6178 36.0617 72.6141 35.9099 72.6141 35.7563C72.6141 34.7813 72.5574 33.8082 72.4477 32.8388L70.8252 20.5743L77.4652 18.7451L84.1378 20.5743L90.8307 32.9686C91.0374 33.404 91.1929 33.8613 91.2971 34.3277C91.4014 34.796 91.4544 35.2734 91.4544 35.7563Z" fill="#0942DF"/>
<path d="M63.8987 55.4166C63.9801 55.0133 63.876 54.5948 63.6155 54.2765C63.3549 53.9582 62.9653 53.7735 62.5539 53.7735H31.6314L31.5852 53.5551C31.096 51.2439 29.0264 49.5664 26.6642 49.5664H24.3245C23.5669 49.5664 22.9526 50.1805 22.9526 50.9383C22.9526 51.6961 23.5669 52.3101 24.3245 52.3101H26.6642C27.7379 52.3101 28.6786 53.0725 28.9011 54.123L32.9775 73.3809C33.3626 75.2 34.7286 76.6226 36.4439 77.1475C36.2371 77.6379 36.1226 78.1766 36.1226 78.7415C36.1226 81.0107 37.9687 82.8571 40.2382 82.8571C42.5076 82.8571 44.3538 81.0107 44.3538 78.7415C44.3538 78.2606 44.27 77.7989 44.1178 77.3696H50.2601C50.1077 77.7989 50.0242 78.2606 50.0242 78.7415C50.0242 81.0107 51.8703 82.8571 54.1398 82.8571C56.4092 82.8571 58.2554 81.0107 58.2554 78.7415C58.2554 78.2606 58.1716 77.7989 58.0194 77.3696H58.3468C59.1045 77.3696 59.7187 76.7555 59.7187 75.9977C59.7187 75.2399 59.1045 74.6259 58.3468 74.6259H37.8985C36.8248 74.6259 35.884 73.8635 35.6616 72.813L35.3099 71.1505H42.2448C42.246 71.1505 42.2473 71.1506 42.2486 71.1506C42.2495 71.1506 42.2504 71.1505 42.2515 71.1505H51.0291C51.03 71.1505 51.0309 71.1506 51.032 71.1506C51.0333 71.1506 51.0346 71.1505 51.0359 71.1505H59.6018C60.2548 71.1505 60.8175 70.6901 60.9466 70.0499L62.3882 62.905C62.4255 62.7956 62.4493 62.6802 62.4577 62.5602L63.8987 55.4166ZM41.61 78.7415C41.61 79.498 40.9947 80.1133 40.2382 80.1133C39.4816 80.1133 38.8663 79.498 38.8663 78.7415C38.8663 77.9849 39.4816 77.3696 40.2382 77.3696C40.9947 77.3696 41.61 77.9849 41.61 78.7415ZM55.5116 78.7415C55.5116 79.498 54.8963 80.1133 54.1398 80.1133C53.3832 80.1133 52.7679 79.498 52.7679 78.7415C52.7679 77.9849 53.3832 77.3696 54.1398 77.3696C54.8963 77.3696 55.5116 77.9849 55.5116 78.7415ZM59.955 61.0901H53.4988L54.0704 56.5172H60.8776L59.955 61.0901ZM43.4613 68.4067L42.8897 63.8338H50.3909L49.8193 68.4067H43.4613ZM42.5467 61.0901L41.9751 56.5172H51.3055L50.7339 61.0901H42.5467ZM39.21 56.5172L39.7816 61.0901H33.1802L32.2122 56.5172H39.21ZM33.7609 63.8338H40.1246L40.6962 68.4067H34.7289L33.7609 63.8338ZM52.5842 68.4067L53.1559 63.8338H59.4015L58.4789 68.4067H52.5842Z" fill="#285CEB"/>
<path d="M0.556152 36.2139H19.3745C19.1367 40.8508 15.301 44.5365 10.6055 44.5365H9.32513C6.89967 44.5365 4.70468 43.5543 3.11697 41.9647C1.62804 40.4776 0.671389 38.4582 0.556152 36.2139Z" fill="#6A8CEB"/>
<path d="M19.3965 36.2139H37.3003C37.0625 40.8508 33.2267 44.5365 28.5313 44.5365H28.1655C25.74 44.5365 23.545 43.5543 21.9573 41.9647C20.4684 40.4776 19.5117 38.4582 19.3965 36.2139Z" fill="#38E37C"/>
<path d="M37.3223 36.2139H55.0431C54.8053 40.8508 50.9696 44.5365 46.2742 44.5365H46.0912C41.3958 44.5365 37.5601 40.8508 37.3223 36.2139Z" fill="#6A8CEB"/>
<path d="M55.0654 36.2139H72.6034C72.4881 38.4582 71.5315 40.4776 70.0426 41.9647C68.4549 43.5543 66.2599 44.5365 63.8344 44.5365C59.139 44.5365 55.3032 40.8508 55.0654 36.2139Z" fill="#38E37C"/>
<path d="M91.4434 36.2139C91.2056 40.8508 87.3698 44.5365 82.6744 44.5365H81.394C78.9685 44.5365 76.7735 43.5543 75.1858 41.9647C73.6969 40.4776 72.7402 38.4582 72.625 36.2139H91.4434Z" fill="#6A8CEB"/>
<path d="M7.86182 20.5747V11.4289C7.86182 7.38814 11.1377 4.1123 15.1784 4.1123H76.821C80.8618 4.1123 84.1376 7.38814 84.1376 11.4289V20.5747H7.86182Z" fill="#50758D"/>
<path d="M19.358 14.9684C19.973 14.249 20.3458 13.3165 20.3458 12.2982C20.3458 10.029 18.4996 8.18262 16.2302 8.18262C14.9505 8.18262 13.8055 8.76978 13.05 9.68893C12.7014 10.0954 12.3529 10.5018 12.0047 10.9084C11.3897 11.6278 11.0171 12.5602 11.0171 13.5786C11.0171 15.8479 12.8633 17.6942 15.1327 17.6942C16.4126 17.6942 17.5576 17.1069 18.313 16.1877C18.3304 16.1674 19.0273 15.3547 19.358 14.9684Z" fill="#2B597F"/>
<path d="M30.1959 15.0143C30.8109 14.2949 31.1837 13.3624 31.1837 12.3441C31.1837 10.0749 29.3375 8.22852 27.0681 8.22852C25.7884 8.22852 24.6433 8.81568 23.8879 9.73483C23.5393 10.1413 23.1908 10.5477 22.8425 10.9543C22.2276 11.6737 21.855 12.6061 21.855 13.6245C21.855 15.8938 23.7011 17.7401 25.9706 17.7401C27.2504 17.7401 28.3955 17.1528 29.1509 16.2336C29.1683 16.2133 29.8652 15.4006 30.1959 15.0143Z" fill="#2B597F"/>
<path d="M40.9879 15.0143C41.6029 14.2949 41.9757 13.3624 41.9757 12.3441C41.9757 10.0749 40.1295 8.22852 37.8601 8.22852C36.5804 8.22852 35.4353 8.81568 34.6799 9.73483C34.3313 10.1413 33.9828 10.5477 33.6345 10.9543C33.0196 11.6737 32.647 12.6061 32.647 13.6245C32.647 15.8938 34.4931 17.7401 36.7626 17.7401C38.0424 17.7401 39.1875 17.1528 39.9429 16.2336C39.9603 16.2133 40.6572 15.4006 40.9879 15.0143Z" fill="#2B597F"/>
<path d="M16.2303 16.4138C13.9609 16.4138 12.1147 14.5675 12.1147 12.2982C12.1147 10.029 13.9609 8.18262 16.2303 8.18262C18.4998 8.18262 20.346 10.029 20.346 12.2982C20.346 14.5675 18.4998 16.4138 16.2303 16.4138Z" fill="#FF6969"/>
<path d="M27.0682 16.4587C24.7988 16.4587 22.9526 14.6124 22.9526 12.3431C22.9526 10.0739 24.7988 8.22754 27.0682 8.22754C29.3377 8.22754 31.1838 10.0739 31.1838 12.3431C31.1838 14.6124 29.3377 16.4587 27.0682 16.4587Z" fill="#5FFE9F"/>
<path d="M37.8602 16.4587C35.5908 16.4587 33.7446 14.6124 33.7446 12.3431C33.7446 10.0739 35.5908 8.22754 37.8602 8.22754C40.1297 8.22754 41.9758 10.0739 41.9758 12.3431C41.9758 14.6124 40.1297 16.4587 37.8602 16.4587Z" fill="#93DDB7"/>
<path d="M79.0345 15.0133C79.6494 14.2939 80.0222 13.3614 80.0222 12.3431C80.0222 10.0739 78.176 8.22754 75.9066 8.22754H51.5788C50.2991 8.22754 49.1541 8.8147 48.3986 9.73385C48.05 10.1403 47.7016 10.5467 47.3533 10.9533C46.7383 11.6728 46.3657 12.6051 46.3657 13.6236C46.3657 15.8928 48.2119 17.7392 50.4813 17.7392H74.8091C76.089 17.7392 77.234 17.1518 77.9895 16.2327C78.0068 16.2124 78.7038 15.3997 79.0345 15.0133Z" fill="#2B597F"/>
<path d="M75.9068 16.4587H51.579C49.3095 16.4587 47.4634 14.6124 47.4634 12.3431C47.4634 10.0739 49.3095 8.22754 51.579 8.22754H75.9068C78.1762 8.22754 80.0224 10.0739 80.0224 12.3431C80.0224 14.6124 78.1762 16.4587 75.9068 16.4587Z" fill="#F5F5F5"/>
<path d="M27.0682 16.4587C24.7988 16.4587 22.9526 14.6124 22.9526 12.3431C22.9526 10.0739 24.7988 8.22754 27.0682 8.22754C29.3377 8.22754 31.1838 10.0739 31.1838 12.3431C31.1838 14.6124 29.3377 16.4587 27.0682 16.4587Z" fill="#5FFE9F"/>
<path d="M37.8602 16.4587C35.5908 16.4587 33.7446 14.6124 33.7446 12.3431C33.7446 10.0739 35.5908 8.22754 37.8602 8.22754C40.1297 8.22754 41.9758 10.0739 41.9758 12.3431C41.9758 14.6124 40.1297 16.4587 37.8602 16.4587Z" fill="#285CEB"/>
</g>
<defs>
<clipPath id="clip0_4062_18387">
<rect width="90.9091" height="90.9091" fill="white" transform="translate(0.54541 0.545898)"/>
</clipPath>
</defs>
</svg>
