<svg width="92" height="92" viewBox="0 0 92 92" fill="none" xmlns="http://www.w3.org/2000/svg">
<g clip-path="url(#clip0_4062_18328)">
<path fill-rule="evenodd" clip-rule="evenodd" d="M14.5871 51.4408V27.1926H3.30811V24.0386H16.1641C17.035 24.0386 17.7411 24.7447 17.7411 25.6156V51.4406H14.5871V51.4408ZM74.3067 49.2098V25.6156C74.3067 24.7447 75.0128 24.0386 75.8837 24.0386H87.6291V27.1926H77.4607V49.2098H74.3067ZM65.5557 49.4672V15.3075H68.7097V49.4672H65.5557ZM23.3381 49.8104V15.0039H26.4921V49.8104H23.3381Z" fill="#7E89B0"/>
<path d="M67.1329 19.0988C69.7457 19.0988 71.8639 16.9806 71.8639 14.3677C71.8639 11.7549 69.7457 9.63672 67.1329 9.63672C64.52 9.63672 62.4019 11.7549 62.4019 14.3677C62.4019 16.9806 64.52 19.0988 67.1329 19.0988Z" fill="#285CEB"/>
<path fill-rule="evenodd" clip-rule="evenodd" d="M66.4097 19.0438C66.6456 19.08 66.8871 19.0988 67.1331 19.0988C69.746 19.0988 71.8641 16.9806 71.8641 14.3677C71.8641 11.7548 69.746 9.63672 67.1331 9.63672C66.8871 9.63672 66.6456 9.65545 66.4097 9.69172C68.6792 10.0398 70.4172 12.0008 70.4172 14.3677C70.4172 16.7346 68.6792 18.6956 66.4097 19.0438Z" fill="#2C51B9"/>
<path d="M93.2873 27.4263C94.2881 25.012 93.1421 22.2436 90.7278 21.2429C88.3136 20.2422 85.5451 21.3881 84.5444 23.8024C83.5437 26.2167 84.6896 28.9851 87.1039 29.9858C89.5182 30.9865 92.2866 29.8406 93.2873 27.4263Z" fill="#285CEB"/>
<path fill-rule="evenodd" clip-rule="evenodd" d="M88.1587 30.2908C88.3947 30.3271 88.6361 30.3458 88.8821 30.3458C91.495 30.3458 93.6132 28.2277 93.6132 25.6148C93.6132 23.0019 91.495 20.8838 88.8821 20.8838C88.6361 20.8838 88.3947 20.9025 88.1587 20.9388C90.4282 21.2869 92.1663 23.2479 92.1663 25.6148C92.1663 27.9817 90.4284 29.9427 88.1587 30.2908Z" fill="#2C51B9"/>
<path d="M24.9151 19.0988C27.528 19.0988 29.6461 16.9806 29.6461 14.3677C29.6461 11.7549 27.528 9.63672 24.9151 9.63672C22.3022 9.63672 20.1841 11.7549 20.1841 14.3677C20.1841 16.9806 22.3022 19.0988 24.9151 19.0988Z" fill="#285CEB"/>
<path fill-rule="evenodd" clip-rule="evenodd" d="M24.1919 19.0438C24.4279 19.08 24.6693 19.0988 24.9153 19.0988C27.5283 19.0988 29.6464 16.9806 29.6464 14.3677C29.6464 11.7548 27.5283 9.63672 24.9153 9.63672C24.6693 9.63672 24.4279 9.65545 24.1919 9.69172C26.4614 10.0398 28.1995 12.0008 28.1995 14.3677C28.1995 16.7346 26.4614 18.6956 24.1919 19.0438Z" fill="#2C51B9"/>
<path d="M6.50617 28.9571C8.35347 27.1098 8.35347 24.1148 6.50617 22.2675C4.65887 20.4202 1.66381 20.4202 -0.18349 22.2675C-2.03079 24.1148 -2.03079 27.1098 -0.18349 28.9571C1.66381 30.8044 4.65887 30.8044 6.50617 28.9571Z" fill="#285CEB"/>
<path fill-rule="evenodd" clip-rule="evenodd" d="M2.44238 30.2908C2.67815 30.3271 2.91982 30.3458 3.16583 30.3458C5.77874 30.3458 7.89685 28.2277 7.89685 25.6148C7.89685 23.0019 5.77874 20.8838 3.16583 20.8838C2.91982 20.8838 2.67834 20.9025 2.44238 20.9388C4.71189 21.2869 6.44995 23.2479 6.44995 25.6148C6.44995 27.9817 4.71189 29.9427 2.44238 30.2908Z" fill="#2C51B9"/>
<path fill-rule="evenodd" clip-rule="evenodd" d="M81.9843 46.4033V51.2698L76.025 53.5637C75.2694 56.7388 74.0106 59.7714 72.2993 62.5505L74.8929 68.3901L68.0105 75.2728L62.1726 72.68C59.3929 74.3918 56.3594 75.6505 53.1835 76.4063L50.8903 82.3642H41.157L38.8633 76.4049C35.6882 75.6493 32.6558 74.3905 29.8767 72.6792L24.037 75.2728L17.1544 68.3903L19.7472 62.5525C18.0353 59.7728 16.7767 56.739 16.0209 53.5633L10.063 51.2702V46.4035H27.565C27.565 56.5989 35.8283 64.8622 46.0237 64.8622C56.219 64.8622 64.4823 56.5989 64.4823 46.4035H81.9843V46.4033Z" fill="#285CEB"/>
<path fill-rule="evenodd" clip-rule="evenodd" d="M81.9841 46.4033V51.27L76.0248 53.5637C75.2692 56.7388 74.0103 59.7714 72.2991 62.5505L74.8927 68.3901L68.0102 75.2728L66.175 74.4577L72.2423 68.3901L69.6487 62.5505C71.36 59.7714 72.6188 56.7388 73.3744 53.5637L79.3337 51.27V46.4033H81.9841ZM29.8764 72.6792L24.0368 75.2728L23.2217 74.4577L28.7341 72.0094C29.1102 72.241 29.4913 72.4641 29.8764 72.6792ZM62.1726 72.68C59.3929 74.3918 56.3593 75.6505 53.1834 76.4063L50.8903 82.3642H48.2399L50.5331 76.4063C53.709 75.6507 57.8847 73.722 60.6643 72.0104L62.1726 72.68Z" fill="#2C51B9"/>
<path d="M58.3733 46.8064C65.1991 39.9806 65.1991 28.9139 58.3733 22.0881C51.5476 15.2624 40.4808 15.2624 33.655 22.0881C26.8293 28.9139 26.8293 39.9806 33.655 46.8064C40.4808 53.6322 51.5476 53.6322 58.3733 46.8064Z" fill="#2AD56E"/>
<path fill-rule="evenodd" clip-rule="evenodd" d="M45.2866 16.9802C54.5992 17.3666 62.0307 25.0385 62.0307 34.4462C62.0307 43.8538 54.5992 51.5257 45.2866 51.9119C45.5311 51.9219 45.7767 51.9271 46.0237 51.9271C55.6783 51.9271 63.5048 44.1004 63.5048 34.446C63.5048 24.7913 55.6783 16.9648 46.0237 16.9648C45.7767 16.965 45.5309 16.9702 45.2866 16.9802Z" fill="#4FFF95"/>
<path d="M59.3709 34.7643C59.5625 27.392 53.7416 21.2602 46.3694 21.0685C38.9972 20.8768 32.8654 26.6979 32.6737 34.0702C32.482 41.4425 38.303 47.5743 45.6752 47.766C53.0474 47.9577 59.1792 42.1366 59.3709 34.7643Z" fill="#B7FFD4"/>
<path fill-rule="evenodd" clip-rule="evenodd" d="M34.267 34.4462C34.267 27.3412 39.8179 21.5327 46.8196 21.1209C46.5562 21.1055 46.2909 21.0977 46.0236 21.0977C38.6513 21.0977 32.6748 27.0741 32.6748 34.4464C32.6748 41.8187 38.6513 47.795 46.0236 47.795C46.2909 47.795 46.5562 47.7871 46.8196 47.7717C39.818 47.3597 34.267 41.5512 34.267 34.4462Z" fill="#70E09D"/>
<path fill-rule="evenodd" clip-rule="evenodd" d="M51.4072 29.7811C51.7439 30.584 51.3662 31.508 50.5633 31.8448C49.7604 32.1815 48.8365 31.8038 48.4996 31.0009C48.1619 30.1965 47.521 29.7322 46.8175 29.5538C46.3566 29.4371 45.8762 29.4297 45.4305 29.5193C45.0035 29.6053 44.6124 29.7774 44.3095 30.0238C43.9566 30.3108 43.7325 30.723 43.7573 31.2324C43.779 31.6793 44.0169 31.9889 44.3489 32.2056C44.8638 32.5417 45.5916 32.7313 46.2884 32.8457C47.3734 33.0237 48.5607 33.3229 49.5635 33.9283C50.7502 34.6446 51.6455 35.7241 51.8472 37.386C51.8619 37.5087 51.8716 37.661 51.8757 37.8404C51.9122 39.3735 51.2152 40.514 50.1675 41.3092C49.4269 41.8711 48.5159 42.2359 47.6005 42.4248V42.8932C47.6005 43.7641 46.8944 44.4702 46.0235 44.4702C45.1526 44.4702 44.4465 43.7641 44.4465 42.8932V42.3928C43.7207 42.2227 43.0305 41.9353 42.4228 41.5306C41.366 40.8269 40.5562 39.7876 40.2134 38.4125C40.0058 37.5688 40.5217 36.7166 41.3654 36.509C42.2091 36.3015 43.0615 36.8173 43.2688 37.661C43.4047 38.2055 43.7315 38.621 44.1599 38.9065C44.7142 39.2757 45.4305 39.4515 46.1609 39.4342C46.2774 39.4314 46.4278 39.419 46.6111 39.3967C47.233 39.3212 47.8465 39.1296 48.2699 38.8081C48.5538 38.5929 48.7428 38.2966 48.7338 37.9141C48.7334 37.8944 48.7278 37.8422 48.7174 37.7555C48.6535 37.2295 48.3464 36.8735 47.9368 36.6263C47.3434 36.2681 46.5399 36.0746 45.7828 35.9502C44.7295 35.7773 43.5829 35.4601 42.6359 34.8419C41.5059 34.1043 40.6944 33.0116 40.6151 31.38C40.5369 29.7671 41.231 28.4742 42.3256 27.5842C42.9318 27.0914 43.6629 26.7326 44.4461 26.5248V25.9989C44.4461 25.128 45.1522 24.4219 46.0231 24.4219C46.894 24.4219 47.6001 25.128 47.6001 25.9989V26.5033C49.1954 26.9131 50.6449 27.9654 51.4072 29.7811Z" fill="#138440"/>
</g>
<defs>
<clipPath id="clip0_4062_18328">
<rect width="90.9091" height="90.9091" fill="white" transform="translate(0.54541 0.545898)"/>
</clipPath>
</defs>
</svg>
