<svg width="80" height="80" viewBox="0 0 80 80" fill="none" xmlns="http://www.w3.org/2000/svg">
<path fill-rule="evenodd" clip-rule="evenodd" d="M6.66634 39.9997C6.66634 21.5997 21.633 6.66634 39.9997 6.66634L40.9322 6.67915C58.9016 7.17355 73.333 21.9115 73.333 39.9997C73.333 58.3663 58.3997 73.333 39.9997 73.333C21.633 73.333 6.66634 58.3663 6.66634 39.9997ZM46.5997 53.333C47.5663 52.333 47.5663 50.7663 46.5663 49.7997L36.733 39.9997L46.5663 30.1997C47.5663 29.233 47.5663 27.633 46.5997 26.6663C45.5997 25.6663 44.033 25.6663 43.0663 26.6663L31.433 38.233C30.9663 38.6997 30.6997 39.333 30.6997 39.9997C30.6997 40.6663 30.9663 41.2997 31.433 41.7663L43.0663 53.333C43.533 53.833 44.1663 54.0663 44.7997 54.0663C45.4663 54.0663 46.0997 53.833 46.5997 53.333Z" fill="black" fill-opacity="0.1"/>
</svg>
