<svg width="80" height="80" viewBox="0 0 80 80" fill="none" xmlns="http://www.w3.org/2000/svg">
<path fill-rule="evenodd" clip-rule="evenodd" d="M73.3337 40.0003C73.3337 58.4003 58.367 73.3337 40.0003 73.3337L39.0678 73.3209C21.0984 72.8265 6.66699 58.0885 6.66699 40.0003C6.66699 21.6337 21.6003 6.66699 40.0003 6.66699C58.367 6.66699 73.3337 21.6337 73.3337 40.0003ZM33.4003 26.667C32.4337 27.667 32.4337 29.2337 33.4337 30.2003L43.267 40.0003L33.4337 49.8003C32.4337 50.767 32.4337 52.367 33.4003 53.3337C34.4003 54.3337 35.967 54.3337 36.9337 53.3337L48.567 41.767C49.0337 41.3003 49.3003 40.667 49.3003 40.0003C49.3003 39.3337 49.0337 38.7003 48.567 38.2337L36.9337 26.667C36.467 26.167 35.8337 25.9337 35.2003 25.9337C34.5337 25.9337 33.9003 26.167 33.4003 26.667Z" fill="black" fill-opacity="0.1"/>
</svg>
