<svg width="36" height="36" viewBox="0 0 36 36" fill="none" xmlns="http://www.w3.org/2000/svg">
<g clip-path="url(#clip0_4193_1743)">
<path d="M13.5 15C9.3645 15 6 11.6355 6 7.5C6 3.3645 9.3645 0 13.5 0C17.6355 0 21 3.3645 21 7.5C21 11.6355 17.6355 15 13.5 15ZM13.5 2.25C10.605 2.25 8.25 4.605 8.25 7.5C8.25 10.395 10.605 12.75 13.5 12.75C16.395 12.75 18.75 10.395 18.75 7.5C18.75 4.605 16.395 2.25 13.5 2.25Z" fill="#133AA5"/>
<path d="M13.275 32.25H0.75C0.129 32.25 -0.375 31.746 -0.375 31.125V25.125C-0.375 21.1965 2.8215 18 6.75 18H20.25C22.428 18 24.4545 18.969 25.8075 20.6565C26.196 21.141 26.1195 21.8505 25.6335 22.239C25.1505 22.6305 24.441 22.5495 24.0525 22.0665C23.127 20.9115 21.741 20.2515 20.25 20.2515H6.75C4.062 20.2515 1.875 22.4385 1.875 25.1265V30H13.275C13.896 30 14.4 30.504 14.4 31.125C14.4 31.746 13.896 32.25 13.275 32.25Z" fill="#133AA5"/>
<path d="M25.125 35.9999C25.041 35.9999 24.957 35.9909 24.8715 35.9699C24.2655 35.8304 23.889 35.2274 24.027 34.6214L26.277 24.8714C26.418 24.2669 27.0225 23.8844 27.6255 24.0284C28.2315 24.1679 28.608 24.7709 28.47 25.3769L26.22 35.1269C26.1015 35.6489 25.638 35.9999 25.125 35.9999Z" fill="#133AA5"/>
<path d="M31.1252 34.5C30.8177 34.5 30.5117 34.374 30.2882 34.128C29.8727 33.6645 29.9102 32.955 30.3722 32.538L33.1937 30L30.3722 27.462C29.9102 27.0465 29.8727 26.3355 30.2882 25.872C30.7052 25.41 31.4162 25.374 31.8782 25.788L35.6282 29.163C35.8652 29.3775 36.0002 29.6805 36.0002 30C36.0002 30.3195 35.8652 30.6225 35.6282 30.837L31.8782 34.212C31.6622 34.4055 31.3937 34.5 31.1252 34.5Z" fill="#133AA5"/>
<path d="M21.375 34.4995C21.1065 34.4995 20.838 34.405 20.622 34.2115L16.872 30.8365C16.635 30.622 16.5 30.319 16.5 29.9995C16.5 29.68 16.635 29.377 16.872 29.1625L20.622 25.7875C21.084 25.3735 21.795 25.411 22.212 25.8715C22.6275 26.335 22.59 27.0445 22.128 27.4615L19.3065 29.9995L22.128 32.5375C22.59 32.953 22.6275 33.664 22.212 34.1275C21.9885 34.3735 21.6825 34.4995 21.375 34.4995Z" fill="#133AA5"/>
</g>
<defs>
<clipPath id="clip0_4193_1743">
<rect width="36" height="36" fill="white"/>
</clipPath>
</defs>
</svg>
