<svg width="24" height="24" viewBox="0 0 24 24" fill="none" xmlns="http://www.w3.org/2000/svg">
<g id="startup">
<g id="Layer_23">
<path id="Vector" d="M7.06276 20.2117L3.78751 16.9372C3.63901 16.7887 3.42901 16.719 3.22126 16.7452C3.01276 16.773 2.82976 16.8967 2.72476 17.079C1.47076 19.2652 1.45651 21.7627 1.45651 21.8685C1.45651 22.2412 1.75876 22.5435 2.13151 22.5435C2.23651 22.5435 4.73476 22.5285 6.92176 21.2745C7.10401 21.1702 7.22701 20.9865 7.25476 20.7787C7.28251 20.5702 7.21126 20.3602 7.06276 20.2117Z" fill="#FF7676"/>
<path id="Vector_2" d="M22.4768 5.76075C21.3593 5.60325 20.3693 5.14575 19.6118 4.38825C18.8543 3.63075 18.3968 2.64075 18.2393 1.52325C19.4768 1.40325 20.5193 1.46325 21.2318 1.55325C21.8693 1.62825 22.3718 2.13075 22.4468 2.76825C22.5368 3.48075 22.5968 4.52325 22.4768 5.76075Z" fill="#FF7676"/>
<path id="Vector_3" d="M22.3193 6.87524C20.94 6.68098 19.728 6.09599 18.816 5.18399C17.904 4.27199 17.319 3.06074 17.1248 1.67999L17.124 1.67249C13.509 2.30249 8.7705 4.56448 5.577 11.52C5.33025 12.0577 5.433 12.693 5.8515 13.1115L10.8878 18.1477C11.3063 18.5662 11.9415 18.6697 12.4793 18.4222C19.4348 15.2287 21.6968 10.4895 22.3275 6.87524H22.3193ZM16.5593 11.1675C15.5303 12.1965 13.8615 12.1965 12.8325 11.1675C11.8035 10.1385 11.8035 8.46974 12.8325 7.44073C13.8615 6.41174 15.5303 6.41174 16.5593 7.44073C17.5883 8.46974 17.5883 10.1385 16.5593 11.1675Z" fill="#FF7676"/>
<path id="Vector_4" d="M5.25225 14.1038L4.25025 14.6033C3.855 14.8005 3.7695 15.327 4.0815 15.639L8.36025 19.9178C8.67225 20.2298 9.19875 20.1443 9.396 19.749L9.8955 18.747L5.25225 14.1038Z" fill="#FF7676"/>
<path id="Vector_5" d="M14.3715 18.7365L16.536 20.8957C16.806 21.1657 17.256 21.1357 17.496 20.8357C18.3285 19.7707 18.741 18.4882 18.7485 17.2057C18.7448 16.7347 18.6818 16.2645 18.5685 15.8047C17.4345 16.8442 16.05 17.8365 14.3715 18.7365Z" fill="#FF7676"/>
<path id="Vector_6" d="M8.19527 5.43073C7.73552 5.31748 7.26527 5.25448 6.79427 5.25073C5.51177 5.25823 4.22927 5.67073 3.16427 6.50323C2.86427 6.74323 2.83427 7.19323 3.10427 7.46323L5.26352 9.62773C6.16352 7.94998 7.15577 6.56548 8.19527 5.43073Z" fill="#FF7676"/>
</g>
</g>
</svg>
