<svg width="24" height="24" viewBox="0 0 24 24" fill="none" xmlns="http://www.w3.org/2000/svg">
<g id="target (3)">
<g id="Group">
<g id="Group_2">
<path id="Vector" d="M12.5062 11.5165C12.5023 11.5124 12.5012 11.5069 12.4972 11.5028L8.48447 7.4901V4.96874C8.48447 4.78195 8.41031 4.60345 8.2785 4.47159L4.05975 0.206009C3.85927 0.00557192 3.55645 -0.0555531 3.29344 0.0536188C3.03047 0.162088 2.85947 0.418916 2.85947 0.703166V2.81254H0.703218C0.419015 2.81249 0.162187 2.98345 0.0537182 3.24646C-0.0554537 3.50943 0.00496817 3.81159 0.206156 4.01278L4.47178 8.27835C4.60364 8.41021 4.78214 8.48437 4.96889 8.48437H7.49025L11.5029 12.4971C11.507 12.5011 11.5125 12.5022 11.5166 12.5062C11.7903 12.7674 12.2062 12.7709 12.4836 12.5062C12.7757 12.2273 12.7691 11.7919 12.5062 11.5165Z" fill="#00FF1A"/>
</g>
</g>
<g id="Group_3">
<g id="Group_4">
<path id="Vector_2" d="M12 0.00012207C10.2009 0.00012207 8.49989 0.457856 6.96811 1.17284L9.12501 3.32975C10.0303 3.02872 10.9951 2.8595 12.0001 2.8595C17.04 2.85945 21.1406 6.96008 21.1406 12C21.1406 17.04 17.04 21.1406 12 21.1406C6.96004 21.1406 2.85947 17.04 2.85947 12C2.85947 10.995 3.02873 10.0302 3.32972 9.12495L1.17281 6.96804C0.457919 8.49987 0.000137329 10.2009 0.000137329 12C0.000137329 18.5911 5.409 24 12 24C18.5911 24 24 18.5911 24 12C24 5.40898 18.5912 0.00012207 12 0.00012207Z" fill="#00FF1A"/>
</g>
</g>
<g id="Group_5">
<g id="Group_6">
<path id="Vector_3" d="M12 5.67194C11.2568 5.67194 10.5537 5.82428 9.89067 6.06067V6.90789L11.5162 8.53337C11.6758 8.51106 11.8343 8.48444 12 8.48444C13.9385 8.48444 15.5157 10.0616 15.5157 12.0001C15.5157 13.9385 13.9385 15.5157 12 15.5157C10.0616 15.5157 8.48442 13.9385 8.48442 12.0001C8.48442 11.8343 8.51104 11.6758 8.53336 11.5162L6.90792 9.89064H6.0607C5.82431 10.5537 5.67197 11.2568 5.67197 12C5.67197 15.4895 8.51058 18.3281 12 18.3281C15.4895 18.3281 18.3282 15.4895 18.3282 12C18.3282 8.5105 15.4896 5.67194 12 5.67194Z" fill="#00FF1A"/>
</g>
</g>
</g>
</svg>
