<svg width="24" height="24" viewBox="0 0 24 24" fill="none" xmlns="http://www.w3.org/2000/svg">
<g clip-path="url(#clip0_666_886)">
<path d="M12 0.749533C5.79124 0.749533 0.75 5.79077 0.75 11.9995C0.75 18.2083 5.79124 23.2495 12 23.2495C18.2088 23.2495 23.25 18.2083 23.25 11.9995C23.25 10.2739 22.8595 8.6386 22.1638 7.17649L21.0469 8.29346C20.836 8.50557 20.5484 8.62516 20.2493 8.62522H19.9387C20.3808 9.66211 20.6257 10.8023 20.6257 11.9995C20.6257 16.7585 16.759 20.6252 12 20.6252C7.24098 20.6252 3.37427 16.7585 3.37427 11.9995C3.37427 7.24052 7.24098 3.37375 12 3.37375C13.1974 3.37375 14.3379 3.61857 15.375 4.06079V3.75023C15.3751 3.45112 15.4947 3.16355 15.7068 2.95264L16.823 1.83571C15.3609 1.14 13.7257 0.749533 12 0.749533ZM19.1147 0.749533C19.0188 0.752395 18.9275 0.791924 18.8599 0.860045L16.2356 3.48431C16.2006 3.51915 16.1727 3.56061 16.1538 3.60624C16.1348 3.65187 16.125 3.70077 16.125 3.75018V6.22068L11.1731 11.1726C10.7192 11.6265 10.7192 12.3746 11.1731 12.8286C11.627 13.2825 12.373 13.2803 12.8269 12.8257L17.7781 7.87456H20.2493C20.2987 7.87455 20.3476 7.86481 20.3932 7.84583C20.4389 7.82686 20.4803 7.79908 20.5151 7.76404L23.1394 5.13974C23.1916 5.08721 23.2271 5.02041 23.2414 4.94774C23.2557 4.87506 23.2481 4.79977 23.2197 4.73138C23.1913 4.663 23.1432 4.60455 23.0816 4.56343C23.02 4.52231 22.9476 4.50035 22.8735 4.50033H21.1523L21.4512 4.20153C21.9051 3.74759 21.9073 3.00164 21.4534 2.5477C21.2265 2.32073 20.9256 2.20712 20.6251 2.20712C20.3246 2.20712 20.0244 2.32079 19.7974 2.5477L19.4993 2.8458V1.12242C19.4991 1.07249 19.489 1.02309 19.4695 0.977131C19.4499 0.931175 19.4214 0.889604 19.3856 0.854811C19.3498 0.820019 19.3074 0.79272 19.2609 0.774533C19.2144 0.756346 19.1647 0.74827 19.1147 0.749533ZM12 5.99806C8.69073 5.99806 5.99854 8.69027 5.99854 11.9995C5.99854 15.3088 8.69073 17.9981 12 17.9981C15.3093 17.9981 17.9985 15.3088 17.9985 11.9995C17.9985 11.0448 17.7696 10.1444 17.3716 9.34227L15.3171 11.3967C15.3527 11.5926 15.3743 11.7935 15.3743 11.9995C15.3743 13.859 13.8595 15.3738 12 15.3738C10.1405 15.3738 8.62573 13.859 8.62573 11.9995C8.62573 10.14 10.1405 8.62522 12 8.62522C12.206 8.62522 12.4068 8.64678 12.6028 8.68235L14.658 6.62717C13.8557 6.22837 12.9553 5.99806 12 5.99806Z" fill="#00218F"/>
</g>
<defs>
<clipPath id="clip0_666_886">
<rect width="24" height="24" fill="white"/>
</clipPath>
</defs>
</svg>
