<svg width="1076" height="296" viewBox="0 0 1076 296" fill="none" xmlns="http://www.w3.org/2000/svg">
<path d="M66.4983 110C66 110 65.5051 109.863 65.0687 109.597L60.5155 106.773C59.8351 106.375 60.1667 106.233 60.3918 106.152C61.299 105.821 61.4828 105.743 62.4502 105.171C62.5515 105.111 62.6838 105.133 62.7887 105.198L66.2852 107.375C66.3502 107.411 66.4228 107.43 66.4966 107.43C66.5703 107.43 66.6429 107.411 66.7079 107.375L80.3454 99.1255C80.4096 99.0859 80.4627 99.0292 80.4995 98.9613C80.5363 98.8934 80.5554 98.8165 80.555 98.7384V82.244C80.5551 82.1647 80.5357 82.0868 80.4986 82.0178C80.4616 81.9487 80.4082 81.8908 80.3436 81.8496L66.7113 73.6078C66.6469 73.5706 66.5745 73.5511 66.5009 73.5511C66.4273 73.5511 66.3549 73.5706 66.2904 73.6078L52.6598 81.8514C52.5952 81.8923 52.5415 81.9499 52.5039 82.0186C52.4664 82.0872 52.4461 82.1648 52.445 82.244V98.7384C52.445 98.8969 52.5292 99.0463 52.6598 99.1201L56.3952 101.384C58.4227 102.444 59.6649 101.195 59.6649 99.9377V83.6503C59.6649 83.4216 59.8419 83.2397 60.0601 83.2397H61.7904C62.0052 83.2397 62.1839 83.4216 62.1839 83.6503V99.9377C62.1839 102.772 60.7113 104.398 58.146 104.398C57.3574 104.398 56.7371 104.398 55.0052 103.505L51.4296 101.348C50.9946 101.082 50.6337 100.701 50.3828 100.244C50.132 99.7863 50 99.2678 50 98.7402V82.2458C50 81.1743 50.5447 80.1749 51.4296 79.6419L65.067 71.3821C65.5064 71.1314 65.9988 71 66.4991 71C66.9995 71 67.4918 71.1314 67.9313 71.3821L81.5687 79.6419C82.4519 80.1767 83 81.1761 83 82.2458V98.7402C82.9991 99.2679 82.8666 99.7861 82.6155 100.244C82.3644 100.701 82.0036 101.082 81.5687 101.348L67.9313 109.598C67.496 109.863 67.0015 110.002 66.4983 110ZM70.7131 98.6358C64.7423 98.6358 63.4931 95.7636 63.4931 93.3561C63.4936 93.2466 63.5354 93.1417 63.6095 93.0644C63.6835 92.9871 63.7838 92.9437 63.8883 92.9437H65.6512C65.7455 92.9434 65.8369 92.9784 65.9087 93.0425C65.9806 93.1065 66.0282 93.1954 66.043 93.2931C66.3076 95.1748 67.1031 96.1238 70.7131 96.1238C73.5842 96.1238 74.8076 95.4431 74.8076 93.8441C74.8076 92.9221 74.4605 92.2396 69.9966 91.7805C66.2646 91.3933 63.957 90.5308 63.957 87.3994C63.957 84.5164 66.2766 82.795 70.1632 82.795C74.5326 82.795 76.6942 84.385 76.9674 87.7955C76.9716 87.8529 76.9647 87.9106 76.947 87.9651C76.9293 88.0196 76.9011 88.0698 76.8643 88.1124C76.8269 88.1534 76.7822 88.1861 76.7326 88.2087C76.683 88.2313 76.6297 88.2433 76.5756 88.2439H74.8041C74.7147 88.244 74.628 88.2121 74.5583 88.1535C74.4886 88.0949 74.4402 88.013 74.421 87.9216C73.9948 85.9408 72.9639 85.3088 70.1615 85.3088C67.0258 85.3088 66.6615 86.4558 66.6615 87.3111C66.6615 88.3501 67.0911 88.6527 71.3265 89.2397C75.5172 89.8213 77.5086 90.6424 77.5086 93.7306C77.5103 96.8512 75.0326 98.6358 70.7131 98.6358Z" fill="#83CD29"/>
<path d="M127.328 55.9301C127.744 55.6904 128 55.2529 128 54.7773V51.6935C128 51.2193 127.745 50.7818 127.328 50.542L116.213 44.1806C116.007 44.0627 115.774 44.0005 115.536 44C115.298 43.9995 115.065 44.0609 114.859 44.1779L103.675 50.5433C103.47 50.6604 103.3 50.8285 103.181 51.0308C103.063 51.2331 103 51.4625 103 51.6961V64.4243C103 64.9025 103.26 65.3452 103.683 65.5824L114.796 71.8246C115.206 72.0565 115.708 72.0578 116.121 71.8325L122.843 68.1487C122.947 68.0914 123.035 68.0078 123.096 67.9064C123.157 67.8049 123.189 67.6893 123.19 67.5713C123.191 67.4533 123.16 67.3373 123.1 67.235C123.041 67.1327 122.954 67.048 122.851 66.9893L111.598 60.6226C111.495 60.5646 111.409 60.4808 111.349 60.3796C111.289 60.2783 111.258 60.1633 111.258 60.0462V56.0559C111.258 55.8175 111.386 55.5987 111.595 55.4808L115.099 53.4896C115.202 53.431 115.318 53.4002 115.436 53.4002C115.555 53.4002 115.671 53.431 115.773 53.4896L119.277 55.4808C119.38 55.5388 119.466 55.6226 119.525 55.7235C119.585 55.8245 119.616 55.9391 119.616 56.0559V59.1947C119.615 59.3121 119.646 59.4275 119.706 59.5293C119.765 59.6311 119.85 59.7156 119.954 59.7741C120.057 59.8327 120.174 59.8633 120.293 59.8628C120.412 59.8622 120.529 59.8306 120.631 59.7711L127.328 55.9301Z" fill="#404137"/>
<path d="M115.365 55.037C115.406 55.0127 115.453 55 115.5 55C115.547 55 115.594 55.0127 115.635 55.037L117.866 56.3958C117.949 56.4468 118 56.5414 118 56.6419V59.3582C118 59.4601 117.949 59.5534 117.866 59.6043L115.635 60.9617C115.594 60.9868 115.547 61 115.5 61C115.453 61 115.406 60.9868 115.365 60.9617L113.135 59.6043C113.094 59.5796 113.06 59.5438 113.036 59.5005C113.012 59.4573 113 59.4082 113 59.3582V56.6419C113 56.5414 113.051 56.4468 113.135 56.3958L115.365 55.037Z" fill="#83CD29"/>
<path d="M86.6366 60.2075C86.6366 60.3244 86.573 60.4336 86.4684 60.4934L82.6398 62.6589C82.5887 62.6883 82.5307 62.7037 82.4715 62.7037C82.4124 62.7037 82.3543 62.6883 82.3033 62.6589L78.4746 60.4934C78.4236 60.4643 78.3812 60.4226 78.3516 60.3725C78.3221 60.3223 78.3065 60.2654 78.3064 60.2075V55.8687C78.3064 55.7517 78.3713 55.6412 78.4746 55.5814L82.3033 53.4133C82.3543 53.3833 82.4127 53.3675 82.4722 53.3675C82.5317 53.3675 82.5901 53.3833 82.6411 53.4133L86.471 55.5814C86.5218 55.6111 86.5638 55.6531 86.5931 55.7035C86.6223 55.7538 86.6378 55.8107 86.638 55.8687V60.2075H86.6366ZM87.6713 28.0813C87.5686 28.0263 87.4532 27.9983 87.3362 28.0001C87.2192 28.0019 87.1047 28.0333 87.0039 28.0915C86.903 28.1496 86.8192 28.2324 86.7606 28.3317C86.7021 28.4311 86.6708 28.5437 86.6698 28.6584V45.4455C86.6694 45.5265 86.6476 45.6059 86.6065 45.6761C86.5654 45.7463 86.5064 45.8048 86.4353 45.8458C86.3634 45.8861 86.2822 45.9072 86.1995 45.9072C86.1167 45.9072 86.0355 45.8861 85.9636 45.8458L83.171 44.2666C82.9665 44.151 82.7347 44.0902 82.4987 44.0902C82.2627 44.0902 82.0308 44.151 81.8263 44.2666L70.6743 50.5811C70.4694 50.6971 70.2992 50.864 70.1809 51.065C70.0625 51.266 70.0001 51.4941 70 51.7262V64.3591C70 64.8309 70.257 65.2663 70.673 65.5042L81.825 71.8226C82.241 72.0591 82.755 72.0591 83.1723 71.8226L94.327 65.5042C94.5315 65.3878 94.7012 65.2207 94.8193 65.0198C94.9374 64.8188 94.9997 64.591 95 64.3591V32.8685C95 32.3902 94.735 31.9483 94.3098 31.7143L87.6713 28.0813Z" fill="#404137"/>
<path d="M48.8248 44.1779C49.0294 44.0614 49.2616 44 49.498 44C49.7344 44 49.9666 44.0614 50.1712 44.1779L61.3268 50.5109C61.7429 50.7482 62 51.1863 62 51.6596V64.336C62 64.8093 61.7429 65.2474 61.3268 65.4847L50.1725 71.8229C49.9675 71.939 49.7352 72 49.4987 72C49.2622 72 49.0298 71.939 48.8248 71.8229L37.6732 65.4847C37.4687 65.3679 37.2989 65.2004 37.1807 64.9988C37.0626 64.7972 37.0003 64.5687 37 64.336V51.6583C37 51.1863 37.2571 50.7482 37.6732 50.5109L48.8248 44.1779Z" fill="#83CD29"/>
<path d="M29 51.5469C29 51.0755 28.7455 50.6427 28.3267 50.4095L17.1739 44.1713C16.9866 44.0658 16.7754 44.0069 16.559 44H16.4437C16.2273 44.0071 16.0161 44.0659 15.8287 44.1713L4.6746 50.4095C4.46941 50.525 4.29906 50.6908 4.18065 50.8905C4.06225 51.0901 3.99995 51.3165 4 51.5469L4.02386 68.3436C4.02386 68.5781 4.14976 68.7957 4.36049 68.9091C4.4614 68.9686 4.57714 69 4.69514 69C4.81315 69 4.92889 68.9686 5.02979 68.9091L11.6565 65.22C12.0753 64.9778 12.3311 64.5515 12.3311 64.0839V56.2369C12.3311 55.768 12.5856 55.3365 13.0031 55.102L15.8261 53.5229C16.0301 53.4063 16.2627 53.3454 16.4993 53.3464C16.7299 53.3464 16.9659 53.4031 17.1713 53.5229L19.9916 55.102C20.4091 55.3365 20.6662 55.768 20.6662 56.2369V64.0839C20.6662 64.5515 20.9247 64.9804 21.3408 65.22L27.9676 68.9091C28.0697 68.9658 28.1855 68.9956 28.3031 68.9953C28.4208 68.995 28.5364 68.9648 28.6383 68.9076C28.7402 68.8503 28.8249 68.7682 28.884 68.6692C28.943 68.5703 28.9743 68.458 28.9748 68.3436L29 51.5469Z" fill="#404137"/>
<path d="M269.191 97.953C268.816 97.9525 268.449 98.0624 268.136 98.269C267.817 98.48 267.525 98.844 267.525 99.31C267.525 99.372 267.489 99.51 267.609 99.75L267.578 99.674L273.988 120.471C274.103 120.861 274.378 121.159 274.688 121.331C274.998 121.503 275.336 121.566 275.666 121.566C276.366 121.566 277.136 121.232 277.371 120.478V120.476L283.775 99.601V99.525C283.775 99.631 283.806 99.57 283.806 99.342C283.806 98.867 283.503 98.518 283.179 98.299C282.855 98.0761 282.471 97.9556 282.078 97.953C281.588 97.953 281.026 98.25 280.838 98.816L280.834 98.822L275.664 116.076L270.474 98.853C270.397 98.545 270.19 98.288 269.949 98.144C269.708 98 269.445 97.953 269.191 97.953ZM320.246 99.025C319.226 99.025 318.366 99.807 318.366 100.785C318.366 101.763 319.212 102.572 320.246 102.572C321.26 102.572 322.066 101.748 322.066 100.785C322.066 99.822 321.246 99.025 320.246 99.025ZM305.217 105.683C301.729 105.683 298.856 108.475 298.856 111.83V115.268C298.856 117.147 299.604 118.758 300.876 119.869C302.146 120.981 303.92 121.596 305.953 121.596C307.455 121.596 308.68 121.259 309.555 120.803C309.993 120.574 310.345 120.318 310.604 120.039C310.864 119.759 311.054 119.454 311.054 119.072C311.054 118.722 310.92 118.418 310.701 118.145C310.483 117.872 310.139 117.621 309.695 117.621C309.375 117.621 309.129 117.756 308.916 117.887C308.703 118.017 308.503 118.162 308.262 118.301C307.78 118.578 307.142 118.848 306.014 118.848C304.758 118.848 303.712 118.49 302.99 117.888C302.27 117.288 301.85 116.453 301.85 115.359V114.723H308.285C308.972 114.723 309.735 114.723 310.395 114.303C311.055 113.881 311.455 113.043 311.455 111.77C311.455 108.24 308.511 105.684 305.217 105.684V105.683ZM329.403 105.683C327.549 105.683 326.185 106.283 325.309 107.185C324.433 108.087 324.055 109.261 324.055 110.357C324.055 111.755 324.62 112.757 325.428 113.398C326.237 114.041 327.243 114.364 328.2 114.652C329.157 114.941 330.073 115.197 330.688 115.576C331.303 115.956 331.633 116.365 331.633 117.23C331.633 117.695 331.493 118.065 331.116 118.367C330.738 118.67 330.066 118.908 328.973 118.908C327.68 118.908 326.957 118.589 326.43 118.264C326.167 118.101 325.955 117.932 325.737 117.781C325.519 117.63 325.271 117.467 324.924 117.467C324.507 117.467 324.199 117.724 324.012 117.99C323.823 118.251 323.719 118.565 323.717 118.887C323.717 119.292 323.915 119.648 324.194 119.957C324.474 120.266 324.851 120.541 325.315 120.781C326.242 121.261 327.519 121.596 329.035 121.596C330.682 121.596 332.036 121.194 332.995 120.414C333.953 119.634 334.475 118.475 334.475 117.139C334.475 115.629 333.926 114.544 333.118 113.826C332.309 113.109 331.288 112.739 330.317 112.441C329.346 112.144 328.411 111.912 327.786 111.586C327.16 111.26 326.866 110.959 326.866 110.266C326.866 109.891 327.016 109.419 327.397 109.046C327.778 108.675 328.4 108.373 329.434 108.373C330.26 108.373 330.874 108.563 331.366 108.763C331.612 108.864 331.826 108.969 332.028 109.057C332.231 109.144 332.418 109.23 332.686 109.23C333.171 109.23 333.504 108.91 333.702 108.613C333.9 108.316 334.014 108.023 334.014 107.687C334.014 107.267 333.753 106.969 333.464 106.747C333.175 106.525 332.811 106.345 332.391 106.191C331.551 105.883 330.479 105.684 329.403 105.684V105.683ZM285.546 105.869C284.735 105.869 284.034 106.378 284.034 107.135V115.328C284.034 118.652 286.86 121.596 290.364 121.596C293.81 121.596 296.694 118.686 296.694 115.328V107.105C296.694 106.727 296.486 106.398 296.212 106.189C295.938 105.981 295.59 105.869 295.212 105.869C294.834 105.869 294.484 105.979 294.204 106.184C293.924 106.388 293.7 106.714 293.7 107.105V115.328C293.7 117.07 292.182 118.756 290.364 118.756C288.517 118.756 287.029 117.04 287.029 115.328V107.135C287.029 106.742 286.814 106.44 286.549 106.225C286.284 106.01 285.934 105.869 285.546 105.869ZM320.247 105.869C319.867 105.869 319.517 105.967 319.237 106.178C318.957 106.388 318.767 106.736 318.767 107.105V122.201C318.767 123.334 318.687 124.284 318.438 124.86C318.19 125.435 317.896 125.69 317.058 125.69C316.317 125.69 315.698 126.337 315.698 127.112C315.698 127.433 315.802 127.787 316.065 128.062C316.328 128.337 316.737 128.5 317.21 128.5C318.804 128.5 320.024 127.793 320.75 126.645C321.478 125.496 321.76 123.96 321.76 122.201V107.105C321.76 106.712 321.536 106.37 321.25 106.168C320.955 105.967 320.604 105.862 320.247 105.869ZM305.186 108.342C307.177 108.342 308.522 110.009 308.522 111.707C308.522 111.892 308.502 112.013 308.482 112.068C308.464 112.123 308.466 112.116 308.438 112.135C308.383 112.171 308.075 112.25 307.487 112.25H301.85V111.584C301.85 109.807 303.335 108.342 305.186 108.342ZM314.698 117.712C313.61 117.712 312.786 118.612 312.786 119.654C312.786 120.654 313.598 121.566 314.698 121.566C315.74 121.566 316.578 120.682 316.578 119.654C316.578 118.587 315.726 117.713 314.698 117.713V117.712Z" fill="#35495E"/>
<path d="M268.404 0.393982L288.133 0.399982L301.029 21.807L313.88 0.402982L333.592 0.397982L301.128 56.71L268.404 0.393982Z" fill="#35495E"/>
<path d="M246.887 0.54401L268.387 0.39801L301.109 56.713L333.575 0.40101L355.112 0.42401L301.105 93.108L246.887 0.54401Z" fill="#41B883"/>
<path d="M538 75.4C544.296 75.4 549.4 70.296 549.4 64C549.4 57.7039 544.296 52.6 538 52.6C531.704 52.6 526.6 57.7039 526.6 64C526.6 70.296 531.704 75.4 538 75.4Z" fill="#61DAFB"/>
<path d="M581.3 45.2C579.1 44.4 576.8 43.6 574.4 42.9C575 40.5 575.5 38.1 575.9 35.8C578 22.6 575.7 13.3 569.3 9.69998C567.4 8.59997 565.3 8.09998 562.9 8.09998C555.9 8.09998 547 13.3 538 22C529 13.3 520.1 8.09998 513.1 8.09998C510.7 8.09998 508.6 8.59997 506.7 9.69998C500.3 13.4 498 22.7 500.1 35.8C500.5 38.1 501 40.5 501.6 42.9C499.2 43.6 496.9 44.3 494.7 45.2C482.2 50 475.4 56.6 475.4 64C475.4 71.4 482.3 78 494.7 82.8C496.9 83.6 499.2 84.4 501.6 85.1C501 87.5 500.5 89.9 500.1 92.2C498 105.4 500.3 114.7 506.7 118.3C508.6 119.4 510.7 119.9 513.1 119.9C520.2 119.9 529.1 114.7 538 106C547 114.7 555.9 119.9 562.9 119.9C565.3 119.9 567.4 119.4 569.3 118.3C575.7 114.6 578 105.3 575.9 92.2C575.5 89.9 575 87.5 574.4 85.1C576.8 84.4 579.1 83.7 581.3 82.8C593.8 78 600.6 71.4 600.6 64C600.6 56.6 593.8 50 581.3 45.2ZM566.5 14.7C570.6 17.1 572 24.5 570.3 35C570 37.1 569.5 39.3 568.9 41.6C563.7 40.4 558.2 39.6 552.4 39.1C549 34.3 545.5 30 542 26.1C549.4 18.8 556.9 13.8 563 13.8C564.3 13.8 565.5 14.1 566.5 14.7ZM555.3 74C553.5 77.2 551.4 80.4 549.2 83.6C545.5 83.9 541.8 84 538 84C534.1 84 530.4 83.9 526.8 83.6C524.6 80.4 522.6 77.2 520.8 74C518.9 70.7 517.1 67.3 515.5 64C517.1 60.7 518.9 57.3 520.8 54C522.6 50.8 524.7 47.6 526.9 44.4C530.6 44.1 534.3 44 538.1 44C542 44 545.7 44.1 549.3 44.4C551.5 47.6 553.5 50.8 555.3 54C557.2 57.3 559 60.7 560.6 64C558.9 67.3 557.2 70.6 555.3 74ZM563.6 70.7C565.1 74.2 566.3 77.6 567.4 81C564 81.8 560.4 82.4 556.6 82.9C557.8 81 559.1 79 560.2 76.9C561.4 74.8 562.5 72.7 563.6 70.7ZM538 97.8C535.6 95.2 533.3 92.4 531.1 89.5C533.4 89.6 535.7 89.7 538 89.7C540.3 89.7 542.6 89.6 544.9 89.5C542.7 92.4 540.4 95.2 538 97.8ZM519.4 82.8C515.6 82.3 512 81.7 508.6 80.9C509.7 77.6 510.9 74.1 512.4 70.6C513.5 72.6 514.6 74.7 515.8 76.7C517 78.9 518.2 80.8 519.4 82.8ZM512.4 57.3C510.9 53.8 509.7 50.4 508.6 47C512 46.2 515.6 45.6 519.4 45.1C518.2 47 516.9 49 515.8 51.1C514.6 53.2 513.5 55.3 512.4 57.3ZM538 30.2C540.4 32.8 542.7 35.6 544.9 38.5C542.6 38.4 540.3 38.3 538 38.3C535.7 38.3 533.4 38.4 531.1 38.5C533.3 35.6 535.6 32.8 538 30.2ZM560.2 51.2L556.6 45.2C560.4 45.7 564 46.3 567.4 47.1C566.3 50.4 565.1 53.9 563.6 57.4C562.5 55.3 561.4 53.2 560.2 51.2ZM505.7 35C504 24.5 505.4 17.1 509.5 14.7C510.5 14.1 511.7 13.8 513 13.8C519 13.8 526.5 18.7 534 26.1C530.5 29.9 527 34.3 523.6 39.1C517.8 39.6 512.3 40.5 507.1 41.6C506.5 39.3 506.1 37.1 505.7 35ZM481 64C481 59.3 486.7 54.3 496.7 50.6C498.7 49.8 500.9 49.1 503.1 48.5C504.7 53.5 506.7 58.8 509.1 64.1C506.7 69.4 504.6 74.6 503.1 79.6C489.3 75.6 481 69.6 481 64ZM509.5 113.3C505.4 110.9 504 103.5 505.7 93C506 90.9 506.5 88.7 507.1 86.4C512.3 87.6 517.8 88.4 523.6 88.9C527 93.7 530.5 98 534 101.9C526.6 109.2 519.1 114.2 513 114.2C511.7 114.2 510.5 113.9 509.5 113.3ZM570.3 93C572 103.5 570.6 110.9 566.5 113.3C565.5 113.9 564.3 114.2 563 114.2C557 114.2 549.5 109.3 542 101.9C545.5 98.1 549 93.7 552.4 88.9C558.2 88.4 563.7 87.5 568.9 86.4C569.5 88.7 569.9 90.9 570.3 93ZM579.3 77.4C577.3 78.2 575.1 78.9 572.9 79.5C571.3 74.5 569.3 69.2 566.9 63.9C569.3 58.6 571.4 53.4 572.9 48.4C586.7 52.4 595 58.4 595 64C595 68.7 589.2 73.7 579.3 77.4Z" fill="#61DAFB"/>
<path d="M837.33 34.06C837.329 31.4301 837.065 28.807 836.54 26.23C836.015 23.5919 835.123 21.0404 833.89 18.65C832.601 16.3346 831 14.208 829.13 12.33C827.202 10.4434 824.962 8.90408 822.51 7.77999C820.09 6.55969 817.502 5.70699 814.83 5.24999C812.18 4.73999 809.27 4.73999 806.62 4.48999H741.25C739.211 4.52319 737.176 4.69358 735.16 4.99999C733.159 5.23554 731.201 5.74707 729.34 6.51999C728.81 6.76999 728.02 7.02999 727.49 7.27999C725.73 8.22355 724.057 9.32117 722.49 10.56C721.96 11.07 721.43 11.32 720.9 11.82C718.951 13.6277 717.339 15.7677 716.14 18.14C714.831 20.4968 713.934 23.0605 713.49 25.72C713.096 28.3151 712.832 30.9284 712.7 33.55V93.94C712.701 96.5698 712.966 99.193 713.49 101.77C714.015 104.408 714.907 106.96 716.14 109.35C717.429 111.665 719.031 113.792 720.9 115.67C722.828 117.557 725.068 119.096 727.52 120.22C729.94 121.44 732.529 122.293 735.2 122.75C737.85 123.26 740.76 123.26 743.41 123.51H806.63C809.384 123.508 812.132 123.254 814.84 122.75C817.512 122.293 820.1 121.44 822.52 120.22C824.92 119.006 827.147 117.475 829.14 115.67C831.089 113.862 832.701 111.722 833.9 109.35C835.21 106.993 836.106 104.429 836.55 101.77C836.944 99.1748 837.208 96.5616 837.34 93.94V34.06H837.33Z" fill="#F05138"/>
<path d="M796 96.5C784.89 102.63 769.62 103.26 754.25 96.97C742.266 92.1076 732.02 83.7566 724.84 73C728.177 75.5542 731.822 77.6776 735.69 79.32C751.56 86.42 767.42 85.93 778.59 79.32C762.69 67.66 749.19 52.5 739.13 40.12C737.145 38.0278 735.373 35.7432 733.84 33.3C746 43.91 765.34 57.3 772.22 61.09C762.397 51.0249 753.369 40.2124 745.22 28.75C758.767 41.9149 773.674 53.6037 789.69 63.62C790.4 64 790.95 64.32 791.39 64.62C791.859 63.4739 792.263 62.302 792.6 61.11C796.31 48.22 792.07 33.57 782.81 21.44C804.25 33.81 817 57.05 811.66 76.51C811.52 77.04 811.37 77.51 811.21 78.06L811.4 78.28C821.99 90.91 819.08 104.28 817.75 101.78C812 91 801.37 94.33 796 96.5Z" fill="#FEFEFE"/>
<path fill-rule="evenodd" clip-rule="evenodd" d="M969.1 68.7C969.3 72.2 972.8 70.6 974.4 69.5C975.9 68.4 976.4 69.3 976.5 67.2C976.6 65.8 976.7 64.5 976.7 63.1C974.4 62.9 971.9 63.4 970 64.8C969.1 65.5 967.2 67.8 969.1 68.7Z" fill="#F6D2A2"/>
<path d="M971 71.2C970.3 71.2 969 70.9 968.8 68.9C968.2 68.5 968 68 968 67.7C967.9 66.5 969.2 65.1 969.9 64.6C971.5 63.4 973.6 62.8 975.8 62.8H977.1V63.1C977.2 64.2 977.1 65.3 977 66.3C977 66.6 977 66.9 976.9 67.2C976.8 68.7 976.5 68.9 975.8 69.2C975.5 69.3 975.2 69.4 974.7 69.8C974.2 70.1 972.5 71.2 971 71.2ZM975.8 63.4C973.7 63.4 971.8 64 970.3 65.1C969.6 65.6 968.6 66.8 968.7 67.6C968.7 67.9 968.9 68.2 969.3 68.4L969.5 68.5V68.7C969.6 70.3 970.4 70.5 971 70.5C972 70.5 973.4 69.8 974.3 69.2C974.9 68.8 975.3 68.7 975.6 68.6C976.1 68.4 976.2 68.4 976.3 67.2C976.3 66.9 976.3 66.6 976.4 66.3C976.5 65.4 976.5 64.4 976.5 63.5C976.2 63.4 976 63.4 975.8 63.4Z" fill="black"/>
<path fill-rule="evenodd" clip-rule="evenodd" d="M969.1 68.7C969.6 68.5 970.2 68.4 970.5 67.9L969.1 68.7Z" fill="#C6B198"/>
<path d="M969.1 69C969 69 968.8 68.9 968.8 68.8C968.7 68.6 968.8 68.4 969 68.4C969.1 68.4 969.2 68.3 969.2 68.3C969.6 68.1 970 68 970.2 67.7C970.3 67.6 970.5 67.5 970.7 67.6C970.8 67.7 970.9 67.9 970.8 68.1C970.4 68.6 969.9 68.8 969.5 68.9L969.3 69H969.1Z" fill="black"/>
<path fill-rule="evenodd" clip-rule="evenodd" d="M977.3 26.4C963.7 22.6 973.8 5.29997 984.7 12.4L977.3 26.4Z" fill="#6AD7E5"/>
<path d="M977.5 26.8L977.2 26.7C970.2 24.7 970.3 19.7 970.5 18.2C971 14.4 974.6 10.4 979.4 10.4C981.3 10.4 983.1 11 984.9 12.2L985.2 12.4L977.5 26.8ZM979.4 11.1C974.9 11.1 971.6 14.8 971.1 18.3C970.6 21.9 972.8 24.7 977.1 26L984.2 12.5C982.7 11.6 981.1 11.1 979.4 11.1Z" fill="black"/>
<path fill-rule="evenodd" clip-rule="evenodd" d="M1037.6 11.1C1048.3 3.59997 1058.1 20.6 1045.6 24.9L1037.6 11.1Z" fill="#6AD7E5"/>
<path d="M1045.5 25.3L1037.2 11L1037.5 10.8C1039.4 9.49999 1041.3 8.79999 1043.2 8.79999C1047.8 8.79999 1051.1 12.6 1051.8 16.3C1052.1 17.8 1052.4 22.9 1045.8 25.1L1045.5 25.3ZM1038.1 11.3L1045.8 24.6C1049.7 23.2 1051.7 20.2 1051.1 16.6C1050.5 13.2 1047.4 9.69999 1043.2 9.69999C1041.5 9.59999 1039.8 10.1 1038.1 11.3Z" fill="black"/>
<path fill-rule="evenodd" clip-rule="evenodd" d="M1040 112.3C1042.7 114 1047.7 119.1 1043.6 121.6C1039.7 125.2 1037.5 117.6 1034 116.6C1035.5 114.6 1037.4 112.7 1040 112.3Z" fill="#F6D2A2"/>
<path d="M1041.5 122.9C1039.9 122.9 1038.5 121.3 1037.3 119.8C1036.2 118.6 1035.1 117.3 1033.9 116.9L1033.4 116.8L1033.7 116.4C1034.9 114.7 1036.9 112.5 1039.9 112H1040L1040.1 112.1C1041.8 113.2 1045.5 116.3 1045.4 119.2C1045.4 120.3 1044.8 121.2 1043.7 121.9C1043 122.6 1042.3 122.9 1041.5 122.9ZM1034.5 116.4C1035.7 116.9 1036.7 118.2 1037.7 119.3C1038.9 120.8 1040.1 122.1 1041.4 122.1C1042 122.1 1042.6 121.8 1043.2 121.2H1043.3C1044.2 120.6 1044.7 119.9 1044.7 119C1044.7 116.7 1041.8 113.8 1039.8 112.5C1038 113 1036.2 114.2 1034.5 116.4ZM1043.6 121.9C1043.5 121.9 1043.4 121.8 1043.3 121.7C1043.1 121.3 1042.9 120.8 1042.8 120.4C1042.5 119.6 1042.2 118.8 1041.6 118.2C1041.5 118.1 1041.5 117.9 1041.6 117.7C1041.7 117.6 1041.9 117.6 1042.1 117.7C1042.8 118.4 1043.2 119.3 1043.5 120.2L1044 121.4C1044.1 121.6 1044 121.8 1043.9 121.9H1043.6Z" fill="black"/>
<path fill-rule="evenodd" clip-rule="evenodd" d="M991.2 118.1C988 118.6 986.2 121.5 983.5 123C981 124.5 980 122.5 979.8 122.1C979.4 121.9 979.4 122.3 978.8 121.7C976.5 118 981.2 115.3 983.7 113.5C987.2 112.7 989.4 115.7 991.2 118.1Z" fill="#F6D2A2"/>
<path d="M981.8 123.8C980.5 123.8 979.8 122.7 979.6 122.3H979.5C979.2 122.3 979 122.2 978.6 121.8V121.7C976.4 118.2 980.2 115.5 982.7 113.7L983.6 113.1H983.8C984.2 113 984.5 113 984.9 113C987.9 113 989.8 115.6 991.4 117.7L991.9 118.4L991.3 118.5C989.4 118.8 988 120 986.6 121.2C985.7 122 984.8 122.7 983.8 123.3C983 123.6 982.4 123.8 981.8 123.8ZM979.6 121.7C979.7 121.7 979.8 121.7 980 121.8H980.1L980.2 121.9C980.4 122.2 980.9 123.1 981.9 123.1C982.4 123.1 982.9 122.9 983.4 122.6C984.4 122.1 985.3 121.3 986.1 120.6C987.4 119.5 988.8 118.3 990.6 117.8C989.1 115.8 987.3 113.6 984.8 113.6C984.5 113.6 984.2 113.6 983.9 113.7L983.1 114.3C980.5 116.1 977.3 118.4 979.2 121.4C979.3 121.6 979.4 121.7 979.6 121.7ZM979.8 122.4C979.6 122.4 979.4 122.2 979.5 122C979.6 121 980.1 120.3 980.6 119.5C980.9 119.1 981.1 118.7 981.3 118.3C981.4 118.1 981.6 118.1 981.7 118.1C981.9 118.2 981.9 118.4 981.9 118.5C981.7 119 981.4 119.4 981.1 119.8C980.6 120.5 980.2 121.1 980.1 121.9C980.1 122.3 980 122.4 979.8 122.4Z" fill="black"/>
<path fill-rule="evenodd" clip-rule="evenodd" d="M977.9 21.7C976.1 20.8 974.8 19.5 975.9 17.4C976.9 15.5 978.8 15.7 980.6 16.6L977.9 21.7ZM1042.8 19.9C1044.6 19 1045.9 17.7 1044.8 15.6C1043.8 13.7 1041.9 13.9 1040.1 14.8L1042.8 19.9Z" fill="black"/>
<path fill-rule="evenodd" clip-rule="evenodd" d="M1055.1 68.2C1054.9 71.7 1051.4 70.1 1049.8 69C1048.3 67.9 1047.8 68.8 1047.7 66.7C1047.6 65.3 1047.5 64 1047.5 62.6C1049.8 62.4 1052.3 62.9 1054.2 64.3C1055.2 65.1 1057 67.3 1055.1 68.2Z" fill="#F6D2A2"/>
<path d="M1053.3 70.7C1051.8 70.7 1050.1 69.6 1049.6 69.3C1049.1 69 1048.8 68.8 1048.5 68.7C1047.7 68.4 1047.5 68.2 1047.4 66.7C1047.4 66.4 1047.4 66.1 1047.3 65.8C1047.2 64.8 1047.1 63.7 1047.2 62.6V62.3H1048.5C1050.7 62.3 1052.8 62.9 1054.4 64.1C1055.1 64.6 1056.4 66 1056.3 67.2C1056.3 67.6 1056.1 68.1 1055.5 68.4C1055.3 70.4 1054 70.7 1053.3 70.7ZM1047.8 63C1047.8 63.9 1047.8 64.9 1047.9 65.8C1047.9 66.1 1047.9 66.4 1048 66.7C1048.1 67.9 1048.2 67.9 1048.7 68.1C1049 68.2 1049.4 68.4 1050 68.7C1050.9 69.3 1052.3 70 1053.3 70C1053.9 70 1054.7 69.8 1054.8 68.2V68L1055 67.9C1055.4 67.7 1055.6 67.5 1055.6 67.1C1055.7 66.3 1054.7 65.1 1054 64.6C1052.5 63.5 1050.5 62.9 1048.5 62.9C1048.3 63 1048.1 63 1047.8 63Z" fill="black"/>
<path fill-rule="evenodd" clip-rule="evenodd" d="M1055.1 68.2C1054.6 68 1054 67.9 1053.7 67.4L1055.1 68.2Z" fill="#C6B198"/>
<path d="M1055.1 68.6H1055L1054.8 68.5C1054.3 68.3 1053.8 68.2 1053.5 67.7C1053.4 67.6 1053.4 67.3 1053.6 67.2C1053.7 67.1 1054 67.1 1054.1 67.3C1054.3 67.6 1054.7 67.7 1055.1 67.9C1055.2 67.9 1055.3 68 1055.3 68C1055.5 68.1 1055.6 68.3 1055.5 68.4C1055.4 68.5 1055.2 68.6 1055.1 68.6Z" fill="black"/>
<path fill-rule="evenodd" clip-rule="evenodd" d="M1010.8 4C1024.4 4 1037.1 5.9 1043.8 19C1049.8 33.6 1047.6 49.4 1048.6 64.9C1049.4 78.2 1051.1 93.5 1045 105.8C1038.5 118.7 1022.3 122 1009 121.5C998.5 121.1 985.9 117.7 979.9 108.1C973 96.9 976.2 80.2 976.7 67.7C977.3 52.9 972.7 38 977.6 23.6C982.5 8.5 996.1 5.1 1010.8 4Z" fill="#6AD7E5"/>
<path d="M1011.3 121.9H1008.8C1004.7 121.8 998.5 121.1 992.4 118.6C986.5 116.2 982.2 112.8 979.4 108.3C973.8 99.2 974.8 86.7 975.7 75.6C975.9 72.8 976.1 70.2 976.2 67.7C976.4 62.5 976 57.1 975.5 52C974.7 42.6 973.9 32.9 977 23.5C979.4 16.5 983.7 11.5 990.2 8.30003C995.3 5.80003 1001.6 4.40003 1010.6 3.70003C1024 3.60003 1037.3 5.50002 1044 18.8C1048.4 29.5 1048.4 41 1048.5 52.1C1048.5 56.3 1048.5 60.6 1048.8 64.8C1048.9 66.1 1049 67.4 1049 68.7C1049.8 80.9 1050.7 94.7 1045.1 105.9C1042.3 111.6 1037.4 115.8 1030.7 118.5C1025.3 120.7 1018.5 121.9 1011.3 121.9ZM1010.8 4.30003C996.7 5.40003 982.9 8.50003 977.8 23.7C974.7 33 975.5 42.6 976.3 51.9C976.7 57.1 977.2 62.4 977 67.7C976.9 70.2 976.7 72.8 976.5 75.6C975.6 86.6 974.6 99 980.1 107.9C982.4 111.6 989.8 120.4 1008.9 121.1H1011.4C1033.5 121.1 1041.7 111.3 1044.7 105.5C1050.2 94.5 1049.3 80.7 1048.6 68.6C1048.5 67.3 1048.4 66 1048.4 64.7C1048.2 60.5 1048.1 56.2 1048.1 52C1048 41 1048 29.5 1043.7 18.9C1040.7 13 1036.2 9.00003 1030 6.70003C1023.6 4.60003 1016.4 4.30003 1010.8 4.30003Z" fill="black"/>
<path fill-rule="evenodd" clip-rule="evenodd" d="M1013.2 22.2C1015.6 36.4 1038.8 32.6 1035.5 18.3C1032.5 5.49999 1012.4 9.09999 1013.2 22.2Z" fill="white"/>
<path d="M1024.2 31.5C1019.7 31.5 1014 29.1 1012.8 22.3C1012.6 19.1 1013.6 16.2 1015.7 14C1018 11.5 1021.5 10.1 1025.1 10.1C1029.3 10.1 1034.3 12.3 1035.7 18.4C1036.5 21.8 1035.9 24.8 1034 27.2C1031.9 29.8 1028.2 31.5 1024.2 31.5ZM1013.5 22.2C1014 25 1015.3 27.2 1017.4 28.8C1019.2 30.2 1021.7 30.9 1024.2 30.9C1027.9 30.9 1031.5 29.3 1033.5 26.8C1035.3 24.6 1035.8 21.7 1035.1 18.5C1033.8 12.8 1029.1 10.8 1025.1 10.8C1021.7 10.8 1018.4 12.2 1016.2 14.5C1014.3 16.5 1013.3 19.2 1013.5 22.2Z" fill="black"/>
<path fill-rule="evenodd" clip-rule="evenodd" d="M985.5 24.5C988.7 36.8 1008.4 33.7 1007.7 21.3C1006.8 6.5 982.4 9.30001 985.5 24.5Z" fill="white"/>
<path d="M996 32.7C991.7 32.7 986.7 30.6 985.1 24.6C984.4 21.1 985.1 17.9 987.1 15.5C989.3 12.8 992.9 11.2 996.8 11.2C1002 11.2 1007.5 14.3 1007.9 21.3C1008.1 24.2 1007.2 26.8 1005.2 28.9C1003.1 31.2 999.6 32.7 996 32.7ZM996.8 11.9C993.1 11.9 989.7 13.4 987.6 15.9C985.7 18.2 985.1 21.1 985.8 24.4C987.2 30 992 32 996 32C999.4 32 1002.7 30.7 1004.8 28.4C1006.6 26.5 1007.5 24 1007.3 21.3C1007.1 17 1004.2 11.9 996.8 11.9Z" fill="black"/>
<path fill-rule="evenodd" clip-rule="evenodd" d="M1016 39.2C1016 41 1016.4 43.1 1016.1 45.1C1015.6 46 1014.7 46.1 1013.9 46.4C1012.8 46.2 1011.9 45.5 1011.4 44.5C1011.1 42.3 1011.5 40.1 1011.6 37.9L1016 39.2Z" fill="white"/>
<path d="M1013.9 46.8C1012.6 46.6 1011.6 45.8 1011.1 44.7C1010.9 43.1 1011 41.6 1011.1 40.1C1011.2 39.4 1011.2 38.7 1011.2 38V37.6L1016.3 39.2V39.4C1016.3 40 1016.4 40.6 1016.4 41.3C1016.5 42.6 1016.6 44 1016.4 45.3V45.4C1016 46.2 1015.3 46.4 1014.6 46.7C1014.4 46.6 1014.2 46.7 1013.9 46.8ZM1011.7 44.4C1012.1 45.3 1012.9 45.9 1013.8 46.1C1014 46 1014.2 46 1014.3 45.9C1014.9 45.7 1015.4 45.5 1015.7 45C1015.9 43.8 1015.8 42.5 1015.7 41.2C1015.7 40.6 1015.6 40 1015.6 39.5L1011.8 38.3C1011.8 38.9 1011.7 39.5 1011.7 40C1011.6 41.6 1011.5 43 1011.7 44.4Z" fill="black"/>
<path fill-rule="evenodd" clip-rule="evenodd" d="M994.3 22.5C994.3 24.5 992.8 26.1 991 26.1C989.2 26.1 987.7 24.5 987.7 22.5C987.7 20.5 989.2 18.9 991 18.9C992.8 18.9 994.3 20.5 994.3 22.5Z" fill="black"/>
<path fill-rule="evenodd" clip-rule="evenodd" d="M993.2 23.3C993.2 23.8 992.8 24.2 992.4 24.2C992 24.2 991.6 23.8 991.6 23.3C991.6 22.8 992 22.4 992.4 22.4C992.9 22.4 993.2 22.8 993.2 23.3Z" fill="white"/>
<path fill-rule="evenodd" clip-rule="evenodd" d="M1022.2 21.6C1022.2 23.6 1020.7 25.2 1018.9 25.2C1017.1 25.2 1015.6 23.6 1015.6 21.6C1015.6 19.6 1017.1 18 1018.9 18C1020.7 18 1022.2 19.6 1022.2 21.6Z" fill="black"/>
<path fill-rule="evenodd" clip-rule="evenodd" d="M1021.2 22.4C1021.2 22.9 1020.9 23.3 1020.4 23.3C1020 23.3 1019.6 22.9 1019.6 22.4C1019.6 21.9 1019.9 21.5 1020.4 21.5C1020.8 21.5 1021.2 21.9 1021.2 22.4ZM1006.4 39C1004.9 42.5 1007.2 49.6 1011.2 44.4C1010.9 42.2 1011.3 40 1011.4 37.8L1006.4 39Z" fill="white"/>
<path d="M1008.5 46.6C1007.8 46.6 1007.1 46.2 1006.6 45.4C1005.5 43.8 1005.3 40.8 1006.1 38.9L1006.2 38.7L1011.7 37.3V37.7L1011.6 39.9C1011.5 41.4 1011.4 42.8 1011.6 44.3V44.4L1011.5 44.5C1010.5 45.9 1009.5 46.6 1008.5 46.6ZM1006.7 39.3C1006.1 41 1006.3 43.7 1007.2 45C1007.6 45.6 1008 45.9 1008.5 45.9C1009.2 45.9 1010 45.3 1010.8 44.3C1010.6 42.8 1010.7 41.3 1010.9 39.9L1011 38.2L1006.7 39.3Z" fill="black"/>
<path fill-rule="evenodd" clip-rule="evenodd" d="M1006.9 32.2C1004.2 32.4 1002 35.7 1003.4 38.2C1005.3 41.6 1009.4 37.9 1012 38.2C1015 38.3 1017.4 41.4 1019.8 38.8C1022.5 35.9 1018.6 33.1 1015.7 31.8L1006.9 32.2Z" fill="#F6D2A2"/>
<path d="M1017.7 40.2C1016.8 40.2 1015.9 39.8 1015 39.4C1014.1 39 1013.1 38.6 1012 38.6H1011.7C1010.9 38.6 1010 38.9 1009 39.3C1007.9 39.7 1006.8 40 1005.8 40C1004.6 40 1003.7 39.5 1003.1 38.4C1002.4 37.2 1002.5 35.8 1003.2 34.5C1004 33 1005.4 32.1 1006.9 31.9L1015.8 31.5H1015.9C1018.1 32.4 1020.6 34.1 1021.1 36.1C1021.3 37.1 1021 38.1 1020.2 39C1019.4 39.9 1018.6 40.2 1017.7 40.2ZM1012.1 38C1013.2 38 1014.3 38.5 1015.3 38.9C1016.2 39.3 1017 39.6 1017.8 39.6C1018.5 39.6 1019.1 39.3 1019.7 38.7C1020.4 38 1020.6 37.2 1020.5 36.4C1020.1 34.7 1017.7 33.1 1015.8 32.3L1007.1 32.7C1005.8 32.8 1004.6 33.7 1003.9 34.9C1003.3 36 1003.3 37.2 1003.8 38.2C1004.3 39.1 1004.9 39.5 1005.9 39.5C1006.8 39.5 1007.8 39.1 1008.8 38.8C1009.9 38.4 1010.8 38.1 1011.8 38.1C1011.8 37.9 1011.9 37.9 1012.1 38Z" fill="#231F20"/>
<path fill-rule="evenodd" clip-rule="evenodd" d="M1006.6 32.1C1006.4 27.4 1015.4 26.8 1016.4 30.7C1017.5 34.7 1007 35.6 1006.6 32.1Z" fill="black"/>
<path d="M188 286.4C188 286.1 188.1 285.8 188 285.5C187.8 285.2 187.7 285 187.5 284.8C187 284.2 186.5 283.7 185.9 283.1L180 277.1L184.6 272.4L187.1 269.7C187.5 269.3 188 268.5 188 267.9V267.5C188 266.6 187.6 266.1 186.7 265.9L186.9 266H186.2C185.6 266 183.9 267.6 183.5 268.1C182 269.6 181 271 179 272.5V260.6C179 259.5 178.4 259 177.3 259H177C175.9 259 175 259.5 175 260.6V286.5C175 287.6 175.9 288 177 288H177.3C178.4 288 179 287.5 179 286.5V281.9L182 284.8C182.9 285.7 183.8 286.3 184.6 287.1C185 287.5 185.8 288 186.4 288H186.7C187.7 288 188 287.5 188.2 286.7L188 286.8V286.4ZM227.1 266H226.7C224.5 266 222.5 266.6 220.7 267.9C217.7 270.1 216 273 216 276.8V286.6C216 287.7 216.4 288 217.5 288H217.8C218.9 288 220 287.6 220 286.6V277.4C220 275.4 220.4 273.5 221.9 272C223.1 270.8 224.6 269.8 226.3 269.8C227.6 269.8 229.1 269.5 229.1 267.9C229.1 266.7 228.2 266 227.1 266ZM211.7 271C210.6 269.2 209.1 267.8 207.2 266.9C203.7 265.2 200 265 196.6 267L196.1 267.3C194.7 268.1 193.5 269.1 192.6 270.4C190 274.2 189.7 278.5 192 282.5L192.2 282.9C193.2 284.6 194.5 286 196.2 286.9C199.8 288.9 203.7 289.1 207.3 287.1L207.6 286.9C208.6 286.3 208.8 285.3 208.3 284.3C208.1 283.9 207.7 283.6 207.3 283.4H207.1C206.4 283.3 204.5 284.1 203.8 284.4C202.4 284.6 200.8 284.7 199.4 284.2L207 277.6C208.1 276.6 209.3 275.5 210.5 274.6C211.5 273.8 212.5 272.7 211.7 271.3V271ZM204.8 274.6L196.3 281.9C196 281.6 195.8 281.2 195.6 280.9C195 279.9 194.6 278.7 194.6 277.5C194.5 274.5 195.6 272 198.3 270.5C200.3 269.3 202.5 269.1 204.7 269.9C205.8 270.3 207.1 271 207.8 272C206.8 272.9 205.7 273.7 204.8 274.6ZM124 259H123.7C122.6 259 122 259.4 122 260.5V268.6C120 266.8 117.6 266.1 114.8 266.1H114C112.1 266.1 110.3 266.4 108.6 267.4C105 269.5 103 272.6 103 276.8V277.6C103 279.5 103.5 281.1 104.5 282.8C106.6 286.4 109.9 288.2 114 288.2H114.8C116.7 288.2 118.7 287.9 120.3 287C123.9 284.9 126 281.8 126 277.7V260.7C126 259.4 125.1 259 124 259ZM120.9 280.8C119.4 283.3 117.2 284.7 114.3 284.7C113.1 284.7 111.9 284.4 110.9 283.8C108.3 282.4 106.8 280.1 106.8 277.1C106.8 276 107 275 107.5 274C108.9 271.1 111.2 269.5 114.4 269.5C116 269.5 117.4 270 118.6 270.9C120.7 272.4 121.9 274.4 121.9 277C122 278.4 121.6 279.6 120.9 280.8ZM139.6 266H139C137.1 266 135.2 266.3 133.6 267.3C130 269.4 128 272.5 128 276.7V277.5C128 279.4 128.5 281 129.5 282.7C131.6 286.3 134.9 288.1 139.1 288.1H139.9C141.8 288.1 143.7 287.8 145.4 286.9C149 284.8 151.1 281.7 151.1 277.6V276.8C151.1 275 150.5 273.5 149.7 272C147.5 268 144 266 139.6 266ZM146 280.8C144.5 283.2 142.4 284.7 139.5 284.7C138.2 284.7 136.9 284.4 135.7 283.7C133.2 282.2 131.8 280.1 131.8 277.2C131.8 276.1 132 275.1 132.5 274.1C133.9 271.2 136.2 269.6 139.4 269.6C140.9 269.6 142.2 270 143.4 270.8C145.6 272.3 146.9 274.4 146.9 277.1C147 278.3 146.7 279.6 146 280.8ZM170.5 267.4L170.4 267.5C168.7 266.4 166.8 266 164.8 266H164C162.1 266 160.2 266.3 158.6 267.3C155 269.4 153 272.5 153 276.6V277.4C153 278.4 153.2 279.3 153.4 280.3C155 285.8 159.3 288.9 165.1 288.5C166.7 288.4 171 287.9 171 285.5V285.1C171 284.2 170.3 283.4 169.5 283.2L169.4 283H168.7L168.5 283.3C167.6 283.7 166.1 284.5 165.1 284.5C163.9 284.5 162.6 284.5 161.5 283.9C158.6 282.5 156.9 280.2 156.9 277C156.9 275.9 157.1 274.9 157.6 273.9C159 271.1 161.3 269.3 164.5 269.4C165.1 269.4 166.2 269.7 166.8 270C167.3 270.2 168.6 271 169.2 271H169.4L169.5 270.8C170.4 270.6 171.1 269.9 171.1 269V268.6C171.1 268.2 170.9 267.9 170.7 267.6L170.5 267.4ZM107.8 236.2L107.9 236.4C115.8 249.8 129.6 255.4 144.7 255.4C173.9 255.4 198 242.3 209 214.8C216.4 215.2 224 213 227.6 205.9L228.5 204.1L226.7 203.1C222.4 200.6 216.7 200.3 211.9 201.7C211.3 196.5 207.9 192 203.9 188.8L202.3 187.5L201 189.1C198.3 192.2 197.5 197.4 197.9 201.4C198.2 204.3 199.1 207.3 200.9 209.7C199.5 210.5 198 211.6 196.6 212.1C193.8 213.1 190.7 214.1 187.7 214.1H181V200H168V175H153V187H128V200H115V214H103.8L103.6 215.5C103.1 221.9 103.9 228.1 106.6 234L107.8 236.2ZM168 203H179V214H168V203ZM155 177H166V188H155V177ZM155 190H166V201H155V190ZM155 203H166V214H155V203ZM142 190H153V201H142V190ZM142 203H153V214H142V203ZM143.1 234.2C143.1 235.9 141.7 237.3 140 237.3C138.3 237.3 136.9 235.9 136.9 234.2C136.9 232.5 138.3 231.1 140 231.1C141.7 231.2 143.1 232.5 143.1 234.2ZM130 190H140V201H130V190ZM130 203H140V214H130V203ZM117 203H128V214H117V203ZM119.4 241C121 241 122.6 241 124.1 240.9C128 240.7 131.4 240.2 134.2 239.4C136.5 244.7 140.7 249.6 148.2 253.2L144.7 253.3C128.9 253.2 120.4 247.9 113.4 240.9C115.5 241 117.5 241 119.4 241ZM140 236.4C141.2 236.4 142.2 235.4 142.2 234.2C142.2 233.9 142.1 233.6 142 233.4C141.8 233.7 141.6 233.9 141.2 233.9C140.7 233.9 140.3 233.5 140.3 233C140.3 232.7 140.5 232.4 140.7 232.2C140.6 232.1 140.3 232 140 232C138.8 232 137.8 233 137.8 234.2C137.9 235.4 138.8 236.4 140 236.4Z" fill="#019BC6"/>
<path d="M402.581 235.817C402.581 235.817 399.297 237.728 404.922 238.374C411.736 239.152 415.219 239.04 422.727 237.621C422.727 237.621 424.706 238.858 427.462 239.93C410.626 247.143 389.358 239.512 402.581 235.817ZM400.522 226.402C400.522 226.402 396.838 229.131 402.467 229.713C409.747 230.464 415.494 230.526 425.446 228.61C425.446 228.61 426.819 230.006 428.982 230.767C408.63 236.721 385.961 231.236 400.522 226.402Z" fill="#0074BD"/>
<path d="M417.865 210.431C422.016 215.209 416.777 219.505 416.777 219.505C416.777 219.505 427.31 214.068 422.473 207.257C417.954 200.908 414.491 197.755 433.244 186.879C433.245 186.879 403.806 194.229 417.865 210.431Z" fill="#EA2D2E"/>
<path d="M440.132 242.781C440.132 242.781 442.564 244.786 437.454 246.336C427.738 249.279 397.01 250.167 388.475 246.453C385.409 245.118 391.162 243.266 392.971 242.877C394.858 242.468 395.936 242.543 395.936 242.543C392.524 240.14 373.881 247.262 386.467 249.305C420.791 254.868 449.034 246.799 440.132 242.781ZM404.162 216.647C404.162 216.647 388.533 220.36 398.628 221.71C402.892 222.28 411.386 222.149 419.304 221.485C425.773 220.942 432.265 219.781 432.265 219.781C432.265 219.781 429.986 220.759 428.335 221.885C412.461 226.06 381.802 224.115 390.629 219.847C398.092 216.236 404.162 216.647 404.162 216.647ZM432.2 232.317C448.335 223.935 440.874 215.879 435.667 216.964C434.394 217.23 433.822 217.46 433.822 217.46C433.822 217.46 434.297 216.716 435.2 216.397C445.502 212.777 453.423 227.078 431.878 232.742C431.878 232.742 432.125 232.518 432.2 232.317Z" fill="#0074BD"/>
<path d="M422.474 169.313C422.474 169.313 431.409 178.252 413.998 191.995C400.036 203.022 410.814 209.308 413.992 216.493C405.842 209.139 399.864 202.665 403.874 196.641C409.763 187.799 426.078 183.51 422.474 169.313Z" fill="#EA2D2E"/>
<path d="M405.749 255.039C421.233 256.029 445.018 254.488 445.581 247.161C445.581 247.161 444.499 249.938 432.782 252.142C419.564 254.63 403.259 254.341 393.591 252.745C393.591 252.745 395.571 254.385 405.749 255.039Z" fill="#0074BD"/>
<path d="M444.866 268.181H444.394V267.917H445.664V268.181H445.194V269.498H444.865L444.866 268.181ZM447.401 268.247H447.395L446.927 269.498H446.711L446.246 268.247H446.241V269.498H445.929V267.917H446.386L446.817 269.036L447.249 267.917H447.703V269.498H447.401V268.247ZM403.211 283.037C401.751 284.303 400.207 285.015 398.82 285.015C396.846 285.015 395.775 283.829 395.775 281.93C395.775 279.875 396.921 278.37 401.513 278.37H403.21V283.037H403.211ZM407.242 287.585V273.508C407.242 269.909 405.189 267.535 400.245 267.535C397.359 267.535 394.829 268.249 392.772 269.157L393.364 271.65C394.984 271.055 397.079 270.503 399.135 270.503C401.985 270.503 403.21 271.65 403.21 274.024V275.803H401.786C394.865 275.803 391.742 278.488 391.742 282.526C391.742 286.005 393.8 287.982 397.675 287.982C400.165 287.982 402.026 286.954 403.763 285.449L404.079 287.586H407.242V287.585ZM420.694 287.585H415.667L409.616 267.896H414.007L417.763 279.995L418.598 283.63C420.494 278.372 421.838 273.034 422.51 267.897H426.781C425.638 274.378 423.578 281.495 420.694 287.585ZM439.982 283.037C438.517 284.303 436.972 285.015 435.59 285.015C433.614 285.015 432.544 283.829 432.544 281.93C432.544 279.875 433.693 278.37 438.28 278.37H439.981V283.037H439.982ZM444.015 287.585V273.508C444.015 269.909 441.956 267.535 437.016 267.535C434.127 267.535 431.598 268.249 429.541 269.157L430.134 271.65C431.754 271.055 433.852 270.503 435.908 270.503C438.754 270.503 439.982 271.65 439.982 274.024V275.803H438.558C431.635 275.803 428.513 278.488 428.513 282.526C428.513 286.005 430.569 287.982 434.443 287.982C436.934 287.982 438.792 286.954 440.534 285.449L440.852 287.586H444.015V287.585ZM387.322 290.931C386.175 292.61 384.317 293.939 382.285 294.688L380.296 292.343C381.843 291.549 383.168 290.268 383.785 289.074C384.317 288.011 384.538 286.644 384.538 283.373V260.891H388.822V283.064C388.822 287.439 388.474 289.208 387.322 290.931Z" fill="#EA2D2E"/>
<path d="M661.391 180.248C657.169 180.268 653.139 180.627 649.591 181.255C639.141 183.101 637.245 186.965 637.245 194.092V203.503H661.938V206.64H627.977C620.801 206.64 614.517 210.953 612.551 219.161C610.283 228.566 610.183 234.436 612.551 244.257C614.306 251.568 618.498 256.776 625.675 256.776H634.166V245.494C634.166 237.343 641.217 230.154 649.592 230.154H674.257C681.123 230.154 686.603 224.5 686.603 217.606V194.093C686.603 187.4 680.957 182.373 674.257 181.256C670.013 180.55 665.612 180.229 661.391 180.248ZM648.037 187.817C650.587 187.817 652.671 189.934 652.671 192.538C652.671 195.131 650.588 197.228 648.037 197.228C645.477 197.228 643.404 195.131 643.404 192.538C643.403 189.934 645.477 187.817 648.037 187.817Z" fill="url(#paint0_linear_371_556)"/>
<path d="M689.682 206.64V217.606C689.682 226.106 682.474 233.261 674.256 233.261H649.591C642.835 233.261 637.245 239.044 637.245 245.81V269.325C637.245 276.016 643.063 279.953 649.591 281.872C657.407 284.169 664.903 284.585 674.256 281.872C680.472 280.071 686.602 276.449 686.602 269.325V259.913H661.938V256.775H698.95C706.126 256.775 708.802 251.77 711.298 244.256C713.876 236.521 713.765 229.082 711.298 219.16C709.524 212.015 706.137 206.639 698.95 206.639H689.682V206.64ZM675.809 266.187C678.37 266.187 680.443 268.284 680.443 270.879C680.443 273.481 678.369 275.598 675.809 275.598C673.259 275.598 671.176 273.481 671.176 270.879C671.176 268.284 673.259 266.187 675.809 266.187Z" fill="url(#paint1_linear_371_556)"/>
<path opacity="0.444" d="M695.309 287.597C695.309 291.14 680.493 294.013 662.218 294.013C643.942 294.013 629.126 291.14 629.126 287.597C629.126 284.053 643.941 281.18 662.218 281.18C680.493 281.18 695.309 284.052 695.309 287.597Z" fill="url(#paint2_radial_371_556)"/>
<path d="M858.3 232.2L922.3 168H961.7L878.1 251.6L858.3 232.2ZM922.3 296H961.7L927.6 261.9L961.7 227.1H922.3L888.2 261.5L922.3 296Z" fill="#3FB6D3"/>
<path d="M927.6 261.9L907.6 241.9L888.2 261.5L907.6 281.1L927.6 261.9Z" fill="#27AACD"/>
<path d="M961.7 296L927.6 261.9L907.6 281.1L922.3 296H961.7Z" fill="#19599A"/>
<path d="M907.6 281.1L938.4 272.7L927.6 261.9L907.6 281.1Z" fill="url(#paint3_linear_371_556)"/>
<defs>
<linearGradient id="paint0_linear_371_556" x1="608.337" y1="183.191" x2="665.291" y2="231.76" gradientUnits="userSpaceOnUse">
<stop stop-color="#5A9FD4"/>
<stop offset="1" stop-color="#306998"/>
</linearGradient>
<linearGradient id="paint1_linear_371_556" x1="686.719" y1="261.952" x2="666.294" y2="233.31" gradientUnits="userSpaceOnUse">
<stop stop-color="#FFD43B"/>
<stop offset="1" stop-color="#FFE873"/>
</linearGradient>
<radialGradient id="paint2_radial_371_556" cx="0" cy="0" r="1" gradientUnits="userSpaceOnUse" gradientTransform="translate(662.084 287.413) rotate(-90) scale(6.41832 28.2139)">
<stop stop-color="#B8B8B8" stop-opacity="0.498"/>
<stop offset="1" stop-color="#7F7F7F" stop-opacity="0"/>
</radialGradient>
<linearGradient id="paint3_linear_371_556" x1="905.365" y1="284.36" x2="932.825" y2="267.399" gradientUnits="userSpaceOnUse">
<stop stop-color="#1B4E94"/>
<stop offset="0.63" stop-color="#1A5497"/>
<stop offset="1" stop-color="#195A9B"/>
</linearGradient>
</defs>
</svg>
