<svg width="96" height="40" viewBox="0 0 96 40" fill="none" xmlns="http://www.w3.org/2000/svg">
<path d="M39.9879 19.9931C40.8764 19.9931 41.7649 19.9795 42.6522 19.9931C43.2053 19.9903 43.7578 20.0317 44.3043 20.1168C44.8124 20.2127 45.3076 20.3681 45.7794 20.5797C46.2457 20.7851 46.7257 21.0211 47.0979 21.357C47.4451 21.6701 47.6766 22.1218 47.9262 22.5325C48.2019 22.9613 48.3532 23.4582 48.3631 23.9679C48.3631 24.3162 48.4765 24.6669 48.4584 25.0118C48.4239 25.4242 48.3548 25.833 48.2519 26.2339C48.1248 26.7974 47.9818 27.3584 47.823 27.9166C47.7197 28.2786 47.5756 28.6292 47.4576 28.9878C47.3532 29.3009 47.2613 29.6187 47.1637 29.9341C47.0786 30.2042 46.9935 30.4753 46.9061 30.7454C46.7859 31.1198 46.6633 31.4932 46.5419 31.8676C46.3638 32.4202 46.2015 32.9796 46.0052 33.5254C45.6609 34.4285 45.1753 35.2711 44.5664 36.0217C44.076 36.6712 43.5193 37.2679 42.9052 37.802C42.3265 38.2866 41.64 38.6542 40.966 39.0059C40.5655 39.2136 40.0957 39.2885 39.6589 39.428C38.839 39.6711 37.9958 39.8274 37.1433 39.8944C35.5921 40.0533 34.0444 39.9228 32.491 39.9727C31.8306 39.9943 31.168 39.9614 30.5076 39.9829C30.3816 39.9903 30.2562 39.9617 30.1458 39.9004C30.0355 39.8391 29.9449 39.7477 29.8847 39.6368C29.8291 39.5461 29.8949 39.3634 29.9357 39.2329C30.0764 38.779 30.233 38.3251 30.3771 37.8713C30.6108 37.1348 30.831 36.3962 31.0727 35.6597C31.2122 35.2252 31.3711 34.7974 31.5107 34.3639C31.7047 33.7569 31.8919 33.1475 32.078 32.5382C32.2153 32.0843 32.3378 31.6305 32.4774 31.1766C32.6646 30.5741 32.8621 29.9761 33.0538 29.3747C33.224 28.8391 33.3942 28.3024 33.5622 27.7668C33.7097 27.3062 33.8651 26.8466 34.0161 26.3859C34.2736 25.5916 34.5335 24.7974 34.7854 24.0031C34.951 23.48 35.1008 22.9512 35.2642 22.427C35.4526 21.8222 35.6409 21.2185 35.8406 20.6115C35.9016 20.425 36.0213 20.2633 36.1819 20.1506C36.3425 20.0379 36.5353 19.9802 36.7314 19.9863L39.9879 19.9931ZM36.8914 34.7667C37.5478 34.826 38.2096 34.7648 38.8442 34.5863C39.2106 34.4857 39.5499 34.3045 39.8373 34.056C40.1247 33.8075 40.3529 33.4979 40.5053 33.1498C40.6688 32.7674 40.8094 32.3756 40.9263 31.9765C41.0693 31.542 41.1941 31.1017 41.3325 30.666C41.446 30.2972 41.5742 29.9307 41.6968 29.5631C41.8545 29.091 42.0304 28.6247 42.1699 28.1481C42.3095 27.6715 42.3572 27.1836 42.5387 26.7365C42.6624 26.4313 42.4377 26.2191 42.4729 25.9547C42.4691 25.9104 42.4561 25.8674 42.4348 25.8283C42.4135 25.7893 42.3844 25.755 42.3492 25.7278C42.0072 25.4507 41.5945 25.2746 41.1578 25.2195C40.8355 25.1673 40.4985 25.2047 40.1672 25.2104C40.0881 25.2018 40.0088 25.2238 39.9455 25.2719C39.8822 25.3201 39.8397 25.3906 39.8268 25.4691C39.6906 25.9899 39.5397 26.5085 39.3729 27.0191C39.0325 28.0494 38.6637 29.0706 38.3267 30.102C38.0998 30.7965 37.9069 31.5034 37.6936 32.2023C37.5279 32.7413 37.3532 33.2769 37.1818 33.8147C37.0877 34.1132 36.9958 34.4173 36.8914 34.7667Z" fill="white"/>
<path d="M56.4248 27.8746H61.894C62.3649 27.8746 62.5556 28.1662 62.4013 28.6008C62.2163 29.1239 62.0608 29.6561 61.885 30.1894C61.6932 30.7851 61.5378 31.3944 61.3017 31.972C61.1678 32.2976 60.8059 32.4031 60.4632 32.4043C58.7237 32.4122 56.9854 32.4043 55.2436 32.4043H54.9963C54.7602 33.1691 54.522 33.9248 54.295 34.685C54.1668 35.1139 54.1816 35.1219 54.6286 35.1219H60.6958C60.8848 35.1112 61.0742 35.1112 61.2632 35.1219C61.5162 35.1514 61.5945 35.3556 61.5309 35.5553C61.38 36.0285 61.1747 36.4835 61.0181 36.9544C60.8944 37.3277 60.815 37.7158 60.706 38.0891C60.571 38.5543 60.4711 39.0365 60.2703 39.4711C60.2015 39.6237 60.0898 39.7529 59.9487 39.843C59.8076 39.9331 59.6434 39.9801 59.476 39.9783C55.6113 39.9783 51.7454 39.9783 47.8806 39.9704C47.3246 39.9704 47.1556 39.6856 47.3575 39.1614C47.5516 38.6576 47.673 38.1265 47.8352 37.6102C48.0304 36.9896 48.2392 36.3723 48.4366 35.7528C48.5841 35.2864 48.7169 34.8166 48.8655 34.3514C49.0437 33.7965 49.2388 33.2462 49.4125 32.6902C49.5861 32.1342 49.7404 31.5476 49.9197 30.9814C50.1216 30.3437 50.3486 29.7139 50.5505 29.0762C50.7185 28.5463 50.8626 28.0096 51.0271 27.4786C51.2109 26.8863 51.4072 26.2985 51.5945 25.7096C51.8509 24.9153 52.1096 24.121 52.3626 23.3177C52.5578 22.7004 52.736 22.0775 52.9436 21.4647C53.0639 21.0618 53.2247 20.6722 53.4236 20.3017C53.492 20.2128 53.5789 20.1399 53.6782 20.0878C53.7775 20.0357 53.8869 20.0057 53.9989 19.9998C57.9578 19.9828 61.9179 19.9874 65.8779 19.9874C66.1786 19.9874 66.3148 20.2143 66.2263 20.5139C66.1196 20.869 66.0584 21.2378 65.9528 21.593C65.7928 22.1308 65.6124 22.6618 65.4388 23.1963C65.3129 23.5855 65.2119 23.9906 65.0519 24.3616C64.8998 24.7156 64.8068 24.8665 64.2576 24.8643C62.0654 24.8563 59.8732 24.8643 57.6764 24.8643C57.5888 24.8531 57.5002 24.8765 57.4295 24.9294C57.3588 24.9824 57.3114 25.0607 57.2974 25.1479C57.0705 25.8673 56.8311 26.5811 56.5973 27.297C56.5519 27.4706 56.4975 27.6454 56.4248 27.8746Z" fill="white"/>
<path d="M22.6357 27.8746H28.0311C28.5043 27.8746 28.6938 28.156 28.5361 28.6064C28.3851 29.0331 28.2376 29.4609 28.1049 29.8943C27.9222 30.4957 27.786 31.1141 27.5693 31.703C27.3866 32.1943 27.1631 32.4167 26.5617 32.4111C24.8801 32.3929 23.1973 32.4042 21.5157 32.4042C21.1481 32.4042 21.0335 32.5177 20.9575 32.8695C20.8882 33.1917 20.7895 33.5094 20.6919 33.8249C20.5785 34.1653 20.4571 34.5057 20.3515 34.8552C20.2835 35.0821 20.4174 35.1252 20.6137 35.1241C22.0592 35.1241 23.5048 35.1241 24.9504 35.1241H27.2198C27.634 35.1241 27.7679 35.3147 27.6408 35.7073C27.4139 36.4052 27.196 37.1053 26.96 37.802C26.7864 38.3228 26.6116 38.8436 26.4119 39.3554C26.202 39.8955 26.0534 39.984 25.486 39.984C21.6689 39.984 17.8518 39.984 14.0347 39.984C13.8812 39.9755 13.7308 39.937 13.5922 39.8705C13.5514 39.8576 13.5138 39.8361 13.482 39.8075C13.4501 39.7789 13.4248 39.7437 13.4077 39.7045C13.3906 39.6652 13.3822 39.6228 13.3829 39.58C13.3835 39.5372 13.3934 39.495 13.4118 39.4563C13.5842 38.9491 13.7522 38.4408 13.9133 37.9291C14.0415 37.5172 14.1471 37.0973 14.2764 36.6809C14.4058 36.2645 14.5646 35.8594 14.6951 35.4441C14.8426 34.9777 14.964 34.5023 15.1138 34.0371C15.3884 33.1804 15.6812 32.335 15.9546 31.4715C16.2145 30.6546 16.4505 29.8296 16.7058 29.0115C16.8658 28.4998 17.0462 27.996 17.2119 27.4854C17.3775 26.9748 17.5194 26.4449 17.685 25.9286C17.7781 25.6381 17.912 25.3612 18.0039 25.0696C18.1321 24.6611 18.2308 24.2436 18.3556 23.8339C18.5689 23.1395 18.7868 22.4451 19.0149 21.7552C19.159 21.3161 19.3201 20.8815 19.4824 20.448C19.606 20.119 19.8693 19.9941 20.2052 19.9941H31.9685C32.4042 19.9941 32.5358 20.1859 32.411 20.5944C32.2454 21.1288 32.1069 21.6701 31.9401 22.2034C31.7904 22.6822 31.6145 23.1543 31.4568 23.6308C31.3851 23.8391 31.3253 24.0512 31.2775 24.2662C31.2308 24.4314 31.134 24.5779 31.0005 24.6856C30.8669 24.7933 30.7032 24.8569 30.532 24.8676C28.3685 24.8676 26.2047 24.8676 24.0404 24.8676C23.6002 24.8676 23.4107 24.9096 23.4288 25.3737C23.4288 25.4543 23.3573 25.536 23.3267 25.6211C23.1463 26.1181 22.9579 26.6139 22.7934 27.1166C22.7275 27.3663 22.6748 27.6193 22.6357 27.8746Z" fill="white"/>
<path d="M70.709 35.3511H77.0372C77.5194 35.3511 77.6919 35.6495 77.5206 36.1125C77.3197 36.656 77.1586 37.2154 76.9793 37.7668C76.7875 38.3523 76.6094 38.9424 76.3972 39.5199C76.2769 39.8467 76.0216 39.9976 75.6517 39.9976C71.731 39.9901 67.8099 39.9901 63.8884 39.9976C63.4402 39.9976 63.3006 39.7026 63.4504 39.3168C63.6932 38.6961 63.8578 38.0448 64.062 37.4083C64.2016 36.976 64.4137 36.5584 64.4841 36.1159C64.6203 35.2558 65.2716 34.7894 65.8106 34.2414C66.8148 33.2201 67.8428 32.2273 68.864 31.2265C70.7794 29.3497 72.697 27.4756 74.6169 25.6041C74.9062 25.3216 75.2137 25.0594 75.5757 24.7315C75.3783 24.71 75.2568 24.6839 75.1343 24.6839C73.0181 24.6839 70.9019 24.6771 68.7857 24.6839C68.173 24.6839 68.1979 24.4694 68.291 24.0405C68.4045 23.5151 68.6439 23.0193 68.8084 22.5007C68.9945 21.9141 69.1579 21.3206 69.3304 20.7295C69.3834 20.5151 69.5083 20.3253 69.6841 20.1917C69.86 20.0582 70.0764 19.9889 70.2971 19.9953C74.1619 19.9953 78.0255 20.0021 81.8902 19.9851C82.3282 19.9851 82.5586 20.2983 82.3509 20.7499C82.2238 21.0256 82.1762 21.3377 82.0854 21.6304C81.9266 22.1433 81.77 22.6516 81.5975 23.1634C81.425 23.6751 81.2435 24.1472 81.0574 24.6453C81.0222 24.7302 80.9705 24.8074 80.9053 24.8722C79.6504 26.1643 78.3928 27.454 77.1325 28.7415C76.0602 29.8319 74.9766 30.9099 73.8952 31.9935C73.1588 32.7345 72.4201 33.4686 71.6871 34.2164C71.3932 34.516 71.1141 34.8303 70.8316 35.14C70.7849 35.2069 70.744 35.2775 70.709 35.3511Z" fill="white"/>
<path d="M5.30375 24.6794H4.96334C3.71594 24.6794 2.46778 24.6794 1.21887 24.6794C0.829667 24.6794 0.690103 24.4581 0.81038 24.0814C1.03732 23.3813 1.23475 22.6733 1.46283 21.9743C1.63416 21.4524 1.81798 20.9327 2.03017 20.4255C2.15272 20.1327 2.38192 19.9852 2.73822 19.9863C7.29286 19.9969 11.8471 19.9992 16.401 19.9931C16.8549 19.9931 17.0194 20.2416 16.8731 20.6876C16.6711 21.2992 16.4907 21.9187 16.2955 22.5326C16.1139 23.0999 15.9437 23.6741 15.7282 24.2346C15.6811 24.3725 15.5904 24.4914 15.4698 24.5733C15.3493 24.6551 15.2054 24.6956 15.0598 24.6885C13.7561 24.6828 12.45 24.6885 11.1485 24.6885C10.9046 24.6885 10.8002 24.7656 10.7332 25.021C10.5891 25.5713 10.3792 26.1046 10.2079 26.6481C10.0365 27.1916 9.89471 27.7181 9.72337 28.2491C9.55203 28.7802 9.35006 29.3112 9.17758 29.8479C9.04596 30.2519 8.9393 30.6638 8.82016 31.0711C8.74451 31.3306 8.66508 31.5901 8.58187 31.8495C8.42074 32.3624 8.26189 32.8707 8.09623 33.3859C7.85 34.1461 7.59242 34.9018 7.35187 35.6632C7.18394 36.1977 7.04664 36.7423 6.87984 37.2767C6.67786 37.9235 6.42596 38.5578 6.25576 39.2057C6.11959 39.7163 5.7043 40.0125 5.15284 40C3.84908 39.9682 2.54305 39.9921 1.24042 39.9886C0.831936 39.9886 0.575497 39.7118 0.67308 39.3975C0.842149 38.8698 1.00328 38.3399 1.17007 37.8089C1.42084 37.0146 1.67388 36.2203 1.92351 35.4261C2.15045 34.6874 2.37739 33.951 2.6134 33.21C2.7734 32.7107 2.96062 32.2194 3.12288 31.7202C3.29535 31.1925 3.44399 30.657 3.61647 30.1316C3.74355 29.7447 3.90241 29.3668 4.0329 28.9799C4.12822 28.6951 4.19743 28.4001 4.28253 28.1118C4.46181 27.5037 4.63656 26.8943 4.82605 26.2895C4.97356 25.8198 5.1415 25.3568 5.29581 24.8893C5.30806 24.8201 5.31073 24.7494 5.30375 24.6794Z" fill="white"/>
<path d="M95.8805 6.76674C95.8805 6.73043 95.868 6.69412 95.8612 6.65327C95.8453 6.67256 95.8283 6.6839 95.8271 6.69639C95.7488 7.77548 95.5219 8.81712 95.0238 9.78501C94.7038 10.4057 94.4076 11.0422 94.0298 11.6255C93.5816 12.3478 93.0075 12.9839 92.3346 13.5034C91.8909 13.8359 91.4586 14.1785 90.9434 14.4021C90.1389 14.7516 89.3174 14.9558 88.4312 14.7833C87.545 14.6108 86.8029 14.191 86.2753 13.4217C85.8175 12.7651 85.5045 12.0186 85.3574 11.2317C85.2231 10.5414 85.1762 9.83689 85.2178 9.13483C85.262 8.41998 85.3313 7.70172 85.5877 7.0175C85.7738 6.52164 85.8725 5.98947 86.0938 5.51177C86.3627 4.92967 86.7213 4.38843 87.0367 3.82675C87.4387 3.12844 87.9558 2.50312 88.5663 1.97721C89.1915 1.42575 89.8757 0.936698 90.6813 0.691605C91.2112 0.530479 91.7615 0.373892 92.3346 0.454455C93.0029 0.5475 93.6497 0.704087 94.1875 1.14435C94.7604 1.60475 95.196 2.21346 95.447 2.90425C95.6218 3.38443 95.7424 3.88262 95.8067 4.38956C95.8986 5.18384 95.9202 5.97813 95.9622 6.77241L95.8805 6.76674Z" fill="white"/>
<path d="M83.2979 36.1007C83.4262 35.8375 83.5555 35.5742 83.6826 35.3065C84.023 34.5995 84.3702 33.8972 84.697 33.1835C84.9103 32.7171 85.0998 32.2383 85.2859 31.7606C85.4459 31.3509 85.59 30.9356 85.7319 30.5192C85.7852 30.3638 85.8102 30.1992 85.8544 30.0392C86.0008 29.5059 86.1767 28.9794 86.2935 28.4393C86.4592 27.6745 86.6192 26.9041 86.7111 26.1268C86.7869 25.4723 86.8078 24.8127 86.7735 24.1547C86.7397 23.565 86.6516 22.9797 86.5103 22.4062C86.3968 21.9046 86.1698 21.4269 85.9996 20.939C85.9656 20.846 85.9316 20.7529 85.8862 20.6633C85.5458 19.9155 84.9977 19.3221 84.4474 18.7343C84.1569 18.4245 83.7836 18.1919 83.4421 17.931C83.1238 17.6673 82.7896 17.4237 82.4413 17.2013C81.9736 16.9258 81.4854 16.6868 80.9809 16.4865C80.4136 16.2686 79.8281 16.1086 79.2437 15.9452C78.7762 15.8136 78.3019 15.6979 77.8253 15.6048C77.3204 15.5095 76.8098 15.4437 76.3003 15.3847C75.8555 15.3325 75.4028 15.3348 74.9625 15.2633C73.6724 15.0534 72.3754 15.2111 71.083 15.1725C70.5542 15.1566 70.0232 15.2349 69.4944 15.2769C69.1075 15.3064 68.7194 15.3416 68.3325 15.3904C67.8786 15.4414 67.435 15.5039 66.9913 15.5629L67.1661 15.6196C66.9017 15.6196 66.7122 15.6048 66.5284 15.6196C66.2322 15.6491 65.9372 15.6979 65.6433 15.7433C65.2269 15.8079 64.8104 15.8715 64.3951 15.9452C63.6179 16.0825 62.8395 16.213 62.0656 16.3696C61.1272 16.5614 60.1911 16.769 59.2573 16.9846C58.7194 17.1083 58.1873 17.2649 57.6517 17.3999C57.1161 17.5349 56.5737 17.6791 56.0234 17.8118C55.9996 17.7142 55.9848 17.6518 55.9746 17.6087C56.4285 17.4181 56.8733 17.2195 57.3283 17.0414C57.84 16.8417 58.3597 16.6624 58.876 16.474C59.3923 16.2857 59.9177 16.0928 60.4419 15.9067C60.6416 15.8374 60.8515 15.8011 61.0535 15.741C61.3338 15.6559 61.6095 15.5549 61.8909 15.4743C62.4582 15.311 63.0369 15.1544 63.6099 14.9978C64.0638 14.8752 64.5075 14.7436 64.9614 14.6415C65.4334 14.5348 65.9111 14.4565 66.3877 14.368C66.98 14.2546 67.5711 14.1411 68.1657 14.0412C68.6775 13.9561 69.1972 13.9107 69.7066 13.8143C70.3647 13.6849 71.0365 13.677 71.6901 13.5737C72.321 13.4739 72.9382 13.5329 73.5623 13.4909C74.1864 13.4489 74.7798 13.3774 75.388 13.3774C76.1165 13.3774 76.845 13.4398 77.5723 13.4909C77.9252 13.5136 78.2792 13.5476 78.6287 13.6044C79.1836 13.7076 79.7407 13.8211 80.2978 13.9232C80.5611 13.972 80.8277 14.0027 81.0921 14.0549C81.4983 14.1354 81.9034 14.2217 82.3051 14.3192C82.6449 14.3947 82.9802 14.4895 83.3093 14.6029C83.8532 14.7906 84.3852 15.0111 84.9024 15.2633C85.4428 15.5412 85.959 15.8639 86.4456 16.2278C87.3874 16.9347 88.2497 17.7278 88.8205 18.7842C89.0576 19.2245 89.3277 19.6477 89.5342 20.1016C89.6636 20.3864 89.6999 20.7132 89.7816 21.0196C90.0036 21.8729 90.0765 22.7581 89.9972 23.6362C89.9335 24.2936 89.8277 24.9462 89.6806 25.5901C89.5546 26.1779 89.4287 26.7781 89.1972 27.3239C88.8103 28.2442 88.3485 29.1326 87.8991 30.0256C87.6722 30.467 87.4282 30.8971 87.1661 31.3169C86.9142 31.7197 86.6362 32.1112 86.3593 32.4947C85.9577 33.062 85.5583 33.6226 85.1361 34.1695C84.7662 34.6472 84.3646 35.1011 83.9788 35.5663C83.8505 35.7218 83.7303 35.884 83.5952 36.0327C83.5299 36.0881 83.4583 36.1357 83.3819 36.1745L83.2979 36.1007Z" fill="white"/>
<path d="M75.2333 6.89972C75.2333 6.92582 75.2185 6.9644 75.1992 7.04496V4.95372L75.2503 5.1557C75.2696 4.96394 75.2775 4.83345 75.2957 4.70182C75.4432 3.64997 75.7439 2.65938 76.3702 1.77773C76.6732 1.34995 76.992 0.949402 77.4198 0.650978C77.7806 0.400212 78.1437 0.140369 78.6101 0.104059C78.9097 0.0802302 79.2092 0.0371114 79.5088 0.00420542C79.7868 -0.0264312 80.0171 0.117675 80.269 0.198238C80.8871 0.405568 81.4279 0.795228 81.8201 1.31591C82.1484 1.74838 82.4327 2.21249 82.6689 2.70136C83.0072 3.38053 83.2187 4.11576 83.293 4.87089C83.4291 6.14401 83.3554 7.40919 82.9423 8.63126C82.5929 9.66382 82.0346 10.5727 81.1779 11.2603C80.7615 11.6153 80.2471 11.8353 79.7028 11.8912C79.5235 11.9048 79.3386 12.0047 79.1706 11.9741C78.4444 11.8492 77.7523 11.6541 77.1872 11.1196C76.4544 10.4436 75.9154 9.58416 75.6259 8.63012C75.5305 8.31014 75.4625 7.98221 75.3898 7.65656C75.324 7.40466 75.2832 7.15049 75.2333 6.89972Z" fill="white"/>
<path d="M70.3842 11.9795C70.2626 11.996 70.1393 11.996 70.0177 11.9795C69.3754 11.7923 68.7809 11.5256 68.2986 11.0309C67.8118 10.5318 67.4265 9.94296 67.1639 9.2971C66.9785 8.85642 66.8555 8.39201 66.7985 7.91731C66.7006 7.15139 66.671 6.37826 66.71 5.60709C66.7486 5.07038 66.8088 4.49395 67.1923 4.031C67.316 3.88122 67.3273 3.64067 67.4465 3.48522C67.6949 3.13841 67.9798 2.81925 68.2963 2.53321C68.5233 2.34372 68.8365 2.2416 69.1281 2.15763C69.4 2.07743 69.6834 2.04292 69.9666 2.05551C70.5499 2.08446 71.1077 2.30321 71.5552 2.67845C72.2442 3.24212 72.7748 3.97529 73.0949 4.80599C73.2731 5.28256 73.4501 5.77615 73.4694 6.30265C73.4819 6.62263 73.5522 6.94035 73.5692 7.26033C73.6037 8.0162 73.5006 8.77205 73.2651 9.49113C73.0742 10.1397 72.7253 10.7308 72.2496 11.2113C71.9092 11.5449 71.5223 11.8104 71.0298 11.8853C70.8154 11.9182 70.6054 11.9795 70.3932 12.0283L70.3842 11.9795Z" fill="white"/>
<path d="M65.6246 10.8403C65.6602 11.4108 65.5347 11.9797 65.2626 12.4822C64.8359 13.3389 63.7761 13.7179 62.8797 13.39C62.4563 13.2488 62.0733 13.0075 61.7632 12.6865C61.2426 12.1517 60.8467 11.5085 60.6036 10.8029C60.387 10.1519 60.2875 9.46772 60.3097 8.78202C60.3346 8.05582 60.5457 7.38862 61.0484 6.8712C61.5953 6.30386 62.2409 6.15181 63.0068 6.40938C63.8953 6.70667 64.4763 7.35004 64.9188 8.1273C65.3908 8.95109 65.6813 9.84069 65.6246 10.8403Z" fill="white"/>
<path d="M54.8125 12.1193C54.8749 11.8333 54.926 11.544 55.002 11.2603C55.1234 10.8065 55.6329 10.4479 56.1548 10.4286C56.7812 10.407 57.2895 10.6453 57.7945 10.9869C58.5638 11.5066 59.0483 12.2214 59.3694 13.0633C59.4534 13.2823 59.4625 13.5297 59.5113 13.7623C59.5419 13.9121 59.6156 14.0619 59.6111 14.2094C59.5918 14.8301 59.4069 15.4224 58.8804 15.7662C58.6092 15.9432 58.1848 15.9659 57.8433 15.9307C57.5087 15.8857 57.1912 15.756 56.9208 15.554C56.4855 15.2426 56.0863 14.8837 55.7305 14.484C55.1552 13.8213 54.8726 13.0157 54.8125 12.1193Z" fill="white"/>
</svg>
