<svg width="22" height="22" viewBox="0 0 22 22" fill="none" xmlns="http://www.w3.org/2000/svg">
<path d="M19.477 7.55788C19.2109 7.28959 19.061 6.92745 19.0595 6.54959V5.27628C19.0585 4.50219 18.7504 3.76013 18.203 3.21287C17.6555 2.6656 16.9134 2.35781 16.1393 2.35702H14.868C14.6807 2.35752 14.4953 2.32097 14.3222 2.2495C14.1492 2.17802 13.992 2.07303 13.8597 1.94056L12.7737 0.853559C12.2257 0.306959 11.4833 0 10.7093 0C9.93528 0 9.19287 0.306959 8.64488 0.853559L7.55887 1.94056C7.42665 2.07321 7.26949 2.17839 7.09644 2.25003C6.92339 2.32168 6.73788 2.35838 6.55059 2.35802H5.27827C4.50419 2.35881 3.76202 2.6666 3.21457 3.21386C2.66711 3.76113 2.35908 4.50319 2.35802 5.27727V6.54959C2.35701 6.92705 2.20739 7.28892 1.94155 7.55688L0.853559 8.64388C0.306959 9.19188 0 9.93428 0 10.7083C0 11.4823 0.306959 12.2247 0.853559 12.7727L1.94155 13.8587C2.20763 14.127 2.35757 14.4891 2.35902 14.867V16.1403C2.36007 16.9144 2.66811 17.6564 3.21556 18.2037C3.76302 18.751 4.50518 19.0587 5.27927 19.0595H6.55059C6.73788 19.0592 6.92339 19.0959 7.09644 19.1675C7.26949 19.2392 7.42665 19.3444 7.55887 19.477L8.64488 20.564C9.19275 21.1108 9.9352 21.418 10.7093 21.418C11.4834 21.418 12.2258 21.1108 12.7737 20.564L13.8597 19.477C13.9919 19.3444 14.1491 19.2392 14.3221 19.1675C14.4952 19.0959 14.6807 19.0592 14.868 19.0595H16.1403C16.9144 19.0587 17.6565 18.751 18.204 18.2037C18.7514 17.6564 19.0595 16.9144 19.0605 16.1403V14.867C19.0614 14.4893 19.2114 14.1272 19.478 13.8597L20.565 12.7727C21.1116 12.2247 21.4186 11.4823 21.4186 10.7083C21.4186 9.93428 21.1116 9.19188 20.565 8.64388L19.477 7.55788Z" fill="#2196F3"/>
<path d="M10.7091 17.4304C14.4234 17.4304 17.4344 14.4194 17.4344 10.7052C17.4344 6.99094 14.4234 3.97995 10.7091 3.97995C6.99488 3.97995 3.98389 6.99094 3.98389 10.7052C3.98389 14.4194 6.99488 17.4304 10.7091 17.4304Z" fill="#29B3FF"/>
<path d="M9.71297 13.4494C9.61483 13.4496 9.51761 13.4304 9.42696 13.3927C9.33631 13.3551 9.25404 13.2998 9.18492 13.2302L7.19225 11.2375C7.06026 11.0959 6.9884 10.9085 6.99182 10.7149C6.99523 10.5213 7.07366 10.3366 7.21056 10.1997C7.34747 10.0628 7.53218 9.98437 7.72577 9.98096C7.91936 9.97754 8.10671 10.0494 8.24837 10.1814L9.71297 11.645L13.1702 8.18873C13.3119 8.05673 13.4993 7.98488 13.6928 7.98829C13.8864 7.99171 14.0711 8.07013 14.208 8.20704C14.345 8.34395 14.4234 8.52865 14.4268 8.72224C14.4302 8.91583 14.3584 9.10319 14.2264 9.24484L10.241 13.2302C10.1719 13.2998 10.0896 13.3551 9.99899 13.3927C9.90834 13.4304 9.81112 13.4496 9.71297 13.4494Z" fill="white"/>
</svg>
