<svg width="40" height="40" viewBox="0 0 40 40" fill="none" xmlns="http://www.w3.org/2000/svg">
<rect width="40" height="40" rx="20" fill="#D8ECFF"/>
<path fill-rule="evenodd" clip-rule="evenodd" d="M23.25 19V21C23.25 22.519 24.481 23.75 26 23.75H28C29.519 23.75 30.75 22.519 30.75 21V19C30.75 17.481 29.519 16.25 28 16.25H26C24.481 16.25 23.25 17.481 23.25 19Z" fill="#0085FF"/>
<path fill-rule="evenodd" clip-rule="evenodd" d="M9.25 12V14C9.25 15.519 10.481 16.75 12 16.75H14C15.519 16.75 16.75 15.519 16.75 14V12C16.75 10.481 15.519 9.25 14 9.25H12C10.481 9.25 9.25 10.481 9.25 12Z" fill="#0085FF"/>
<path fill-rule="evenodd" clip-rule="evenodd" d="M9.25 26V28C9.25 29.519 10.481 30.75 12 30.75H14C15.519 30.75 16.75 29.519 16.75 28V26C16.75 24.481 15.519 23.25 14 23.25H12C10.481 23.25 9.25 24.481 9.25 26Z" fill="#0085FF"/>
<path fill-rule="evenodd" clip-rule="evenodd" d="M12.961 24.749L13 24.75L13.032 24.746C13.176 24.726 13.75 24.604 13.75 23.987V23C13.75 22.403 13.987 21.831 14.409 21.409C14.831 20.987 15.403 20.75 16 20.75H24C24.414 20.75 24.75 20.414 24.75 20C24.75 19.586 24.414 19.25 24 19.25H16C15.005 19.25 14.052 19.645 13.348 20.348C12.645 21.052 12.25 22.005 12.25 23V23.987V23.993V24C12.25 24.052 12.255 24.103 12.266 24.152C12.286 24.259 12.326 24.347 12.378 24.419C12.506 24.609 12.719 24.737 12.961 24.749Z" fill="#0085FF"/>
<path fill-rule="evenodd" clip-rule="evenodd" d="M26.961 17.749L27 17.75L27.032 17.746C27.176 17.726 27.75 17.604 27.75 16.987C27.75 16.913 27.75 16.517 27.75 16C27.75 15.005 27.355 14.052 26.652 13.348C25.948 12.645 24.995 12.25 24 12.25H16C15.586 12.25 15.25 12.586 15.25 13C15.25 13.414 15.586 13.75 16 13.75H24C24.597 13.75 25.169 13.987 25.591 14.409C26.013 14.831 26.25 15.403 26.25 16V16.987V16.993V17C26.25 17.052 26.255 17.103 26.266 17.152C26.286 17.259 26.326 17.347 26.378 17.419C26.506 17.609 26.719 17.737 26.961 17.749Z" fill="#0085FF"/>
<path fill-rule="evenodd" clip-rule="evenodd" d="M16 27.7502H23C23.303 27.7502 23.577 27.5672 23.693 27.2872C23.809 27.0072 23.745 26.6842 23.53 26.4702L21.53 24.4702C21.238 24.1772 20.762 24.1772 20.47 24.4702C20.177 24.7622 20.177 25.2382 20.47 25.5302L21.189 26.2502H16C15.586 26.2502 15.25 26.5862 15.25 27.0002C15.25 27.4142 15.586 27.7502 16 27.7502Z" fill="#0085FF"/>
<path fill-rule="evenodd" clip-rule="evenodd" d="M22.47 26.4702L20.47 28.4702C20.177 28.7622 20.177 29.2382 20.47 29.5302C20.762 29.8232 21.238 29.8232 21.53 29.5302L23.53 27.5302C23.823 27.2382 23.823 26.7622 23.53 26.4702C23.238 26.1772 22.762 26.1772 22.47 26.4702Z" fill="#0085FF"/>
</svg>
