<svg width="60" height="60" viewBox="0 0 60 60" fill="none" xmlns="http://www.w3.org/2000/svg">
<path fill-rule="evenodd" clip-rule="evenodd" d="M55.8582 33.5913H41.6107C40.3639 33.5913 39.3438 32.5713 39.3438 31.3246V29.6604C39.3438 28.4136 40.3639 27.3936 41.6107 27.3936H55.8582C57.105 27.3936 58.125 28.4136 58.125 29.6604V31.3246C58.125 32.5713 57.105 33.5913 55.8582 33.5913ZM55.8582 47.7585H51.9791C52.0068 48.0802 52.0216 48.4055 52.0216 48.7343C52.0216 50.6189 51.558 52.3951 50.7397 53.9562H55.8581C57.1049 53.9562 58.1249 52.9362 58.1249 51.6894V50.0252C58.125 48.7785 57.105 47.7585 55.8582 47.7585ZM55.8582 47.168H51.9128C51.5807 44.7816 50.5014 42.6341 48.9183 40.9702H55.8582C57.105 40.9702 58.125 41.9902 58.125 43.2369V44.9011C58.125 46.148 57.105 47.168 55.8582 47.168ZM55.8582 34.1818H41.6107C40.3639 34.1818 39.3438 35.2018 39.3438 36.4486V37.5566C39.8065 37.4987 40.2778 37.4686 40.7562 37.4686C43.6637 37.4686 46.3141 38.5706 48.3127 40.3794H55.8582C57.105 40.3794 58.125 39.3594 58.125 38.1127V36.4485C58.125 35.202 57.105 34.1818 55.8582 34.1818ZM24.2075 10.3385C31.8669 10.3385 38.0764 16.548 38.0764 24.2074C38.0764 31.8668 31.8669 38.0763 24.2075 38.0763C16.5482 38.0763 10.3386 31.8669 10.3386 24.2074C10.3386 16.5479 16.5482 10.3385 24.2075 10.3385ZM35.2498 23.2699H34.0528C33.5351 23.2699 33.1153 23.6897 33.1153 24.2074C33.1153 24.7252 33.5351 25.1449 34.0528 25.1449H35.2498C35.7675 25.1449 36.1873 24.7252 36.1873 24.2074C36.1873 23.6897 35.7676 23.2699 35.2498 23.2699ZM32.6784 31.3527L31.832 30.5062C31.4659 30.1402 30.8723 30.1402 30.5064 30.5062C30.1403 30.8723 30.1403 31.4659 30.5064 31.832L31.3528 32.6784C31.7189 33.0445 32.3125 33.0445 32.6784 32.6784C33.0445 32.3123 33.0445 31.7188 32.6784 31.3527ZM25.145 35.2498V34.0528C25.145 33.5351 24.7253 33.1153 24.2075 33.1153C23.6898 33.1153 23.27 33.5351 23.27 34.0528V35.2498C23.27 35.7675 23.6898 36.1873 24.2075 36.1873C24.7253 36.1873 25.145 35.7675 25.145 35.2498ZM17.0623 32.6784L17.9086 31.832C18.2747 31.4659 18.2747 30.8723 17.9086 30.5062C17.5425 30.1402 16.9489 30.1402 16.583 30.5062L15.7366 31.3527C15.3705 31.7188 15.3705 32.3123 15.7366 32.6783C16.1027 33.0444 16.6963 33.0444 17.0623 32.6784ZM13.1653 25.1449H14.3623C14.88 25.1449 15.2998 24.7252 15.2998 24.2074C15.2998 23.6897 14.88 23.2699 14.3623 23.2699H13.1653C12.6476 23.2699 12.2278 23.6897 12.2278 24.2074C12.2278 24.7252 12.6475 25.1449 13.1653 25.1449ZM15.7366 17.0623L16.583 17.9086C16.9491 18.2747 17.5426 18.2747 17.9086 17.9086C18.2747 17.5425 18.2747 16.9489 17.9086 16.583L17.0623 15.7366C16.6962 15.3705 16.1026 15.3705 15.7366 15.7366C15.3705 16.1026 15.3705 16.6962 15.7366 17.0623ZM23.27 13.1652V14.3621C23.27 14.8799 23.6898 15.2996 24.2075 15.2996C24.7253 15.2996 25.145 14.8799 25.145 14.3621V13.1652C25.145 12.6475 24.7253 12.2277 24.2075 12.2277C23.6898 12.2277 23.27 12.6475 23.27 13.1652ZM31.3528 15.7365L30.5064 16.5829C30.1403 16.9489 30.1403 17.5425 30.5064 17.9085C30.8725 18.2746 31.466 18.2746 31.832 17.9085L32.6784 17.0621C33.0445 16.6961 33.0445 16.1025 32.6784 15.7365C32.3125 15.3704 31.7189 15.3704 31.3528 15.7365ZM23.27 17.5513V24.2075C23.27 24.7573 23.7389 25.1859 24.2849 25.1419L30.1079 25.1747C30.6237 25.1767 31.0434 24.7602 31.0454 24.2445C31.0474 23.7287 30.6309 23.3089 30.1152 23.307L25.1449 23.2789V17.5513C25.1449 17.0336 24.7252 16.6138 24.2074 16.6138C23.6898 16.6138 23.27 17.0336 23.27 17.5513ZM44.385 45.5191C44.5852 45.9964 44.3606 46.5457 43.8833 46.746C43.406 46.9461 42.8568 46.7216 42.6565 46.2443C42.2599 45.2999 41.2703 44.9064 40.3053 45.1007C39.6129 45.2401 38.9527 45.7014 38.9906 46.4817C39.0347 47.3921 40.188 47.6585 40.9148 47.7778C42.8021 48.0877 44.6494 48.9388 44.7019 51.1264C44.7441 52.8994 43.2854 53.9224 41.6937 54.2057V54.6769C41.6937 55.1946 41.2739 55.6144 40.7562 55.6144C40.2384 55.6144 39.8187 55.1946 39.8187 54.6769V54.1874C38.379 53.8939 37.2007 52.9491 36.8354 51.484C36.712 50.9824 37.0187 50.4758 37.5203 50.3524C38.0218 50.229 38.5286 50.5357 38.6518 51.0373C38.8973 52.0225 39.922 52.4372 40.8569 52.4149C41.5893 52.3975 42.8559 52.0841 42.8343 51.1705C42.808 50.0667 41.4868 49.7668 40.6146 49.6236C38.9028 49.3426 37.2183 48.5325 37.123 46.5697C37.0413 44.8878 38.2557 43.6584 39.8187 43.2959V42.7922C39.8187 42.2745 40.2384 41.8547 40.7562 41.8547C41.2739 41.8547 41.6937 42.2745 41.6937 42.7922V43.2823C42.9284 43.5561 43.8939 44.3493 44.385 45.5191ZM40.7562 39.3437C35.5699 39.3437 31.3656 43.548 31.3656 48.7343C31.3656 53.9207 35.5699 58.1249 40.7562 58.1249C45.9424 58.1249 50.1468 53.9205 50.1468 48.7343C50.1466 43.548 45.9424 39.3437 40.7562 39.3437ZM28.6543 5.57578L27.2298 1.875H21.1853L19.7607 5.57578C17.7889 6.04512 15.9056 6.82687 14.1797 7.88965L10.5531 6.27891L6.27891 10.5532L7.88941 14.1793C6.82652 15.9053 6.04476 17.7888 5.57555 19.7609L1.875 21.1853V27.2299L5.57508 28.654C6.04441 30.6262 6.82605 32.5103 7.88918 34.2366L6.27891 37.862L10.5532 42.1362L14.1798 40.5255C15.9056 41.5882 17.7888 42.37 19.7606 42.8393L21.1852 46.5401H27.2298L28.6539 42.8401C29.777 42.5728 30.8715 42.2043 31.9246 41.7401C33.3288 39.9697 35.2539 38.6313 37.4686 37.9567V36.4487C37.4686 35.4827 37.802 34.5923 38.3596 33.8866C37.802 33.1809 37.4686 32.2905 37.4686 31.3246V29.6604C37.4686 27.3787 39.3288 25.5186 41.6105 25.5186H46.54V21.1852L42.84 19.761C42.3707 17.7887 41.5889 15.9047 40.5259 14.1785L42.1361 10.5531L37.8619 6.27891L34.2353 7.88965C32.5094 6.82687 30.6261 6.04512 28.6543 5.57578Z" fill="#285CEB"/>
</svg>
