<svg width="60" height="60" viewBox="0 0 60 60" fill="none" xmlns="http://www.w3.org/2000/svg">
<g clip-path="url(#clip0_4061_17285)">
<path fill-rule="evenodd" clip-rule="evenodd" d="M32.9837 17.7367C34.1374 18.0112 35.2448 18.4494 36.2738 19.0364L32.4874 22.8227C31.7303 22.5656 30.9189 22.4262 30.0746 22.4262C25.9327 22.4262 22.5756 25.7832 22.5756 29.9252C22.5756 34.0672 25.9327 37.4243 30.0746 37.4243C34.2166 37.4243 37.5737 34.0672 37.5737 29.9252C37.5737 29.0811 37.4341 28.2697 37.1771 27.5126L40.9639 23.7258C41.5509 24.7548 41.9891 25.8626 42.2637 27.0164L44.6841 27.948V31.9023L42.2631 32.8342C41.9561 34.1241 41.4446 35.3561 40.7495 36.4852L41.8031 38.8576L39.007 41.6538L36.6353 40.6004C35.5061 41.2958 34.2736 41.8073 32.9834 42.1143L32.0517 44.5346H28.0975L27.1656 42.1137C25.8756 41.8066 24.6437 41.2952 23.5146 40.6001L21.1421 41.6537L18.3459 38.8576L19.3993 36.4859C18.7039 35.3566 18.1925 34.1241 17.8855 32.8339L15.465 31.9023V27.948L17.8859 27.0163C18.1928 25.7263 18.7042 24.4941 19.3996 23.365L18.3461 20.9929L21.1421 18.1966L23.5146 19.2504C24.6437 18.5552 25.8757 18.0438 27.1656 17.7368L28.0975 15.3158H32.0517L32.9837 17.7367ZM55.0275 4.9725C54.467 4.41199 53.5499 4.41199 52.9894 4.9725L51.0015 6.96035L49.9055 1.875L41.1803 10.6002L42.2762 15.6855L30 27.9618C29.4395 28.5223 29.4395 29.4395 30 30C30.5605 30.5605 31.4776 30.5605 32.0382 30L44.3145 17.7237L49.3998 18.8196L58.125 10.0944L53.0396 8.99848L55.0274 7.01063C55.588 6.45023 55.588 5.53301 55.0275 4.9725ZM31.0123 5.39883V1.875C31.0123 1.35727 30.5925 0.9375 30.0748 0.9375C29.557 0.9375 29.1373 1.35727 29.1373 1.875V5.40082C16.3279 5.88211 6.03164 16.1784 5.55035 28.9877H1.875C1.35727 28.9877 0.9375 29.4075 0.9375 29.9252C0.9375 30.443 1.35727 30.8627 1.875 30.8627H5.55035C6.02988 43.6221 16.2478 53.8886 28.9877 54.4439V58.125C28.9877 58.6427 29.4075 59.0625 29.9252 59.0625C30.443 59.0625 30.8627 58.6427 30.8627 58.125V54.4553C43.6915 54.0505 54.0357 43.8019 54.5934 31.0123H58.125C58.6427 31.0123 59.0625 30.5925 59.0625 30.0748C59.0625 29.557 58.6427 29.1373 58.125 29.1373H54.6061C54.4898 25.4544 53.5614 21.9766 51.9953 18.8757L50.0032 20.8678L45.9169 19.9871C47.727 22.8664 48.7748 26.2732 48.7748 29.9252C48.7748 40.2531 40.4025 48.6254 30.0746 48.6254C19.7468 48.6254 11.3746 40.253 11.3746 29.9252C11.3746 19.5974 19.7469 11.225 30.0748 11.225C33.7268 11.225 37.1339 12.2728 40.013 14.0831L39.1323 9.9968L41.1244 8.00473C38.0655 6.45961 34.6398 5.53523 31.0123 5.39883Z" fill="#285CEB"/>
</g>
<defs>
<clipPath id="clip0_4061_17285">
<rect width="60" height="60" fill="white"/>
</clipPath>
</defs>
</svg>
