<svg width="60" height="60" viewBox="0 0 60 60" fill="none" xmlns="http://www.w3.org/2000/svg">
<path d="M47.0463 29.5823L42.7606 39.2252C42.6761 39.4132 42.5392 39.5728 42.3662 39.685C42.1933 39.7971 41.9917 39.8569 41.7856 39.8574C41.7102 39.8556 41.635 39.8484 41.5606 39.8359C41.3206 39.7844 41.1055 39.652 40.9514 39.4608C40.7974 39.2697 40.7136 39.0314 40.7142 38.7859V32.3574H37.4999C37.3212 32.357 37.1454 32.3119 36.9885 32.2263C36.8317 32.1406 36.6988 32.0171 36.6019 31.8669C36.505 31.7168 36.4472 31.5448 36.4337 31.3666C36.4203 31.1884 36.4516 31.0096 36.5249 30.8466L40.8106 21.2038C40.9092 20.9789 41.0826 20.7952 41.3014 20.6839C41.5202 20.5725 41.7708 20.5404 42.0106 20.593C42.2506 20.6446 42.4657 20.777 42.6197 20.9682C42.7738 21.1593 42.8576 21.3975 42.857 21.643V28.0716H46.0713C46.25 28.072 46.4258 28.1171 46.5826 28.2027C46.7395 28.2884 46.8724 28.4119 46.9693 28.5621C47.0662 28.7122 47.124 28.8842 47.1375 29.0624C47.1509 29.2406 47.1196 29.4194 47.0463 29.5823Z" fill="#285CEB"/>
<path d="M41.7857 12H12.8571C12.2901 12.0042 11.7475 12.2313 11.3465 12.6323C10.9456 13.0332 10.7184 13.5758 10.7142 14.1429C10.7159 14.7107 10.9422 15.2547 11.3437 15.6562C11.7452 16.0577 12.2893 16.284 12.8571 16.2857C13.1413 16.2857 13.4138 16.3986 13.6147 16.5995C13.8156 16.8005 13.9285 17.073 13.9285 17.3572C13.9285 17.6413 13.8156 17.9138 13.6147 18.1148C13.4138 18.3157 13.1413 18.4286 12.8571 18.4286H6.42851C5.86148 18.4328 5.31888 18.6599 4.91792 19.0609C4.51697 19.4618 4.28985 20.0044 4.28564 20.5715C4.28734 21.1393 4.51365 21.6833 4.91515 22.0848C5.31665 22.4863 5.86071 22.7126 6.42851 22.7143H23.5286C23.706 22.6994 23.8844 22.7289 24.0475 22.8003C24.2107 22.8716 24.3535 22.9825 24.463 23.1229C24.5726 23.2632 24.6454 23.4287 24.6749 23.6043C24.7044 23.7799 24.6897 23.9601 24.6321 24.1286C24.2703 25.1633 24.0014 26.2283 23.8286 27.3108C23.7844 27.5768 23.6422 27.8167 23.43 27.9833C23.2179 28.1499 22.9511 28.231 22.6821 28.2108C22.528 28.1937 22.3787 28.1464 22.2428 28.0715H15C14.4329 28.0757 13.8903 28.3028 13.4894 28.7038C13.0884 29.1047 12.8613 29.6473 12.8571 30.2143C12.8588 30.7821 13.0851 31.3262 13.4866 31.7277C13.8881 32.1292 14.4322 32.3555 15 32.3572H22.5107C22.5643 32.3465 22.6286 32.3358 22.6928 32.3251C22.9568 32.2972 23.2215 32.37 23.434 32.5289C23.6466 32.6879 23.7913 32.9212 23.8393 33.1822C24.0111 34.2428 24.2764 35.2862 24.6321 36.3001C24.7092 36.5159 24.7154 36.7508 24.6499 36.9704C24.5844 37.19 24.4505 37.3831 24.2678 37.5215C24.1511 37.609 24.0176 37.6712 23.8756 37.7044C23.7336 37.7376 23.5862 37.741 23.4428 37.7144H6.42851C5.86071 37.7161 5.31665 37.9424 4.91515 38.3439C4.51365 38.7454 4.28734 39.2894 4.28564 39.8572C4.28985 40.4242 4.51697 40.9668 4.91792 41.3678C5.31888 41.7688 5.86148 41.9959 6.42851 42.0001H12.8571C13.1413 42.0001 13.4138 42.113 13.6147 42.3139C13.8156 42.5148 13.9285 42.7874 13.9285 43.0715C13.9285 43.3557 13.8156 43.6282 13.6147 43.8291C13.4138 44.0301 13.1413 44.1429 12.8571 44.1429C12.2893 44.1446 11.7452 44.371 11.3437 44.7724C10.9422 45.1739 10.7159 45.718 10.7142 46.2858C10.7184 46.8528 10.9456 47.3954 11.3465 47.7964C11.7475 48.1973 12.2901 48.4245 12.8571 48.4287H41.7857C46.6165 48.4287 51.2494 46.5097 54.6652 43.0938C58.0811 39.678 60.0001 35.0451 60.0001 30.2143C60.0001 25.3836 58.0811 20.7507 54.6652 17.3349C51.2494 13.919 46.6165 12 41.7857 12ZM41.7857 44.1429C39.0309 44.1429 36.338 43.326 34.0474 41.7956C31.7569 40.2651 29.9716 38.0897 28.9174 35.5446C27.8632 32.9995 27.5873 30.1989 28.1248 27.497C28.6622 24.7951 29.9888 22.3133 31.9367 20.3653C33.8847 18.4174 36.3665 17.0908 39.0684 16.5534C41.7703 16.0159 44.5709 16.2918 47.116 17.346C49.6611 18.4002 51.8365 20.1855 53.367 22.476C54.8975 24.7666 55.7144 27.4595 55.7144 30.2143C55.711 33.9074 54.2424 37.4482 51.631 40.0596C49.0196 42.671 45.4788 44.1395 41.7857 44.1429Z" fill="#285CEB"/>
<path d="M4.28573 32.357C4.85405 32.357 5.39909 32.1313 5.80096 31.7294C6.20282 31.3275 6.42859 30.7825 6.42859 30.2142C6.42859 29.6458 6.20282 29.1008 5.80096 28.6989C5.39909 28.2971 4.85405 28.0713 4.28573 28.0713H2.14286C1.57454 28.0713 1.02949 28.2971 0.62763 28.6989C0.225765 29.1008 0 29.6458 0 30.2142C0 30.7825 0.225765 31.3275 0.62763 31.7294C1.02949 32.1313 1.57454 32.357 2.14286 32.357H4.28573Z" fill="#285CEB"/>
</svg>
