<svg width="60" height="60" viewBox="0 0 60 60" fill="none" xmlns="http://www.w3.org/2000/svg">
<path fill-rule="evenodd" clip-rule="evenodd" d="M30.0001 10.252C38.1504 10.252 44.7575 16.665 44.7575 24.576C44.7575 32.487 38.1503 38.9001 30.0001 38.9001C21.8498 38.9001 15.2426 32.4869 15.2426 24.576C15.2426 16.6651 21.8498 10.252 30.0001 10.252ZM25.3877 47.7661C22.6696 48.4088 19.8637 47.3435 18.3156 45.0458L16.3616 42.1457C16.0746 41.7198 15.7482 41.4271 15.306 41.2054L10.2003 51.85C10.0557 52.1511 10.3188 52.4841 10.6559 52.4269L17.0586 51.3411L20.3242 56.7957C20.496 57.0825 20.9282 57.0635 21.0724 56.7628L25.3877 47.7661ZM34.6126 47.7661L38.9279 56.7628C39.0721 57.0635 39.5044 57.0824 39.676 56.7957L42.9416 51.3411L49.3443 52.4269C49.6814 52.4841 49.9445 52.1511 49.8 51.85L44.6942 41.2053C44.2519 41.427 43.9255 41.7198 43.6387 42.1456L41.6846 45.0457C40.1363 47.3435 37.3305 48.4087 34.6126 47.7661ZM32.8428 3.93251C31.1315 2.68916 28.8686 2.68916 27.1573 3.93251L24.2991 6.00903C23.5175 6.57693 22.6947 6.86763 21.7198 6.92028L18.1553 7.11277C16.0209 7.22797 14.2874 8.63984 13.7999 10.66L12.9857 14.0339C12.7629 14.9566 12.3252 15.6926 11.6132 16.3411L9.01005 18.7126C7.45138 20.1326 7.05847 22.2956 8.02279 24.1474L9.63338 27.24C10.0738 28.0858 10.2259 28.9228 10.11 29.8637L9.68623 33.3045C9.43252 35.3647 10.564 37.267 12.529 38.0839L15.8108 39.4482C16.7084 39.8212 17.3791 40.3675 17.9134 41.1606L19.8674 44.0608C21.0375 45.7972 23.1638 46.5485 25.2101 45.9482L28.6275 44.9457C29.5622 44.6715 30.4377 44.6715 31.3724 44.9457L34.7898 45.9482C36.836 46.5485 38.9624 45.7972 40.1325 44.0608L42.0865 41.1606C42.6209 40.3675 43.2916 39.8212 44.1892 39.4482L47.471 38.084C49.436 37.2671 50.5675 35.365 50.3138 33.3047L49.89 29.8638C49.7741 28.9228 49.9262 28.0859 50.3666 27.2401L51.9772 24.1475C52.9415 22.2958 52.5486 20.1327 50.9899 18.7127L48.3868 16.3412C47.6749 15.6927 47.2371 14.9567 47.0143 14.034L46.2001 10.6601C45.7125 8.63996 43.9791 7.22808 41.8447 7.11288L38.2802 6.9204C37.3053 6.86775 36.4825 6.57716 35.7009 6.00915L32.8428 3.93251ZM31.8574 20.7095C31.9023 20.5986 31.9706 20.4945 32.0627 20.4046C32.4229 20.0546 32.8131 19.4887 32.884 18.9899V16.66C32.884 14.5768 31.128 12.8731 28.982 12.8731V16.0309C28.982 18.6545 26.5546 19.8433 24.6518 21.2302L24.6502 31.633C27.0645 33.8774 29.3947 33.3702 33.5482 32.6761C33.6973 32.7228 33.856 32.7479 34.0205 32.7479H36.5232C37.3759 32.7479 38.0735 32.0708 38.0735 31.2432C38.0735 30.4157 37.3759 29.7383 36.5232 29.7383H37.4479C38.3006 29.7382 38.9982 29.0612 38.9982 28.2334C38.9982 27.4057 38.3006 26.7286 37.4479 26.7286H38.5358C39.3885 26.7286 40.0861 26.0514 40.0861 25.2238C40.0861 24.3961 39.3885 23.719 38.5358 23.719H37.8827C38.7354 23.719 39.433 23.0419 39.433 22.2142C39.433 21.3865 38.7352 20.7095 37.8827 20.7094C35.8744 20.7095 33.8659 20.7095 31.8574 20.7095ZM22.7951 31.633L22.8043 21.2314H20.5201V31.633H22.7951Z" fill="#285CEB"/>
</svg>
