<svg width="40" height="40" viewBox="0 0 40 40" fill="none" xmlns="http://www.w3.org/2000/svg">
<path d="M12.5797 39.8865C27.675 39.8865 35.9294 24.5875 35.9294 11.3231C35.9294 10.8887 35.9294 10.4553 35.9059 10.0243C37.5125 8.60339 38.8994 6.84307 40.0003 4.82651C38.5034 5.63964 36.9156 6.17182 35.2884 6.4087C37.0009 5.15245 38.2828 3.1787 38.8944 0.854324C37.2831 2.02401 35.5203 2.84807 33.6819 3.29214C31.1394 -0.0159885 27.0975 -0.826613 23.8234 1.31714C20.5509 3.46089 18.8603 8.02339 19.6987 12.4474C13.1009 12.0434 6.95219 8.22995 2.78625 1.95932C0.604375 6.5437 1.715 12.4134 5.31969 15.3624C4.02344 15.3087 2.755 14.8765 1.62219 14.1028V14.2309C1.62219 19.0037 4.36781 23.1178 8.19094 24.0721C6.99535 24.474 5.71106 24.5328 4.48375 24.2418C5.55781 28.3337 8.63906 31.1387 12.1509 31.2193C9.24312 34.0062 5.65312 35.5162 1.95812 35.5068C1.30375 35.5068 0.649375 35.4599 0 35.3675C3.7525 38.3153 8.11875 39.8803 12.5794 39.8743" fill="white"/>
</svg>
