<svg width="185" height="100" viewBox="0 0 185 100" fill="none" xmlns="http://www.w3.org/2000/svg">
<path d="M76.0473 49.9541C77.6924 49.9541 79.3375 49.9289 80.9806 49.9541C82.0048 49.949 83.0277 50.0256 84.0397 50.1831C84.9807 50.3607 85.8974 50.6484 86.7711 51.0403C87.6346 51.4206 88.5234 51.8576 89.2125 52.4796C89.8555 53.0595 90.2841 53.8957 90.7463 54.6563C91.2569 55.4502 91.5369 56.3704 91.5552 57.3141C91.5552 57.9591 91.7653 58.6084 91.7317 59.2471C91.6678 60.0107 91.5399 60.7677 91.3493 61.5099C91.114 62.5535 90.8493 63.5921 90.5551 64.6258C90.3639 65.2961 90.0971 65.9453 89.8786 66.6092C89.6853 67.1891 89.5151 67.7774 89.3344 68.3615C89.1768 68.8616 89.0192 69.3637 88.8575 69.8638C88.6348 70.5571 88.4078 71.2484 88.183 71.9417C87.8532 72.965 87.5527 74.0008 87.1892 75.0114C86.5518 76.6836 85.6525 78.2439 84.5251 79.6337C83.617 80.8364 82.5861 81.9413 81.4491 82.9303C80.3776 83.8275 79.1064 84.5082 77.8584 85.1595C77.1167 85.544 76.2469 85.6827 75.438 85.9411C73.9198 86.3912 72.3585 86.6806 70.7799 86.8047C67.9077 87.0988 65.0419 86.8572 62.1655 86.9496C60.9427 86.9896 59.7157 86.9286 58.4929 86.9686C58.2596 86.9822 58.0273 86.9292 57.823 86.8157C57.6188 86.7022 57.451 86.533 57.3394 86.3277C57.2364 86.1596 57.3583 85.8214 57.4339 85.5798C57.6944 84.7393 57.9844 83.8989 58.2512 83.0585C58.684 81.6949 59.0917 80.3271 59.5392 78.9635C59.7976 78.1588 60.0918 77.3667 60.3502 76.5641C60.7095 75.44 61.0562 74.3117 61.4007 73.1835C61.655 72.343 61.8819 71.5026 62.1403 70.6622C62.487 69.5465 62.8526 68.4393 63.2077 67.3257C63.5228 66.334 63.838 65.3402 64.1489 64.3485C64.4221 63.4954 64.7099 62.6445 64.9894 61.7915C65.4663 60.3207 65.9474 58.85 66.4139 57.3792C66.7206 56.4107 66.998 55.4316 67.3005 54.4609C67.6493 53.341 67.9981 52.2232 68.3679 51.0992C68.4808 50.7539 68.7025 50.4545 68.9998 50.2458C69.2972 50.0371 69.6541 49.9303 70.0172 49.9415L76.0473 49.9541ZM70.3135 77.31C71.5291 77.4196 72.7545 77.3064 73.9294 76.9759C74.6078 76.7896 75.2361 76.4541 75.7683 75.9939C76.3005 75.5337 76.7231 74.9604 77.0054 74.3159C77.308 73.6079 77.5683 72.8824 77.7848 72.1434C78.0496 71.3387 78.2807 70.5235 78.537 69.7167C78.7471 69.0339 78.9846 68.3552 79.2115 67.6745C79.5035 66.8004 79.8292 65.9369 80.0876 65.0544C80.346 64.172 80.4343 63.2685 80.7705 62.4407C80.9995 61.8755 80.5835 61.4826 80.6486 60.9931C80.6415 60.911 80.6175 60.8313 80.5781 60.759C80.5387 60.6867 80.4847 60.6233 80.4196 60.5729C79.7863 60.0597 79.0222 59.7337 78.2135 59.6316C77.6168 59.5349 76.9927 59.6043 76.3792 59.6148C76.2328 59.5989 76.0859 59.6396 75.9687 59.7288C75.8514 59.8179 75.7728 59.9485 75.7489 60.0938C75.4968 61.0582 75.2173 62.0184 74.9085 62.9639C74.2782 64.8716 73.5953 66.7626 72.9713 68.6725C72.5511 69.9583 72.1939 71.2673 71.7989 72.5615C71.4922 73.5596 71.1686 74.5513 70.8513 75.5472C70.6769 76.0997 70.5068 76.6628 70.3135 77.31Z" fill="#241DA9"/>
<path d="M106.483 64.5477H116.61C117.482 64.5477 117.835 65.0876 117.549 65.8924C117.207 66.8609 116.919 67.8463 116.593 68.8338C116.238 69.9369 115.95 71.0652 115.513 72.1346C115.265 72.7376 114.595 72.933 113.96 72.9351C110.739 72.9498 107.521 72.9351 104.296 72.9351H103.837C103.4 74.3512 102.959 75.7506 102.539 77.1583C102.302 77.9525 102.329 77.9672 103.157 77.9672H114.391C114.741 77.9475 115.092 77.9475 115.442 77.9672C115.91 78.0218 116.055 78.4 115.938 78.7698C115.658 79.6459 115.278 80.4885 114.988 81.3604C114.759 82.0517 114.612 82.7702 114.41 83.4615C114.16 84.3229 113.975 85.2159 113.603 86.0206C113.476 86.3031 113.269 86.5424 113.008 86.7092C112.747 86.876 112.442 86.963 112.133 86.9597C104.976 86.9597 97.8179 86.9597 90.6617 86.945C89.6322 86.945 89.3191 86.4177 89.6931 85.447C90.0524 84.5141 90.2772 83.5308 90.5777 82.5748C90.939 81.4255 91.3256 80.2826 91.6912 79.1354C91.9644 78.2718 92.2102 77.402 92.4854 76.5406C92.8153 75.5131 93.1767 74.4941 93.4981 73.4646C93.8196 72.4351 94.1054 71.3488 94.4373 70.3004C94.8113 69.1196 95.2315 67.9535 95.6055 66.7727C95.9165 65.7915 96.1833 64.7977 96.488 63.8144C96.8283 62.7176 97.1918 61.6293 97.5385 60.5388C98.0133 59.0681 98.4924 57.5973 98.9609 56.1098C99.3223 54.9668 99.6522 53.8133 100.037 52.6787C100.259 51.9327 100.557 51.2112 100.925 50.5252C101.052 50.3607 101.213 50.2255 101.397 50.1291C101.581 50.0326 101.783 49.9771 101.991 49.9663C109.321 49.9348 116.654 49.9432 123.987 49.9432C124.543 49.9432 124.796 50.3634 124.632 50.9181C124.434 51.5757 124.321 52.2585 124.125 52.9162C123.829 53.9121 123.495 54.8954 123.174 55.885C122.94 56.6056 122.753 57.3557 122.457 58.0428C122.176 58.6983 122.003 58.9777 120.986 58.9735C116.927 58.9588 112.868 58.9735 108.8 58.9735C108.638 58.9529 108.474 58.9962 108.343 59.0942C108.212 59.1922 108.124 59.3373 108.098 59.4988C107.678 60.8309 107.235 62.1525 106.802 63.4782C106.718 63.7997 106.617 64.1233 106.483 64.5477Z" fill="#241DA9"/>
<path d="M43.9145 64.5477H53.905C54.7812 64.5477 55.132 65.0688 54.84 65.9029C54.5606 66.6929 54.2874 67.485 54.0416 68.2876C53.7033 69.4012 53.4512 70.5463 53.0499 71.6367C52.7116 72.5465 52.2977 72.9583 51.1841 72.9478C48.0704 72.9142 44.9545 72.9352 41.8407 72.9352C41.16 72.9352 40.9477 73.1453 40.807 73.7966C40.6788 74.3933 40.496 74.9816 40.3153 75.5657C40.1052 76.196 39.8804 76.8264 39.685 77.4735C39.5589 77.8937 39.8069 77.9735 40.1704 77.9714C42.8471 77.9714 45.5239 77.9714 48.2006 77.9714H52.4028C53.1696 77.9714 53.4176 78.3244 53.1823 79.0514C52.762 80.3435 52.3586 81.6399 51.9216 82.93C51.6001 83.8943 51.2766 84.8587 50.9068 85.8063C50.5181 86.8064 50.2429 86.9703 49.1923 86.9703C42.1243 86.9703 35.0564 86.9703 27.9884 86.9703C27.7041 86.9547 27.4257 86.8833 27.169 86.7602C27.0934 86.7363 27.0238 86.6965 26.9648 86.6435C26.9059 86.5905 26.8591 86.5254 26.8274 86.4528C26.7958 86.3801 26.78 86.3015 26.7813 86.2222C26.7826 86.143 26.8009 86.0649 26.8349 85.9933C27.1542 85.0541 27.4652 84.1129 27.7636 83.1653C28.001 82.4026 28.1964 81.6252 28.4359 80.8541C28.6754 80.083 28.9696 79.3329 29.2112 78.5639C29.4843 77.7004 29.7091 76.82 29.9865 75.9586C30.4949 74.3723 31.037 72.807 31.5434 71.2081C32.0245 69.6953 32.4615 68.1679 32.9343 66.653C33.2305 65.7054 33.5646 64.7725 33.8714 63.8271C34.1781 62.8816 34.4407 61.9004 34.7475 60.9444C34.9198 60.4065 35.1677 59.8939 35.3379 59.3539C35.5753 58.5975 35.7581 57.8243 35.9892 57.0658C36.3842 55.78 36.7876 54.4941 37.2099 53.2167C37.4768 52.4036 37.7751 51.5988 38.0756 50.7962C38.3046 50.1869 38.792 49.9558 39.414 49.9558H61.1957C62.0025 49.9558 62.2462 50.3109 62.0151 51.0673C61.7084 52.0569 61.4521 53.0591 61.1432 54.0466C60.8659 54.9332 60.5402 55.8073 60.2481 56.6897C60.1155 57.0754 60.0047 57.4682 59.9162 57.8663C59.8297 58.172 59.6505 58.4434 59.4032 58.6429C59.156 58.8423 58.8529 58.9601 58.5358 58.9799C54.5297 58.9799 50.523 58.9799 46.5156 58.9799C45.7004 58.9799 45.3495 59.0576 45.3831 59.917C45.3831 60.0661 45.2507 60.2174 45.194 60.375C44.8599 61.2953 44.5112 62.2134 44.2065 63.1442C44.0844 63.6065 43.9869 64.075 43.9145 64.5477Z" fill="#241DA9"/>
<path d="M132.928 78.3916H144.646C145.539 78.3916 145.858 78.9442 145.541 79.8014C145.169 80.8078 144.871 81.8437 144.539 82.8648C144.184 83.9489 143.854 85.0415 143.461 86.1109C143.238 86.716 142.766 86.9955 142.081 86.9955C134.821 86.9815 127.56 86.9815 120.299 86.9955C119.469 86.9955 119.211 86.4492 119.488 85.7348C119.938 84.5855 120.242 83.3795 120.62 82.2008C120.879 81.4003 121.272 80.6271 121.402 79.8077C121.654 78.2151 122.86 77.3516 123.858 76.3368C125.718 74.4458 127.621 72.6074 129.512 70.7542C133.059 67.2791 136.61 63.8088 140.165 60.3434C140.7 59.8203 141.27 59.3349 141.94 58.7277C141.574 58.6878 141.35 58.6395 141.123 58.6395C137.204 58.6395 133.286 58.6269 129.367 58.6395C128.233 58.6395 128.279 58.2424 128.451 57.4482C128.661 56.4754 129.105 55.5572 129.409 54.597C129.754 53.5108 130.056 52.4119 130.376 51.3173C130.474 50.9203 130.705 50.5689 131.031 50.3216C131.356 50.0743 131.757 49.9459 132.166 49.9579C139.322 49.9579 146.476 49.9705 153.632 49.939C154.443 49.939 154.87 50.5189 154.485 51.3551C154.25 51.8656 154.162 52.4434 153.994 52.9855C153.7 53.9352 153.41 54.8765 153.09 55.8241C152.771 56.7716 152.435 57.6457 152.09 58.568C152.025 58.7253 151.929 58.8682 151.809 58.9883C149.485 61.3807 147.156 63.7689 144.823 66.1529C142.837 68.172 140.831 70.168 138.828 72.1745C137.465 73.5465 136.097 74.9059 134.74 76.2905C134.195 76.8452 133.679 77.4272 133.155 78.0008C133.069 78.1246 132.993 78.2553 132.928 78.3916Z" fill="#241DA9"/>
<path d="M11.8228 58.6312H11.1925C8.88272 58.6312 6.57154 58.6312 4.25897 58.6312C3.5383 58.6312 3.27988 58.2215 3.50259 57.5239C3.9228 56.2276 4.28839 54.9165 4.7107 53.6222C5.02796 52.6558 5.36834 51.6935 5.76124 50.7543C5.98815 50.2122 6.41257 49.9391 7.0723 49.9412C15.506 49.9608 23.939 49.965 32.3712 49.9538C33.2117 49.9538 33.5163 50.4139 33.2453 51.2396C32.8713 52.3721 32.5372 53.5193 32.1758 54.656C31.8397 55.7065 31.5245 56.7696 31.1253 57.8076C31.0381 58.0629 30.8702 58.283 30.647 58.4346C30.4238 58.5862 30.1573 58.6611 29.8878 58.648C27.4737 58.6375 25.0553 58.648 22.6454 58.648C22.1937 58.648 22.0004 58.7909 21.8764 59.2636C21.6096 60.2826 21.2209 61.2701 20.9036 62.2765C20.5864 63.2829 20.3237 64.2578 20.0065 65.2411C19.6892 66.2244 19.3152 67.2077 18.9959 68.2015C18.7521 68.9495 18.5546 69.7122 18.334 70.4665C18.194 70.9469 18.0469 71.4274 17.8928 71.9078C17.5944 72.8575 17.3003 73.7988 16.9935 74.7527C16.5376 76.1604 16.0607 77.5597 15.6152 78.9695C15.3043 79.9591 15.05 80.9676 14.7412 81.9572C14.3672 83.1548 13.9008 84.3293 13.5856 85.529C13.3335 86.4745 12.5645 87.0229 11.5434 86.9998C9.12925 86.9409 6.71091 86.9851 4.29889 86.9788C3.54251 86.9788 3.06767 86.4661 3.24836 85.8841C3.56142 84.9071 3.85977 83.9259 4.16863 82.9426C4.63296 81.4719 5.1015 80.0011 5.56374 78.5304C5.98395 77.1626 6.40417 75.799 6.84119 74.427C7.13744 73.5025 7.48411 72.5928 7.78456 71.6683C8.10393 70.6913 8.37916 69.6996 8.69852 68.7268C8.93384 68.0103 9.228 67.3107 9.46962 66.5942C9.64611 66.0669 9.77427 65.5206 9.93185 64.9869C10.2638 63.8607 10.5874 62.7325 10.9383 61.6126C11.2114 60.7428 11.5224 59.8855 11.8081 59.0199C11.8308 58.8916 11.8357 58.7608 11.8228 58.6312Z" fill="#241DA9"/>
<path d="M179.544 25.4626C179.544 25.3953 179.521 25.3281 179.509 25.2525C179.479 25.2882 179.448 25.3092 179.446 25.3323C179.301 27.3304 178.88 29.2592 177.958 31.0514C177.365 32.2007 176.817 33.3794 176.117 34.4593C175.288 35.7969 174.224 36.9747 172.978 37.9366C172.157 38.5522 171.356 39.1867 170.403 39.6006C168.913 40.2478 167.392 40.626 165.751 40.3066C164.11 39.9872 162.736 39.2098 161.759 37.7853C160.911 36.5695 160.332 35.1872 160.059 33.7303C159.81 32.4519 159.724 31.1475 159.801 29.8475C159.883 28.5238 160.011 27.1938 160.486 25.9269C160.83 25.0087 161.013 24.0233 161.423 23.1388C161.921 22.0609 162.584 21.0587 163.169 20.0187C163.913 18.7257 164.87 17.5678 166.001 16.594C167.159 15.5728 168.425 14.6673 169.917 14.2134C170.898 13.9151 171.917 13.6251 172.978 13.7743C174.216 13.9466 175.414 14.2366 176.41 15.0518C177.47 15.9043 178.277 17.0314 178.742 18.3105C179.065 19.1997 179.289 20.1221 179.408 21.0608C179.578 22.5316 179.618 24.0023 179.696 25.4731L179.544 25.4626Z" fill="#5FFE9F"/>
<path d="M156.243 79.7798C156.481 79.2924 156.72 78.8049 156.955 78.3091C157.586 77.0001 158.229 75.6995 158.834 74.378C159.229 73.5144 159.58 72.6278 159.924 71.7432C160.22 70.9847 160.487 70.2158 160.75 69.4447C160.849 69.1568 160.895 68.8522 160.977 68.5559C161.248 67.5684 161.574 66.5935 161.79 65.5934C162.097 64.1773 162.393 62.7507 162.563 61.3114C162.703 60.0996 162.742 58.8781 162.679 57.6598C162.616 56.5678 162.453 55.484 162.191 54.422C161.981 53.4934 161.561 52.6088 161.246 51.7054C161.183 51.5331 161.12 51.3608 161.036 51.1948C160.405 49.8102 159.39 48.7113 158.371 47.623C157.834 47.0494 157.142 46.6187 156.51 46.1354C155.921 45.6473 155.302 45.1961 154.657 44.7845C153.791 44.2742 152.887 43.8317 151.953 43.4608C150.902 43.0574 149.818 42.7611 148.736 42.4586C147.87 42.2148 146.992 42.0005 146.11 41.8282C145.175 41.6518 144.229 41.5299 143.286 41.4206C142.462 41.324 141.624 41.3282 140.809 41.1958C138.42 40.8071 136.018 41.0992 133.625 41.0277C132.646 40.9983 131.663 41.1433 130.684 41.221C129.967 41.2757 129.249 41.3408 128.532 41.4311C127.692 41.5257 126.87 41.6413 126.049 41.7505L126.372 41.8556C125.883 41.8556 125.532 41.8283 125.191 41.8556C124.643 41.9102 124.097 42.0005 123.553 42.0846C122.782 42.2043 122.01 42.322 121.241 42.4586C119.802 42.7128 118.361 42.9544 116.928 43.2444C115.19 43.5994 113.457 43.9839 111.728 44.3831C110.732 44.6122 109.746 44.9021 108.755 45.1521C107.763 45.4022 106.759 45.669 105.74 45.9148C105.696 45.7341 105.668 45.6186 105.649 45.5387C106.49 45.1858 107.313 44.8181 108.156 44.4882C109.104 44.1184 110.066 43.7864 111.022 43.4377C111.978 43.0889 112.951 42.7317 113.921 42.3871C114.291 42.259 114.68 42.1917 115.054 42.0804C115.573 41.9228 116.083 41.7358 116.604 41.5866C117.655 41.2841 118.726 40.9941 119.787 40.7042C120.628 40.4773 121.449 40.2335 122.29 40.0444C123.164 39.8469 124.048 39.702 124.931 39.5381C126.028 39.328 127.122 39.1179 128.223 38.933C129.171 38.7754 130.133 38.6914 131.077 38.5128C132.295 38.2732 133.539 38.2585 134.749 38.0673C135.917 37.8824 137.06 37.9917 138.216 37.914C139.372 37.8362 140.47 37.7039 141.597 37.7039C142.945 37.7039 144.294 37.8194 145.641 37.914C146.295 37.956 146.95 38.019 147.597 38.1241C148.625 38.3153 149.656 38.5254 150.688 38.7145C151.175 38.8048 151.669 38.8615 152.159 38.9582C152.911 39.1074 153.661 39.2671 154.405 39.4477C155.034 39.5876 155.655 39.7629 156.264 39.973C157.271 40.3205 158.256 40.7289 159.214 41.1958C160.215 41.7105 161.17 42.3079 162.071 42.9817C163.815 44.2907 165.412 45.7593 166.469 47.7154C166.908 48.5307 167.408 49.3143 167.791 50.1548C168.03 50.6821 168.097 51.2872 168.249 51.8545C168.66 53.4345 168.795 55.0736 168.648 56.6996C168.53 57.9169 168.334 59.1254 168.062 60.3176C167.828 61.406 167.595 62.5174 167.167 63.5281C166.45 65.232 165.595 66.8772 164.763 68.5307C164.343 69.348 163.891 70.1443 163.406 70.9217C162.939 71.6676 162.424 72.3925 161.912 73.1026C161.168 74.1532 160.428 75.1911 159.647 76.2038C158.962 77.0883 158.218 77.9288 157.504 78.7902C157.266 79.0781 157.044 79.3785 156.794 79.6537C156.673 79.7565 156.54 79.8446 156.399 79.9164L156.243 79.7798Z" fill="#5FFE9F"/>
<path d="M141.312 25.7083C141.312 25.7567 141.285 25.8281 141.249 25.9773V22.105L141.344 22.479C141.379 22.1239 141.394 21.8823 141.428 21.6386C141.701 19.6909 142.258 17.8567 143.417 16.2241C143.978 15.432 144.569 14.6903 145.361 14.1378C146.029 13.6734 146.701 13.1923 147.565 13.1251C148.12 13.0809 148.674 13.0011 149.229 12.9402C149.744 12.8834 150.17 13.1503 150.637 13.2994C151.781 13.6833 152.782 14.4049 153.509 15.369C154.117 16.1698 154.643 17.0292 155.08 17.9344C155.707 19.192 156.098 20.5534 156.236 21.9516C156.488 24.309 156.351 26.6517 155.587 28.9146C154.94 30.8265 153.906 32.5095 152.32 33.7827C151.549 34.4401 150.596 34.8475 149.588 34.9509C149.256 34.9761 148.914 35.161 148.603 35.1043C147.258 34.8732 145.976 34.5118 144.93 33.5222C143.573 32.2704 142.575 30.679 142.039 28.9125C141.863 28.32 141.736 27.7128 141.602 27.1098C141.48 26.6433 141.405 26.1727 141.312 25.7083Z" fill="#5FFE9F"/>
<path d="M132.333 35.1152C132.108 35.1458 131.88 35.1458 131.655 35.1152C130.465 34.7685 129.364 34.2748 128.471 33.3587C127.57 32.4345 126.857 31.3442 126.37 30.1483C126.027 29.3323 125.799 28.4724 125.694 27.5934C125.512 26.1752 125.458 24.7436 125.53 23.3156C125.601 22.3218 125.713 21.2545 126.423 20.3973C126.652 20.1199 126.673 19.6745 126.894 19.3866C127.354 18.7445 127.881 18.1535 128.467 17.6238C128.887 17.273 129.467 17.0839 130.007 16.9284C130.511 16.7799 131.036 16.716 131.56 16.7393C132.64 16.7929 133.673 17.198 134.501 17.8928C135.777 18.9365 136.76 20.2941 137.353 21.8323C137.682 22.7147 138.01 23.6287 138.046 24.6036C138.069 25.1961 138.199 25.7844 138.231 26.3769C138.295 27.7765 138.104 29.1761 137.668 30.5076C137.314 31.7086 136.668 32.8031 135.787 33.6928C135.157 34.3105 134.441 34.8022 133.529 34.9408C133.132 35.0018 132.743 35.1152 132.35 35.2056L132.333 35.1152Z" fill="#5FFE9F"/>
<path d="M123.517 33.0062C123.583 34.0624 123.351 35.1158 122.847 36.0464C122.057 37.6327 120.094 38.3345 118.434 37.7273C117.65 37.4659 116.941 37.019 116.367 36.4246C115.403 35.4344 114.67 34.2434 114.22 32.9368C113.819 31.7314 113.635 30.4645 113.676 29.1948C113.722 27.8502 114.113 26.6147 115.043 25.6566C116.056 24.6061 117.252 24.3246 118.67 24.8015C120.315 25.352 121.391 26.5433 122.21 27.9825C123.084 29.5079 123.622 31.1551 123.517 33.0062Z" fill="#5FFE9F"/>
<path d="M103.499 35.3733C103.615 34.8439 103.709 34.3081 103.85 33.7828C104.075 32.9424 105.018 32.2785 105.985 32.2427C107.144 32.2028 108.086 32.644 109.021 33.2765C110.445 34.2388 111.342 35.5624 111.937 37.1214C112.092 37.5269 112.109 37.985 112.2 38.4157C112.256 38.693 112.393 38.9704 112.384 39.2435C112.349 40.3928 112.006 41.4895 111.031 42.1262C110.529 42.4539 109.743 42.4959 109.111 42.4308C108.491 42.3474 107.904 42.1073 107.403 41.7333C106.597 41.1566 105.858 40.4921 105.199 39.7519C104.134 38.5249 103.61 37.0332 103.499 35.3733Z" fill="#5FFE9F"/>
</svg>
