<svg width="50" height="50" viewBox="0 0 50 50" fill="none" xmlns="http://www.w3.org/2000/svg">
<path d="M49.0898 0.443359H1.02564C0.87072 0.443359 0.599609 0.520636 0.599609 0.559274V49.2433H49.3996V0.559274C49.3996 0.520636 49.2447 0.443359 49.0898 0.443359ZM44.171 44.4909H6.25421C5.63453 44.4909 5.63453 44.4909 5.63453 43.8726V6.04589C5.63453 5.42768 5.63453 5.58223 6.25421 5.58223H44.1323C44.752 5.58223 44.752 5.42768 44.752 6.08453V43.8726C44.752 44.3363 44.6358 44.4909 44.171 44.4909ZM29.9183 34.1358C32.0872 34.754 34.2561 34.4449 36.425 34.1745C36.8898 34.1358 36.9672 33.8654 36.9672 33.4017V15.5509H34.0625V22.4285C32.4358 22.2739 30.9641 22.3126 29.531 22.9308C27.2072 23.8967 26.0453 26.0605 26.1615 29.1515C26.239 31.663 27.5945 33.479 29.9183 34.1358ZM30.3831 25.6741C31.4675 25.0559 32.5907 25.0945 33.7139 25.2491C33.7914 25.2491 33.9463 25.4422 33.9463 25.5582V31.7789C32.9006 31.9721 31.8936 32.0494 30.9253 31.7789C29.686 31.4312 28.9888 30.5038 28.8339 29.1129C28.7177 27.606 29.2987 26.2923 30.3831 25.6741ZM17.2536 34.2131L20.3907 27.4514L23.4117 34.2131H26.8587L22.3272 24.6308L26.8974 15.5122H23.5279L20.2745 21.8489L17.6409 15.5509L14.0777 15.5122L18.2606 25.1331L13.7679 34.2131H17.2536Z" fill="#DD80BC"/>
</svg>
