<svg width="50" height="50" viewBox="0 0 50 50" fill="none" xmlns="http://www.w3.org/2000/svg">
<path fill-rule="evenodd" clip-rule="evenodd" d="M0.599609 0.243164V48.9477C0.986908 48.9795 0.983035 49.0387 1.12595 49.0387C15.1729 49.043 29.269 49.043 43.3159 49.043C45.2501 49.043 47.1343 49.0445 49.0689 49.0387C49.1959 49.0383 49.3996 48.9795 49.3996 48.9477L49.3992 0.243164H0.599609ZM44.7516 24.6024V43.4005C44.7516 44.0541 44.6537 43.9949 44.0235 43.9949H6.3204C5.69026 43.9949 5.63449 44.0545 5.63449 43.4009V5.75665C5.63449 5.1027 5.69026 4.88936 6.36803 4.88936H43.9759C44.654 4.88936 44.7516 5.1027 44.7516 5.80428V24.6024ZM25.1598 15.4858C25.0769 15.2295 24.9227 15.2163 24.6977 15.2175C23.4917 15.2248 22.2852 15.2442 21.08 15.2175C20.6989 15.2093 20.5335 15.3236 20.4157 15.6949C18.7174 21.0322 17.0009 26.366 15.2906 31.6995C15.0118 32.5691 14.7418 33.4422 14.4444 34.3861C15.5718 34.3861 16.602 34.3707 17.6314 34.3962C17.9812 34.4047 18.1268 34.2897 18.2221 33.9602C18.6628 32.4409 19.14 30.9321 19.5765 29.4116C19.6791 29.0531 19.8452 28.9563 20.2058 28.9605C21.9192 28.9807 23.6334 28.9807 25.3468 28.9605C25.6803 28.9567 25.8158 29.0643 25.9103 29.3717C26.3801 30.9007 26.8794 32.4204 27.3488 33.9494C27.446 34.2653 27.568 34.3869 27.9324 34.3606C28.4391 34.3271 28.9468 34.312 29.4545 34.3153H31.233L31.2248 34.1871C29.2024 27.9508 27.1772 21.7237 25.1598 15.4858ZM20.3522 26.1844C21.1411 23.4742 21.9243 20.8227 22.6958 18.1914C23.4909 20.8134 24.2996 23.4742 25.1203 26.1844H20.3522ZM31.9708 34.3153H35.8438V20.3767H31.9708V34.3153ZM33.9348 14.7838C32.7872 14.785 31.9398 15.5996 31.9475 16.695C31.9553 17.7934 32.7694 18.5755 33.9061 18.5775C35.0878 18.579 35.9232 17.7973 35.915 16.6973C35.9065 15.5706 35.0913 14.7827 33.9348 14.7838Z" fill="#FAA625"/>
</svg>
