<svg width="58" height="58" viewBox="0 0 58 58" fill="none" xmlns="http://www.w3.org/2000/svg">
<path d="M20.7901 57.2863C26.0708 57.2863 30.3308 53.0263 30.3308 47.7457V38.2051H20.7901C15.5095 38.2051 11.2495 42.4651 11.2495 47.7457C11.2495 53.0263 15.5095 57.2863 20.7901 57.2863Z" fill="#0ACF83"/>
<path d="M11.2495 28.6646C11.2495 23.384 15.5095 19.124 20.7901 19.124H30.3308V38.2053H20.7901C15.5095 38.2053 11.2495 33.9453 11.2495 28.6646Z" fill="#A259FF"/>
<path d="M11.2495 9.58359C11.2495 4.30297 15.5095 0.0429688 20.7901 0.0429688H30.3308V19.1242H20.7901C15.5095 19.1242 11.2495 14.8642 11.2495 9.58359Z" fill="#F24E1E"/>
<path d="M30.3311 0.0429688H39.8717C45.1523 0.0429688 49.4123 4.30297 49.4123 9.58359C49.4123 14.8642 45.1523 19.1242 39.8717 19.1242H30.3311V0.0429688Z" fill="#FF7262"/>
<path d="M49.4123 28.6646C49.4123 33.9453 45.1523 38.2053 39.8717 38.2053C34.5911 38.2053 30.3311 33.9453 30.3311 28.6646C30.3311 23.384 34.5911 19.124 39.8717 19.124C45.1523 19.124 49.4123 23.384 49.4123 28.6646Z" fill="#1ABCFE"/>
</svg>
