<svg width="48" height="48" viewBox="0 0 48 48" fill="none" xmlns="http://www.w3.org/2000/svg">
<g clip-path="url(#clip0_1348_1018)">
<path d="M24.0002 47.32C22.9402 47.32 21.1002 46.78 17.6402 42.14C17.3685 41.7827 17.007 41.5037 16.5924 41.3316C16.1779 41.1595 15.7251 41.1002 15.2802 41.16C10.0002 42 8.4002 41.04 7.6802 40.34C6.9602 39.64 6.1002 38 6.8402 32.72C6.90422 32.2748 6.84698 31.8207 6.67451 31.4053C6.50204 30.99 6.22072 30.6289 5.8602 30.36C1.2202 26.9 0.700195 25.06 0.700195 24C0.700195 22.94 1.2202 21.1 5.8602 17.64C6.22072 17.3711 6.50204 17.01 6.67451 16.5947C6.84698 16.1793 6.90422 15.7251 6.8402 15.28C6.1002 9.95999 6.9602 8.37999 7.6802 7.65999C8.4002 6.93999 10.0002 5.99999 15.2802 6.83999C15.7251 6.89975 16.1779 6.84054 16.5924 6.66839C17.007 6.49624 17.3685 6.21731 17.6402 5.85999C21.1002 1.21999 22.9402 0.679993 24.0002 0.679993C25.0602 0.679993 26.9002 1.21999 30.3602 5.85999C30.6333 6.21575 30.995 6.49353 31.4092 6.66552C31.8234 6.83751 32.2754 6.89767 32.7202 6.83999C38.0402 6.07999 39.6002 6.95999 40.3202 7.65999C41.0402 8.35999 42.0002 9.99999 41.1602 15.28C41.0962 15.7251 41.1534 16.1793 41.3259 16.5947C41.4984 17.01 41.7797 17.3711 42.1402 17.64C46.7802 21.1 47.3002 22.94 47.3002 24C47.3002 25.06 46.7802 26.9 42.1402 30.36C41.7797 30.6289 41.4984 30.99 41.3259 31.4053C41.1534 31.8207 41.0962 32.2748 41.1602 32.72C41.9002 38.04 41.0402 39.62 40.3202 40.34C39.6002 41.06 38.0402 41.92 32.7202 41.16C32.2753 41.1002 31.8225 41.1595 31.408 41.3316C30.9934 41.5037 30.6319 41.7827 30.3602 42.14C26.9002 46.78 25.0602 47.32 24.0002 47.32ZM15.6402 38.14C16.4943 38.1384 17.337 38.3366 18.1009 38.7185C18.8649 39.1005 19.529 39.6558 20.0402 40.34C22.8402 44.08 24.0402 44.34 24.0402 44.34C24.0402 44.34 25.1802 44.1 28.0402 40.34C28.6325 39.5517 29.4259 38.9372 30.3372 38.5607C31.2485 38.1842 32.2442 38.0596 33.2202 38.2C37.3202 38.78 38.2602 38.2 38.3002 38.2C38.3402 38.2 38.8402 37.26 38.3002 33.14C38.1561 32.1794 38.2689 31.1978 38.6272 30.295C38.9855 29.3921 39.5766 28.6003 40.3402 28C44.0802 25.2 44.3402 24 44.3402 24C44.3402 24 44.1002 22.86 40.3402 20C39.5584 19.4111 38.9479 18.6243 38.5718 17.7208C38.1956 16.8172 38.0673 15.8297 38.2002 14.86C38.7602 10.74 38.2002 9.81999 38.2002 9.75999C36.5451 9.35081 34.8153 9.35081 33.1602 9.75999C32.191 9.90108 31.2018 9.78082 30.2946 9.41163C29.3875 9.04245 28.5954 8.43774 28.0002 7.65999C25.2002 3.91999 24.0002 3.65999 24.0002 3.65999C24.0002 3.65999 22.8602 3.89999 20.0002 7.65999C19.4113 8.44177 18.6245 9.05225 17.721 9.42844C16.8174 9.80463 15.8299 9.93289 14.8602 9.79999C10.8602 9.21999 9.8202 9.79999 9.7802 9.79999C9.7402 9.79999 9.2402 10.74 9.7802 14.86C9.91532 15.8278 9.79014 16.8142 9.41753 17.7176C9.04492 18.621 8.43834 19.4088 7.6602 20C3.9202 22.8 3.6602 24 3.6602 24C3.6602 24 3.9002 25.14 7.6602 28C8.44197 28.5889 9.05245 29.3757 9.42864 30.2792C9.80483 31.1828 9.93309 32.1703 9.8002 33.14C9.2402 37.26 9.8002 38.18 9.8002 38.24C11.4553 38.6492 13.1851 38.6492 14.8402 38.24C15.1038 38.1857 15.3713 38.1522 15.6402 38.14Z" fill="#00E024"/>
<path d="M22.0007 29.5C21.603 29.4996 21.2217 29.3414 20.9407 29.06L16.9407 25.06C16.6757 24.7756 16.5315 24.3996 16.5383 24.011C16.5452 23.6224 16.7026 23.2516 16.9774 22.9768C17.2523 22.7019 17.623 22.5445 18.0116 22.5376C18.4002 22.5308 18.7763 22.675 19.0607 22.94L22.0007 25.88L28.9407 18.94C29.225 18.675 29.6011 18.5308 29.9897 18.5376C30.3783 18.5445 30.7491 18.7019 31.0239 18.9768C31.2987 19.2516 31.4562 19.6224 31.463 20.011C31.4699 20.3996 31.3256 20.7756 31.0607 21.06L23.0607 29.06C22.7796 29.3414 22.3984 29.4996 22.0007 29.5Z" fill="#00E024"/>
</g>
<defs>
<clipPath id="clip0_1348_1018">
<rect width="48" height="48" fill="white"/>
</clipPath>
</defs>
</svg>
