<svg width="48" height="48" viewBox="0 0 48 48" fill="none" xmlns="http://www.w3.org/2000/svg">
<g id="verify 1" clip-path="url(#clip0_887_926)">
<g id="Layer 2">
<path id="Vector" d="M24 47.3201C22.94 47.3201 21.0999 46.7801 17.6399 42.1401C17.3683 41.7827 17.0067 41.5038 16.5922 41.3317C16.1776 41.1595 15.7248 41.1003 15.28 41.1601C9.99995 42.0001 8.39995 41.0401 7.67995 40.3401C6.95995 39.6401 6.09995 38.0001 6.83995 32.7201C6.90398 32.2749 6.84674 31.8207 6.67426 31.4054C6.50179 30.99 6.22047 30.6289 5.85995 30.3601C1.21995 26.9001 0.699951 25.0601 0.699951 24.0001C0.699951 22.9401 1.21995 21.1001 5.85995 17.6401C6.22047 17.3712 6.50179 17.0101 6.67426 16.5947C6.84674 16.1794 6.90398 15.7252 6.83995 15.2801C6.09995 9.96005 6.95995 8.38005 7.67995 7.66005C8.39995 6.94005 9.99995 6.00005 15.28 6.84005C15.7248 6.89981 16.1776 6.8406 16.5922 6.66845C17.0067 6.4963 17.3683 6.21737 17.6399 5.86005C21.0999 1.22005 22.94 0.680054 24 0.680054C25.0599 0.680054 26.9 1.22005 30.36 5.86005C30.633 6.21581 30.9947 6.49359 31.4089 6.66558C31.8231 6.83757 32.2752 6.89773 32.72 6.84005C38.04 6.08005 39.5999 6.96005 40.32 7.66005C41.04 8.36005 42 10.0001 41.16 15.2801C41.0959 15.7252 41.1532 16.1794 41.3256 16.5947C41.4981 17.0101 41.7794 17.3712 42.1399 17.6401C46.7799 21.1001 47.2999 22.9401 47.2999 24.0001C47.2999 25.0601 46.7799 26.9001 42.1399 30.3601C41.7794 30.6289 41.4981 30.99 41.3256 31.4054C41.1532 31.8207 41.0959 32.2749 41.16 32.7201C41.9 38.0401 41.04 39.6201 40.32 40.3401C39.5999 41.0601 38.04 41.9201 32.72 41.1601C32.2751 41.1003 31.8223 41.1595 31.4077 41.3317C30.9932 41.5038 30.6316 41.7827 30.36 42.1401C26.9 46.7801 25.0599 47.3201 24 47.3201ZM15.64 38.1401C16.4941 38.1385 17.3367 38.3366 18.1007 38.7186C18.8646 39.1006 19.5287 39.6558 20.04 40.3401C22.84 44.0801 24.04 44.3401 24.04 44.3401C24.04 44.3401 25.18 44.1001 28.04 40.3401C28.6323 39.5518 29.4256 38.9372 30.3369 38.5607C31.2482 38.1843 32.244 38.0597 33.22 38.2001C37.32 38.7801 38.2599 38.2001 38.2999 38.2001C38.34 38.2001 38.84 37.2601 38.2999 33.1401C38.1558 32.1795 38.2687 31.1979 38.627 30.295C38.9853 29.3922 39.5763 28.6004 40.34 28.0001C44.08 25.2001 44.34 24.0001 44.34 24.0001C44.34 24.0001 44.0999 22.8601 40.34 20.0001C39.5582 19.4112 38.9477 18.6244 38.5715 17.7208C38.1953 16.8173 38.0671 15.8297 38.2 14.8601C38.76 10.7401 38.2 9.82006 38.2 9.76005C36.5449 9.35087 34.815 9.35087 33.16 9.76005C32.1908 9.90114 31.2015 9.78088 30.2944 9.41169C29.3873 9.04251 28.5952 8.43781 28 7.66005C25.2 3.92005 24 3.66005 24 3.66005C24 3.66005 22.86 3.90005 20 7.66005C19.4111 8.44183 18.6243 9.05231 17.7207 9.4285C16.8172 9.80469 15.8296 9.93295 14.86 9.80005C10.86 9.22005 9.81995 9.80005 9.77995 9.80005C9.73995 9.80005 9.23995 10.7401 9.77995 14.8601C9.91508 15.8279 9.78989 16.8143 9.41728 17.7177C9.04467 18.6211 8.43809 19.4089 7.65995 20.0001C3.91995 22.8001 3.65995 24.0001 3.65995 24.0001C3.65995 24.0001 3.89995 25.1401 7.65995 28.0001C8.44173 28.5889 9.05221 29.3757 9.4284 30.2793C9.80458 31.1828 9.93285 32.1704 9.79995 33.1401C9.23995 37.2601 9.79995 38.1801 9.79995 38.2401C11.455 38.6492 13.1849 38.6492 14.84 38.2401C15.1036 38.1857 15.3711 38.1523 15.64 38.1401Z" fill="#00E024"/>
<path id="Vector_2" d="M21.9999 29.5001C21.6022 29.4997 21.221 29.3414 20.9399 29.0601L16.9399 25.0601C16.675 24.7757 16.5307 24.3996 16.5376 24.011C16.5444 23.6224 16.7019 23.2516 16.9767 22.9768C17.2515 22.702 17.6223 22.5446 18.0109 22.5377C18.3995 22.5309 18.7756 22.6751 19.0599 22.9401L21.9999 25.8801L28.9399 18.9401C29.2243 18.6751 29.6004 18.5309 29.989 18.5377C30.3776 18.5446 30.7484 18.702 31.0232 18.9768C31.298 19.2516 31.4554 19.6224 31.4623 20.011C31.4691 20.3996 31.3249 20.7757 31.0599 21.0601L23.0599 29.0601C22.7789 29.3414 22.3976 29.4997 21.9999 29.5001Z" fill="#00E024"/>
</g>
</g>
<defs>
<clipPath id="clip0_887_926">
<rect width="48" height="48" fill="white"/>
</clipPath>
</defs>
</svg>
