<svg width="24" height="24" viewBox="0 0 24 24" fill="none" xmlns="http://www.w3.org/2000/svg">
<path d="M15.7864 7.97168C14.7601 8.18598 13.6605 8.31284 12.5273 8.34301V11.4725H16.2365C16.2023 10.2399 16.0485 9.05479 15.7864 7.97168Z" fill="#191A15"/>
<path d="M6.70818 11.4727C6.74295 10.157 6.90757 8.88736 7.1897 7.72197C6.26579 7.46263 5.42047 7.12734 4.68738 6.72437C3.68331 8.10989 3.09898 9.74534 3 11.4727H6.70818Z" fill="#191A15"/>
<path d="M6.70818 12.5273H3C3.09898 14.2547 3.68331 15.8901 4.68734 17.2756C5.42043 16.8727 6.26579 16.5374 7.1897 16.278C6.90757 15.1126 6.74292 13.843 6.70818 12.5273Z" fill="#191A15"/>
<path d="M13.5166 3.60945C13.1941 3.33664 12.863 3.15286 12.5273 3.05859V7.2881C13.563 7.25927 14.5649 7.1457 15.4989 6.95583C15.3275 6.43194 15.1283 5.93988 14.9022 5.48782C14.4961 4.67569 14.0299 4.04368 13.5166 3.60945Z" fill="#191A15"/>
<path d="M7.47307 17.2917C6.70099 17.5086 5.99145 17.782 5.36816 18.1068C5.45185 18.1974 5.53707 18.2871 5.62483 18.3749C6.63875 19.3888 7.85164 20.1313 9.17546 20.5663C8.80463 20.128 8.46167 19.5987 8.15416 18.9836C7.89394 18.4632 7.66635 17.8959 7.47307 17.2917Z" fill="#191A15"/>
<path d="M9.09765 5.48782C8.87164 5.93988 8.67238 6.43194 8.50098 6.95583C9.43497 7.1457 10.4369 7.25927 11.4725 7.2881V3.05859C11.1368 3.15289 10.8057 3.33664 10.4832 3.60945C9.9699 4.04368 9.50375 4.67569 9.09765 5.48782Z" fill="#191A15"/>
<path d="M17.2916 12.5273C17.2568 13.843 17.0922 15.1126 16.8101 16.278C17.734 16.5374 18.5793 16.8727 19.3124 17.2756C20.3165 15.8901 20.9007 14.2547 20.9998 12.5273H17.2916Z" fill="#191A15"/>
<path d="M16.5271 6.70811C17.2992 6.49127 18.0088 6.21787 18.632 5.89309C18.5483 5.80241 18.4631 5.71279 18.3753 5.62503C17.3615 4.61115 16.1485 3.8686 14.8247 3.43359C15.1955 3.8719 15.5385 4.40124 15.846 5.01623C16.1062 5.53667 16.3339 6.10402 16.5271 6.70811Z" fill="#191A15"/>
<path d="M14.9022 18.512C15.1283 18.0599 15.3275 17.5678 15.4989 17.0439C14.5649 16.8541 13.563 16.7405 12.5273 16.7117V20.9412C12.863 20.8469 13.1941 20.6632 13.5166 20.3903C14.03 19.9561 14.4961 19.3242 14.9022 18.512Z" fill="#191A15"/>
<path d="M16.8101 7.72193C17.0922 8.88732 17.2568 10.157 17.2916 11.4726H20.9998C20.9008 9.7453 20.3165 8.10986 19.3124 6.72437C18.5793 7.1273 17.734 7.46259 16.8101 7.72193Z" fill="#191A15"/>
<path d="M12.5273 12.5273V15.6569C13.6605 15.687 14.76 15.8139 15.7864 16.0282C16.0485 14.945 16.2023 13.76 16.2365 12.5273H12.5273Z" fill="#191A15"/>
<path d="M11.4723 11.4725V8.34301C10.3392 8.31284 9.23967 8.18598 8.21327 7.97168C7.95115 9.05483 7.79736 10.2399 7.76318 11.4725H11.4723Z" fill="#191A15"/>
<path d="M7.47307 6.70811C7.66631 6.10398 7.89394 5.53667 8.15416 5.01623C8.46167 4.40124 8.80463 3.87187 9.17546 3.43359C7.85168 3.8686 6.63875 4.61115 5.62483 5.62506C5.53707 5.71283 5.45185 5.80245 5.36816 5.89313C5.99145 6.21787 6.70099 6.49127 7.47307 6.70811Z" fill="#191A15"/>
<path d="M16.5271 17.2917C16.3339 17.8959 16.1062 18.4632 15.846 18.9836C15.5385 19.5986 15.1955 20.128 14.8247 20.5663C16.1485 20.1313 17.3614 19.3888 18.3753 18.3749C18.4631 18.2871 18.5483 18.1975 18.632 18.1068C18.0087 17.782 17.2992 17.5086 16.5271 17.2917Z" fill="#191A15"/>
<path d="M11.4723 12.5273H7.76318C7.79736 13.76 7.95115 14.9451 8.21327 16.0282C9.23963 15.8139 10.3392 15.687 11.4723 15.6569V12.5273Z" fill="#191A15"/>
<path d="M10.4832 20.3903C10.8057 20.6631 11.1369 20.8469 11.4725 20.9412V16.7117C10.4369 16.7405 9.43497 16.8541 8.50098 17.0439C8.67238 17.5678 8.8716 18.0599 9.09765 18.512C9.50375 19.3241 9.9699 19.9561 10.4832 20.3903Z" fill="#191A15"/>
</svg>