<svg width="25" height="24" viewBox="0 0 25 24" fill="none" xmlns="http://www.w3.org/2000/svg">
<g id="Iconly/Light-Outline/Work">
<g id="Work">
<path id="Fill 1" fill-rule="evenodd" clip-rule="evenodd" d="M12.4951 17.4267C12.0811 17.4267 11.7451 17.0907 11.7451 16.6767V14.1397C11.7451 13.7257 12.0811 13.3897 12.4951 13.3897C12.9091 13.3897 13.2451 13.7257 13.2451 14.1397V16.6767C13.2451 17.0907 12.9091 17.4267 12.4951 17.4267" fill="#CFCFCF"/>
<g id="Group 5">
<mask id="mask0_878_2283" style="mask-type:luminance" maskUnits="userSpaceOnUse" x="2" y="4" width="21" height="11">
<path id="Clip 4" fill-rule="evenodd" clip-rule="evenodd" d="M2.5002 4.57996H22.49V14.891H2.5002V4.57996Z" fill="white"/>
</mask>
<g mask="url(#mask0_878_2283)">
<path id="Fill 3" fill-rule="evenodd" clip-rule="evenodd" d="M4.0002 11.393C6.3762 12.684 9.3722 13.391 12.4902 13.391C15.6142 13.391 18.6132 12.684 20.9902 11.393V8.39096C20.9902 7.11596 19.9592 6.07996 18.6902 6.07996H6.3102C5.0362 6.07996 4.0002 7.11196 4.0002 8.38096V11.393ZM12.4902 14.891C8.9452 14.891 5.5282 14.033 2.8712 12.477C2.6412 12.343 2.5002 12.097 2.5002 11.83V8.38096C2.5002 6.28496 4.2092 4.57996 6.3102 4.57996H18.6902C20.7862 4.57996 22.4902 6.28896 22.4902 8.39096V11.83C22.4902 12.097 22.3482 12.343 22.1192 12.477C19.4622 14.033 16.0422 14.891 12.4902 14.891V14.891Z" fill="#CFCFCF"/>
</g>
</g>
<g id="Group 8">
<mask id="mask1_878_2283" style="mask-type:luminance" maskUnits="userSpaceOnUse" x="8" y="2" width="9" height="5">
<path id="Clip 7" fill-rule="evenodd" clip-rule="evenodd" d="M8.2451 2.00018H16.7451V6.07608H8.2451V2.00018Z" fill="white"/>
</mask>
<g mask="url(#mask1_878_2283)">
<path id="Fill 6" fill-rule="evenodd" clip-rule="evenodd" d="M15.9951 6.07606C15.5811 6.07606 15.2451 5.74006 15.2451 5.32606V4.96006C15.2451 4.15506 14.5901 3.50006 13.7851 3.50006H11.2051C10.4001 3.50006 9.7451 4.15506 9.7451 4.96006V5.32606C9.7451 5.74006 9.4091 6.07606 8.9951 6.07606C8.5811 6.07606 8.2451 5.74006 8.2451 5.32606V4.96006C8.2451 3.32806 9.5731 2.00006 11.2051 2.00006H13.7851C15.4171 2.00006 16.7451 3.32806 16.7451 4.96006V5.32606C16.7451 5.74006 16.4091 6.07606 15.9951 6.07606" fill="#CFCFCF"/>
</g>
</g>
<path id="Fill 9" fill-rule="evenodd" clip-rule="evenodd" d="M18.2949 21.7402H6.6949C4.6199 21.7402 2.8729 20.1192 2.7159 18.0492L2.5259 15.5402C2.4949 15.1272 2.8049 14.7662 3.2179 14.7352C3.6329 14.7202 3.9909 15.0132 4.0229 15.4272L4.2119 17.9352C4.3099 19.2272 5.3999 20.2402 6.6949 20.2402H18.2949C19.5899 20.2402 20.6809 19.2272 20.7779 17.9352L20.9679 15.4272C20.9999 15.0132 21.3669 14.7192 21.7729 14.7352C22.1859 14.7662 22.4949 15.1272 22.4639 15.5402L22.2739 18.0492C22.1169 20.1192 20.3699 21.7402 18.2949 21.7402" fill="#CFCFCF"/>
</g>
</g>
</svg>
