<svg width="41" height="40" viewBox="0 0 41 40" fill="none" xmlns="http://www.w3.org/2000/svg">
<path d="M20.9378 0C9.854 0 0.875 8.95091 0.875 20C0.875 31.0491 9.854 40 20.9378 40C32.0215 40 41.0005 31.0491 41.0005 20C41.0005 8.95091 32.0022 0 20.9378 0Z" fill="white"/>
<path d="M21.9785 29.1062V10.7424H25.0294V29.1062H21.9785ZM32.2513 10.7424H35.3022V29.1062H32.2513L26.0529 18.2497V12.5134L32.2513 23.4085V10.7424Z" fill="#00218F"/>
<path d="M12.5381 26.7575L16.0718 10.7421H17.269V17.4601L14.5077 29.3947H10.5492L5.81836 10.7229H9.25548L12.5381 26.7575ZM26.3639 10.7421H29.801L24.7805 29.4139H20.8413L18.3117 17.9414V10.7421H19.5282L22.8109 26.7575L26.3639 10.7421Z" fill="#00218F"/>
</svg>
