<svg xmlns="http://www.w3.org/2000/svg" width="88" height="82" viewBox="0 0 88 82">
    <g fill="none" fill-rule="nonzero">
        <path fill="#789DB5" d="M80.666 14.643H60.133V7.322C60.128 3.28 56.848.005 52.8 0H35.2c-4.048.005-7.328 3.28-7.333 7.322v7.32H7.334c-4.049.005-7.33 3.28-7.334 7.322v52.714C.005 78.72 3.285 81.995 7.334 82h73.332c4.049-.005 7.33-3.28 7.334-7.322V21.964c-.005-4.041-3.285-7.317-7.334-7.321zM30.8 7.322a4.397 4.397 0 0 1 4.4-4.394h17.6c2.43 0 4.4 1.967 4.4 4.394v7.32h-2.933v-7.32c0-.81-.657-1.465-1.467-1.465H35.2c-.81 0-1.467.656-1.467 1.465v7.32H30.8v-7.32zm5.866 7.32V8.786h14.668v5.858H36.666zM2.933 21.965a4.397 4.397 0 0 1 4.4-4.392h73.333c2.43 0 4.4 1.966 4.4 4.392v15.153L51.334 51.934V48.32c0-.808-.657-1.464-1.467-1.464H38.133c-.81 0-1.467.656-1.467 1.464v3.613L2.933 37.117V21.964zM48.4 52.714h-8.8v-2.928h8.8v2.928zm-8.8 2.929h8.8v4.393a4.396 4.396 0 0 1-4.4 4.392c-2.43 0-4.4-1.966-4.4-4.392v-4.393zm41.066 23.429H7.334c-2.43 0-4.4-1.967-4.4-4.394V40.316l33.732 14.819v4.9c0 4.044 3.284 7.322 7.334 7.322s7.334-3.278 7.334-7.321v-4.901l33.732-14.819v34.362a4.396 4.396 0 0 1-4.4 4.394z"/>
        <path fill="#CF2C40" d="M42.4 58.117h3.2V61.3h-3.2z"/>
    </g>
</svg>
