<svg xmlns="http://www.w3.org/2000/svg" width="90" height="88" viewBox="0 0 90 88">
    <g fill="none" fill-rule="nonzero">
        <path fill="#789DB5" d="M90 1.48A1.49 1.49 0 0 0 88.475 0H1.525A1.49 1.49 0 0 0 0 1.48v71.757a1.577 1.577 0 0 0 1.525 1.582h20.91l.732 1.64c.261.587.867.946 1.51.892l3.063-.232a20.656 20.656 0 0 0 3.952 3.755l-.09 3.05a1.523 1.523 0 0 0 .976 1.466l6.507 2.508a1.527 1.527 0 0 0 1.704-.427l1.987-2.299c1.815.17 3.643.122 5.447-.14l2.126 2.214a1.527 1.527 0 0 0 1.713.341l6.393-2.793c.593-.259.958-.863.91-1.507l-.225-3.058a20.634 20.634 0 0 0 3.764-3.948l3.058.09a1.491 1.491 0 0 0 1.468-.944l.247-.608h20.798A1.577 1.577 0 0 0 90 73.237V17.625v-.015V1.48zm-3.05 1.567v13.136H3.05V3.047h83.9zM62.17 73.212a1.518 1.518 0 0 0-1.314.678 17.656 17.656 0 0 1-4.205 4.408c-.42.31-.652.815-.614 1.336l.206 2.8-4.429 1.935-1.944-2.025a1.526 1.526 0 0 0-1.376-.444c-2.03.37-4.105.424-6.15.158a1.525 1.525 0 0 0-1.352.515l-1.81 2.095-4.498-1.732.083-2.8a1.523 1.523 0 0 0-.679-1.311 17.66 17.66 0 0 1-4.415-4.198 1.528 1.528 0 0 0-1.338-.613l-2.806.205-.603-1.377a1.51 1.51 0 0 0-.184-.42l-1.15-2.625 2.028-1.942c.37-.354.537-.87.445-1.372a19.82 19.82 0 0 1-.159-6.142 1.525 1.525 0 0 0-.516-1.35l-2.097-1.806 1.734-4.491 2.804.082a1.518 1.518 0 0 0 1.314-.677 17.63 17.63 0 0 1 4.204-4.409c.421-.31.653-.815.615-1.336l-.207-2.8 4.43-1.935 1.945 2.025c.354.37.871.536 1.375.444a19.919 19.919 0 0 1 6.151-.158 1.53 1.53 0 0 0 1.352-.516l1.81-2.094 4.498 1.732-.082 2.798c-.016.525.24 1.021.678 1.313a17.631 17.631 0 0 1 4.415 4.198c.311.42.816.65 1.337.613l2.805-.206 1.939 4.422-2.03 1.941c-.369.354-.536.87-.444 1.373.372 2.027.425 4.098.16 6.141a1.52 1.52 0 0 0 .516 1.35l2.097 1.807-1.736 4.491-2.803-.08zm6.684-1.439l1.087-2.844a1.545 1.545 0 0 0-.427-1.716l-2.302-1.99c.17-1.814.123-3.641-.141-5.443l2.218-2.125a1.524 1.524 0 0 0 .341-1.71l-2.797-6.384a1.525 1.525 0 0 0-1.509-.91l-3.064.225a20.65 20.65 0 0 0-3.95-3.759l.09-3.053a1.525 1.525 0 0 0-.976-1.465l-6.508-2.508a1.528 1.528 0 0 0-1.704.426l-1.987 2.3a22.945 22.945 0 0 0-5.448.14l-2.126-2.215a1.527 1.527 0 0 0-1.713-.34l-6.393 2.792a1.523 1.523 0 0 0-.91 1.507l.225 3.059a20.675 20.675 0 0 0-3.764 3.946l-3.058-.089a1.52 1.52 0 0 0-1.468.974l-2.51 6.497c-.232.6-.062 1.281.426 1.701l2.303 1.985a22.825 22.825 0 0 0 .14 5.437l-2.217 2.124a1.567 1.567 0 0 0-.341 1.74l.73 1.698H3.05V19.23h83.898v52.544H68.854z"/>
        <path fill="#CF2C40" d="M20.09 14.4c2.658 0 4.82-2.153 4.82-4.8s-2.162-4.8-4.82-4.8c-2.66 0-4.822 2.153-4.822 4.8s2.163 4.8 4.821 4.8zm0-6.541c.908 0 1.647.78 1.647 1.74 0 .959-.739 1.74-1.648 1.74-.908 0-1.648-.78-1.648-1.74s.74-1.74 1.648-1.74zM29.732 14.4c2.658 0 4.822-2.153 4.822-4.8s-2.163-4.8-4.822-4.8c-2.66 0-4.821 2.153-4.821 4.8s2.162 4.8 4.82 4.8zm0-6.541c.908 0 1.647.78 1.647 1.74 0 .959-.739 1.74-1.647 1.74-.91 0-1.647-.78-1.647-1.74s.738-1.74 1.647-1.74zM9.642 14.4c2.659 0 4.822-2.153 4.822-4.8s-2.162-4.8-4.822-4.8c-2.659 0-4.82 2.153-4.82 4.8 0 2.646 2.162 4.8 4.82 4.8zm0-6.541c.909 0 1.649.78 1.649 1.74 0 .959-.74 1.74-1.649 1.74-.908 0-1.647-.78-1.647-1.74s.74-1.74 1.647-1.74zM45.402 48c-8.21 0-14.866 6.626-14.866 14.8s6.656 14.8 14.866 14.8 14.866-6.626 14.866-14.8c-.01-8.17-6.66-14.79-14.866-14.8zm0 26.524c-6.504 0-11.776-5.25-11.776-11.724 0-6.475 5.272-11.724 11.776-11.724 6.503 0 11.776 5.25 11.776 11.724-.007 6.472-5.276 11.716-11.776 11.724z"/>
        <path fill="#789DB5" d="M45 56c-3.994 0-7.232 3.224-7.232 7.2s3.238 7.2 7.232 7.2c3.995 0 7.232-3.223 7.232-7.2-.004-3.974-3.24-7.195-7.232-7.2zm0 11.404c-2.332 0-4.222-1.883-4.222-4.204 0-2.321 1.89-4.204 4.222-4.204 2.333 0 4.222 1.883 4.222 4.204-.002 2.32-1.89 4.2-4.222 4.204z"/>
    </g>
</svg>
