<svg xmlns="http://www.w3.org/2000/svg" width="90" height="87" viewBox="0 0 90 87">
    <g fill="none" fill-rule="nonzero">
        <path fill="#779EB7" stroke="#979797" stroke-width=".8" d="M85.11 1H19.556c-2.145 0-3.89 1.752-3.89 3.906v13.761H4.89c-2.146 0-3.89 1.752-3.89 3.906V87l13.807-13.86h51.237c2.145 0 3.89-1.752 3.89-3.906V59.89h5.259L89 73.75V4.906C89 2.752 87.256 1 85.11 1zM67 69.234a.96.96 0 0 1-.956.962H13.593l-9.66 9.696v-57.32c0-.53.43-.96.957-.96h61.154a.96.96 0 0 1 .956.96v46.662zm19.067-2.592l-9.66-9.697h-6.474V22.573c0-2.154-1.744-3.906-3.89-3.906H18.6V4.906c0-.53.43-.962.956-.962H85.11a.96.96 0 0 1 .958.962v61.736z"/>
        <path fill="#D03C4E" d="M16.886 35.56h17.828c.822 0 1.486-.54 1.486-1.205s-.664-1.205-1.486-1.205H16.886c-.822 0-1.486.54-1.486 1.205 0 .666.664 1.206 1.486 1.206z"/>
        <path fill="#D2394D" d="M53.919 43.598H16.88c-.819 0-1.481.54-1.481 1.206 0 .665.662 1.205 1.481 1.205H53.92c.819 0 1.481-.54 1.481-1.205 0-.666-.662-1.206-1.481-1.206z"/>
        <path fill="#D24355" d="M53.919 54.047H16.88c-.819 0-1.481.54-1.481 1.205 0 .666.662 1.206 1.481 1.206H53.92c.819 0 1.481-.54 1.481-1.206 0-.665-.662-1.205-1.481-1.205z"/>
    </g>
</svg>
