<svg xmlns="http://www.w3.org/2000/svg" width="88" height="88" viewBox="0 0 88 88">
    <g fill="none" fill-rule="nonzero">
        <path fill="#79A2BD" d="M60.53 46.2a4.505 4.505 0 0 0-4.085-1.258L36.43 24.788l3.879-3.905a1.61 1.61 0 0 0 0-2.266l-.982-.988L54.052 2.802a1.61 1.61 0 0 0 .365-1.695A1.593 1.593 0 0 0 53.036.07a29.71 29.71 0 0 0-22.803 8.402l-.987-.993a1.586 1.586 0 0 0-2.25 0L11.194 23.39a1.61 1.61 0 0 0 0 2.266l1.523 1.532-2.79 2.809-1.522-1.533a1.583 1.583 0 0 0-2.25 0L.466 34.192a1.608 1.608 0 0 0 0 2.266l11.062 11.138a1.58 1.58 0 0 0 2.25 0l5.689-5.729a1.607 1.607 0 0 0 0-2.265l-1.523-1.533 2.789-2.809 1.523 1.534a1.586 1.586 0 0 0 2.25 0l3.878-3.906 20.018 20.156a4.6 4.6 0 0 0 1.248 4.112l23.739 23.902a4.505 4.505 0 0 0 3.217 1.342 4.505 4.505 0 0 0 3.217-1.342l4.447-4.477a4.61 4.61 0 0 0 0-6.479L60.53 46.2zM49.084 3.273l-12.007 12.09-4.594-4.626a26.56 26.56 0 0 1 16.601-7.464zm-36.43 40.924L3.84 35.325l3.44-3.462 8.81 8.871-3.438 3.463zm3.04-8.394l-3.515-3.54 2.789-2.809 3.516 3.54-2.79 2.809zm7.688-2.408l-8.812-8.872 13.552-13.645 8.811 8.872-13.551 13.645zm10.798-6.341l19.466 19.6-3.544 3.569-19.466-19.6 3.544-3.57zm47.84 47.261l-4.446 4.477c-.258.26-.602.404-.967.404-.366 0-.71-.144-.967-.404L51.9 54.89a1.386 1.386 0 0 1 0-1.946l4.448-4.48c.258-.259.6-.402.966-.402.365 0 .708.144.967.404l23.738 23.902a1.386 1.386 0 0 1 0 1.947z"/>
        <path fill="#D2394D" d="M52.48 36.025a1.55 1.55 0 0 0 0 2.241c.638.62 1.674.62 2.313 0l3.494-3.384c4.147-4.017 6.161-9.478 5.526-14.984-.38-3.3.934-6.582 3.515-8.78.74-.63 1.569-1.153 2.459-1.554l-1.345 4.174a6.541 6.541 0 0 0 .483 5.166c.868 1.604 2.33 2.783 4.113 3.323 3.683 1.113 7.615-.885 8.764-4.452l1.389-4.312a9.854 9.854 0 0 1 1.536 5.143c.045 2.774-1.046 5.382-3.07 7.344a10.426 10.426 0 0 1-4.189 2.483c-2.96.923-5.658 2.507-7.8 4.582l-8.549 8.28a1.55 1.55 0 0 0 0 2.24c.32.31.739.465 1.157.465.419 0 .838-.155 1.157-.464l8.548-8.28c1.777-1.72 4.02-3.037 6.49-3.807a13.877 13.877 0 0 0 5.5-3.259c2.656-2.573 4.087-5.995 4.027-9.634-.059-3.64-1.604-7.019-4.349-9.515a1.674 1.674 0 0 0-1.536-.377c-.545.138-.977.54-1.145 1.06l-2.29 7.107c-.611 1.9-2.705 2.963-4.665 2.37a3.675 3.675 0 0 1-2.19-1.769 3.483 3.483 0 0 1-.257-2.75l2.263-7.026a1.547 1.547 0 0 0-.327-1.51 1.666 1.666 0 0 0-1.498-.525 13.86 13.86 0 0 0-6.836 3.117c-3.384 2.88-5.105 7.184-4.607 11.511.524 4.544-1.148 9.06-4.588 12.392l-3.494 3.384z"/>
        <path fill="#CF2C40" d="M45.319 58.82c-3.98 4.002-5.913 9.444-5.304 14.932a10.19 10.19 0 0 1-3.374 8.749 9.89 9.89 0 0 1-2.36 1.548l1.291-4.16a6.744 6.744 0 0 0-.464-5.147 6.682 6.682 0 0 0-3.947-3.311 6.638 6.638 0 0 0-5.12.466 6.701 6.701 0 0 0-3.292 3.97l-1.333 4.297a10.091 10.091 0 0 1-1.475-5.126 10.071 10.071 0 0 1 2.947-7.318 9.933 9.933 0 0 1 4.02-2.474c2.842-.92 5.431-2.5 7.488-4.567l8.336-8.384a1.585 1.585 0 0 0 0-2.233 1.564 1.564 0 0 0-2.22 0l-8.337 8.384c-1.705 1.715-3.86 3.027-6.229 3.794a13.223 13.223 0 0 0-5.278 3.247 13.213 13.213 0 0 0-3.866 9.602 13.223 13.223 0 0 0 4.174 9.482c.394.372.952.514 1.474.376a1.574 1.574 0 0 0 1.1-1.057l2.197-7.082a3.567 3.567 0 0 1 1.753-2.114 3.535 3.535 0 0 1 2.726-.248 3.558 3.558 0 0 1 2.101 1.762 3.59 3.59 0 0 1 .247 2.741l-2.172 7.002a1.586 1.586 0 0 0 .314 1.505 1.567 1.567 0 0 0 1.438.523 13.084 13.084 0 0 0 6.561-3.106 13.36 13.36 0 0 0 4.421-11.471c-.502-4.528 1.103-9.03 4.404-12.35a1.585 1.585 0 0 0 0-2.232 1.564 1.564 0 0 0-2.221 0z"/>
    </g>
</svg>
